0
SECTION
2
HEADER
9
$INSUNITS
70
4
9
$ACADVER
1
AC1014
9
$HANDSEED
5
FFFF
0
ENDSEC
0
SECTION
2
TABLES
0
TABLE
2
VPORT
5
8
100
AcDbSymbolTable
0
ENDTAB
0
TABLE
2
LTYPE
5
5
100
AcDbSymbolTable
0
LTYPE
5
14
100
AcDbSymbolTableRecord
100
AcDbLinetypeTableRecord
2
BYBLOCK
70
0
0
LTYPE
5
15
100
AcDbSymbolTableRecord
100
AcDbLinetypeTableRecord
2
BYLAYER
70
0
0
ENDTAB
0
TABLE
2
LAYER
5
2
100
AcDbSymbolTable
70
2
0
LAYER
5
50
100
AcDbSymbolTableRecord
100
AcDbLayerTableRecord
2
0
70
0
6
CONTINUOUS
0
ENDTAB
0
TABLE
2
STYLE
5
3
100
AcDbSymbolTable
70
1
0
STYLE
5
11
100
AcDbSymbolTableRecord
100
AcDbTextStyleTableRecord
2
STANDARD
70
0
0
ENDTAB
0
TABLE
2
VIEW
5
6
100
AcDbSymbolTable
70
0
0
ENDTAB
0
TABLE
2
UCS
5
7
100
AcDbSymbolTable
70
0
0
ENDTAB
0
TABLE
2
APPID
5
9
100
AcDbSymbolTable
70
2
0
APPID
5
12
100
AcDbSymbolTableRecord
100
AcDbRegAppTableRecord
2
ACAD
70
0
0
ENDTAB
0
TABLE
2
DIMSTYLE
5
A
100
AcDbSymbolTable
70
1
0
ENDTAB
0
TABLE
2
BLOCK_RECORD
5
1
100
AcDbSymbolTable
70
1
0
BLOCK_RECORD
5
1F
100
AcDbSymbolTableRecord
100
AcDbBlockTableRecord
2
*MODEL_SPACE
0
BLOCK_RECORD
5
1B
100
AcDbSymbolTableRecord
100
AcDbBlockTableRecord
2
*PAPER_SPACE
0
ENDTAB
0
ENDSEC
0
SECTION
2
BLOCKS
0
BLOCK
5
20
100
AcDbEntity
100
AcDbBlockBegin
2
*MODEL_SPACE
0
ENDBLK
5
21
100
AcDbEntity
100
AcDbBlockEnd
0
BLOCK
5
1C
100
AcDbEntity
100
AcDbBlockBegin
2
*PAPER_SPACE
0
ENDBLK
5
1D
100
AcDbEntity
100
AcDbBlockEnd
0
ENDSEC
0
SECTION
2
ENTITIES
0
LWPOLYLINE
5
100
100
AcDbEntity
8
0
100
AcDbPolyline
90
8
70
1
43
0.0
10
16.549999999999873
20
-19.999999999978055
10
-16.549999999999873
20
-19.999999999978055
42
-0.41421356237309481
10
-20.000000000010942
20
-16.549999999966985
10
-20.000000000011134
20
16.549999999988881
42
-0.41421358638887323
10
-16.549999717128212
20
19.999999999989058
10
16.549999999988884
20
19.999999999989051
42
-0.4142135623730952
10
19.999999999989054
20
16.549999999988877
10
19.999999999989054
20
-16.549999999988877
42
-0.41421356237309503
0
LINE
5
101
100
AcDbEntity
8
0
100
AcDbLine
10
16.549999999988884
20
-16.549999999978052
30
0
11
-16.550000000005252
21
-16.54999999997807
31
0
0
LINE
5
102
100
AcDbEntity
8
0
100
AcDbLine
10
-16.550000000005252
20
-16.54999999997807
30
0
11
-16.550000000010947
21
16.549999999988881
31
0
0
LINE
5
103
100
AcDbEntity
8
0
100
AcDbLine
10
16.549999999988884
20
16.549999999988881
30
0
11
16.549999999988884
21
-16.549999999978052
31
0
0
LINE
5
104
100
AcDbEntity
8
0
100
AcDbLine
10
0
20
0
30
0
11
-3.6606785883000698e-15
21
19.999999999989054
31
0
0
LINE
5
105
100
AcDbEntity
8
0
100
AcDbLine
10
0
20
-19.999999999978051
30
0
11
0
21
0
31
0
0
LINE
5
106
100
AcDbEntity
8
0
100
AcDbLine
10
0
20
0
30
0
11
19.999999999989054
21
-3.5174143064364883e-16
31
0
0
LINE
5
107
100
AcDbEntity
8
0
100
AcDbLine
10
0
20
0
30
0
11
-20.000000000010946
21
1.2095810464352041e-11
31
0
0
LINE
5
108
100
AcDbEntity
8
0
100
AcDbLine
10
-15.24
20
16.549999999988881
30
0
11
-15.240000000000006
21
-16.54999999997807
31
0
0
LINE
5
109
100
AcDbEntity
8
0
100
AcDbLine
10
15.240000000000006
20
16.549999999988881
30
0
11
15.24
21
-16.549999999978052
31
0
0
LINE
5
110
100
AcDbEntity
8
0
100
AcDbLine
10
-15.240000000000002
20
2.8431320221236338e-15
30
0
11
15.240000000000002
21
-2.8431320221236362e-15
31
0
0
LINE
5
111
100
AcDbEntity
8
0
100
AcDbLine
10
-16.550000000010947
20
16.549999999988881
30
0
11
16.549999999988884
21
16.549999999988881
31
0
0
LWPOLYLINE
5
112
100
AcDbEntity
8
0
100
AcDbPolyline
90
7
70
1
43
0.0
10
12.065
20
-15.074999999999996
10
-12.065000000000003
20
15.075000000000005
10
-12.065000000000005
20
10.136499999999771
10
-12.064999999999991
20
-10.111000000002154
10
-12.064999999999994
20
-15.074999999999996
10
-7.1264999999997771
20
-15.075000000000001
10
7.1264999999997709
20
-15.075000000000001
0
LINE
5
113
100
AcDbEntity
8
0
100
AcDbLine
10
-12.064999999999994
20
-15.074999999999996
30
0
11
12.065000000000001
21
15.075000000000005
31
0
0
LINE
5
114
100
AcDbEntity
8
0
100
AcDbLine
10
-12.065000000000003
20
15.075000000000005
30
0
11
-7.1264999999997771
21
15.075000000000001
31
0
0
LINE
5
115
100
AcDbEntity
8
0
100
AcDbLine
10
-7.1264999999997771
20
15.075000000000001
30
0
11
-7.1264999999997771
21
10.136499999999771
31
0
0
LINE
5
116
100
AcDbEntity
8
0
100
AcDbLine
10
-7.1264999999997771
20
10.136499999999771
30
0
11
-12.065000000000005
21
10.136499999999771
31
0
0
LWPOLYLINE
5
117
100
AcDbEntity
8
0
100
AcDbPolyline
90
4
70
1
43
0.0
10
12.065000000000001
20
15.075000000000005
10
7.1264999999997709
20
15.075000000000001
10
7.1264999999997709
20
10.136499999999771
10
12.065
20
10.136499999999772
0
LINE
5
118
100
AcDbEntity
8
0
100
AcDbLine
10
-7.1264999999997771
20
-15.075000000000001
30
0
11
-7.1264999999997762
21
-10.111000000002154
31
0
0
LINE
5
119
100
AcDbEntity
8
0
100
AcDbLine
10
-7.1264999999997762
20
-10.111000000002154
30
0
11
-12.064999999999991
21
-10.111000000002154
31
0
0
LINE
5
120
100
AcDbEntity
8
0
100
AcDbLine
10
7.1264999999997709
20
-15.075000000000001
30
0
11
7.1264999999997709
21
-10.111000000002154
31
0
0
LINE
5
121
100
AcDbEntity
8
0
100
AcDbLine
10
7.1264999999997709
20
-10.111000000002154
30
0
11
12.065
21
-10.111000000002154
31
0
0
LINE
5
122
100
AcDbEntity
8
0
100
AcDbLine
10
12.065
20
-10.111000000002154
30
0
11
12.065
21
-15.074999999999996
31
0
0
LWPOLYLINE
5
123
100
AcDbEntity
8
0
100
AcDbPolyline
90
4
70
1
43
0.0
10
9.6265000000002168
20
-12.611000000002154
10
-9.6264999999997762
20
-12.611000000002154
10
-9.6264999999997816
20
12.610999999997851
10
9.6265000000002168
20
12.610999999997855
0
LINE
5
124
100
AcDbEntity
8
0
100
AcDbLine
10
9.6265000000002168
20
-12.611000000002154
30
0
11
-9.6264999999997816
21
12.610999999997851
31
0
0
LINE
5
125
100
AcDbEntity
8
0
100
AcDbLine
10
-9.6264999999997762
20
-12.611000000002154
30
0
11
9.6265000000002168
21
12.610999999997855
31
0
0
LINE
5
126
100
AcDbEntity
8
0
100
AcDbLine
10
-7.1264999999997771
20
15.075000000000001
30
0
11
7.1264999999997709
21
15.075000000000001
31
0
0
LINE
5
127
100
AcDbEntity
8
0
100
AcDbLine
10
12.065
20
10.136499999999772
30
0
11
12.065
21
-10.111000000002154
31
0
0
ENDSEC
0
SECTION
2
OBJECTS
0
DICTIONARY
5
C
100
AcDbDictionary
3
ACAD_GROUP
350
D
3
ACAD_MLINESTYLE
350
17
0
DICTIONARY
5
D
100
AcDbDictionary
0
DICTIONARY
5
1A
330
C
100
AcDbDictionary
0
DICTIONARY
5
17
100
AcDbDictionary
0
ENDSEC
0
EOF
