0
SECTION
2
HEADER
9
$INSUNITS
70
4
9
$ACADVER
1
AC1014
9
$HANDSEED
5
FFFF
0
ENDSEC
0
SECTION
2
TABLES
0
TABLE
2
VPORT
5
8
100
AcDbSymbolTable
0
ENDTAB
0
TABLE
2
LTYPE
5
5
100
AcDbSymbolTable
0
LTYPE
5
14
100
AcDbSymbolTableRecord
100
AcDbLinetypeTableRecord
2
BYBLOCK
70
0
0
LTYPE
5
15
100
AcDbSymbolTableRecord
100
AcDbLinetypeTableRecord
2
BYLAYER
70
0
0
ENDTAB
0
TABLE
2
LAYER
5
2
100
AcDbSymbolTable
70
2
0
LAYER
5
50
100
AcDbSymbolTableRecord
100
AcDbLayerTableRecord
2
0
70
0
6
CONTINUOUS
0
ENDTAB
0
TABLE
2
STYLE
5
3
100
AcDbSymbolTable
70
1
0
STYLE
5
11
100
AcDbSymbolTableRecord
100
AcDbTextStyleTableRecord
2
STANDARD
70
0
0
ENDTAB
0
TABLE
2
VIEW
5
6
100
AcDbSymbolTable
70
0
0
ENDTAB
0
TABLE
2
UCS
5
7
100
AcDbSymbolTable
70
0
0
ENDTAB
0
TABLE
2
APPID
5
9
100
AcDbSymbolTable
70
2
0
APPID
5
12
100
AcDbSymbolTableRecord
100
AcDbRegAppTableRecord
2
ACAD
70
0
0
ENDTAB
0
TABLE
2
DIMSTYLE
5
A
100
AcDbSymbolTable
70
1
0
ENDTAB
0
TABLE
2
BLOCK_RECORD
5
1
100
AcDbSymbolTable
70
1
0
BLOCK_RECORD
5
1F
100
AcDbSymbolTableRecord
100
AcDbBlockTableRecord
2
*MODEL_SPACE
0
BLOCK_RECORD
5
1B
100
AcDbSymbolTableRecord
100
AcDbBlockTableRecord
2
*PAPER_SPACE
0
ENDTAB
0
ENDSEC
0
SECTION
2
BLOCKS
0
BLOCK
5
20
100
AcDbEntity
100
AcDbBlockBegin
2
*MODEL_SPACE
0
ENDBLK
5
21
100
AcDbEntity
100
AcDbBlockEnd
0
BLOCK
5
1C
100
AcDbEntity
100
AcDbBlockBegin
2
*PAPER_SPACE
0
ENDBLK
5
1D
100
AcDbEntity
100
AcDbBlockEnd
0
ENDSEC
0
SECTION
2
ENTITIES
0
LWPOLYLINE
5
100
100
AcDbEntity
8
0
100
AcDbPolyline
90
8
70
1
43
0.0
10
36.550000000000004
20
-39.999999999999993
10
-36.550000000000011
20
-39.999999999999993
42
-0.41421356237309465
10
-40
20
-36.550000000000011
10
-40
20
36.550000000000011
42
-0.41421356237309542
10
-36.550000000000011
20
40.000000000000007
10
36.550000000000004
20
40
42
-0.41421356237309503
10
39.999999999999993
20
36.550000000000018
10
39.999999999999993
20
-36.550000000000004
42
-0.41421356237309503
0
LINE
5
101
100
AcDbEntity
8
0
100
AcDbLine
10
39.999999999999993
20
-39.999999999999993
30
0
11
-40
21
40
31
0
0
LINE
5
102
100
AcDbEntity
8
0
100
AcDbLine
10
-39.999999999999993
20
-39.999999999999993
30
0
11
39.999999999999993
21
40.000000000000014
31
0
0
LWPOLYLINE
5
103
100
AcDbEntity
8
0
100
AcDbPolyline
90
4
70
1
43
0.0
10
-3.4500000000000068
20
3.4500000000000153
10
-36.549999999999976
20
3.4500000000000131
10
-36.549999999999983
20
36.549999999999983
10
-3.4500000000000135
20
36.54999999999999
0
LINE
5
104
100
AcDbEntity
8
0
100
AcDbLine
10
-3.4500000000000068
20
3.4500000000000153
30
0
11
-36.549999999999983
21
36.549999999999983
31
0
0
LINE
5
105
100
AcDbEntity
8
0
100
AcDbLine
10
-36.549999999999976
20
3.4500000000000131
30
0
11
-3.4500000000000135
21
36.54999999999999
31
0
0
LWPOLYLINE
5
106
100
AcDbEntity
8
0
100
AcDbPolyline
90
4
70
1
43
0.0
10
36.549999999999983
20
3.4500000000000153
10
3.4500000000000268
20
3.4500000000000188
10
3.4500000000000202
20
36.54999999999999
10
36.549999999999983
20
36.54999999999999
0
LINE
5
107
100
AcDbEntity
8
0
100
AcDbLine
10
36.549999999999983
20
3.4500000000000153
30
0
11
3.4500000000000202
21
36.54999999999999
31
0
0
LINE
5
108
100
AcDbEntity
8
0
100
AcDbLine
10
3.4500000000000268
20
3.4500000000000188
30
0
11
36.549999999999983
21
36.54999999999999
31
0
0
LWPOLYLINE
5
109
100
AcDbEntity
8
0
100
AcDbPolyline
90
4
70
1
43
0.0
10
36.549999999999983
20
-36.549999999999983
10
3.4500000000000197
20
-36.549999999999983
10
3.4500000000000104
20
-3.4500000000000171
10
36.549999999999983
20
-3.4500000000000171
0
LINE
5
110
100
AcDbEntity
8
0
100
AcDbLine
10
36.549999999999983
20
-36.549999999999983
30
0
11
3.4500000000000104
21
-3.4500000000000171
31
0
0
LINE
5
111
100
AcDbEntity
8
0
100
AcDbLine
10
3.4500000000000197
20
-36.549999999999983
30
0
11
36.549999999999983
21
-3.4500000000000171
31
0
0
LWPOLYLINE
5
112
100
AcDbEntity
8
0
100
AcDbPolyline
90
4
70
1
43
0.0
10
-3.4500000000000179
20
-36.549999999999983
10
-36.549999999999983
20
-36.549999999999983
10
-36.549999999999983
20
-3.4500000000000153
10
-3.4500000000000179
20
-3.4500000000000153
0
LINE
5
113
100
AcDbEntity
8
0
100
AcDbLine
10
-3.4500000000000179
20
-36.549999999999983
30
0
11
-36.549999999999983
21
-3.4500000000000153
31
0
0
LINE
5
114
100
AcDbEntity
8
0
100
AcDbLine
10
-36.549999999999983
20
-36.549999999999983
30
0
11
-3.4500000000000179
21
-3.4500000000000153
31
0
0
LINE
5
115
100
AcDbEntity
8
0
100
AcDbLine
10
-36.550099999999979
20
-36.549999999999983
30
0
11
-36.549999999999983
21
-36.549999999999983
31
0
0
LINE
5
116
100
AcDbEntity
8
0
100
AcDbLine
10
3.1224999999999996
20
-36.549999999999983
30
0
11
3.4500000000000197
21
-36.549999999999983
31
0
0
LINE
5
117
100
AcDbEntity
8
0
100
AcDbLine
10
36.549999999999983
20
-36.549999999999983
30
0
11
36.877500000000005
21
-36.549999999999983
31
0
0
LINE
5
118
100
AcDbEntity
8
0
100
AcDbLine
10
-3.4499000000000173
20
-36.549999999999983
30
0
11
-3.4500000000000179
21
-36.549999999999983
31
0
0
LINE
5
119
100
AcDbEntity
8
0
100
AcDbLine
10
-40
20
20
30
0
11
39.999999999999993
21
20
31
0
0
LINE
5
120
100
AcDbEntity
8
0
100
AcDbLine
10
-39.999999999999993
20
-20
30
0
11
39.999999999999993
21
-20.000000000000007
31
0
0
LINE
5
121
100
AcDbEntity
8
0
100
AcDbLine
10
-20
20
40.000000000000007
30
0
11
-20
21
-39.999999999999993
31
0
0
LINE
5
122
100
AcDbEntity
8
0
100
AcDbLine
10
20
20
-39.999999999999993
30
0
11
20
21
40.000000000000007
31
0
0
LWPOLYLINE
5
123
100
AcDbEntity
8
0
100
AcDbPolyline
90
4
70
1
43
0.0
10
-35.239999999999974
20
36.549999999999983
10
-4.760000000000014
20
36.549999999999983
10
-4.760000000000014
20
-36.549999999999983
10
-35.239999999999974
20
-36.549999999999983
0
LWPOLYLINE
5
124
100
AcDbEntity
8
0
100
AcDbPolyline
90
4
70
1
43
0.0
10
4.7600000000000264
20
36.54999999999999
10
35.239999999999981
20
36.54999999999999
10
35.239999999999981
20
-36.549999999999983
10
4.7600000000000264
20
-36.549999999999983
0
ENDSEC
0
SECTION
2
OBJECTS
0
DICTIONARY
5
C
100
AcDbDictionary
3
ACAD_GROUP
350
D
3
ACAD_MLINESTYLE
350
17
0
DICTIONARY
5
D
100
AcDbDictionary
0
DICTIONARY
5
1A
330
C
100
AcDbDictionary
0
DICTIONARY
5
17
100
AcDbDictionary
0
ENDSEC
0
EOF
