%TF.GenerationSoftware,KiCad,Pcbnew,7.0.1*%
%TF.CreationDate,2023-09-07T21:54:11+09:00*%
%TF.ProjectId,CPU_ESP32S3WROOM,4350555f-4553-4503-9332-533357524f4f,rev?*%
%TF.SameCoordinates,Original*%
%TF.FileFunction,Legend,Bot*%
%TF.FilePolarity,Positive*%
%FSLAX46Y46*%
G04 Gerber Fmt 4.6, Leading zero omitted, Abs format (unit mm)*
G04 Created by KiCad (PCBNEW 7.0.1) date 2023-09-07 21:54:11*
%MOMM*%
%LPD*%
G01*
G04 APERTURE LIST*
%ADD10C,0.150000*%
%ADD11C,0.120000*%
%ADD12C,0.650000*%
%ADD13O,1.000000X2.100000*%
%ADD14O,1.000000X1.600000*%
%ADD15C,0.800000*%
%ADD16C,6.400000*%
%ADD17R,3.000000X1.000000*%
G04 APERTURE END LIST*
D10*
G36*
X139297270Y-116441620D02*
G01*
X139311933Y-116442760D01*
X139326194Y-116444653D01*
X139340046Y-116447293D01*
X139353485Y-116450673D01*
X139366504Y-116454787D01*
X139379100Y-116459630D01*
X139391265Y-116465196D01*
X139402996Y-116471478D01*
X139414287Y-116478470D01*
X139425133Y-116486167D01*
X139435528Y-116494562D01*
X139445467Y-116503649D01*
X139454945Y-116513423D01*
X139463957Y-116523876D01*
X139472497Y-116535004D01*
X139480561Y-116546799D01*
X139488142Y-116559257D01*
X139495236Y-116572371D01*
X139501837Y-116586134D01*
X139507941Y-116600541D01*
X139513541Y-116615587D01*
X139518633Y-116631263D01*
X139523211Y-116647566D01*
X139527271Y-116664488D01*
X139530806Y-116682024D01*
X139533812Y-116700168D01*
X139536283Y-116718913D01*
X139538214Y-116738253D01*
X139539599Y-116758183D01*
X139540435Y-116778697D01*
X139540714Y-116799787D01*
X139540435Y-116820860D01*
X139539599Y-116841357D01*
X139538214Y-116861271D01*
X139536283Y-116880597D01*
X139533812Y-116899329D01*
X139530806Y-116917460D01*
X139527271Y-116934984D01*
X139523211Y-116951896D01*
X139518633Y-116968188D01*
X139513541Y-116983856D01*
X139507941Y-116998893D01*
X139501837Y-117013293D01*
X139495236Y-117027050D01*
X139488142Y-117040157D01*
X139480561Y-117052609D01*
X139472497Y-117064400D01*
X139463957Y-117075523D01*
X139454945Y-117085973D01*
X139445467Y-117095743D01*
X139435528Y-117104828D01*
X139425133Y-117113220D01*
X139414287Y-117120915D01*
X139402996Y-117127906D01*
X139391265Y-117134186D01*
X139379100Y-117139751D01*
X139366504Y-117144593D01*
X139353485Y-117148707D01*
X139340046Y-117152087D01*
X139326194Y-117154726D01*
X139311933Y-117156619D01*
X139297270Y-117157759D01*
X139282208Y-117158140D01*
X139267128Y-117157759D01*
X139252448Y-117156619D01*
X139238171Y-117154726D01*
X139224305Y-117152087D01*
X139210853Y-117148707D01*
X139197821Y-117144593D01*
X139185214Y-117139751D01*
X139173037Y-117134186D01*
X139161296Y-117127906D01*
X139149997Y-117120915D01*
X139139143Y-117113220D01*
X139128740Y-117104828D01*
X139118794Y-117095743D01*
X139109310Y-117085973D01*
X139100292Y-117075523D01*
X139091747Y-117064400D01*
X139083679Y-117052609D01*
X139076094Y-117040157D01*
X139068997Y-117027050D01*
X139062393Y-117013293D01*
X139056287Y-116998893D01*
X139050685Y-116983856D01*
X139045591Y-116968188D01*
X139041012Y-116951896D01*
X139036951Y-116934984D01*
X139033416Y-116917460D01*
X139030409Y-116899329D01*
X139027938Y-116880597D01*
X139026007Y-116861271D01*
X139024621Y-116841357D01*
X139023785Y-116820860D01*
X139023506Y-116799787D01*
X139023785Y-116778697D01*
X139024621Y-116758183D01*
X139026007Y-116738253D01*
X139027938Y-116718913D01*
X139030409Y-116700168D01*
X139033416Y-116682024D01*
X139036951Y-116664488D01*
X139041012Y-116647566D01*
X139045591Y-116631263D01*
X139050685Y-116615587D01*
X139056287Y-116600541D01*
X139062393Y-116586134D01*
X139068997Y-116572371D01*
X139076094Y-116559257D01*
X139083679Y-116546799D01*
X139091747Y-116535004D01*
X139100292Y-116523876D01*
X139109310Y-116513423D01*
X139118794Y-116503649D01*
X139128740Y-116494562D01*
X139139143Y-116486167D01*
X139149997Y-116478470D01*
X139161296Y-116471478D01*
X139173037Y-116465196D01*
X139185214Y-116459630D01*
X139197821Y-116454787D01*
X139210853Y-116450673D01*
X139224305Y-116447293D01*
X139238171Y-116444653D01*
X139252448Y-116442760D01*
X139267128Y-116441620D01*
X139282208Y-116441239D01*
X139297270Y-116441620D01*
G37*
G36*
X138468798Y-116441620D02*
G01*
X138483462Y-116442760D01*
X138497722Y-116444653D01*
X138511575Y-116447293D01*
X138525013Y-116450673D01*
X138538033Y-116454787D01*
X138550628Y-116459630D01*
X138562793Y-116465196D01*
X138574524Y-116471478D01*
X138585815Y-116478470D01*
X138596661Y-116486167D01*
X138607056Y-116494562D01*
X138616995Y-116503649D01*
X138626473Y-116513423D01*
X138635485Y-116523876D01*
X138644026Y-116535004D01*
X138652089Y-116546799D01*
X138659670Y-116559257D01*
X138666764Y-116572371D01*
X138673366Y-116586134D01*
X138679469Y-116600541D01*
X138685069Y-116615587D01*
X138690161Y-116631263D01*
X138694740Y-116647566D01*
X138698799Y-116664488D01*
X138702334Y-116682024D01*
X138705340Y-116700168D01*
X138707811Y-116718913D01*
X138709742Y-116738253D01*
X138711128Y-116758183D01*
X138711963Y-116778697D01*
X138712243Y-116799787D01*
X138711963Y-116820860D01*
X138711128Y-116841357D01*
X138709742Y-116861271D01*
X138707811Y-116880597D01*
X138705340Y-116899329D01*
X138702334Y-116917460D01*
X138698799Y-116934984D01*
X138694740Y-116951896D01*
X138690161Y-116968188D01*
X138685069Y-116983856D01*
X138679469Y-116998893D01*
X138673366Y-117013293D01*
X138666764Y-117027050D01*
X138659670Y-117040157D01*
X138652089Y-117052609D01*
X138644026Y-117064400D01*
X138635485Y-117075523D01*
X138626473Y-117085973D01*
X138616995Y-117095743D01*
X138607056Y-117104828D01*
X138596661Y-117113220D01*
X138585815Y-117120915D01*
X138574524Y-117127906D01*
X138562793Y-117134186D01*
X138550628Y-117139751D01*
X138538033Y-117144593D01*
X138525013Y-117148707D01*
X138511575Y-117152087D01*
X138497722Y-117154726D01*
X138483462Y-117156619D01*
X138468798Y-117157759D01*
X138453736Y-117158140D01*
X138438656Y-117157759D01*
X138423976Y-117156619D01*
X138409700Y-117154726D01*
X138395833Y-117152087D01*
X138382381Y-117148707D01*
X138369349Y-117144593D01*
X138356742Y-117139751D01*
X138344566Y-117134186D01*
X138332825Y-117127906D01*
X138321525Y-117120915D01*
X138310671Y-117113220D01*
X138300268Y-117104828D01*
X138290322Y-117095743D01*
X138280838Y-117085973D01*
X138271821Y-117075523D01*
X138263275Y-117064400D01*
X138255208Y-117052609D01*
X138247623Y-117040157D01*
X138240525Y-117027050D01*
X138233921Y-117013293D01*
X138227815Y-116998893D01*
X138222213Y-116983856D01*
X138217120Y-116968188D01*
X138212540Y-116951896D01*
X138208480Y-116934984D01*
X138204944Y-116917460D01*
X138201938Y-116899329D01*
X138199466Y-116880597D01*
X138197535Y-116861271D01*
X138196149Y-116841357D01*
X138195314Y-116820860D01*
X138195034Y-116799787D01*
X138195314Y-116778697D01*
X138196149Y-116758183D01*
X138197535Y-116738253D01*
X138199466Y-116718913D01*
X138201938Y-116700168D01*
X138204944Y-116682024D01*
X138208480Y-116664488D01*
X138212540Y-116647566D01*
X138217120Y-116631263D01*
X138222213Y-116615587D01*
X138227815Y-116600541D01*
X138233921Y-116586134D01*
X138240525Y-116572371D01*
X138247623Y-116559257D01*
X138255208Y-116546799D01*
X138263275Y-116535004D01*
X138271821Y-116523876D01*
X138280838Y-116513423D01*
X138290322Y-116503649D01*
X138300268Y-116494562D01*
X138310671Y-116486167D01*
X138321525Y-116478470D01*
X138332825Y-116471478D01*
X138344566Y-116465196D01*
X138356742Y-116459630D01*
X138369349Y-116454787D01*
X138382381Y-116450673D01*
X138395833Y-116447293D01*
X138409700Y-116444653D01*
X138423976Y-116442760D01*
X138438656Y-116441620D01*
X138453736Y-116441239D01*
X138468798Y-116441620D01*
G37*
G36*
X134975566Y-116441637D02*
G01*
X134989724Y-116442825D01*
X135003528Y-116444793D01*
X135016972Y-116447533D01*
X135030049Y-116451035D01*
X135042750Y-116455290D01*
X135055067Y-116460288D01*
X135066994Y-116466020D01*
X135078524Y-116472478D01*
X135089647Y-116479651D01*
X135100357Y-116487531D01*
X135110646Y-116496108D01*
X135120507Y-116505372D01*
X135129933Y-116515316D01*
X135138914Y-116525929D01*
X135147445Y-116537202D01*
X135155517Y-116549126D01*
X135163123Y-116561691D01*
X135170256Y-116574889D01*
X135176907Y-116588710D01*
X135183070Y-116603145D01*
X135188736Y-116618184D01*
X135193899Y-116633818D01*
X135198550Y-116650039D01*
X135202682Y-116666836D01*
X135206288Y-116684201D01*
X135209359Y-116702124D01*
X135211890Y-116720596D01*
X135213871Y-116739607D01*
X135215295Y-116759149D01*
X135216155Y-116779212D01*
X135216444Y-116799787D01*
X135216155Y-116820345D01*
X135215295Y-116840391D01*
X135213871Y-116859917D01*
X135211890Y-116878914D01*
X135209359Y-116897373D01*
X135206288Y-116915283D01*
X135202682Y-116932636D01*
X135198550Y-116949423D01*
X135193899Y-116965633D01*
X135188736Y-116981259D01*
X135183070Y-116996290D01*
X135176907Y-117010717D01*
X135170256Y-117024531D01*
X135163123Y-117037723D01*
X135155517Y-117050283D01*
X135147445Y-117062202D01*
X135138914Y-117073471D01*
X135129933Y-117084080D01*
X135120507Y-117094020D01*
X135110646Y-117103282D01*
X135100357Y-117111857D01*
X135089647Y-117119734D01*
X135078524Y-117126906D01*
X135066994Y-117133362D01*
X135055067Y-117139094D01*
X135042750Y-117144091D01*
X135030049Y-117148345D01*
X135016972Y-117151847D01*
X135003528Y-117154586D01*
X134989724Y-117156555D01*
X134975566Y-117157742D01*
X134961063Y-117158140D01*
X134946561Y-117157742D01*
X134932403Y-117156555D01*
X134918598Y-117154586D01*
X134905154Y-117151847D01*
X134892078Y-117148345D01*
X134879377Y-117144091D01*
X134867059Y-117139094D01*
X134855132Y-117133362D01*
X134843603Y-117126906D01*
X134832480Y-117119734D01*
X134821770Y-117111857D01*
X134811480Y-117103282D01*
X134801619Y-117094020D01*
X134792194Y-117084080D01*
X134783212Y-117073471D01*
X134774682Y-117062202D01*
X134766609Y-117050283D01*
X134759003Y-117037723D01*
X134751871Y-117024531D01*
X134745219Y-117010717D01*
X134739057Y-116996290D01*
X134733390Y-116981259D01*
X134728228Y-116965633D01*
X134723577Y-116949423D01*
X134719445Y-116932636D01*
X134715839Y-116915283D01*
X134712767Y-116897373D01*
X134710237Y-116878914D01*
X134708256Y-116859917D01*
X134706832Y-116840391D01*
X134705971Y-116820345D01*
X134705683Y-116799787D01*
X134705971Y-116779212D01*
X134706832Y-116759149D01*
X134708256Y-116739607D01*
X134710237Y-116720596D01*
X134712767Y-116702124D01*
X134715839Y-116684201D01*
X134719445Y-116666836D01*
X134723577Y-116650039D01*
X134728228Y-116633818D01*
X134733390Y-116618184D01*
X134739057Y-116603145D01*
X134745219Y-116588710D01*
X134751871Y-116574889D01*
X134759003Y-116561691D01*
X134766609Y-116549126D01*
X134774682Y-116537202D01*
X134783212Y-116525929D01*
X134792194Y-116515316D01*
X134801619Y-116505372D01*
X134811480Y-116496108D01*
X134821770Y-116487531D01*
X134832480Y-116479651D01*
X134843603Y-116472478D01*
X134855132Y-116466020D01*
X134867059Y-116460288D01*
X134879377Y-116455290D01*
X134892078Y-116451035D01*
X134905154Y-116447533D01*
X134918598Y-116444793D01*
X134932403Y-116442825D01*
X134946561Y-116441637D01*
X134961063Y-116441239D01*
X134975566Y-116441637D01*
G37*
G36*
X153633004Y-116653321D02*
G01*
X153642791Y-116654142D01*
X153652331Y-116655503D01*
X153661619Y-116657399D01*
X153670650Y-116659823D01*
X153679419Y-116662771D01*
X153687921Y-116666235D01*
X153696151Y-116670210D01*
X153704103Y-116674691D01*
X153711774Y-116679672D01*
X153719157Y-116685147D01*
X153726249Y-116691109D01*
X153733043Y-116697554D01*
X153739535Y-116704475D01*
X153745721Y-116711868D01*
X153751594Y-116719725D01*
X153757150Y-116728041D01*
X153762383Y-116736810D01*
X153767290Y-116746027D01*
X153771864Y-116755685D01*
X153776102Y-116765780D01*
X153779997Y-116776305D01*
X153783545Y-116787254D01*
X153786740Y-116798621D01*
X153789579Y-116810401D01*
X153792055Y-116822588D01*
X153794164Y-116835177D01*
X153795901Y-116848160D01*
X153797260Y-116861534D01*
X153798238Y-116875291D01*
X153798828Y-116889425D01*
X153799026Y-116903933D01*
X153798828Y-116918440D01*
X153798238Y-116932574D01*
X153797260Y-116946331D01*
X153795901Y-116959705D01*
X153794164Y-116972688D01*
X153792055Y-116985277D01*
X153789579Y-116997464D01*
X153786740Y-117009244D01*
X153783545Y-117020611D01*
X153779997Y-117031560D01*
X153776102Y-117042085D01*
X153771864Y-117052180D01*
X153767290Y-117061838D01*
X153762383Y-117071055D01*
X153757150Y-117079824D01*
X153751594Y-117088140D01*
X153745721Y-117095997D01*
X153739535Y-117103390D01*
X153733043Y-117110311D01*
X153726249Y-117116756D01*
X153719157Y-117122718D01*
X153711774Y-117128193D01*
X153704103Y-117133174D01*
X153696151Y-117137655D01*
X153687921Y-117141630D01*
X153679419Y-117145094D01*
X153670650Y-117148042D01*
X153661619Y-117150466D01*
X153652331Y-117152362D01*
X153642791Y-117153723D01*
X153633004Y-117154544D01*
X153622975Y-117154819D01*
X153612946Y-117154544D01*
X153603159Y-117153723D01*
X153593620Y-117152362D01*
X153584332Y-117150466D01*
X153575301Y-117148042D01*
X153566532Y-117145094D01*
X153558030Y-117141630D01*
X153549800Y-117137655D01*
X153541848Y-117133174D01*
X153534177Y-117128193D01*
X153526793Y-117122718D01*
X153519702Y-117116756D01*
X153512907Y-117110311D01*
X153506415Y-117103390D01*
X153500230Y-117095997D01*
X153494357Y-117088140D01*
X153488801Y-117079824D01*
X153483567Y-117071055D01*
X153478661Y-117061838D01*
X153474086Y-117052180D01*
X153469849Y-117042085D01*
X153465954Y-117031560D01*
X153462406Y-117020611D01*
X153459211Y-117009244D01*
X153456372Y-116997464D01*
X153453896Y-116985277D01*
X153451787Y-116972688D01*
X153450050Y-116959705D01*
X153448690Y-116946331D01*
X153447713Y-116932574D01*
X153447123Y-116918440D01*
X153446925Y-116903933D01*
X153447123Y-116889425D01*
X153447713Y-116875291D01*
X153448690Y-116861534D01*
X153450050Y-116848160D01*
X153451787Y-116835177D01*
X153453896Y-116822588D01*
X153456372Y-116810401D01*
X153459211Y-116798621D01*
X153462406Y-116787254D01*
X153465954Y-116776305D01*
X153469849Y-116765780D01*
X153474086Y-116755685D01*
X153478661Y-116746027D01*
X153483567Y-116736810D01*
X153488801Y-116728041D01*
X153494357Y-116719725D01*
X153500230Y-116711868D01*
X153506415Y-116704475D01*
X153512907Y-116697554D01*
X153519702Y-116691109D01*
X153526793Y-116685147D01*
X153534177Y-116679672D01*
X153541848Y-116674691D01*
X153549800Y-116670210D01*
X153558030Y-116666235D01*
X153566532Y-116662771D01*
X153575301Y-116659823D01*
X153584332Y-116657399D01*
X153593620Y-116655503D01*
X153603159Y-116654142D01*
X153612946Y-116653321D01*
X153622975Y-116653046D01*
X153633004Y-116653321D01*
G37*
G36*
X151681746Y-116653251D02*
G01*
X151689987Y-116653861D01*
X151698053Y-116654874D01*
X151705940Y-116656286D01*
X151713645Y-116658092D01*
X151728495Y-116662875D01*
X151742579Y-116669194D01*
X151755870Y-116677018D01*
X151768343Y-116686318D01*
X151774265Y-116691512D01*
X151779973Y-116697064D01*
X151785463Y-116702969D01*
X151790733Y-116709226D01*
X151795780Y-116715828D01*
X151800600Y-116722774D01*
X151805190Y-116730059D01*
X151809547Y-116737679D01*
X151813667Y-116745631D01*
X151817548Y-116753912D01*
X151821187Y-116762516D01*
X151824579Y-116771441D01*
X151827723Y-116780683D01*
X151830614Y-116790238D01*
X151833250Y-116800102D01*
X151835627Y-116810272D01*
X151837742Y-116820744D01*
X151839593Y-116831514D01*
X151841175Y-116842579D01*
X151506074Y-116842579D01*
X151507266Y-116831497D01*
X151508751Y-116820712D01*
X151510526Y-116810227D01*
X151512587Y-116800046D01*
X151514932Y-116790172D01*
X151517558Y-116780610D01*
X151520459Y-116771363D01*
X151523635Y-116762433D01*
X151527080Y-116753826D01*
X151530793Y-116745545D01*
X151534769Y-116737593D01*
X151539005Y-116729973D01*
X151543499Y-116722690D01*
X151548246Y-116715747D01*
X151553244Y-116709148D01*
X151558488Y-116702896D01*
X151563977Y-116696995D01*
X151569706Y-116691449D01*
X151575673Y-116686260D01*
X151581873Y-116681434D01*
X151594963Y-116672880D01*
X151601845Y-116669161D01*
X151608949Y-116665817D01*
X151616270Y-116662853D01*
X151623805Y-116660273D01*
X151631551Y-116658080D01*
X151639505Y-116656278D01*
X151647663Y-116654869D01*
X151656023Y-116653859D01*
X151664580Y-116653250D01*
X151673331Y-116653046D01*
X151681746Y-116653251D01*
G37*
G36*
X148521103Y-116653533D02*
G01*
X148531254Y-116654981D01*
X148541299Y-116657371D01*
X148551212Y-116660685D01*
X148560964Y-116664903D01*
X148570528Y-116670007D01*
X148579877Y-116675977D01*
X148588984Y-116682795D01*
X148597820Y-116690442D01*
X148606359Y-116698899D01*
X148614572Y-116708147D01*
X148622433Y-116718168D01*
X148629914Y-116728941D01*
X148636987Y-116740449D01*
X148643625Y-116752673D01*
X148649800Y-116765593D01*
X148649800Y-117042272D01*
X148643625Y-117055192D01*
X148636987Y-117067416D01*
X148629914Y-117078924D01*
X148622433Y-117089698D01*
X148614572Y-117099718D01*
X148606359Y-117108966D01*
X148597820Y-117117423D01*
X148588984Y-117125070D01*
X148579877Y-117131888D01*
X148570528Y-117137858D01*
X148560964Y-117142962D01*
X148551212Y-117147180D01*
X148541299Y-117150494D01*
X148531254Y-117152884D01*
X148521103Y-117154332D01*
X148510875Y-117154819D01*
X148501060Y-117154526D01*
X148491440Y-117153652D01*
X148482024Y-117152208D01*
X148472818Y-117150201D01*
X148463830Y-117147643D01*
X148455068Y-117144542D01*
X148446540Y-117140907D01*
X148438252Y-117136748D01*
X148430214Y-117132074D01*
X148422432Y-117126894D01*
X148414913Y-117121218D01*
X148407667Y-117115056D01*
X148400699Y-117108415D01*
X148394019Y-117101307D01*
X148387632Y-117093739D01*
X148381548Y-117085722D01*
X148375774Y-117077265D01*
X148370317Y-117068377D01*
X148365185Y-117059068D01*
X148360385Y-117049346D01*
X148355926Y-117039221D01*
X148351814Y-117028703D01*
X148348058Y-117017801D01*
X148344665Y-117006524D01*
X148341642Y-116994881D01*
X148338998Y-116982882D01*
X148336739Y-116970536D01*
X148334875Y-116957853D01*
X148333411Y-116944842D01*
X148332356Y-116931512D01*
X148331717Y-116917872D01*
X148331503Y-116903933D01*
X148331717Y-116889976D01*
X148332356Y-116876321D01*
X148333411Y-116862978D01*
X148334875Y-116849956D01*
X148336739Y-116837263D01*
X148338998Y-116824910D01*
X148341642Y-116812906D01*
X148344665Y-116801259D01*
X148348058Y-116789979D01*
X148351814Y-116779075D01*
X148355926Y-116768557D01*
X148360385Y-116758433D01*
X148365185Y-116748713D01*
X148370317Y-116739407D01*
X148375774Y-116730522D01*
X148381548Y-116722069D01*
X148387632Y-116714057D01*
X148394019Y-116706495D01*
X148400699Y-116699392D01*
X148407667Y-116692758D01*
X148414913Y-116686601D01*
X148422432Y-116680931D01*
X148430214Y-116675758D01*
X148438252Y-116671090D01*
X148446540Y-116666936D01*
X148455068Y-116663306D01*
X148463830Y-116660210D01*
X148472818Y-116657656D01*
X148482024Y-116655653D01*
X148491440Y-116654211D01*
X148501060Y-116653339D01*
X148510875Y-116653046D01*
X148521103Y-116653533D01*
G37*
G36*
X147875465Y-116653251D02*
G01*
X147883707Y-116653861D01*
X147891773Y-116654874D01*
X147899660Y-116656286D01*
X147907365Y-116658092D01*
X147922215Y-116662875D01*
X147936298Y-116669194D01*
X147949589Y-116677018D01*
X147962062Y-116686318D01*
X147967984Y-116691512D01*
X147973692Y-116697064D01*
X147979183Y-116702969D01*
X147984453Y-116709226D01*
X147989500Y-116715828D01*
X147994319Y-116722774D01*
X147998909Y-116730059D01*
X148003266Y-116737679D01*
X148007387Y-116745631D01*
X148011268Y-116753912D01*
X148014906Y-116762516D01*
X148018299Y-116771441D01*
X148021442Y-116780683D01*
X148024333Y-116790238D01*
X148026969Y-116800102D01*
X148029346Y-116810272D01*
X148031462Y-116820744D01*
X148033312Y-116831514D01*
X148034894Y-116842579D01*
X147699793Y-116842579D01*
X147700985Y-116831497D01*
X147702470Y-116820712D01*
X147704245Y-116810227D01*
X147706307Y-116800046D01*
X147708652Y-116790172D01*
X147711277Y-116780610D01*
X147714179Y-116771363D01*
X147717354Y-116762433D01*
X147720800Y-116753826D01*
X147724512Y-116745545D01*
X147728488Y-116737593D01*
X147732725Y-116729973D01*
X147737218Y-116722690D01*
X147741965Y-116715747D01*
X147746963Y-116709148D01*
X147752208Y-116702896D01*
X147757696Y-116696995D01*
X147763426Y-116691449D01*
X147769392Y-116686260D01*
X147775592Y-116681434D01*
X147788682Y-116672880D01*
X147795565Y-116669161D01*
X147802668Y-116665817D01*
X147809989Y-116662853D01*
X147817525Y-116660273D01*
X147825271Y-116658080D01*
X147833225Y-116656278D01*
X147841383Y-116654869D01*
X147849742Y-116653859D01*
X147858299Y-116653250D01*
X147867051Y-116653046D01*
X147875465Y-116653251D01*
G37*
G36*
X145332982Y-116778099D02*
G01*
X145036569Y-116778099D01*
X145028358Y-116777884D01*
X145020254Y-116777249D01*
X145012268Y-116776202D01*
X145004409Y-116774755D01*
X144996688Y-116772917D01*
X144989114Y-116770699D01*
X144981698Y-116768111D01*
X144974449Y-116765163D01*
X144960495Y-116758229D01*
X144947333Y-116749979D01*
X144935043Y-116740496D01*
X144923705Y-116729861D01*
X144913399Y-116718156D01*
X144908659Y-116711929D01*
X144904207Y-116705465D01*
X144900053Y-116698775D01*
X144896208Y-116691869D01*
X144892681Y-116684757D01*
X144889483Y-116677449D01*
X144886624Y-116669957D01*
X144884113Y-116662289D01*
X144881961Y-116654457D01*
X144880177Y-116646470D01*
X144878772Y-116638340D01*
X144877757Y-116630075D01*
X144877140Y-116621687D01*
X144876932Y-116613186D01*
X144877140Y-116604667D01*
X144877757Y-116596262D01*
X144878772Y-116587982D01*
X144880177Y-116579837D01*
X144881961Y-116571837D01*
X144884113Y-116563992D01*
X144886624Y-116556313D01*
X144889483Y-116548810D01*
X144892681Y-116541492D01*
X144896208Y-116534371D01*
X144900053Y-116527457D01*
X144904207Y-116520759D01*
X144908659Y-116514288D01*
X144913399Y-116508055D01*
X144923705Y-116496340D01*
X144935043Y-116485697D01*
X144947333Y-116476208D01*
X144960495Y-116467953D01*
X144974449Y-116461016D01*
X144981698Y-116458067D01*
X144989114Y-116455479D01*
X144996688Y-116453260D01*
X145004409Y-116451421D01*
X145012268Y-116449974D01*
X145020254Y-116448927D01*
X145028358Y-116448292D01*
X145036569Y-116448078D01*
X145332982Y-116448078D01*
X145332982Y-116778099D01*
G37*
G36*
X140295327Y-116776340D02*
G01*
X140019821Y-116776340D01*
X140011119Y-116776127D01*
X140002534Y-116775493D01*
X139994074Y-116774449D01*
X139985752Y-116773006D01*
X139977576Y-116771174D01*
X139969559Y-116768962D01*
X139961710Y-116766382D01*
X139954040Y-116763444D01*
X139946560Y-116760158D01*
X139939280Y-116756533D01*
X139932210Y-116752582D01*
X139925361Y-116748313D01*
X139918744Y-116743738D01*
X139912369Y-116738866D01*
X139906246Y-116733707D01*
X139900386Y-116728273D01*
X139894801Y-116722573D01*
X139889499Y-116716618D01*
X139884492Y-116710418D01*
X139879790Y-116703983D01*
X139875404Y-116697324D01*
X139871344Y-116690451D01*
X139867621Y-116683373D01*
X139864245Y-116676103D01*
X139861226Y-116668649D01*
X139858577Y-116661022D01*
X139856305Y-116653233D01*
X139854424Y-116645292D01*
X139852942Y-116637208D01*
X139851870Y-116628993D01*
X139851220Y-116620656D01*
X139851000Y-116612209D01*
X139851220Y-116603761D01*
X139851870Y-116595425D01*
X139852942Y-116587210D01*
X139854424Y-116579126D01*
X139856305Y-116571185D01*
X139858577Y-116563395D01*
X139861226Y-116555769D01*
X139864245Y-116548315D01*
X139867621Y-116541044D01*
X139871344Y-116533967D01*
X139875404Y-116527094D01*
X139879790Y-116520435D01*
X139884492Y-116514000D01*
X139889499Y-116507800D01*
X139894801Y-116501844D01*
X139900386Y-116496145D01*
X139906246Y-116490710D01*
X139912369Y-116485552D01*
X139918744Y-116480680D01*
X139925361Y-116476105D01*
X139932210Y-116471836D01*
X139939280Y-116467884D01*
X139946560Y-116464260D01*
X139954040Y-116460974D01*
X139961710Y-116458035D01*
X139969559Y-116455455D01*
X139977576Y-116453244D01*
X139985752Y-116451412D01*
X139994074Y-116449968D01*
X140002534Y-116448925D01*
X140011119Y-116448291D01*
X140019821Y-116448078D01*
X140295327Y-116448078D01*
X140295327Y-116776340D01*
G37*
G36*
X154994529Y-117578124D02*
G01*
X134285699Y-117578124D01*
X134285699Y-116799787D01*
X134624985Y-116799787D01*
X134625368Y-116824427D01*
X134626510Y-116848510D01*
X134628400Y-116872022D01*
X134631027Y-116894948D01*
X134634382Y-116917273D01*
X134638452Y-116938983D01*
X134643229Y-116960062D01*
X134648701Y-116980497D01*
X134654858Y-117000271D01*
X134661688Y-117019370D01*
X134669182Y-117037779D01*
X134677329Y-117055484D01*
X134686119Y-117072470D01*
X134695540Y-117088722D01*
X134705582Y-117104225D01*
X134716234Y-117118964D01*
X134727487Y-117132924D01*
X134739329Y-117146092D01*
X134751749Y-117158451D01*
X134764738Y-117169987D01*
X134778284Y-117180685D01*
X134792377Y-117190531D01*
X134807007Y-117199510D01*
X134822162Y-117207606D01*
X134837833Y-117214805D01*
X134854008Y-117221092D01*
X134870677Y-117226453D01*
X134887830Y-117230872D01*
X134905456Y-117234335D01*
X134923543Y-117236827D01*
X134942083Y-117238333D01*
X134961063Y-117238838D01*
X134980027Y-117238333D01*
X134998551Y-117236827D01*
X135016626Y-117234335D01*
X135034240Y-117230872D01*
X135051384Y-117226453D01*
X135068046Y-117221092D01*
X135084215Y-117214805D01*
X135099882Y-117207606D01*
X135115034Y-117199510D01*
X135129663Y-117190531D01*
X135143756Y-117180685D01*
X135151026Y-117174944D01*
X135443492Y-117174944D01*
X135443805Y-117181131D01*
X135445401Y-117190069D01*
X135448258Y-117198505D01*
X135452270Y-117206335D01*
X135457337Y-117213457D01*
X135463353Y-117219767D01*
X135470215Y-117225161D01*
X135477821Y-117229537D01*
X135486067Y-117232790D01*
X135494849Y-117234818D01*
X135504064Y-117235517D01*
X135510248Y-117235203D01*
X135519176Y-117233607D01*
X135527594Y-117230751D01*
X135535401Y-117226738D01*
X135542497Y-117221672D01*
X135548780Y-117215656D01*
X135554147Y-117208793D01*
X135558498Y-117201187D01*
X135561281Y-117194093D01*
X135964022Y-117194093D01*
X135964075Y-117196168D01*
X135965299Y-117204167D01*
X135968021Y-117211563D01*
X135973279Y-117219715D01*
X135980296Y-117226361D01*
X135988752Y-117231187D01*
X135996335Y-117233528D01*
X136004469Y-117234344D01*
X136006544Y-117234292D01*
X136014543Y-117233080D01*
X136021939Y-117230383D01*
X136030091Y-117225167D01*
X136036737Y-117218195D01*
X136041563Y-117209780D01*
X136043904Y-117202218D01*
X136044720Y-117194093D01*
X136044720Y-116613772D01*
X136499012Y-116613772D01*
X136499460Y-116620055D01*
X136501356Y-116627645D01*
X136695969Y-117203863D01*
X136697073Y-117206884D01*
X136700786Y-117213887D01*
X136705727Y-117219978D01*
X136711730Y-117224996D01*
X136718631Y-117228780D01*
X136726263Y-117231168D01*
X136734462Y-117232000D01*
X136791517Y-117232000D01*
X136793212Y-117231965D01*
X136801382Y-117230809D01*
X136808924Y-117228129D01*
X136815673Y-117224086D01*
X136822491Y-117217661D01*
X136826912Y-117211186D01*
X136830010Y-117203863D01*
X136833313Y-117194093D01*
X137174685Y-117194093D01*
X137174738Y-117196168D01*
X137175962Y-117204167D01*
X137178684Y-117211563D01*
X137183941Y-117219715D01*
X137190959Y-117226361D01*
X137199415Y-117231187D01*
X137206998Y-117233528D01*
X137215132Y-117234344D01*
X137217207Y-117234292D01*
X137225206Y-117233080D01*
X137232602Y-117230383D01*
X137240754Y-117225167D01*
X137247400Y-117218195D01*
X137252226Y-117209780D01*
X137254567Y-117202218D01*
X137255383Y-117194093D01*
X137255383Y-116499271D01*
X137519947Y-117193116D01*
X137521777Y-117197388D01*
X137526764Y-117205091D01*
X137533305Y-117211451D01*
X137541145Y-117216207D01*
X137550030Y-117219095D01*
X137558049Y-117219885D01*
X137562872Y-117219597D01*
X137570539Y-117217901D01*
X137578921Y-117214046D01*
X137586142Y-117208455D01*
X137591916Y-117201391D01*
X137595955Y-117193116D01*
X137860519Y-116499271D01*
X137860519Y-117194093D01*
X137860571Y-117196168D01*
X137861783Y-117204167D01*
X137864481Y-117211563D01*
X137869696Y-117219715D01*
X137876668Y-117226361D01*
X137885084Y-117231187D01*
X137892645Y-117233528D01*
X137900770Y-117234344D01*
X137902846Y-117234292D01*
X137910857Y-117233080D01*
X137918278Y-117230383D01*
X137926472Y-117225167D01*
X137933163Y-117218195D01*
X137938029Y-117209780D01*
X137940393Y-117202218D01*
X137941217Y-117194093D01*
X137941217Y-116799787D01*
X138114532Y-116799787D01*
X138114906Y-116824908D01*
X138116023Y-116849412D01*
X138117874Y-116873286D01*
X138120451Y-116896519D01*
X138123747Y-116919099D01*
X138127752Y-116941015D01*
X138132458Y-116962254D01*
X138137857Y-116982805D01*
X138143940Y-117002655D01*
X138150700Y-117021794D01*
X138158129Y-117040209D01*
X138166216Y-117057889D01*
X138174956Y-117074821D01*
X138184338Y-117090994D01*
X138194355Y-117106396D01*
X138204999Y-117121016D01*
X138216261Y-117134840D01*
X138228133Y-117147859D01*
X138240607Y-117160059D01*
X138253674Y-117171430D01*
X138267326Y-117181958D01*
X138281554Y-117191633D01*
X138296352Y-117200443D01*
X138311709Y-117208375D01*
X138327618Y-117215418D01*
X138344071Y-117221561D01*
X138361058Y-117226791D01*
X138378573Y-117231097D01*
X138396607Y-117234466D01*
X138415151Y-117236887D01*
X138434196Y-117238349D01*
X138453736Y-117238838D01*
X138473258Y-117238349D01*
X138492287Y-117236887D01*
X138510815Y-117234466D01*
X138528834Y-117231097D01*
X138546336Y-117226791D01*
X138563311Y-117221561D01*
X138579752Y-117215418D01*
X138595650Y-117208375D01*
X138610998Y-117200443D01*
X138625786Y-117191633D01*
X138640006Y-117181958D01*
X138653651Y-117171430D01*
X138666711Y-117160059D01*
X138679178Y-117147859D01*
X138691045Y-117134840D01*
X138702302Y-117121016D01*
X138712941Y-117106396D01*
X138722955Y-117090994D01*
X138732334Y-117074821D01*
X138741071Y-117057889D01*
X138749156Y-117040209D01*
X138756582Y-117021794D01*
X138763341Y-117002655D01*
X138769423Y-116982805D01*
X138774821Y-116962254D01*
X138779526Y-116941015D01*
X138783531Y-116919099D01*
X138786826Y-116896519D01*
X138789403Y-116873286D01*
X138791254Y-116849412D01*
X138792371Y-116824908D01*
X138792745Y-116799787D01*
X138943003Y-116799787D01*
X138943377Y-116824908D01*
X138944494Y-116849412D01*
X138946346Y-116873286D01*
X138948923Y-116896519D01*
X138952218Y-116919099D01*
X138956223Y-116941015D01*
X138960929Y-116962254D01*
X138966328Y-116982805D01*
X138972412Y-117002655D01*
X138979172Y-117021794D01*
X138986600Y-117040209D01*
X138994688Y-117057889D01*
X139003427Y-117074821D01*
X139012810Y-117090994D01*
X139022827Y-117106396D01*
X139033471Y-117121016D01*
X139044733Y-117134840D01*
X139056605Y-117147859D01*
X139069078Y-117160059D01*
X139082145Y-117171430D01*
X139095797Y-117181958D01*
X139110026Y-117191633D01*
X139124823Y-117200443D01*
X139140181Y-117208375D01*
X139156090Y-117215418D01*
X139172542Y-117221561D01*
X139189530Y-117226791D01*
X139207045Y-117231097D01*
X139225079Y-117234466D01*
X139243622Y-117236887D01*
X139262668Y-117238349D01*
X139282208Y-117238838D01*
X139301730Y-117238349D01*
X139320759Y-117236887D01*
X139339287Y-117234466D01*
X139357306Y-117231097D01*
X139374807Y-117226791D01*
X139391783Y-117221561D01*
X139408224Y-117215418D01*
X139424122Y-117208375D01*
X139439469Y-117200443D01*
X139450128Y-117194093D01*
X139752913Y-117194093D01*
X139752965Y-117196168D01*
X139754190Y-117204167D01*
X139756912Y-117211563D01*
X139762169Y-117219715D01*
X139769186Y-117226361D01*
X139777642Y-117231187D01*
X139785226Y-117233528D01*
X139793359Y-117234344D01*
X139796158Y-117234247D01*
X139804240Y-117232836D01*
X139811704Y-117229880D01*
X139818364Y-117225548D01*
X139824034Y-117220010D01*
X139828530Y-117213437D01*
X140034085Y-116857038D01*
X140295327Y-116857038D01*
X140295327Y-117194093D01*
X140295379Y-117196168D01*
X140296592Y-117204167D01*
X140299289Y-117211563D01*
X140304504Y-117219715D01*
X140311476Y-117226361D01*
X140319892Y-117231187D01*
X140327453Y-117233528D01*
X140335578Y-117234344D01*
X140337654Y-117234292D01*
X140345665Y-117233080D01*
X140353086Y-117230383D01*
X140361280Y-117225167D01*
X140367971Y-117218195D01*
X140372838Y-117209780D01*
X140375201Y-117202218D01*
X140376025Y-117194093D01*
X140376025Y-116407631D01*
X140375972Y-116405556D01*
X140375961Y-116405482D01*
X140551294Y-116405482D01*
X140551350Y-116407764D01*
X140552466Y-116415642D01*
X140739654Y-117200346D01*
X140740528Y-117203696D01*
X140743889Y-117211506D01*
X140748759Y-117218347D01*
X140754927Y-117224018D01*
X140762184Y-117228318D01*
X140770320Y-117231046D01*
X140779123Y-117232000D01*
X140825432Y-117232000D01*
X140829020Y-117231844D01*
X140837581Y-117230154D01*
X140845391Y-117226765D01*
X140852237Y-117221873D01*
X140857912Y-117215676D01*
X140862203Y-117208369D01*
X140864901Y-117200150D01*
X141006562Y-116597554D01*
X141148223Y-117200150D01*
X141149098Y-117203535D01*
X141152459Y-117211412D01*
X141157328Y-117218299D01*
X141163497Y-117223998D01*
X141170754Y-117228312D01*
X141178889Y-117231045D01*
X141187693Y-117232000D01*
X141234001Y-117232000D01*
X141237589Y-117231844D01*
X141246151Y-117230156D01*
X141253960Y-117226775D01*
X141260807Y-117221903D01*
X141266481Y-117215739D01*
X141270772Y-117208487D01*
X141273471Y-117200346D01*
X141331315Y-116957861D01*
X141584148Y-116957861D01*
X141584534Y-116973452D01*
X141585686Y-116988709D01*
X141587589Y-117003622D01*
X141590233Y-117018180D01*
X141593603Y-117032373D01*
X141597688Y-117046191D01*
X141602476Y-117059622D01*
X141607952Y-117072655D01*
X141614106Y-117085282D01*
X141620924Y-117097490D01*
X141628393Y-117109269D01*
X141636502Y-117120609D01*
X141645238Y-117131500D01*
X141654588Y-117141929D01*
X141664539Y-117151888D01*
X141675079Y-117161364D01*
X141686196Y-117170349D01*
X141697877Y-117178831D01*
X141710109Y-117186799D01*
X141722880Y-117194243D01*
X141736177Y-117201152D01*
X141749987Y-117207516D01*
X141764299Y-117213324D01*
X141779099Y-117218566D01*
X141794376Y-117223231D01*
X141810115Y-117227308D01*
X141826306Y-117230787D01*
X141842935Y-117233657D01*
X141859990Y-117235908D01*
X141877457Y-117237529D01*
X141895326Y-117238509D01*
X141913582Y-117238838D01*
X141927226Y-117238654D01*
X141940746Y-117238102D01*
X141954133Y-117237189D01*
X141967378Y-117235917D01*
X141980474Y-117234292D01*
X141993409Y-117232317D01*
X142006176Y-117229998D01*
X142018766Y-117227338D01*
X142031168Y-117224341D01*
X142043376Y-117221013D01*
X142055378Y-117217357D01*
X142067167Y-117213377D01*
X142078733Y-117209079D01*
X142090068Y-117204466D01*
X142101161Y-117199542D01*
X142112005Y-117194313D01*
X142122591Y-117188782D01*
X142132908Y-117182953D01*
X142142949Y-117176832D01*
X142152704Y-117170422D01*
X142162164Y-117163727D01*
X142171320Y-117156753D01*
X142180164Y-117149502D01*
X142188685Y-117141981D01*
X142196876Y-117134192D01*
X142204727Y-117126141D01*
X142212229Y-117117831D01*
X142219373Y-117109267D01*
X142226150Y-117100454D01*
X142232551Y-117091395D01*
X142238567Y-117082095D01*
X142244190Y-117072558D01*
X142246528Y-117067871D01*
X142248857Y-117060332D01*
X142249661Y-117052237D01*
X142249608Y-117050161D01*
X142248396Y-117042150D01*
X142245699Y-117034729D01*
X142240484Y-117026535D01*
X142233512Y-117019844D01*
X142225096Y-117014978D01*
X142217534Y-117012614D01*
X142209409Y-117011790D01*
X142206541Y-117011890D01*
X142198302Y-117013332D01*
X142190744Y-117016351D01*
X142184035Y-117020768D01*
X142178346Y-117026406D01*
X142173848Y-117033088D01*
X142169620Y-117040237D01*
X142165075Y-117047212D01*
X142160219Y-117054007D01*
X142155059Y-117060621D01*
X142149601Y-117067049D01*
X142143851Y-117073289D01*
X142137817Y-117079336D01*
X142131505Y-117085188D01*
X142124921Y-117090841D01*
X142118072Y-117096292D01*
X142110965Y-117101537D01*
X142103605Y-117106573D01*
X142096000Y-117111396D01*
X142088157Y-117116004D01*
X142080081Y-117120392D01*
X142071779Y-117124557D01*
X142063257Y-117128496D01*
X142054524Y-117132206D01*
X142045584Y-117135683D01*
X142036444Y-117138924D01*
X142027111Y-117141924D01*
X142017592Y-117144682D01*
X142007893Y-117147193D01*
X141998020Y-117149455D01*
X141987981Y-117151463D01*
X141977781Y-117153214D01*
X141967428Y-117154705D01*
X141956927Y-117155933D01*
X141946285Y-117156894D01*
X141935510Y-117157584D01*
X141924607Y-117158001D01*
X141913582Y-117158140D01*
X141899425Y-117157912D01*
X141885609Y-117157231D01*
X141872139Y-117156103D01*
X141859025Y-117154536D01*
X141846272Y-117152534D01*
X141833888Y-117150106D01*
X141821880Y-117147257D01*
X141810256Y-117143993D01*
X141799021Y-117140321D01*
X141788185Y-117136247D01*
X141777753Y-117131778D01*
X141767733Y-117126919D01*
X141758132Y-117121678D01*
X141748957Y-117116061D01*
X141740216Y-117110074D01*
X141731915Y-117103723D01*
X141724061Y-117097015D01*
X141716663Y-117089956D01*
X141709726Y-117082553D01*
X141703259Y-117074812D01*
X141697268Y-117066739D01*
X141691760Y-117058340D01*
X141686743Y-117049623D01*
X141682223Y-117040592D01*
X141678209Y-117031256D01*
X141674706Y-117021620D01*
X141671723Y-117011690D01*
X141669266Y-117001473D01*
X141667343Y-116990975D01*
X141665960Y-116980203D01*
X141665585Y-116975251D01*
X142392298Y-116975251D01*
X142392655Y-116990259D01*
X142393719Y-117004905D01*
X142395480Y-117019183D01*
X142397930Y-117033084D01*
X142401057Y-117046601D01*
X142404854Y-117059727D01*
X142409309Y-117072453D01*
X142414415Y-117084773D01*
X142420160Y-117096679D01*
X142426535Y-117108163D01*
X142433532Y-117119217D01*
X142441139Y-117129835D01*
X142449349Y-117140009D01*
X142458150Y-117149731D01*
X142467534Y-117158993D01*
X142477490Y-117167788D01*
X142488010Y-117176109D01*
X142499084Y-117183947D01*
X142510702Y-117191296D01*
X142522854Y-117198148D01*
X142535531Y-117204495D01*
X142548724Y-117210329D01*
X142562422Y-117215644D01*
X142576616Y-117220432D01*
X142591297Y-117224684D01*
X142606455Y-117228394D01*
X142622081Y-117231554D01*
X142638164Y-117234156D01*
X142654695Y-117236193D01*
X142671666Y-117237658D01*
X142689065Y-117238542D01*
X142706883Y-117238838D01*
X142722789Y-117238626D01*
X142738372Y-117237989D01*
X142753631Y-117236929D01*
X142768561Y-117235449D01*
X142783160Y-117233550D01*
X142797424Y-117231234D01*
X142811349Y-117228502D01*
X142824932Y-117225356D01*
X142838170Y-117221798D01*
X142851060Y-117217830D01*
X142863597Y-117213452D01*
X142875779Y-117208668D01*
X142887603Y-117203479D01*
X142899065Y-117197886D01*
X142910161Y-117191891D01*
X142910401Y-117191748D01*
X143193220Y-117191748D01*
X143193272Y-117193824D01*
X143194484Y-117201823D01*
X143197181Y-117209218D01*
X143202397Y-117217370D01*
X143209369Y-117224016D01*
X143217784Y-117228843D01*
X143225346Y-117231184D01*
X143233471Y-117232000D01*
X143810861Y-117232000D01*
X143810861Y-117232195D01*
X143812936Y-117232142D01*
X143820935Y-117230918D01*
X143828331Y-117228196D01*
X143836483Y-117222938D01*
X143843129Y-117215921D01*
X143847955Y-117207465D01*
X143850296Y-117199882D01*
X143851112Y-117191748D01*
X143850711Y-117178138D01*
X143849516Y-117164536D01*
X143847536Y-117150950D01*
X143844781Y-117137392D01*
X143841261Y-117123869D01*
X143836987Y-117110394D01*
X143831968Y-117096973D01*
X143826215Y-117083619D01*
X143819737Y-117070340D01*
X143812545Y-117057145D01*
X143804649Y-117044046D01*
X143796058Y-117031051D01*
X143786783Y-117018169D01*
X143776834Y-117005412D01*
X143766221Y-116992788D01*
X143754954Y-116980307D01*
X143743043Y-116967979D01*
X143732608Y-116957861D01*
X144001566Y-116957861D01*
X144001952Y-116973452D01*
X144003104Y-116988709D01*
X144005007Y-117003622D01*
X144007651Y-117018180D01*
X144011021Y-117032373D01*
X144015106Y-117046191D01*
X144019894Y-117059622D01*
X144025370Y-117072655D01*
X144031524Y-117085282D01*
X144038342Y-117097490D01*
X144045811Y-117109269D01*
X144053920Y-117120609D01*
X144062656Y-117131500D01*
X144072006Y-117141929D01*
X144081957Y-117151888D01*
X144092497Y-117161364D01*
X144103614Y-117170349D01*
X144115295Y-117178831D01*
X144127527Y-117186799D01*
X144140298Y-117194243D01*
X144153595Y-117201152D01*
X144167405Y-117207516D01*
X144181717Y-117213324D01*
X144196517Y-117218566D01*
X144211794Y-117223231D01*
X144227533Y-117227308D01*
X144243724Y-117230787D01*
X144260353Y-117233657D01*
X144277408Y-117235908D01*
X144294875Y-117237529D01*
X144312744Y-117238509D01*
X144331000Y-117238838D01*
X144344644Y-117238654D01*
X144358164Y-117238102D01*
X144371551Y-117237189D01*
X144384797Y-117235917D01*
X144397892Y-117234292D01*
X144410827Y-117232317D01*
X144423594Y-117229998D01*
X144436184Y-117227338D01*
X144448586Y-117224341D01*
X144460794Y-117221013D01*
X144472796Y-117217357D01*
X144484585Y-117213377D01*
X144496151Y-117209079D01*
X144507486Y-117204466D01*
X144518579Y-117199542D01*
X144529423Y-117194313D01*
X144540009Y-117188782D01*
X144550326Y-117182953D01*
X144560367Y-117176832D01*
X144570122Y-117170422D01*
X144579582Y-117163727D01*
X144588738Y-117156753D01*
X144597582Y-117149502D01*
X144606103Y-117141981D01*
X144614294Y-117134192D01*
X144622145Y-117126141D01*
X144629647Y-117117831D01*
X144636791Y-117109267D01*
X144643568Y-117100454D01*
X144649969Y-117091395D01*
X144655985Y-117082095D01*
X144661608Y-117072558D01*
X144663946Y-117067871D01*
X144666275Y-117060332D01*
X144667079Y-117052237D01*
X144667026Y-117050161D01*
X144665814Y-117042150D01*
X144663117Y-117034729D01*
X144657902Y-117026535D01*
X144650930Y-117019844D01*
X144642514Y-117014978D01*
X144634952Y-117012614D01*
X144626827Y-117011790D01*
X144623959Y-117011890D01*
X144615720Y-117013332D01*
X144608162Y-117016351D01*
X144601453Y-117020768D01*
X144595764Y-117026406D01*
X144591266Y-117033088D01*
X144587038Y-117040237D01*
X144582493Y-117047212D01*
X144577637Y-117054007D01*
X144572477Y-117060621D01*
X144567019Y-117067049D01*
X144561269Y-117073289D01*
X144555235Y-117079336D01*
X144548923Y-117085188D01*
X144542339Y-117090841D01*
X144535490Y-117096292D01*
X144528383Y-117101537D01*
X144521023Y-117106573D01*
X144513418Y-117111396D01*
X144505575Y-117116004D01*
X144497499Y-117120392D01*
X144489197Y-117124557D01*
X144480675Y-117128496D01*
X144471942Y-117132206D01*
X144463002Y-117135683D01*
X144453862Y-117138924D01*
X144444529Y-117141924D01*
X144435010Y-117144682D01*
X144425311Y-117147193D01*
X144415438Y-117149455D01*
X144405399Y-117151463D01*
X144395199Y-117153214D01*
X144384846Y-117154705D01*
X144374345Y-117155933D01*
X144363703Y-117156894D01*
X144352928Y-117157584D01*
X144342025Y-117158001D01*
X144331000Y-117158140D01*
X144316843Y-117157912D01*
X144303027Y-117157231D01*
X144289557Y-117156103D01*
X144276443Y-117154536D01*
X144263690Y-117152534D01*
X144251306Y-117150106D01*
X144239298Y-117147257D01*
X144227674Y-117143993D01*
X144216439Y-117140321D01*
X144205603Y-117136247D01*
X144195171Y-117131778D01*
X144185151Y-117126919D01*
X144175550Y-117121678D01*
X144166375Y-117116061D01*
X144157634Y-117110074D01*
X144149333Y-117103723D01*
X144141479Y-117097015D01*
X144134081Y-117089956D01*
X144127144Y-117082553D01*
X144120677Y-117074812D01*
X144114686Y-117066739D01*
X144109178Y-117058340D01*
X144104161Y-117049623D01*
X144099641Y-117040592D01*
X144095627Y-117031256D01*
X144092124Y-117021620D01*
X144089141Y-117011690D01*
X144086684Y-117001473D01*
X144084761Y-116990975D01*
X144083378Y-116980203D01*
X144082543Y-116969163D01*
X144082264Y-116957861D01*
X144082476Y-116949008D01*
X144083113Y-116940438D01*
X144084177Y-116932151D01*
X144085670Y-116924146D01*
X144087592Y-116916423D01*
X144092734Y-116901824D01*
X144099615Y-116888353D01*
X144108249Y-116876009D01*
X144118648Y-116864792D01*
X144124514Y-116859606D01*
X144130825Y-116854701D01*
X144137585Y-116850077D01*
X144144793Y-116845734D01*
X144152453Y-116841672D01*
X144160565Y-116837891D01*
X144169132Y-116834391D01*
X144178154Y-116831171D01*
X144187634Y-116828232D01*
X144197573Y-116825573D01*
X144207972Y-116823195D01*
X144218834Y-116821097D01*
X144230160Y-116819279D01*
X144241951Y-116817741D01*
X144254209Y-116816483D01*
X144266935Y-116815504D01*
X144280132Y-116814805D01*
X144293801Y-116814386D01*
X144307944Y-116814247D01*
X144365390Y-116814247D01*
X144367465Y-116814194D01*
X144375464Y-116812969D01*
X144382860Y-116810247D01*
X144391012Y-116804990D01*
X144397658Y-116797973D01*
X144402484Y-116789517D01*
X144404825Y-116781933D01*
X144405641Y-116773800D01*
X144405589Y-116771742D01*
X144404377Y-116763791D01*
X144401680Y-116756415D01*
X144396464Y-116748259D01*
X144389492Y-116741589D01*
X144381076Y-116736733D01*
X144373515Y-116734373D01*
X144365390Y-116733549D01*
X144307944Y-116733549D01*
X144296611Y-116733394D01*
X144285584Y-116732933D01*
X144274868Y-116732169D01*
X144264466Y-116731105D01*
X144254381Y-116729746D01*
X144244617Y-116728094D01*
X144235177Y-116726154D01*
X144226065Y-116723929D01*
X144217283Y-116721422D01*
X144208837Y-116718638D01*
X144200729Y-116715579D01*
X144192962Y-116712250D01*
X144185540Y-116708654D01*
X144178467Y-116704795D01*
X144171745Y-116700677D01*
X144159372Y-116691674D01*
X144148449Y-116681677D01*
X144139003Y-116670713D01*
X144131063Y-116658811D01*
X144124655Y-116646001D01*
X144119807Y-116632311D01*
X144116548Y-116617771D01*
X144116058Y-116613186D01*
X144796234Y-116613186D01*
X144796547Y-116625821D01*
X144797474Y-116638291D01*
X144799000Y-116650580D01*
X144801111Y-116662672D01*
X144803792Y-116674553D01*
X144807028Y-116686207D01*
X144810803Y-116697618D01*
X144815102Y-116708770D01*
X144819911Y-116719649D01*
X144825214Y-116730239D01*
X144830997Y-116740525D01*
X144837244Y-116750490D01*
X144843941Y-116760120D01*
X144851072Y-116769399D01*
X144858622Y-116778312D01*
X144866576Y-116786842D01*
X144874920Y-116794976D01*
X144883638Y-116802697D01*
X144892715Y-116809990D01*
X144902136Y-116816839D01*
X144911887Y-116823228D01*
X144921952Y-116829144D01*
X144932315Y-116834569D01*
X144942963Y-116839489D01*
X144953880Y-116843888D01*
X144965051Y-116847751D01*
X144976461Y-116851061D01*
X144988095Y-116853805D01*
X144999937Y-116855965D01*
X145011974Y-116857528D01*
X145024190Y-116858477D01*
X145036569Y-116858796D01*
X145332982Y-116858796D01*
X145332982Y-117194093D01*
X145333035Y-117196168D01*
X145334247Y-117204167D01*
X145336944Y-117211563D01*
X145342159Y-117219715D01*
X145349131Y-117226361D01*
X145357547Y-117231187D01*
X145365109Y-117233528D01*
X145373234Y-117234344D01*
X145375309Y-117234292D01*
X145383308Y-117233080D01*
X145390704Y-117230383D01*
X145398856Y-117225167D01*
X145405501Y-117218195D01*
X145410328Y-117209780D01*
X145412669Y-117202218D01*
X145413485Y-117194093D01*
X145413485Y-116975251D01*
X145593638Y-116975251D01*
X145593995Y-116990259D01*
X145595059Y-117004905D01*
X145596820Y-117019183D01*
X145599270Y-117033084D01*
X145602397Y-117046601D01*
X145606194Y-117059727D01*
X145610649Y-117072453D01*
X145615755Y-117084773D01*
X145621500Y-117096679D01*
X145627875Y-117108163D01*
X145634872Y-117119217D01*
X145642479Y-117129835D01*
X145650689Y-117140009D01*
X145659490Y-117149731D01*
X145668874Y-117158993D01*
X145678830Y-117167788D01*
X145689350Y-117176109D01*
X145700424Y-117183947D01*
X145712041Y-117191296D01*
X145724194Y-117198148D01*
X145736871Y-117204495D01*
X145750063Y-117210329D01*
X145763762Y-117215644D01*
X145777956Y-117220432D01*
X145792637Y-117224684D01*
X145807795Y-117228394D01*
X145823421Y-117231554D01*
X145839504Y-117234156D01*
X145856035Y-117236193D01*
X145873005Y-117237658D01*
X145890405Y-117238542D01*
X145908223Y-117238838D01*
X145924128Y-117238626D01*
X145939712Y-117237989D01*
X145954971Y-117236929D01*
X145969901Y-117235449D01*
X145984500Y-117233550D01*
X145998763Y-117231234D01*
X146012689Y-117228502D01*
X146026272Y-117225356D01*
X146039510Y-117221798D01*
X146052399Y-117217830D01*
X146064937Y-117213452D01*
X146077119Y-117208668D01*
X146088943Y-117203479D01*
X146100405Y-117197886D01*
X146111501Y-117191891D01*
X146111741Y-117191748D01*
X146388502Y-117191748D01*
X146388555Y-117193824D01*
X146389780Y-117201823D01*
X146392501Y-117209218D01*
X146397759Y-117217370D01*
X146404776Y-117224016D01*
X146413232Y-117228843D01*
X146420816Y-117231184D01*
X146428949Y-117232000D01*
X146950065Y-117232000D01*
X146952141Y-117231947D01*
X146960140Y-117230735D01*
X146967535Y-117228038D01*
X146975688Y-117222823D01*
X146982333Y-117215850D01*
X146987160Y-117207435D01*
X146989501Y-117199873D01*
X146990317Y-117191748D01*
X146990317Y-116883025D01*
X147617337Y-116883025D01*
X147617390Y-116885101D01*
X147618614Y-116893100D01*
X147621336Y-116900495D01*
X147626593Y-116908647D01*
X147633611Y-116915293D01*
X147642066Y-116920120D01*
X147649650Y-116922461D01*
X147657783Y-116923277D01*
X148038216Y-116923277D01*
X148037547Y-116936697D01*
X148036532Y-116949769D01*
X148035176Y-116962489D01*
X148033482Y-116974851D01*
X148031456Y-116986851D01*
X148029101Y-116998482D01*
X148026422Y-117009740D01*
X148023424Y-117020620D01*
X148020111Y-117031116D01*
X148016487Y-117041223D01*
X148012557Y-117050936D01*
X148008324Y-117060251D01*
X148003794Y-117069161D01*
X147998971Y-117077662D01*
X147993860Y-117085749D01*
X147988464Y-117093416D01*
X147982788Y-117100658D01*
X147976837Y-117107471D01*
X147970614Y-117113848D01*
X147964125Y-117119785D01*
X147957373Y-117125277D01*
X147950364Y-117130318D01*
X147943100Y-117134904D01*
X147935588Y-117139028D01*
X147927831Y-117142687D01*
X147919834Y-117145875D01*
X147911601Y-117148586D01*
X147903136Y-117150816D01*
X147894445Y-117152560D01*
X147885530Y-117153811D01*
X147876397Y-117154566D01*
X147867051Y-117154819D01*
X147854354Y-117154352D01*
X147841865Y-117152970D01*
X147829626Y-117150701D01*
X147817680Y-117147574D01*
X147806069Y-117143617D01*
X147794837Y-117138858D01*
X147784025Y-117133326D01*
X147773677Y-117127048D01*
X147763834Y-117120054D01*
X147754541Y-117112372D01*
X147745838Y-117104030D01*
X147737770Y-117095056D01*
X147730378Y-117085478D01*
X147723706Y-117075326D01*
X147717795Y-117064627D01*
X147712689Y-117053409D01*
X147710864Y-117049241D01*
X147705914Y-117041718D01*
X147699440Y-117035495D01*
X147691688Y-117030835D01*
X147682906Y-117028002D01*
X147674978Y-117027226D01*
X147672903Y-117027279D01*
X147664904Y-117028504D01*
X147657508Y-117031226D01*
X147649356Y-117036483D01*
X147642710Y-117043500D01*
X147637884Y-117051956D01*
X147635543Y-117059540D01*
X147634727Y-117067673D01*
X147635582Y-117075879D01*
X147638049Y-117083500D01*
X147641686Y-117091981D01*
X147645633Y-117100277D01*
X147649880Y-117108380D01*
X147654420Y-117116286D01*
X147659244Y-117123990D01*
X147664345Y-117131486D01*
X147669713Y-117138768D01*
X147675341Y-117145831D01*
X147681221Y-117152669D01*
X147687344Y-117159278D01*
X147693703Y-117165652D01*
X147700288Y-117171784D01*
X147707092Y-117177671D01*
X147714107Y-117183306D01*
X147721325Y-117188684D01*
X147728736Y-117193800D01*
X147736334Y-117198648D01*
X147744109Y-117203222D01*
X147752054Y-117207518D01*
X147760161Y-117211529D01*
X147768420Y-117215251D01*
X147776825Y-117218677D01*
X147785367Y-117221803D01*
X147794037Y-117224623D01*
X147802828Y-117227132D01*
X147811732Y-117229324D01*
X147820739Y-117231193D01*
X147829842Y-117232735D01*
X147839033Y-117233944D01*
X147848304Y-117234814D01*
X147857646Y-117235340D01*
X147867051Y-117235517D01*
X147881287Y-117235133D01*
X147895193Y-117233991D01*
X147908761Y-117232101D01*
X147921984Y-117229475D01*
X147934853Y-117226125D01*
X147947360Y-117222062D01*
X147959497Y-117217298D01*
X147971257Y-117211843D01*
X147982631Y-117205711D01*
X147993611Y-117198911D01*
X148004189Y-117191456D01*
X148014357Y-117183358D01*
X148024107Y-117174627D01*
X148033431Y-117165275D01*
X148042322Y-117155314D01*
X148050770Y-117144756D01*
X148058769Y-117133611D01*
X148066309Y-117121892D01*
X148073384Y-117109609D01*
X148079985Y-117096775D01*
X148086103Y-117083401D01*
X148091732Y-117069498D01*
X148096863Y-117055078D01*
X148101487Y-117040153D01*
X148105598Y-117024733D01*
X148109186Y-117008831D01*
X148112245Y-116992459D01*
X148114765Y-116975626D01*
X148116739Y-116958346D01*
X148118159Y-116940629D01*
X148119017Y-116922488D01*
X148119305Y-116903933D01*
X148251000Y-116903933D01*
X148251311Y-116921955D01*
X148252234Y-116939631D01*
X148253759Y-116956947D01*
X148255876Y-116973887D01*
X148258573Y-116990437D01*
X148261839Y-117006582D01*
X148265664Y-117022307D01*
X148270036Y-117037597D01*
X148274945Y-117052438D01*
X148280380Y-117066814D01*
X148286330Y-117080711D01*
X148292783Y-117094113D01*
X148299730Y-117107007D01*
X148307158Y-117119376D01*
X148315058Y-117131207D01*
X148323418Y-117142484D01*
X148332228Y-117153193D01*
X148341476Y-117163319D01*
X148351152Y-117172846D01*
X148361244Y-117181761D01*
X148371742Y-117190047D01*
X148382634Y-117197691D01*
X148393911Y-117204678D01*
X148405560Y-117210992D01*
X148417572Y-117216618D01*
X148429935Y-117221543D01*
X148442638Y-117225751D01*
X148455670Y-117229227D01*
X148469021Y-117231956D01*
X148482679Y-117233924D01*
X148496634Y-117235116D01*
X148510875Y-117235517D01*
X148520333Y-117235277D01*
X148529723Y-117234564D01*
X148539039Y-117233385D01*
X148548272Y-117231746D01*
X148557414Y-117229655D01*
X148566458Y-117227119D01*
X148575396Y-117224145D01*
X148584221Y-117220740D01*
X148592924Y-117216911D01*
X148601499Y-117212667D01*
X148609936Y-117208012D01*
X148618229Y-117202956D01*
X148626369Y-117197505D01*
X148634350Y-117191665D01*
X148642163Y-117185446D01*
X148649800Y-117178852D01*
X148649800Y-117192921D01*
X148649852Y-117194996D01*
X148651065Y-117202995D01*
X148653762Y-117210391D01*
X148658977Y-117218543D01*
X148665949Y-117225189D01*
X148674365Y-117230015D01*
X148681927Y-117232356D01*
X148690051Y-117233172D01*
X148692127Y-117233120D01*
X148700139Y-117231907D01*
X148707559Y-117229210D01*
X148715753Y-117223995D01*
X148722444Y-117217023D01*
X148727311Y-117208607D01*
X148729674Y-117201046D01*
X148730498Y-117192921D01*
X148908307Y-117192921D01*
X148908359Y-117194996D01*
X148909571Y-117202995D01*
X148912268Y-117210391D01*
X148917484Y-117218543D01*
X148924456Y-117225189D01*
X148932872Y-117230015D01*
X148940433Y-117232356D01*
X148948558Y-117233172D01*
X148950634Y-117233120D01*
X148958645Y-117231907D01*
X148966066Y-117229210D01*
X148974260Y-117223995D01*
X148980951Y-117217023D01*
X148985817Y-117208607D01*
X148988180Y-117201046D01*
X148989005Y-117192921D01*
X148989005Y-117151692D01*
X149000012Y-117161553D01*
X149011120Y-117170834D01*
X149022320Y-117179527D01*
X149033600Y-117187624D01*
X149044953Y-117195117D01*
X149056369Y-117202000D01*
X149067838Y-117208264D01*
X149079350Y-117213901D01*
X149090897Y-117218904D01*
X149102469Y-117223265D01*
X149114056Y-117226976D01*
X149125649Y-117230030D01*
X149137239Y-117232419D01*
X149148816Y-117234135D01*
X149160371Y-117235170D01*
X149171894Y-117235517D01*
X149183942Y-117235278D01*
X149195685Y-117234567D01*
X149207116Y-117233387D01*
X149218231Y-117231745D01*
X149229025Y-117229646D01*
X149239493Y-117227096D01*
X149249630Y-117224099D01*
X149259430Y-117220661D01*
X149268890Y-117216787D01*
X149278003Y-117212483D01*
X149286765Y-117207754D01*
X149295171Y-117202606D01*
X149303215Y-117197043D01*
X149310894Y-117191072D01*
X149318201Y-117184697D01*
X149325132Y-117177924D01*
X149331681Y-117170759D01*
X149337845Y-117163206D01*
X149343617Y-117155271D01*
X149348993Y-117146959D01*
X149353967Y-117138277D01*
X149358536Y-117129228D01*
X149362692Y-117119819D01*
X149366433Y-117110055D01*
X149369752Y-117099941D01*
X149372646Y-117089483D01*
X149375107Y-117078686D01*
X149377133Y-117067555D01*
X149378716Y-117056095D01*
X149379854Y-117044313D01*
X149380540Y-117032213D01*
X149380770Y-117019801D01*
X149380770Y-117018824D01*
X149537281Y-117018824D01*
X149538038Y-117027006D01*
X149540407Y-117034456D01*
X149545470Y-117046749D01*
X149550838Y-117058679D01*
X149556509Y-117070244D01*
X149562480Y-117081442D01*
X149568749Y-117092271D01*
X149575313Y-117102729D01*
X149582168Y-117112815D01*
X149589314Y-117122527D01*
X149596747Y-117131863D01*
X149604464Y-117140821D01*
X149612463Y-117149401D01*
X149620741Y-117157599D01*
X149629296Y-117165414D01*
X149638124Y-117172845D01*
X149647225Y-117179890D01*
X149656594Y-117186546D01*
X149666229Y-117192812D01*
X149676128Y-117198687D01*
X149686287Y-117204169D01*
X149696706Y-117209256D01*
X149707379Y-117213945D01*
X149718306Y-117218236D01*
X149729484Y-117222127D01*
X149740909Y-117225616D01*
X149752580Y-117228700D01*
X149764493Y-117231379D01*
X149776647Y-117233651D01*
X149789038Y-117235514D01*
X149801664Y-117236966D01*
X149814522Y-117238005D01*
X149827609Y-117238630D01*
X149840924Y-117238838D01*
X149860763Y-117238370D01*
X149880051Y-117236969D01*
X149898783Y-117234643D01*
X149916953Y-117231401D01*
X149934557Y-117227250D01*
X149951589Y-117222197D01*
X149968043Y-117216251D01*
X149983916Y-117209419D01*
X149999201Y-117201709D01*
X150013893Y-117193129D01*
X150027988Y-117183685D01*
X150041481Y-117173387D01*
X150054365Y-117162242D01*
X150066636Y-117150257D01*
X150078289Y-117137441D01*
X150089319Y-117123800D01*
X150099720Y-117109343D01*
X150109487Y-117094077D01*
X150118616Y-117078011D01*
X150127100Y-117061152D01*
X150134935Y-117043507D01*
X150142116Y-117025084D01*
X150148638Y-117005892D01*
X150154495Y-116985937D01*
X150159682Y-116965228D01*
X150164194Y-116943772D01*
X150168027Y-116921577D01*
X150171174Y-116898651D01*
X150173630Y-116875001D01*
X150175391Y-116850635D01*
X150176452Y-116825562D01*
X150176806Y-116799787D01*
X150176452Y-116774013D01*
X150175391Y-116748939D01*
X150173630Y-116724574D01*
X150171174Y-116700924D01*
X150168027Y-116677998D01*
X150164194Y-116655803D01*
X150159682Y-116634347D01*
X150155116Y-116616117D01*
X150291698Y-116616117D01*
X150291751Y-116618192D01*
X150292963Y-116626191D01*
X150295660Y-116633587D01*
X150300875Y-116641739D01*
X150307847Y-116648385D01*
X150316263Y-116653211D01*
X150323825Y-116655552D01*
X150331950Y-116656368D01*
X150458956Y-116656368D01*
X150458956Y-117194093D01*
X150459008Y-117196168D01*
X150460220Y-117204167D01*
X150462917Y-117211563D01*
X150468133Y-117219715D01*
X150475105Y-117226361D01*
X150483521Y-117231187D01*
X150491082Y-117233528D01*
X150499207Y-117234344D01*
X150501283Y-117234292D01*
X150509294Y-117233080D01*
X150516715Y-117230383D01*
X150524909Y-117225167D01*
X150531600Y-117218195D01*
X150536466Y-117209780D01*
X150538829Y-117202218D01*
X150539654Y-117194093D01*
X150539654Y-117058685D01*
X150791712Y-117058685D01*
X150791728Y-117059816D01*
X150792812Y-117067978D01*
X150795425Y-117075489D01*
X150799542Y-117084578D01*
X150803902Y-117093450D01*
X150808500Y-117102102D01*
X150813328Y-117110527D01*
X150818380Y-117118721D01*
X150823651Y-117126681D01*
X150829133Y-117134400D01*
X150834821Y-117141874D01*
X150840708Y-117149098D01*
X150846788Y-117156069D01*
X150853055Y-117162780D01*
X150859502Y-117169228D01*
X150866123Y-117175407D01*
X150872912Y-117181312D01*
X150879862Y-117186940D01*
X150886967Y-117192286D01*
X150894221Y-117197344D01*
X150901618Y-117202109D01*
X150909151Y-117206578D01*
X150916813Y-117210746D01*
X150924600Y-117214607D01*
X150932504Y-117218157D01*
X150940519Y-117221392D01*
X150948638Y-117224306D01*
X150956856Y-117226895D01*
X150965167Y-117229154D01*
X150973563Y-117231078D01*
X150982039Y-117232664D01*
X150990587Y-117233905D01*
X150999203Y-117234797D01*
X151007880Y-117235336D01*
X151016611Y-117235517D01*
X151030907Y-117235116D01*
X151044916Y-117233924D01*
X151058629Y-117231956D01*
X151072034Y-117229226D01*
X151085121Y-117225749D01*
X151097877Y-117221541D01*
X151110292Y-117216614D01*
X151122356Y-117210985D01*
X151134057Y-117204669D01*
X151145383Y-117197679D01*
X151156325Y-117190031D01*
X151166871Y-117181740D01*
X151177010Y-117172820D01*
X151186730Y-117163286D01*
X151196022Y-117153153D01*
X151204873Y-117142436D01*
X151213274Y-117131149D01*
X151221212Y-117119307D01*
X151228678Y-117106925D01*
X151235659Y-117094018D01*
X151242145Y-117080600D01*
X151248125Y-117066687D01*
X151253587Y-117052293D01*
X151258521Y-117037433D01*
X151262917Y-117022121D01*
X151266761Y-117006373D01*
X151270045Y-116990202D01*
X151272756Y-116973625D01*
X151274884Y-116956656D01*
X151276418Y-116939309D01*
X151277346Y-116921599D01*
X151277658Y-116903542D01*
X151277355Y-116885383D01*
X151277235Y-116883025D01*
X151423617Y-116883025D01*
X151423670Y-116885101D01*
X151424895Y-116893100D01*
X151427617Y-116900495D01*
X151432874Y-116908647D01*
X151439891Y-116915293D01*
X151448347Y-116920120D01*
X151455931Y-116922461D01*
X151464064Y-116923277D01*
X151844497Y-116923277D01*
X151843828Y-116936697D01*
X151842813Y-116949769D01*
X151841456Y-116962489D01*
X151839763Y-116974851D01*
X151837736Y-116986851D01*
X151835381Y-116998482D01*
X151832703Y-117009740D01*
X151829705Y-117020620D01*
X151826391Y-117031116D01*
X151822767Y-117041223D01*
X151818837Y-117050936D01*
X151814605Y-117060251D01*
X151810075Y-117069161D01*
X151805252Y-117077662D01*
X151800140Y-117085749D01*
X151794744Y-117093416D01*
X151789068Y-117100658D01*
X151783117Y-117107471D01*
X151776894Y-117113848D01*
X151770405Y-117119785D01*
X151763654Y-117125277D01*
X151756644Y-117130318D01*
X151749381Y-117134904D01*
X151741869Y-117139028D01*
X151734112Y-117142687D01*
X151726115Y-117145875D01*
X151717882Y-117148586D01*
X151709417Y-117150816D01*
X151700725Y-117152560D01*
X151691811Y-117153811D01*
X151682678Y-117154566D01*
X151673331Y-117154819D01*
X151660635Y-117154352D01*
X151648146Y-117152970D01*
X151635907Y-117150701D01*
X151623961Y-117147574D01*
X151612350Y-117143617D01*
X151601117Y-117138858D01*
X151590306Y-117133326D01*
X151579957Y-117127048D01*
X151570115Y-117120054D01*
X151560821Y-117112372D01*
X151552119Y-117104030D01*
X151544050Y-117095056D01*
X151536659Y-117085478D01*
X151529986Y-117075326D01*
X151524076Y-117064627D01*
X151518970Y-117053409D01*
X151517144Y-117049241D01*
X151512195Y-117041718D01*
X151505721Y-117035495D01*
X151497969Y-117030835D01*
X151489186Y-117028002D01*
X151481259Y-117027226D01*
X151479183Y-117027279D01*
X151471184Y-117028504D01*
X151463789Y-117031226D01*
X151455637Y-117036483D01*
X151448991Y-117043500D01*
X151444164Y-117051956D01*
X151441823Y-117059540D01*
X151441007Y-117067673D01*
X151441862Y-117075879D01*
X151444329Y-117083500D01*
X151447967Y-117091981D01*
X151451913Y-117100277D01*
X151456161Y-117108380D01*
X151460701Y-117116286D01*
X151465525Y-117123990D01*
X151470625Y-117131486D01*
X151475994Y-117138768D01*
X151481622Y-117145831D01*
X151487502Y-117152669D01*
X151493625Y-117159278D01*
X151499983Y-117165652D01*
X151506569Y-117171784D01*
X151513373Y-117177671D01*
X151520388Y-117183306D01*
X151527605Y-117188684D01*
X151535017Y-117193800D01*
X151542614Y-117198648D01*
X151550389Y-117203222D01*
X151558335Y-117207518D01*
X151566441Y-117211529D01*
X151574701Y-117215251D01*
X151583106Y-117218677D01*
X151591647Y-117221803D01*
X151600318Y-117224623D01*
X151609109Y-117227132D01*
X151618012Y-117229324D01*
X151627019Y-117231193D01*
X151636123Y-117232735D01*
X151645314Y-117233944D01*
X151654584Y-117234814D01*
X151663926Y-117235340D01*
X151673331Y-117235517D01*
X151687567Y-117235133D01*
X151701473Y-117233991D01*
X151715042Y-117232101D01*
X151728265Y-117229475D01*
X151741133Y-117226125D01*
X151753641Y-117222062D01*
X151765778Y-117217298D01*
X151777537Y-117211843D01*
X151788911Y-117205711D01*
X151799891Y-117198911D01*
X151806727Y-117194093D01*
X152087763Y-117194093D01*
X152087815Y-117196168D01*
X152089027Y-117204167D01*
X152091724Y-117211563D01*
X152096939Y-117219715D01*
X152103912Y-117226361D01*
X152112327Y-117231187D01*
X152119889Y-117233528D01*
X152128014Y-117234344D01*
X152130090Y-117234292D01*
X152138101Y-117233080D01*
X152145522Y-117230383D01*
X152153715Y-117225167D01*
X152160407Y-117218195D01*
X152165273Y-117209780D01*
X152167636Y-117202218D01*
X152168460Y-117194093D01*
X152168460Y-116789041D01*
X152169000Y-116773700D01*
X152170597Y-116759130D01*
X152173220Y-116745363D01*
X152176835Y-116732428D01*
X152181411Y-116720355D01*
X152186915Y-116709174D01*
X152193315Y-116698916D01*
X152200578Y-116689609D01*
X152208673Y-116681285D01*
X152217567Y-116673974D01*
X152227227Y-116667704D01*
X152237621Y-116662508D01*
X152248717Y-116658413D01*
X152260482Y-116655452D01*
X152272885Y-116653653D01*
X152285892Y-116653046D01*
X152291930Y-116653167D01*
X152304067Y-116654129D01*
X152316271Y-116656047D01*
X152328528Y-116658914D01*
X152340821Y-116662721D01*
X152353135Y-116667463D01*
X152365454Y-116673132D01*
X152377762Y-116679720D01*
X152390044Y-116687221D01*
X152402283Y-116695627D01*
X152414465Y-116704932D01*
X152420529Y-116709919D01*
X152426572Y-116715128D01*
X152432594Y-116720558D01*
X152438591Y-116726208D01*
X152444561Y-116732077D01*
X152450504Y-116738165D01*
X152456416Y-116744470D01*
X152462296Y-116750991D01*
X152468142Y-116757728D01*
X152473952Y-116764680D01*
X152479723Y-116771846D01*
X152479723Y-117194093D01*
X152479776Y-117196168D01*
X152480988Y-117204167D01*
X152483685Y-117211563D01*
X152488900Y-117219715D01*
X152495872Y-117226361D01*
X152504288Y-117231187D01*
X152511850Y-117233528D01*
X152519975Y-117234344D01*
X152522050Y-117234292D01*
X152530049Y-117233080D01*
X152537445Y-117230383D01*
X152545597Y-117225167D01*
X152552243Y-117218195D01*
X152557069Y-117209780D01*
X152559410Y-117202218D01*
X152560226Y-117194093D01*
X152737253Y-117194093D01*
X152737305Y-117196168D01*
X152738518Y-117204167D01*
X152741215Y-117211563D01*
X152746430Y-117219715D01*
X152753402Y-117226361D01*
X152761818Y-117231187D01*
X152769379Y-117233528D01*
X152777504Y-117234344D01*
X152779580Y-117234292D01*
X152787592Y-117233080D01*
X152795012Y-117230383D01*
X152803206Y-117225167D01*
X152809897Y-117218195D01*
X152814764Y-117209780D01*
X152817127Y-117202218D01*
X152817951Y-117194093D01*
X152817951Y-116789041D01*
X152818491Y-116773700D01*
X152820088Y-116759130D01*
X152822710Y-116745363D01*
X152826325Y-116732428D01*
X152830901Y-116720355D01*
X152836405Y-116709174D01*
X152842805Y-116698916D01*
X152850069Y-116689609D01*
X152858164Y-116681285D01*
X152867057Y-116673974D01*
X152876717Y-116667704D01*
X152887111Y-116662508D01*
X152898207Y-116658413D01*
X152909973Y-116655452D01*
X152922375Y-116653653D01*
X152935383Y-116653046D01*
X152941421Y-116653167D01*
X152953557Y-116654129D01*
X152965762Y-116656047D01*
X152978018Y-116658914D01*
X152990311Y-116662721D01*
X153002625Y-116667463D01*
X153014944Y-116673132D01*
X153027252Y-116679720D01*
X153039534Y-116687221D01*
X153051774Y-116695627D01*
X153063955Y-116704932D01*
X153070019Y-116709919D01*
X153076063Y-116715128D01*
X153082084Y-116720558D01*
X153088081Y-116726208D01*
X153094052Y-116732077D01*
X153099995Y-116738165D01*
X153105907Y-116744470D01*
X153111787Y-116750991D01*
X153117633Y-116757728D01*
X153123442Y-116764680D01*
X153129214Y-116771846D01*
X153129214Y-117194093D01*
X153129266Y-117196168D01*
X153130478Y-117204167D01*
X153133176Y-117211563D01*
X153138391Y-117219715D01*
X153145363Y-117226361D01*
X153153779Y-117231187D01*
X153161340Y-117233528D01*
X153169465Y-117234344D01*
X153171541Y-117234292D01*
X153179540Y-117233080D01*
X153186935Y-117230383D01*
X153195087Y-117225167D01*
X153201733Y-117218195D01*
X153206560Y-117209780D01*
X153208901Y-117202218D01*
X153209716Y-117194093D01*
X153209716Y-116903933D01*
X153366227Y-116903933D01*
X153366520Y-116922488D01*
X153367393Y-116940629D01*
X153368839Y-116958346D01*
X153370848Y-116975626D01*
X153373413Y-116992459D01*
X153376526Y-117008831D01*
X153380179Y-117024733D01*
X153384362Y-117040153D01*
X153389069Y-117055078D01*
X153394291Y-117069498D01*
X153400020Y-117083401D01*
X153406248Y-117096775D01*
X153412966Y-117109609D01*
X153420167Y-117121892D01*
X153427842Y-117133611D01*
X153435983Y-117144756D01*
X153444582Y-117155314D01*
X153453631Y-117165275D01*
X153463121Y-117174627D01*
X153473045Y-117183358D01*
X153483395Y-117191456D01*
X153494161Y-117198911D01*
X153505337Y-117205711D01*
X153516913Y-117211843D01*
X153528882Y-117217298D01*
X153541235Y-117222062D01*
X153553965Y-117226125D01*
X153567064Y-117229475D01*
X153580522Y-117232101D01*
X153594332Y-117233991D01*
X153608486Y-117235133D01*
X153622975Y-117235517D01*
X153637465Y-117235133D01*
X153651619Y-117233991D01*
X153665429Y-117232101D01*
X153678887Y-117229475D01*
X153691985Y-117226125D01*
X153704715Y-117222062D01*
X153717069Y-117217298D01*
X153729038Y-117211843D01*
X153740614Y-117205711D01*
X153751790Y-117198911D01*
X153762556Y-117191456D01*
X153772905Y-117183358D01*
X153782829Y-117174627D01*
X153792320Y-117165275D01*
X153801369Y-117155314D01*
X153809968Y-117144756D01*
X153818109Y-117133611D01*
X153825784Y-117121892D01*
X153832984Y-117109609D01*
X153839703Y-117096775D01*
X153845930Y-117083401D01*
X153851659Y-117069498D01*
X153856881Y-117055078D01*
X153861588Y-117040153D01*
X153865772Y-117024733D01*
X153867129Y-117018824D01*
X154015718Y-117018824D01*
X154016475Y-117027006D01*
X154018844Y-117034456D01*
X154023907Y-117046749D01*
X154029275Y-117058679D01*
X154034946Y-117070244D01*
X154040917Y-117081442D01*
X154047186Y-117092271D01*
X154053749Y-117102729D01*
X154060605Y-117112815D01*
X154067751Y-117122527D01*
X154075183Y-117131863D01*
X154082900Y-117140821D01*
X154090899Y-117149401D01*
X154099178Y-117157599D01*
X154107732Y-117165414D01*
X154116561Y-117172845D01*
X154125661Y-117179890D01*
X154135030Y-117186546D01*
X154144666Y-117192812D01*
X154154565Y-117198687D01*
X154164724Y-117204169D01*
X154175142Y-117209256D01*
X154185816Y-117213945D01*
X154196743Y-117218236D01*
X154207921Y-117222127D01*
X154219346Y-117225616D01*
X154231017Y-117228700D01*
X154242930Y-117231379D01*
X154255084Y-117233651D01*
X154267475Y-117235514D01*
X154280100Y-117236966D01*
X154292958Y-117238005D01*
X154306046Y-117238630D01*
X154319361Y-117238838D01*
X154339200Y-117238370D01*
X154358488Y-117236969D01*
X154377220Y-117234643D01*
X154395390Y-117231401D01*
X154412994Y-117227250D01*
X154430025Y-117222197D01*
X154446480Y-117216251D01*
X154462353Y-117209419D01*
X154477638Y-117201709D01*
X154492330Y-117193129D01*
X154506425Y-117183685D01*
X154519918Y-117173387D01*
X154532802Y-117162242D01*
X154545073Y-117150257D01*
X154556726Y-117137441D01*
X154567756Y-117123800D01*
X154578157Y-117109343D01*
X154587924Y-117094077D01*
X154597052Y-117078011D01*
X154605537Y-117061152D01*
X154613372Y-117043507D01*
X154620553Y-117025084D01*
X154627075Y-117005892D01*
X154632932Y-116985937D01*
X154638119Y-116965228D01*
X154642631Y-116943772D01*
X154646463Y-116921577D01*
X154649610Y-116898651D01*
X154652067Y-116875001D01*
X154653828Y-116850635D01*
X154654889Y-116825562D01*
X154655243Y-116799787D01*
X154654889Y-116774013D01*
X154653828Y-116748939D01*
X154652067Y-116724574D01*
X154649610Y-116700924D01*
X154646463Y-116677998D01*
X154642631Y-116655803D01*
X154638119Y-116634347D01*
X154632932Y-116613638D01*
X154627075Y-116593683D01*
X154620553Y-116574491D01*
X154613372Y-116556068D01*
X154605537Y-116538423D01*
X154597052Y-116521564D01*
X154587924Y-116505497D01*
X154578157Y-116490232D01*
X154567756Y-116475775D01*
X154556726Y-116462134D01*
X154545073Y-116449318D01*
X154532802Y-116437333D01*
X154519918Y-116426187D01*
X154506425Y-116415889D01*
X154492330Y-116406446D01*
X154477638Y-116397866D01*
X154462353Y-116390155D01*
X154446480Y-116383323D01*
X154430025Y-116377377D01*
X154412994Y-116372325D01*
X154395390Y-116368174D01*
X154377220Y-116364931D01*
X154358488Y-116362606D01*
X154339200Y-116361205D01*
X154319361Y-116360736D01*
X154306459Y-116360934D01*
X154293767Y-116361524D01*
X154281287Y-116362506D01*
X154269023Y-116363878D01*
X154256976Y-116365639D01*
X154245149Y-116367786D01*
X154233545Y-116370317D01*
X154222167Y-116373232D01*
X154211017Y-116376529D01*
X154200098Y-116380205D01*
X154189412Y-116384260D01*
X154178962Y-116388691D01*
X154168750Y-116393497D01*
X154158780Y-116398676D01*
X154149054Y-116404227D01*
X154139573Y-116410147D01*
X154130342Y-116416435D01*
X154121363Y-116423090D01*
X154112638Y-116430109D01*
X154104169Y-116437492D01*
X154095960Y-116445235D01*
X154088014Y-116453339D01*
X154080331Y-116461800D01*
X154072916Y-116470618D01*
X154065772Y-116479791D01*
X154058899Y-116489316D01*
X154052302Y-116499193D01*
X154045982Y-116509419D01*
X154039943Y-116519993D01*
X154034187Y-116530913D01*
X154028716Y-116542178D01*
X154023534Y-116553786D01*
X154023106Y-116554745D01*
X154020682Y-116562320D01*
X154019821Y-116570394D01*
X154020031Y-116574520D01*
X154021645Y-116582399D01*
X154024716Y-116589646D01*
X154030351Y-116597565D01*
X154037681Y-116603917D01*
X154044551Y-116607654D01*
X154052134Y-116610017D01*
X154060268Y-116610841D01*
X154063392Y-116610719D01*
X154072364Y-116608960D01*
X154080532Y-116605306D01*
X154087634Y-116600003D01*
X154093407Y-116593298D01*
X154097588Y-116585440D01*
X154101548Y-116576551D01*
X154105697Y-116567946D01*
X154110035Y-116559624D01*
X154114563Y-116551587D01*
X154119280Y-116543832D01*
X154124188Y-116536361D01*
X154129287Y-116529174D01*
X154134576Y-116522269D01*
X154140056Y-116515648D01*
X154145727Y-116509310D01*
X154151589Y-116503254D01*
X154157643Y-116497481D01*
X154163889Y-116491991D01*
X154170327Y-116486784D01*
X154176958Y-116481859D01*
X154183781Y-116477216D01*
X154190798Y-116472855D01*
X154198007Y-116468777D01*
X154205410Y-116464980D01*
X154213006Y-116461466D01*
X154220797Y-116458233D01*
X154228781Y-116455282D01*
X154236960Y-116452612D01*
X154245334Y-116450224D01*
X154253902Y-116448117D01*
X154262666Y-116446292D01*
X154271625Y-116444747D01*
X154280780Y-116443484D01*
X154290130Y-116442502D01*
X154299677Y-116441800D01*
X154309421Y-116441379D01*
X154319361Y-116441239D01*
X154334688Y-116441598D01*
X154349564Y-116442672D01*
X154363987Y-116444462D01*
X154377954Y-116446964D01*
X154391463Y-116450178D01*
X154404512Y-116454101D01*
X154417097Y-116458732D01*
X154429218Y-116464069D01*
X154440871Y-116470112D01*
X154452055Y-116476857D01*
X154462766Y-116484303D01*
X154473003Y-116492450D01*
X154482764Y-116501294D01*
X154492045Y-116510835D01*
X154500845Y-116521071D01*
X154509162Y-116532000D01*
X154516992Y-116543620D01*
X154524334Y-116555930D01*
X154531185Y-116568928D01*
X154537544Y-116582613D01*
X154543407Y-116596983D01*
X154548772Y-116612037D01*
X154553638Y-116627771D01*
X154558001Y-116644186D01*
X154561860Y-116661280D01*
X154565211Y-116679049D01*
X154568054Y-116697494D01*
X154570385Y-116716613D01*
X154572202Y-116736403D01*
X154573502Y-116756863D01*
X154574284Y-116777992D01*
X154574546Y-116799787D01*
X154574284Y-116821565D01*
X154573502Y-116842677D01*
X154572202Y-116863122D01*
X154570385Y-116882897D01*
X154568054Y-116902002D01*
X154565211Y-116920435D01*
X154561860Y-116938193D01*
X154558001Y-116955275D01*
X154553638Y-116971680D01*
X154548772Y-116987406D01*
X154543407Y-117002451D01*
X154537544Y-117016814D01*
X154531185Y-117030492D01*
X154524334Y-117043484D01*
X154516992Y-117055789D01*
X154509162Y-117067404D01*
X154500845Y-117078329D01*
X154492045Y-117088561D01*
X154482764Y-117098098D01*
X154473003Y-117106940D01*
X154462766Y-117115084D01*
X154452055Y-117122528D01*
X154440871Y-117129272D01*
X154429218Y-117135313D01*
X154417097Y-117140649D01*
X154404512Y-117145280D01*
X154391463Y-117149202D01*
X154377954Y-117152416D01*
X154363987Y-117154918D01*
X154349564Y-117156707D01*
X154334688Y-117157782D01*
X154319361Y-117158140D01*
X154309132Y-117157991D01*
X154299110Y-117157543D01*
X154289293Y-117156796D01*
X154279683Y-117155750D01*
X154270278Y-117154405D01*
X154261079Y-117152760D01*
X154252085Y-117150817D01*
X154243297Y-117148575D01*
X154234715Y-117146034D01*
X154226338Y-117143194D01*
X154218166Y-117140054D01*
X154210200Y-117136615D01*
X154202439Y-117132877D01*
X154194883Y-117128840D01*
X154187532Y-117124504D01*
X154180386Y-117119868D01*
X154173445Y-117114932D01*
X154166709Y-117109698D01*
X154160178Y-117104163D01*
X154153852Y-117098330D01*
X154147730Y-117092196D01*
X154141813Y-117085764D01*
X154136100Y-117079031D01*
X154130591Y-117071999D01*
X154125287Y-117064667D01*
X154120188Y-117057036D01*
X154115292Y-117049105D01*
X154110601Y-117040874D01*
X154106114Y-117032343D01*
X154101830Y-117023512D01*
X154097751Y-117014382D01*
X154093876Y-117004951D01*
X154092045Y-117000734D01*
X154087063Y-116993137D01*
X154080538Y-116986871D01*
X154072732Y-116982190D01*
X154063909Y-116979350D01*
X154055969Y-116978573D01*
X154053894Y-116978625D01*
X154045895Y-116979838D01*
X154038499Y-116982535D01*
X154030347Y-116987750D01*
X154023701Y-116994722D01*
X154018875Y-117003138D01*
X154016534Y-117010699D01*
X154015718Y-117018824D01*
X153867129Y-117018824D01*
X153869425Y-117008831D01*
X153872537Y-116992459D01*
X153875103Y-116975626D01*
X153877112Y-116958346D01*
X153878557Y-116940629D01*
X153879431Y-116922488D01*
X153879723Y-116903933D01*
X153879431Y-116885378D01*
X153878557Y-116867236D01*
X153877112Y-116849519D01*
X153875103Y-116832239D01*
X153872537Y-116815406D01*
X153869425Y-116799034D01*
X153865772Y-116783132D01*
X153861588Y-116767712D01*
X153856881Y-116752787D01*
X153851659Y-116738367D01*
X153845930Y-116724464D01*
X153839703Y-116711090D01*
X153832984Y-116698256D01*
X153825784Y-116685973D01*
X153818109Y-116674254D01*
X153809968Y-116663109D01*
X153801369Y-116652551D01*
X153792320Y-116642590D01*
X153782829Y-116633238D01*
X153772905Y-116624507D01*
X153762556Y-116616409D01*
X153751790Y-116608954D01*
X153740614Y-116602154D01*
X153729038Y-116596022D01*
X153717069Y-116590567D01*
X153704715Y-116585803D01*
X153691985Y-116581740D01*
X153678887Y-116578390D01*
X153665429Y-116575764D01*
X153651619Y-116573874D01*
X153637465Y-116572732D01*
X153622975Y-116572348D01*
X153608486Y-116572732D01*
X153594332Y-116573874D01*
X153580522Y-116575764D01*
X153567064Y-116578390D01*
X153553965Y-116581740D01*
X153541235Y-116585803D01*
X153528882Y-116590567D01*
X153516913Y-116596022D01*
X153505337Y-116602154D01*
X153494161Y-116608954D01*
X153483395Y-116616409D01*
X153473045Y-116624507D01*
X153463121Y-116633238D01*
X153453631Y-116642590D01*
X153444582Y-116652551D01*
X153435983Y-116663109D01*
X153427842Y-116674254D01*
X153420167Y-116685973D01*
X153412966Y-116698256D01*
X153406248Y-116711090D01*
X153400020Y-116724464D01*
X153394291Y-116738367D01*
X153389069Y-116752787D01*
X153384362Y-116767712D01*
X153380179Y-116783132D01*
X153376526Y-116799034D01*
X153373413Y-116815406D01*
X153370848Y-116832239D01*
X153368839Y-116849519D01*
X153367393Y-116867236D01*
X153366520Y-116885378D01*
X153366227Y-116903933D01*
X153209716Y-116903933D01*
X153209716Y-116614944D01*
X153209664Y-116612869D01*
X153208452Y-116604870D01*
X153205755Y-116597474D01*
X153200540Y-116589322D01*
X153193567Y-116582676D01*
X153185152Y-116577850D01*
X153177590Y-116575509D01*
X153169465Y-116574693D01*
X153167390Y-116574745D01*
X153159391Y-116575958D01*
X153151995Y-116578655D01*
X153143843Y-116583870D01*
X153137197Y-116590842D01*
X153132371Y-116599258D01*
X153130030Y-116606819D01*
X153129214Y-116614944D01*
X153129214Y-116654609D01*
X153117719Y-116644895D01*
X153106099Y-116635760D01*
X153094365Y-116627210D01*
X153082524Y-116619252D01*
X153070586Y-116611893D01*
X153058560Y-116605140D01*
X153046454Y-116598998D01*
X153034277Y-116593475D01*
X153022038Y-116588578D01*
X153009747Y-116584311D01*
X152997411Y-116580683D01*
X152985041Y-116577700D01*
X152972643Y-116575369D01*
X152960229Y-116573695D01*
X152947806Y-116572686D01*
X152935383Y-116572348D01*
X152924534Y-116572609D01*
X152913902Y-116573384D01*
X152903495Y-116574665D01*
X152893322Y-116576442D01*
X152883390Y-116578705D01*
X152873709Y-116581446D01*
X152864287Y-116584653D01*
X152855131Y-116588319D01*
X152846250Y-116592433D01*
X152837654Y-116596986D01*
X152829349Y-116601969D01*
X152821345Y-116607372D01*
X152813650Y-116613185D01*
X152806272Y-116619400D01*
X152799219Y-116626006D01*
X152792501Y-116632994D01*
X152786125Y-116640355D01*
X152780099Y-116648079D01*
X152774433Y-116656157D01*
X152769134Y-116664579D01*
X152764210Y-116673335D01*
X152759671Y-116682417D01*
X152755525Y-116691815D01*
X152751779Y-116701519D01*
X152748443Y-116711520D01*
X152745525Y-116721808D01*
X152743032Y-116732374D01*
X152740974Y-116743209D01*
X152739359Y-116754302D01*
X152738194Y-116765645D01*
X152737490Y-116777228D01*
X152737253Y-116789041D01*
X152737253Y-117194093D01*
X152560226Y-117194093D01*
X152560226Y-116614944D01*
X152560174Y-116612869D01*
X152558961Y-116604870D01*
X152556264Y-116597474D01*
X152551049Y-116589322D01*
X152544077Y-116582676D01*
X152535661Y-116577850D01*
X152528100Y-116575509D01*
X152519975Y-116574693D01*
X152517899Y-116574745D01*
X152509900Y-116575958D01*
X152502505Y-116578655D01*
X152494353Y-116583870D01*
X152487707Y-116590842D01*
X152482880Y-116599258D01*
X152480539Y-116606819D01*
X152479723Y-116614944D01*
X152479723Y-116654609D01*
X152468228Y-116644895D01*
X152456609Y-116635760D01*
X152444874Y-116627210D01*
X152433033Y-116619252D01*
X152421095Y-116611893D01*
X152409069Y-116605140D01*
X152396963Y-116598998D01*
X152384786Y-116593475D01*
X152372548Y-116588578D01*
X152360256Y-116584311D01*
X152347921Y-116580683D01*
X152335550Y-116577700D01*
X152323153Y-116575369D01*
X152310738Y-116573695D01*
X152298315Y-116572686D01*
X152285892Y-116572348D01*
X152275044Y-116572609D01*
X152264412Y-116573384D01*
X152254005Y-116574665D01*
X152243831Y-116576442D01*
X152233900Y-116578705D01*
X152224219Y-116581446D01*
X152214796Y-116584653D01*
X152205640Y-116588319D01*
X152196760Y-116592433D01*
X152188163Y-116596986D01*
X152179859Y-116601969D01*
X152171855Y-116607372D01*
X152164159Y-116613185D01*
X152156781Y-116619400D01*
X152149729Y-116626006D01*
X152143010Y-116632994D01*
X152136634Y-116640355D01*
X152130609Y-116648079D01*
X152124942Y-116656157D01*
X152119643Y-116664579D01*
X152114720Y-116673335D01*
X152110181Y-116682417D01*
X152106034Y-116691815D01*
X152102289Y-116701519D01*
X152098953Y-116711520D01*
X152096034Y-116721808D01*
X152093542Y-116732374D01*
X152091483Y-116743209D01*
X152089868Y-116754302D01*
X152088704Y-116765645D01*
X152087999Y-116777228D01*
X152087763Y-116789041D01*
X152087763Y-117194093D01*
X151806727Y-117194093D01*
X151810469Y-117191456D01*
X151820637Y-117183358D01*
X151830387Y-117174627D01*
X151839712Y-117165275D01*
X151848602Y-117155314D01*
X151857051Y-117144756D01*
X151865049Y-117133611D01*
X151872590Y-117121892D01*
X151879665Y-117109609D01*
X151886265Y-117096775D01*
X151892384Y-117083401D01*
X151898013Y-117069498D01*
X151903143Y-117055078D01*
X151907768Y-117040153D01*
X151911878Y-117024733D01*
X151915467Y-117008831D01*
X151918525Y-116992459D01*
X151921045Y-116975626D01*
X151923020Y-116958346D01*
X151924440Y-116940629D01*
X151925298Y-116922488D01*
X151925585Y-116903933D01*
X151925298Y-116885378D01*
X151924440Y-116867236D01*
X151923020Y-116849519D01*
X151921045Y-116832239D01*
X151918525Y-116815406D01*
X151915467Y-116799034D01*
X151911878Y-116783132D01*
X151907768Y-116767712D01*
X151903143Y-116752787D01*
X151898013Y-116738367D01*
X151892384Y-116724464D01*
X151886265Y-116711090D01*
X151879665Y-116698256D01*
X151872590Y-116685973D01*
X151865049Y-116674254D01*
X151857051Y-116663109D01*
X151848602Y-116652551D01*
X151839712Y-116642590D01*
X151830387Y-116633238D01*
X151820637Y-116624507D01*
X151810469Y-116616409D01*
X151799891Y-116608954D01*
X151788911Y-116602154D01*
X151777537Y-116596022D01*
X151765778Y-116590567D01*
X151753641Y-116585803D01*
X151741133Y-116581740D01*
X151728265Y-116578390D01*
X151715042Y-116575764D01*
X151701473Y-116573874D01*
X151687567Y-116572732D01*
X151673331Y-116572348D01*
X151659275Y-116572706D01*
X151645540Y-116573770D01*
X151632135Y-116575532D01*
X151619068Y-116577980D01*
X151606348Y-116581105D01*
X151593982Y-116584895D01*
X151581979Y-116589340D01*
X151570346Y-116594431D01*
X151559093Y-116600156D01*
X151548226Y-116606505D01*
X151537755Y-116613468D01*
X151527688Y-116621035D01*
X151518032Y-116629194D01*
X151508795Y-116637936D01*
X151499987Y-116647250D01*
X151491615Y-116657125D01*
X151483686Y-116667552D01*
X151476211Y-116678519D01*
X151469195Y-116690018D01*
X151462649Y-116702036D01*
X151456579Y-116714563D01*
X151450995Y-116727590D01*
X151445903Y-116741106D01*
X151441313Y-116755100D01*
X151437232Y-116769562D01*
X151433669Y-116784482D01*
X151430632Y-116799849D01*
X151428128Y-116815652D01*
X151426167Y-116831882D01*
X151425260Y-116842579D01*
X151424756Y-116848528D01*
X151423903Y-116865579D01*
X151423617Y-116883025D01*
X151277235Y-116883025D01*
X151276453Y-116867590D01*
X151274962Y-116850176D01*
X151272892Y-116833155D01*
X151270254Y-116816541D01*
X151267056Y-116800348D01*
X151263310Y-116784589D01*
X151259025Y-116769278D01*
X151254212Y-116754430D01*
X151248879Y-116740058D01*
X151243039Y-116726176D01*
X151236699Y-116712798D01*
X151229872Y-116699937D01*
X151222566Y-116687608D01*
X151214791Y-116675824D01*
X151206559Y-116664599D01*
X151197878Y-116653947D01*
X151188759Y-116643882D01*
X151179212Y-116634418D01*
X151169246Y-116625569D01*
X151158873Y-116617347D01*
X151148102Y-116609768D01*
X151136943Y-116602846D01*
X151125406Y-116596593D01*
X151113501Y-116591023D01*
X151101239Y-116586152D01*
X151088629Y-116581992D01*
X151075681Y-116578557D01*
X151062405Y-116575862D01*
X151048813Y-116573919D01*
X151034912Y-116572743D01*
X151020714Y-116572348D01*
X151012149Y-116572509D01*
X151003605Y-116572987D01*
X150995092Y-116573777D01*
X150986617Y-116574873D01*
X150978189Y-116576271D01*
X150969818Y-116577964D01*
X150961512Y-116579948D01*
X150953279Y-116582216D01*
X150945129Y-116584763D01*
X150937070Y-116587585D01*
X150929111Y-116590675D01*
X150921260Y-116594028D01*
X150913527Y-116597639D01*
X150905920Y-116601501D01*
X150898448Y-116605611D01*
X150891119Y-116609962D01*
X150883943Y-116614548D01*
X150876927Y-116619366D01*
X150870082Y-116624408D01*
X150863414Y-116629669D01*
X150856934Y-116635145D01*
X150850650Y-116640829D01*
X150844571Y-116646717D01*
X150838705Y-116652802D01*
X150833061Y-116659080D01*
X150827647Y-116665544D01*
X150822474Y-116672190D01*
X150817549Y-116679012D01*
X150812880Y-116686005D01*
X150808478Y-116693163D01*
X150804350Y-116700480D01*
X150800505Y-116707952D01*
X150799232Y-116710572D01*
X150796772Y-116718442D01*
X150796011Y-116726319D01*
X150796064Y-116728394D01*
X150797288Y-116736393D01*
X150800010Y-116743789D01*
X150805267Y-116751941D01*
X150812285Y-116758587D01*
X150820741Y-116763413D01*
X150828324Y-116765754D01*
X150836458Y-116766570D01*
X150839470Y-116766459D01*
X150848102Y-116764858D01*
X150855972Y-116761514D01*
X150862878Y-116756638D01*
X150868620Y-116750438D01*
X150872996Y-116743123D01*
X150878268Y-116733385D01*
X150884304Y-116724050D01*
X150891054Y-116715147D01*
X150898468Y-116706709D01*
X150906494Y-116698767D01*
X150915081Y-116691352D01*
X150924180Y-116684495D01*
X150933739Y-116678228D01*
X150943709Y-116672581D01*
X150954037Y-116667585D01*
X150964674Y-116663273D01*
X150975569Y-116659674D01*
X150986671Y-116656821D01*
X150997930Y-116654745D01*
X151009295Y-116653476D01*
X151020714Y-116653046D01*
X151030469Y-116653333D01*
X151040017Y-116654189D01*
X151049353Y-116655606D01*
X151058469Y-116657575D01*
X151067359Y-116660088D01*
X151076015Y-116663136D01*
X151084432Y-116666713D01*
X151092601Y-116670809D01*
X151100517Y-116675416D01*
X151108173Y-116680526D01*
X151115561Y-116686131D01*
X151122676Y-116692222D01*
X151129510Y-116698792D01*
X151136056Y-116705831D01*
X151142307Y-116713333D01*
X151148258Y-116721288D01*
X151153901Y-116729688D01*
X151159228Y-116738526D01*
X151164235Y-116747792D01*
X151168913Y-116757479D01*
X151173255Y-116767579D01*
X151177256Y-116778082D01*
X151180908Y-116788982D01*
X151184204Y-116800270D01*
X151187139Y-116811937D01*
X151189703Y-116823975D01*
X151191892Y-116836377D01*
X151193699Y-116849133D01*
X151195115Y-116862236D01*
X151196136Y-116875677D01*
X151196753Y-116889448D01*
X151196960Y-116903542D01*
X151196745Y-116917517D01*
X151196105Y-116931190D01*
X151195047Y-116944551D01*
X151193578Y-116957592D01*
X151191708Y-116970302D01*
X151189442Y-116982673D01*
X151186789Y-116994695D01*
X151183756Y-117006359D01*
X151180350Y-117017656D01*
X151176580Y-117028576D01*
X151172452Y-117039111D01*
X151167975Y-117049251D01*
X151163155Y-117058986D01*
X151158001Y-117068308D01*
X151152520Y-117077207D01*
X151146719Y-117085674D01*
X151140607Y-117093699D01*
X151134189Y-117101274D01*
X151127475Y-117108389D01*
X151120472Y-117115035D01*
X151113187Y-117121203D01*
X151105627Y-117126882D01*
X151097801Y-117132065D01*
X151089716Y-117136742D01*
X151081379Y-117140903D01*
X151072798Y-117144539D01*
X151063981Y-117147642D01*
X151054935Y-117150201D01*
X151045667Y-117152207D01*
X151036185Y-117153652D01*
X151026498Y-117154525D01*
X151016611Y-117154819D01*
X151005213Y-117154334D01*
X150993972Y-117152894D01*
X150982918Y-117150518D01*
X150972080Y-117147226D01*
X150961486Y-117143037D01*
X150951167Y-117137972D01*
X150941151Y-117132049D01*
X150931468Y-117125290D01*
X150922147Y-117117713D01*
X150913216Y-117109338D01*
X150904706Y-117100185D01*
X150896645Y-117090275D01*
X150889063Y-117079625D01*
X150881988Y-117068257D01*
X150875451Y-117056190D01*
X150869479Y-117043444D01*
X150868246Y-117040748D01*
X150863453Y-117033354D01*
X150857195Y-117027186D01*
X150849707Y-117022483D01*
X150841219Y-117019486D01*
X150831964Y-117018434D01*
X150829888Y-117018486D01*
X150821889Y-117019698D01*
X150814493Y-117022395D01*
X150806341Y-117027611D01*
X150799696Y-117034583D01*
X150794869Y-117042998D01*
X150792528Y-117050560D01*
X150791712Y-117058685D01*
X150539654Y-117058685D01*
X150539654Y-116656368D01*
X150666465Y-116656368D01*
X150668540Y-116656316D01*
X150676552Y-116655104D01*
X150683972Y-116652406D01*
X150692166Y-116647191D01*
X150698857Y-116640219D01*
X150703724Y-116631803D01*
X150706087Y-116624242D01*
X150706911Y-116616117D01*
X150706702Y-116611992D01*
X150705087Y-116604113D01*
X150702017Y-116596865D01*
X150696382Y-116588946D01*
X150689051Y-116582594D01*
X150682182Y-116578857D01*
X150674598Y-116576494D01*
X150666465Y-116575670D01*
X150539654Y-116575670D01*
X150539654Y-116405482D01*
X150539601Y-116403406D01*
X150538376Y-116395407D01*
X150535654Y-116388012D01*
X150530397Y-116379860D01*
X150523380Y-116373214D01*
X150514924Y-116368387D01*
X150507340Y-116366046D01*
X150499207Y-116365230D01*
X150497132Y-116365283D01*
X150489133Y-116366495D01*
X150481737Y-116369192D01*
X150473585Y-116374407D01*
X150466939Y-116381380D01*
X150462113Y-116389795D01*
X150459772Y-116397357D01*
X150458956Y-116405482D01*
X150458956Y-116575670D01*
X150331950Y-116575670D01*
X150329874Y-116575723D01*
X150321875Y-116576947D01*
X150314479Y-116579669D01*
X150306327Y-116584927D01*
X150299682Y-116591944D01*
X150294855Y-116600400D01*
X150292514Y-116607983D01*
X150291698Y-116616117D01*
X150155116Y-116616117D01*
X150154495Y-116613638D01*
X150148638Y-116593683D01*
X150142116Y-116574491D01*
X150134935Y-116556068D01*
X150127100Y-116538423D01*
X150118616Y-116521564D01*
X150109487Y-116505497D01*
X150099720Y-116490232D01*
X150089319Y-116475775D01*
X150078289Y-116462134D01*
X150066636Y-116449318D01*
X150054365Y-116437333D01*
X150041481Y-116426187D01*
X150027988Y-116415889D01*
X150013893Y-116406446D01*
X149999201Y-116397866D01*
X149983916Y-116390155D01*
X149968043Y-116383323D01*
X149951589Y-116377377D01*
X149934557Y-116372325D01*
X149916953Y-116368174D01*
X149898783Y-116364931D01*
X149880051Y-116362606D01*
X149860763Y-116361205D01*
X149840924Y-116360736D01*
X149828022Y-116360934D01*
X149815330Y-116361524D01*
X149802850Y-116362506D01*
X149790586Y-116363878D01*
X149778539Y-116365639D01*
X149766712Y-116367786D01*
X149755109Y-116370317D01*
X149743730Y-116373232D01*
X149732580Y-116376529D01*
X149721661Y-116380205D01*
X149710975Y-116384260D01*
X149700525Y-116388691D01*
X149690313Y-116393497D01*
X149680343Y-116398676D01*
X149670617Y-116404227D01*
X149661137Y-116410147D01*
X149651905Y-116416435D01*
X149642926Y-116423090D01*
X149634201Y-116430109D01*
X149625732Y-116437492D01*
X149617524Y-116445235D01*
X149609577Y-116453339D01*
X149601895Y-116461800D01*
X149594480Y-116470618D01*
X149587335Y-116479791D01*
X149580462Y-116489316D01*
X149573865Y-116499193D01*
X149567545Y-116509419D01*
X149561506Y-116519993D01*
X149555750Y-116530913D01*
X149550279Y-116542178D01*
X149545097Y-116553786D01*
X149544669Y-116554745D01*
X149542246Y-116562320D01*
X149541384Y-116570394D01*
X149541594Y-116574520D01*
X149543208Y-116582399D01*
X149546279Y-116589646D01*
X149551914Y-116597565D01*
X149559245Y-116603917D01*
X149566114Y-116607654D01*
X149573698Y-116610017D01*
X149581831Y-116610841D01*
X149584955Y-116610719D01*
X149593927Y-116608960D01*
X149602096Y-116605306D01*
X149609198Y-116600003D01*
X149614970Y-116593298D01*
X149619151Y-116585440D01*
X149623111Y-116576551D01*
X149627260Y-116567946D01*
X149631598Y-116559624D01*
X149636126Y-116551587D01*
X149640843Y-116543832D01*
X149645751Y-116536361D01*
X149650850Y-116529174D01*
X149656139Y-116522269D01*
X149661619Y-116515648D01*
X149667290Y-116509310D01*
X149673152Y-116503254D01*
X149679206Y-116497481D01*
X149685452Y-116491991D01*
X149691891Y-116486784D01*
X149698521Y-116481859D01*
X149705345Y-116477216D01*
X149712361Y-116472855D01*
X149719570Y-116468777D01*
X149726973Y-116464980D01*
X149734569Y-116461466D01*
X149742360Y-116458233D01*
X149750344Y-116455282D01*
X149758523Y-116452612D01*
X149766897Y-116450224D01*
X149775465Y-116448117D01*
X149784229Y-116446292D01*
X149793188Y-116444747D01*
X149802343Y-116443484D01*
X149811694Y-116442502D01*
X149821240Y-116441800D01*
X149830984Y-116441379D01*
X149840924Y-116441239D01*
X149856251Y-116441598D01*
X149871127Y-116442672D01*
X149885550Y-116444462D01*
X149899517Y-116446964D01*
X149913026Y-116450178D01*
X149926075Y-116454101D01*
X149938660Y-116458732D01*
X149950781Y-116464069D01*
X149962434Y-116470112D01*
X149973618Y-116476857D01*
X149984329Y-116484303D01*
X149994567Y-116492450D01*
X150004327Y-116501294D01*
X150013608Y-116510835D01*
X150022408Y-116521071D01*
X150030725Y-116532000D01*
X150038555Y-116543620D01*
X150045897Y-116555930D01*
X150052749Y-116568928D01*
X150059107Y-116582613D01*
X150064970Y-116596983D01*
X150070336Y-116612037D01*
X150075201Y-116627771D01*
X150079564Y-116644186D01*
X150083423Y-116661280D01*
X150086775Y-116679049D01*
X150089617Y-116697494D01*
X150091948Y-116716613D01*
X150093765Y-116736403D01*
X150095065Y-116756863D01*
X150095847Y-116777992D01*
X150096109Y-116799787D01*
X150095847Y-116821565D01*
X150095065Y-116842677D01*
X150093765Y-116863122D01*
X150091948Y-116882897D01*
X150089617Y-116902002D01*
X150086775Y-116920435D01*
X150083423Y-116938193D01*
X150079564Y-116955275D01*
X150075201Y-116971680D01*
X150070336Y-116987406D01*
X150064970Y-117002451D01*
X150059107Y-117016814D01*
X150052749Y-117030492D01*
X150045897Y-117043484D01*
X150038555Y-117055789D01*
X150030725Y-117067404D01*
X150022408Y-117078329D01*
X150013608Y-117088561D01*
X150004327Y-117098098D01*
X149994567Y-117106940D01*
X149984329Y-117115084D01*
X149973618Y-117122528D01*
X149962434Y-117129272D01*
X149950781Y-117135313D01*
X149938660Y-117140649D01*
X149926075Y-117145280D01*
X149913026Y-117149202D01*
X149899517Y-117152416D01*
X149885550Y-117154918D01*
X149871127Y-117156707D01*
X149856251Y-117157782D01*
X149840924Y-117158140D01*
X149830695Y-117157991D01*
X149820673Y-117157543D01*
X149810856Y-117156796D01*
X149801246Y-117155750D01*
X149791841Y-117154405D01*
X149782642Y-117152760D01*
X149773648Y-117150817D01*
X149764860Y-117148575D01*
X149756278Y-117146034D01*
X149747901Y-117143194D01*
X149739729Y-117140054D01*
X149731763Y-117136615D01*
X149724002Y-117132877D01*
X149716446Y-117128840D01*
X149709095Y-117124504D01*
X149701950Y-117119868D01*
X149695009Y-117114932D01*
X149688273Y-117109698D01*
X149681741Y-117104163D01*
X149675415Y-117098330D01*
X149669293Y-117092196D01*
X149663376Y-117085764D01*
X149657663Y-117079031D01*
X149652155Y-117071999D01*
X149646851Y-117064667D01*
X149641751Y-117057036D01*
X149636855Y-117049105D01*
X149632164Y-117040874D01*
X149627677Y-117032343D01*
X149623394Y-117023512D01*
X149619314Y-117014382D01*
X149615439Y-117004951D01*
X149613608Y-117000734D01*
X149608626Y-116993137D01*
X149602101Y-116986871D01*
X149594295Y-116982190D01*
X149585472Y-116979350D01*
X149577532Y-116978573D01*
X149575457Y-116978625D01*
X149567458Y-116979838D01*
X149560062Y-116982535D01*
X149551910Y-116987750D01*
X149545264Y-116994722D01*
X149540438Y-117003138D01*
X149538097Y-117010699D01*
X149537281Y-117018824D01*
X149380770Y-117018824D01*
X149380770Y-116613772D01*
X149380718Y-116611697D01*
X149379506Y-116603698D01*
X149376809Y-116596302D01*
X149371593Y-116588150D01*
X149364621Y-116581504D01*
X149356205Y-116576678D01*
X149348644Y-116574337D01*
X149340519Y-116573521D01*
X149338444Y-116573573D01*
X149330445Y-116574785D01*
X149323049Y-116577482D01*
X149314897Y-116582698D01*
X149308251Y-116589670D01*
X149303425Y-116598086D01*
X149301084Y-116605647D01*
X149300268Y-116613772D01*
X149300268Y-117019801D01*
X149300141Y-117028097D01*
X149299125Y-117043900D01*
X149297097Y-117058654D01*
X149294059Y-117072358D01*
X149290013Y-117085012D01*
X149284962Y-117096614D01*
X149278909Y-117107164D01*
X149271855Y-117116662D01*
X149263805Y-117125106D01*
X149254759Y-117132497D01*
X149244721Y-117138834D01*
X149233694Y-117144116D01*
X149221680Y-117148343D01*
X149208681Y-117151514D01*
X149194700Y-117153629D01*
X149179740Y-117154687D01*
X149171894Y-117154819D01*
X149160996Y-117154305D01*
X149149930Y-117152773D01*
X149138718Y-117150233D01*
X149127380Y-117146698D01*
X149115937Y-117142177D01*
X149104409Y-117136684D01*
X149092817Y-117130228D01*
X149081182Y-117122823D01*
X149069524Y-117114479D01*
X149057863Y-117105207D01*
X149046220Y-117095019D01*
X149040413Y-117089586D01*
X149034617Y-117083927D01*
X149028836Y-117078046D01*
X149023073Y-117071942D01*
X149017330Y-117065618D01*
X149011609Y-117059076D01*
X149005914Y-117052315D01*
X149000246Y-117045339D01*
X148994609Y-117038148D01*
X148989005Y-117030743D01*
X148989005Y-116613772D01*
X148988952Y-116611697D01*
X148987727Y-116603698D01*
X148985005Y-116596302D01*
X148979748Y-116588150D01*
X148972731Y-116581504D01*
X148964275Y-116576678D01*
X148956691Y-116574337D01*
X148948558Y-116573521D01*
X148946483Y-116573573D01*
X148938484Y-116574785D01*
X148931088Y-116577482D01*
X148922936Y-116582698D01*
X148916290Y-116589670D01*
X148911464Y-116598086D01*
X148909123Y-116605647D01*
X148908307Y-116613772D01*
X148908307Y-117192921D01*
X148730498Y-117192921D01*
X148730498Y-116398838D01*
X148730289Y-116394713D01*
X148728674Y-116386834D01*
X148725604Y-116379587D01*
X148719969Y-116371668D01*
X148712638Y-116365316D01*
X148705768Y-116361579D01*
X148698185Y-116359216D01*
X148690051Y-116358392D01*
X148687976Y-116358444D01*
X148679977Y-116359669D01*
X148672581Y-116362391D01*
X148664429Y-116367648D01*
X148657784Y-116374666D01*
X148652957Y-116383121D01*
X148650616Y-116390705D01*
X148649800Y-116398838D01*
X148649800Y-116629013D01*
X148642163Y-116622387D01*
X148634350Y-116616143D01*
X148626369Y-116610288D01*
X148618229Y-116604827D01*
X148609936Y-116599766D01*
X148601499Y-116595113D01*
X148592924Y-116590872D01*
X148584221Y-116587052D01*
X148575396Y-116583657D01*
X148566458Y-116580695D01*
X148557414Y-116578171D01*
X148548272Y-116576091D01*
X148539039Y-116574463D01*
X148529723Y-116573293D01*
X148520333Y-116572586D01*
X148510875Y-116572348D01*
X148496634Y-116572749D01*
X148482679Y-116573941D01*
X148469021Y-116575909D01*
X148455670Y-116578638D01*
X148442638Y-116582114D01*
X148429935Y-116586322D01*
X148417572Y-116591247D01*
X148405560Y-116596873D01*
X148393911Y-116603187D01*
X148382634Y-116610174D01*
X148371742Y-116617818D01*
X148361244Y-116626104D01*
X148351152Y-116635019D01*
X148341476Y-116644546D01*
X148332228Y-116654672D01*
X148323418Y-116665381D01*
X148315058Y-116676658D01*
X148307158Y-116688489D01*
X148299730Y-116700858D01*
X148292783Y-116713752D01*
X148286330Y-116727154D01*
X148280380Y-116741051D01*
X148274945Y-116755427D01*
X148270036Y-116770268D01*
X148265664Y-116785558D01*
X148261839Y-116801283D01*
X148258573Y-116817428D01*
X148255876Y-116833978D01*
X148253759Y-116850918D01*
X148252234Y-116868234D01*
X148251311Y-116885910D01*
X148251000Y-116903933D01*
X148119305Y-116903933D01*
X148119017Y-116885378D01*
X148118159Y-116867236D01*
X148116739Y-116849519D01*
X148114765Y-116832239D01*
X148112245Y-116815406D01*
X148109186Y-116799034D01*
X148105598Y-116783132D01*
X148101487Y-116767712D01*
X148096863Y-116752787D01*
X148091732Y-116738367D01*
X148086103Y-116724464D01*
X148079985Y-116711090D01*
X148073384Y-116698256D01*
X148066309Y-116685973D01*
X148058769Y-116674254D01*
X148050770Y-116663109D01*
X148042322Y-116652551D01*
X148033431Y-116642590D01*
X148024107Y-116633238D01*
X148014357Y-116624507D01*
X148004189Y-116616409D01*
X147993611Y-116608954D01*
X147982631Y-116602154D01*
X147971257Y-116596022D01*
X147959497Y-116590567D01*
X147947360Y-116585803D01*
X147934853Y-116581740D01*
X147921984Y-116578390D01*
X147908761Y-116575764D01*
X147895193Y-116573874D01*
X147881287Y-116572732D01*
X147867051Y-116572348D01*
X147852994Y-116572706D01*
X147839259Y-116573770D01*
X147825854Y-116575532D01*
X147812788Y-116577980D01*
X147800067Y-116581105D01*
X147787701Y-116584895D01*
X147775698Y-116589340D01*
X147764066Y-116594431D01*
X147752812Y-116600156D01*
X147741946Y-116606505D01*
X147731475Y-116613468D01*
X147721407Y-116621035D01*
X147711751Y-116629194D01*
X147702515Y-116637936D01*
X147693706Y-116647250D01*
X147685334Y-116657125D01*
X147677406Y-116667552D01*
X147669930Y-116678519D01*
X147662915Y-116690018D01*
X147656368Y-116702036D01*
X147650299Y-116714563D01*
X147644714Y-116727590D01*
X147639622Y-116741106D01*
X147635032Y-116755100D01*
X147630952Y-116769562D01*
X147627388Y-116784482D01*
X147624351Y-116799849D01*
X147621848Y-116815652D01*
X147619886Y-116831882D01*
X147618979Y-116842579D01*
X147618475Y-116848528D01*
X147617623Y-116865579D01*
X147617337Y-116883025D01*
X146990317Y-116883025D01*
X146990317Y-116407631D01*
X146990264Y-116405556D01*
X146989052Y-116397557D01*
X146986355Y-116390161D01*
X146981140Y-116382009D01*
X146974168Y-116375363D01*
X146965752Y-116370537D01*
X146958190Y-116368196D01*
X146950065Y-116367380D01*
X146428949Y-116367380D01*
X146426873Y-116367432D01*
X146418862Y-116368644D01*
X146411441Y-116371341D01*
X146403247Y-116376557D01*
X146396556Y-116383529D01*
X146391690Y-116391945D01*
X146389327Y-116399506D01*
X146388502Y-116407631D01*
X146388712Y-116411756D01*
X146390326Y-116419635D01*
X146393397Y-116426882D01*
X146399032Y-116434801D01*
X146406362Y-116441153D01*
X146413232Y-116444890D01*
X146420816Y-116447253D01*
X146428949Y-116448078D01*
X146909619Y-116448078D01*
X146909619Y-116736284D01*
X146499877Y-116736284D01*
X146497802Y-116736337D01*
X146489803Y-116737561D01*
X146482407Y-116740283D01*
X146474255Y-116745541D01*
X146467609Y-116752558D01*
X146462783Y-116761014D01*
X146460442Y-116768598D01*
X146459626Y-116776731D01*
X146459678Y-116778806D01*
X146460890Y-116786805D01*
X146463587Y-116794201D01*
X146468803Y-116802353D01*
X146475775Y-116808999D01*
X146484190Y-116813825D01*
X146491752Y-116816166D01*
X146499877Y-116816982D01*
X146909619Y-116816982D01*
X146909619Y-117151497D01*
X146428949Y-117151497D01*
X146426873Y-117151549D01*
X146418862Y-117152762D01*
X146411441Y-117155459D01*
X146403247Y-117160674D01*
X146396556Y-117167646D01*
X146391690Y-117176062D01*
X146389327Y-117183623D01*
X146388502Y-117191748D01*
X146111741Y-117191748D01*
X146122229Y-117185496D01*
X146132584Y-117178702D01*
X146142564Y-117171512D01*
X146152166Y-117163927D01*
X146161385Y-117155948D01*
X146170218Y-117147578D01*
X146178663Y-117138819D01*
X146186715Y-117129671D01*
X146194372Y-117120136D01*
X146201630Y-117110217D01*
X146208485Y-117099915D01*
X146214935Y-117089232D01*
X146220975Y-117078169D01*
X146226603Y-117066729D01*
X146231816Y-117054912D01*
X146236609Y-117042721D01*
X146240980Y-117030157D01*
X146242414Y-117024976D01*
X146243324Y-117016870D01*
X146243115Y-117012745D01*
X146241500Y-117004866D01*
X146238430Y-116997619D01*
X146232795Y-116989700D01*
X146225464Y-116983348D01*
X146218595Y-116979611D01*
X146211011Y-116977248D01*
X146202878Y-116976424D01*
X146199504Y-116976564D01*
X146191427Y-116978083D01*
X146184001Y-116981133D01*
X146177405Y-116985538D01*
X146171817Y-116991125D01*
X146167418Y-116997720D01*
X146164385Y-117005147D01*
X146161135Y-117014491D01*
X146157578Y-117023545D01*
X146153712Y-117032308D01*
X146149539Y-117040780D01*
X146145059Y-117048961D01*
X146140271Y-117056850D01*
X146135175Y-117064447D01*
X146129773Y-117071752D01*
X146124063Y-117078763D01*
X146118046Y-117085481D01*
X146111723Y-117091904D01*
X146105092Y-117098034D01*
X146098155Y-117103868D01*
X146090912Y-117109408D01*
X146083362Y-117114651D01*
X146075505Y-117119599D01*
X146067342Y-117124250D01*
X146058873Y-117128604D01*
X146050098Y-117132661D01*
X146041018Y-117136420D01*
X146031631Y-117139880D01*
X146021938Y-117143042D01*
X146011940Y-117145905D01*
X146001637Y-117148468D01*
X145991028Y-117150732D01*
X145980114Y-117152695D01*
X145968894Y-117154357D01*
X145957370Y-117155718D01*
X145945540Y-117156777D01*
X145933406Y-117157534D01*
X145920967Y-117157989D01*
X145908223Y-117158140D01*
X145894452Y-117157942D01*
X145881058Y-117157351D01*
X145868045Y-117156370D01*
X145855417Y-117155002D01*
X145843178Y-117153253D01*
X145831332Y-117151125D01*
X145819883Y-117148622D01*
X145808835Y-117145748D01*
X145798191Y-117142507D01*
X145787956Y-117138903D01*
X145778134Y-117134939D01*
X145768728Y-117130618D01*
X145759742Y-117125946D01*
X145751181Y-117120925D01*
X145743048Y-117115560D01*
X145735348Y-117109854D01*
X145728084Y-117103810D01*
X145721260Y-117097433D01*
X145714880Y-117090727D01*
X145708948Y-117083694D01*
X145703468Y-117076339D01*
X145698443Y-117068666D01*
X145693879Y-117060679D01*
X145689778Y-117052380D01*
X145686145Y-117043775D01*
X145682984Y-117034866D01*
X145680298Y-117025657D01*
X145678092Y-117016153D01*
X145676369Y-117006356D01*
X145675134Y-116996271D01*
X145674390Y-116985902D01*
X145674141Y-116975251D01*
X145674326Y-116966297D01*
X145674886Y-116957639D01*
X145675829Y-116949275D01*
X145677162Y-116941201D01*
X145681030Y-116925912D01*
X145686551Y-116911748D01*
X145693786Y-116898683D01*
X145702796Y-116886692D01*
X145713642Y-116875750D01*
X145719772Y-116870664D01*
X145726384Y-116865831D01*
X145733486Y-116861247D01*
X145741085Y-116856910D01*
X145749188Y-116852816D01*
X145757803Y-116848963D01*
X145766939Y-116845346D01*
X145776602Y-116841963D01*
X145786800Y-116838811D01*
X145797541Y-116835886D01*
X145808833Y-116833186D01*
X145820682Y-116830707D01*
X145833097Y-116828447D01*
X145846086Y-116826401D01*
X145859655Y-116824567D01*
X145873813Y-116822941D01*
X145888567Y-116821521D01*
X145903924Y-116820304D01*
X145923138Y-116818716D01*
X145941759Y-116816772D01*
X145959787Y-116814473D01*
X145977221Y-116811817D01*
X145994060Y-116808804D01*
X146010302Y-116805433D01*
X146025946Y-116801704D01*
X146040990Y-116797617D01*
X146055435Y-116793170D01*
X146069279Y-116788364D01*
X146082519Y-116783197D01*
X146095156Y-116777669D01*
X146107188Y-116771780D01*
X146118614Y-116765530D01*
X146129433Y-116758916D01*
X146139643Y-116751940D01*
X146149244Y-116744601D01*
X146158233Y-116736897D01*
X146166611Y-116728828D01*
X146174376Y-116720395D01*
X146181526Y-116711596D01*
X146188060Y-116702431D01*
X146193978Y-116692899D01*
X146199278Y-116683000D01*
X146203959Y-116672733D01*
X146208020Y-116662097D01*
X146211459Y-116651093D01*
X146214275Y-116639719D01*
X146216468Y-116627976D01*
X146218035Y-116615862D01*
X146218977Y-116603377D01*
X146219291Y-116590520D01*
X146218945Y-116577569D01*
X146217913Y-116564917D01*
X146216208Y-116552569D01*
X146213839Y-116540535D01*
X146210818Y-116528822D01*
X146207155Y-116517436D01*
X146202862Y-116506385D01*
X146197950Y-116495678D01*
X146192429Y-116485320D01*
X146186311Y-116475319D01*
X146179606Y-116465684D01*
X146172325Y-116456420D01*
X146164480Y-116447537D01*
X146156081Y-116439040D01*
X146147139Y-116430938D01*
X146137665Y-116423238D01*
X146127670Y-116415947D01*
X146117165Y-116409073D01*
X146106162Y-116402623D01*
X146094670Y-116396605D01*
X146082701Y-116391025D01*
X146070266Y-116385892D01*
X146057375Y-116381212D01*
X146044040Y-116376994D01*
X146030272Y-116373244D01*
X146016082Y-116369970D01*
X146001480Y-116367180D01*
X145986478Y-116364880D01*
X145971086Y-116363078D01*
X145955315Y-116361782D01*
X145939177Y-116360999D01*
X145922682Y-116360736D01*
X145909474Y-116360932D01*
X145896451Y-116361516D01*
X145883623Y-116362485D01*
X145870995Y-116363833D01*
X145858576Y-116365557D01*
X145846373Y-116367653D01*
X145834394Y-116370116D01*
X145822647Y-116372942D01*
X145811137Y-116376128D01*
X145799874Y-116379668D01*
X145788865Y-116383558D01*
X145778117Y-116387795D01*
X145767638Y-116392373D01*
X145757435Y-116397290D01*
X145747516Y-116402540D01*
X145737888Y-116408120D01*
X145728559Y-116414024D01*
X145719536Y-116420250D01*
X145710828Y-116426792D01*
X145702440Y-116433647D01*
X145694381Y-116440810D01*
X145686659Y-116448277D01*
X145679281Y-116456044D01*
X145672254Y-116464106D01*
X145665586Y-116472460D01*
X145659284Y-116481101D01*
X145653357Y-116490025D01*
X145647811Y-116499227D01*
X145642653Y-116508705D01*
X145637893Y-116518452D01*
X145633536Y-116528465D01*
X145629591Y-116538741D01*
X145627653Y-116545298D01*
X145626855Y-116553200D01*
X145626908Y-116555275D01*
X145628133Y-116563274D01*
X145630855Y-116570670D01*
X145636112Y-116578822D01*
X145643129Y-116585468D01*
X145651585Y-116590294D01*
X145659169Y-116592635D01*
X145667302Y-116593451D01*
X145673828Y-116592924D01*
X145681499Y-116590872D01*
X145689779Y-116586576D01*
X145696786Y-116580545D01*
X145702242Y-116573055D01*
X145705404Y-116565900D01*
X145708194Y-116558701D01*
X145714673Y-116544856D01*
X145722324Y-116531769D01*
X145731110Y-116519465D01*
X145740999Y-116507967D01*
X145751954Y-116497298D01*
X145763941Y-116487482D01*
X145770311Y-116482900D01*
X145776926Y-116478541D01*
X145783781Y-116474407D01*
X145790874Y-116470501D01*
X145798198Y-116466825D01*
X145805750Y-116463383D01*
X145813525Y-116460178D01*
X145821520Y-116457212D01*
X145829729Y-116454489D01*
X145838149Y-116452011D01*
X145846775Y-116449781D01*
X145855602Y-116447803D01*
X145864627Y-116446079D01*
X145873846Y-116444612D01*
X145883253Y-116443406D01*
X145892844Y-116442462D01*
X145902616Y-116441784D01*
X145912563Y-116441376D01*
X145922682Y-116441239D01*
X145935181Y-116441408D01*
X145947357Y-116441911D01*
X145959207Y-116442744D01*
X145970724Y-116443903D01*
X145981905Y-116445383D01*
X145992745Y-116447179D01*
X146003237Y-116449288D01*
X146013379Y-116451705D01*
X146023164Y-116454425D01*
X146032588Y-116457444D01*
X146041645Y-116460757D01*
X146050332Y-116464361D01*
X146058642Y-116468250D01*
X146066572Y-116472421D01*
X146074116Y-116476868D01*
X146081269Y-116481588D01*
X146088027Y-116486575D01*
X146094384Y-116491826D01*
X146100336Y-116497336D01*
X146105878Y-116503101D01*
X146111004Y-116509116D01*
X146115711Y-116515376D01*
X146123844Y-116528617D01*
X146130238Y-116542787D01*
X146132770Y-116550209D01*
X146134853Y-116557851D01*
X146136482Y-116565707D01*
X146137652Y-116573774D01*
X146138357Y-116582046D01*
X146138593Y-116590520D01*
X146138383Y-116598753D01*
X146137749Y-116606747D01*
X146136686Y-116614502D01*
X146133257Y-116629300D01*
X146128057Y-116643155D01*
X146121048Y-116656074D01*
X146112194Y-116668065D01*
X146101456Y-116679135D01*
X146095368Y-116684327D01*
X146088796Y-116689292D01*
X146081733Y-116694030D01*
X146074176Y-116698543D01*
X146066120Y-116702831D01*
X146057559Y-116706895D01*
X146048490Y-116710737D01*
X146038908Y-116714357D01*
X146028807Y-116717756D01*
X146018183Y-116720935D01*
X146007032Y-116723895D01*
X145995348Y-116726637D01*
X145983127Y-116729162D01*
X145970364Y-116731470D01*
X145957055Y-116733563D01*
X145943194Y-116735442D01*
X145928778Y-116737107D01*
X145913801Y-116738560D01*
X145898258Y-116739801D01*
X145879247Y-116741368D01*
X145860866Y-116743285D01*
X145843112Y-116745555D01*
X145825984Y-116748179D01*
X145809480Y-116751161D01*
X145793598Y-116754503D01*
X145778337Y-116758207D01*
X145763695Y-116762275D01*
X145749671Y-116766709D01*
X145736262Y-116771513D01*
X145723468Y-116776688D01*
X145711285Y-116782237D01*
X145699713Y-116788161D01*
X145688751Y-116794464D01*
X145678395Y-116801147D01*
X145668645Y-116808214D01*
X145659499Y-116815665D01*
X145650956Y-116823505D01*
X145643013Y-116831734D01*
X145635668Y-116840355D01*
X145628921Y-116849371D01*
X145622770Y-116858784D01*
X145617212Y-116868596D01*
X145612247Y-116878809D01*
X145607872Y-116889426D01*
X145604085Y-116900450D01*
X145600886Y-116911882D01*
X145598272Y-116923725D01*
X145596242Y-116935981D01*
X145594795Y-116948653D01*
X145593927Y-116961742D01*
X145593638Y-116975251D01*
X145413485Y-116975251D01*
X145413485Y-116407631D01*
X145413433Y-116405556D01*
X145412220Y-116397557D01*
X145409523Y-116390161D01*
X145404308Y-116382009D01*
X145397336Y-116375363D01*
X145388920Y-116370537D01*
X145381358Y-116368196D01*
X145373234Y-116367380D01*
X145036569Y-116367380D01*
X145024190Y-116367700D01*
X145011974Y-116368648D01*
X144999937Y-116370211D01*
X144988095Y-116372372D01*
X144976461Y-116375116D01*
X144965051Y-116378427D01*
X144953880Y-116382290D01*
X144942963Y-116386690D01*
X144932315Y-116391611D01*
X144921952Y-116397038D01*
X144911887Y-116402956D01*
X144902136Y-116409348D01*
X144892715Y-116416200D01*
X144883638Y-116423496D01*
X144874920Y-116431220D01*
X144866576Y-116439358D01*
X144858622Y-116447894D01*
X144851072Y-116456812D01*
X144843941Y-116466097D01*
X144837244Y-116475734D01*
X144830997Y-116485707D01*
X144825214Y-116496001D01*
X144819911Y-116506600D01*
X144815102Y-116517488D01*
X144810803Y-116528652D01*
X144807028Y-116540074D01*
X144803792Y-116551740D01*
X144801111Y-116563635D01*
X144799000Y-116575742D01*
X144797474Y-116588046D01*
X144796547Y-116600533D01*
X144796234Y-116613186D01*
X144116058Y-116613186D01*
X144114906Y-116602408D01*
X144114699Y-116594428D01*
X144114966Y-116586424D01*
X144115758Y-116578540D01*
X144117065Y-116570782D01*
X144118876Y-116563162D01*
X144121179Y-116555687D01*
X144123964Y-116548366D01*
X144127218Y-116541208D01*
X144130932Y-116534222D01*
X144135094Y-116527417D01*
X144139692Y-116520802D01*
X144144716Y-116514386D01*
X144150155Y-116508177D01*
X144155997Y-116502184D01*
X144162232Y-116496417D01*
X144168847Y-116490884D01*
X144175833Y-116485593D01*
X144183178Y-116480555D01*
X144190870Y-116475777D01*
X144198899Y-116471270D01*
X144207254Y-116467040D01*
X144215923Y-116463098D01*
X144224895Y-116459452D01*
X144234160Y-116456111D01*
X144243705Y-116453085D01*
X144253520Y-116450381D01*
X144263595Y-116448009D01*
X144273917Y-116445977D01*
X144284475Y-116444295D01*
X144295259Y-116442971D01*
X144306257Y-116442015D01*
X144317458Y-116441434D01*
X144328851Y-116441239D01*
X144338947Y-116441334D01*
X144348829Y-116441620D01*
X144358500Y-116442098D01*
X144367962Y-116442770D01*
X144377220Y-116443635D01*
X144386275Y-116444695D01*
X144395130Y-116445950D01*
X144403788Y-116447403D01*
X144412252Y-116449053D01*
X144420524Y-116450902D01*
X144428607Y-116452951D01*
X144436504Y-116455201D01*
X144444218Y-116457652D01*
X144451751Y-116460306D01*
X144459106Y-116463163D01*
X144473295Y-116469492D01*
X144486805Y-116476647D01*
X144499659Y-116484636D01*
X144511879Y-116493466D01*
X144523486Y-116503146D01*
X144534504Y-116513682D01*
X144544954Y-116525082D01*
X144549973Y-116531109D01*
X144554858Y-116537355D01*
X144559612Y-116543821D01*
X144562546Y-116547597D01*
X144568672Y-116553259D01*
X144575892Y-116557546D01*
X144584010Y-116560262D01*
X144592829Y-116561211D01*
X144594904Y-116561159D01*
X144602903Y-116559946D01*
X144610299Y-116557249D01*
X144618451Y-116552034D01*
X144625097Y-116545062D01*
X144629923Y-116536646D01*
X144632264Y-116529085D01*
X144633080Y-116520960D01*
X144633071Y-116520137D01*
X144632081Y-116512140D01*
X144629569Y-116504682D01*
X144625264Y-116497317D01*
X144619051Y-116488828D01*
X144612649Y-116480617D01*
X144606056Y-116472683D01*
X144599272Y-116465025D01*
X144592297Y-116457644D01*
X144585128Y-116450538D01*
X144577767Y-116443707D01*
X144570212Y-116437151D01*
X144562462Y-116430868D01*
X144554517Y-116424859D01*
X144546376Y-116419123D01*
X144538038Y-116413659D01*
X144529502Y-116408467D01*
X144520768Y-116403546D01*
X144511836Y-116398895D01*
X144502703Y-116394515D01*
X144493371Y-116390405D01*
X144483837Y-116386563D01*
X144474101Y-116382990D01*
X144464163Y-116379685D01*
X144454022Y-116376648D01*
X144443677Y-116373878D01*
X144433127Y-116371374D01*
X144422372Y-116369135D01*
X144411410Y-116367162D01*
X144400242Y-116365454D01*
X144388867Y-116364011D01*
X144377283Y-116362830D01*
X144365490Y-116361913D01*
X144353488Y-116361259D01*
X144341275Y-116360867D01*
X144328851Y-116360736D01*
X144313324Y-116361030D01*
X144298041Y-116361901D01*
X144283019Y-116363338D01*
X144268273Y-116365328D01*
X144253820Y-116367859D01*
X144239677Y-116370917D01*
X144225859Y-116374490D01*
X144212384Y-116378566D01*
X144199267Y-116383132D01*
X144186524Y-116388176D01*
X144174173Y-116393684D01*
X144162229Y-116399644D01*
X144150708Y-116406044D01*
X144139627Y-116412872D01*
X144129003Y-116420113D01*
X144118851Y-116427757D01*
X144109188Y-116435789D01*
X144100030Y-116444199D01*
X144091394Y-116452972D01*
X144083296Y-116462097D01*
X144075751Y-116471561D01*
X144068777Y-116481351D01*
X144062390Y-116491455D01*
X144056606Y-116501860D01*
X144051441Y-116512553D01*
X144046912Y-116523523D01*
X144043035Y-116534755D01*
X144039826Y-116546239D01*
X144037302Y-116557960D01*
X144035479Y-116569908D01*
X144034373Y-116582068D01*
X144034001Y-116594428D01*
X144034388Y-116608073D01*
X144035541Y-116621378D01*
X144037448Y-116634332D01*
X144040095Y-116646925D01*
X144043470Y-116659145D01*
X144047561Y-116670983D01*
X144052355Y-116682428D01*
X144057839Y-116693468D01*
X144064001Y-116704095D01*
X144070828Y-116714296D01*
X144078308Y-116724061D01*
X144086428Y-116733381D01*
X144095175Y-116742243D01*
X144104537Y-116750638D01*
X144114501Y-116758556D01*
X144125055Y-116765984D01*
X144117635Y-116769422D01*
X144110434Y-116773029D01*
X144103452Y-116776806D01*
X144096692Y-116780752D01*
X144083838Y-116789150D01*
X144071880Y-116798218D01*
X144060828Y-116807952D01*
X144050691Y-116818349D01*
X144041477Y-116829404D01*
X144033195Y-116841113D01*
X144025854Y-116853473D01*
X144019464Y-116866479D01*
X144014032Y-116880127D01*
X144009568Y-116894413D01*
X144006080Y-116909334D01*
X144004705Y-116917031D01*
X144003578Y-116924885D01*
X144002699Y-116932895D01*
X144002070Y-116941062D01*
X144001692Y-116949384D01*
X144001566Y-116957861D01*
X143732608Y-116957861D01*
X143730497Y-116955814D01*
X143717328Y-116943821D01*
X143703546Y-116932009D01*
X143689159Y-116920390D01*
X143674179Y-116908971D01*
X143658615Y-116897764D01*
X143642477Y-116886778D01*
X143625776Y-116876021D01*
X143608521Y-116865505D01*
X143590723Y-116855239D01*
X143572391Y-116845232D01*
X143553536Y-116835495D01*
X143534168Y-116826036D01*
X143514296Y-116816866D01*
X143493931Y-116807994D01*
X143481307Y-116802566D01*
X143469148Y-116797125D01*
X143457451Y-116791667D01*
X143446212Y-116786189D01*
X143435427Y-116780688D01*
X143425090Y-116775161D01*
X143415199Y-116769604D01*
X143405748Y-116764015D01*
X143396733Y-116758390D01*
X143388149Y-116752726D01*
X143379994Y-116747020D01*
X143372262Y-116741269D01*
X143364949Y-116735469D01*
X143358050Y-116729617D01*
X143351562Y-116723711D01*
X143345481Y-116717746D01*
X143339801Y-116711720D01*
X143334518Y-116705630D01*
X143325129Y-116693244D01*
X143317279Y-116680561D01*
X143310932Y-116667557D01*
X143306056Y-116654207D01*
X143302616Y-116640483D01*
X143300577Y-116626362D01*
X143299905Y-116611818D01*
X143300129Y-116601805D01*
X143300801Y-116592066D01*
X143301916Y-116582602D01*
X143303473Y-116573418D01*
X143305468Y-116564515D01*
X143307898Y-116555897D01*
X143310761Y-116547567D01*
X143314053Y-116539528D01*
X143317771Y-116531783D01*
X143321913Y-116524334D01*
X143326476Y-116517184D01*
X143331456Y-116510337D01*
X143336851Y-116503796D01*
X143342657Y-116497563D01*
X143348873Y-116491641D01*
X143355495Y-116486033D01*
X143362519Y-116480742D01*
X143369944Y-116475772D01*
X143377765Y-116471124D01*
X143385981Y-116466803D01*
X143394589Y-116462810D01*
X143403584Y-116459149D01*
X143412965Y-116455823D01*
X143422729Y-116452834D01*
X143432871Y-116450186D01*
X143443391Y-116447882D01*
X143454284Y-116445924D01*
X143465548Y-116444316D01*
X143477180Y-116443059D01*
X143489176Y-116442158D01*
X143501535Y-116441616D01*
X143514252Y-116441434D01*
X143524064Y-116441571D01*
X143533713Y-116441979D01*
X143543202Y-116442661D01*
X143552530Y-116443616D01*
X143561697Y-116444843D01*
X143570703Y-116446344D01*
X143579548Y-116448118D01*
X143588234Y-116450166D01*
X143596758Y-116452487D01*
X143605123Y-116455082D01*
X143613328Y-116457951D01*
X143621373Y-116461094D01*
X143629258Y-116464512D01*
X143636983Y-116468203D01*
X143644550Y-116472169D01*
X143651957Y-116476410D01*
X143659204Y-116480925D01*
X143666293Y-116485716D01*
X143673223Y-116490781D01*
X143679994Y-116496122D01*
X143686607Y-116501738D01*
X143693061Y-116507629D01*
X143699357Y-116513796D01*
X143705495Y-116520239D01*
X143711474Y-116526958D01*
X143717296Y-116533953D01*
X143722960Y-116541224D01*
X143728467Y-116548771D01*
X143733816Y-116556595D01*
X143739008Y-116564696D01*
X143744043Y-116573073D01*
X143748921Y-116581727D01*
X143750246Y-116584096D01*
X143755112Y-116590557D01*
X143761175Y-116595904D01*
X143768247Y-116599954D01*
X143776143Y-116602520D01*
X143784678Y-116603416D01*
X143786753Y-116603363D01*
X143794752Y-116602140D01*
X143802148Y-116599421D01*
X143810300Y-116594176D01*
X143816946Y-116587183D01*
X143821772Y-116578769D01*
X143824113Y-116571234D01*
X143824929Y-116563165D01*
X143824655Y-116558380D01*
X143822985Y-116550641D01*
X143819654Y-116543039D01*
X143813434Y-116532047D01*
X143806978Y-116521382D01*
X143800287Y-116511046D01*
X143793364Y-116501041D01*
X143786210Y-116491368D01*
X143778828Y-116482028D01*
X143771220Y-116473023D01*
X143763389Y-116464353D01*
X143755337Y-116456022D01*
X143747066Y-116448029D01*
X143738578Y-116440376D01*
X143729875Y-116433065D01*
X143720960Y-116426097D01*
X143711835Y-116419473D01*
X143702503Y-116413195D01*
X143692965Y-116407265D01*
X143683224Y-116401683D01*
X143673282Y-116396451D01*
X143663141Y-116391570D01*
X143652803Y-116387043D01*
X143642272Y-116382869D01*
X143631548Y-116379051D01*
X143620635Y-116375590D01*
X143609535Y-116372488D01*
X143598249Y-116369745D01*
X143586780Y-116367363D01*
X143575131Y-116365344D01*
X143563303Y-116363689D01*
X143551299Y-116362399D01*
X143539121Y-116361476D01*
X143526771Y-116360922D01*
X143514252Y-116360736D01*
X143497453Y-116361016D01*
X143481057Y-116361852D01*
X143465075Y-116363236D01*
X143449514Y-116365162D01*
X143434383Y-116367623D01*
X143419691Y-116370613D01*
X143405445Y-116374124D01*
X143391655Y-116378151D01*
X143378328Y-116382686D01*
X143365473Y-116387722D01*
X143353099Y-116393254D01*
X143341214Y-116399273D01*
X143329826Y-116405774D01*
X143318945Y-116412750D01*
X143308577Y-116420194D01*
X143298733Y-116428099D01*
X143289419Y-116436458D01*
X143280645Y-116445265D01*
X143272420Y-116454514D01*
X143264751Y-116464196D01*
X143257647Y-116474306D01*
X143251116Y-116484838D01*
X143245167Y-116495783D01*
X143239809Y-116507136D01*
X143235049Y-116518889D01*
X143230897Y-116531036D01*
X143227360Y-116543571D01*
X143224448Y-116556486D01*
X143222168Y-116569775D01*
X143220528Y-116583432D01*
X143219539Y-116597448D01*
X143219207Y-116611818D01*
X143219436Y-116622573D01*
X143220123Y-116633151D01*
X143221270Y-116643555D01*
X143222880Y-116653788D01*
X143224953Y-116663852D01*
X143227491Y-116673751D01*
X143230497Y-116683487D01*
X143233972Y-116693062D01*
X143237917Y-116702481D01*
X143242334Y-116711746D01*
X143247225Y-116720859D01*
X143252592Y-116729823D01*
X143258436Y-116738641D01*
X143264760Y-116747317D01*
X143271564Y-116755852D01*
X143278851Y-116764250D01*
X143286622Y-116772513D01*
X143294880Y-116780645D01*
X143303625Y-116788648D01*
X143312859Y-116796525D01*
X143322584Y-116804278D01*
X143332803Y-116811912D01*
X143343516Y-116819427D01*
X143354725Y-116826828D01*
X143366433Y-116834117D01*
X143378640Y-116841297D01*
X143391348Y-116848371D01*
X143404560Y-116855341D01*
X143418277Y-116862210D01*
X143432500Y-116868982D01*
X143447231Y-116875659D01*
X143462473Y-116882244D01*
X143477900Y-116888929D01*
X143493002Y-116895793D01*
X143507770Y-116902827D01*
X143522201Y-116910026D01*
X143536288Y-116917383D01*
X143550024Y-116924891D01*
X143563405Y-116932543D01*
X143576424Y-116940334D01*
X143589076Y-116948256D01*
X143601355Y-116956303D01*
X143613254Y-116964467D01*
X143624768Y-116972744D01*
X143635891Y-116981125D01*
X143646617Y-116989605D01*
X143656940Y-116998176D01*
X143666855Y-117006832D01*
X143676356Y-117015567D01*
X143685436Y-117024373D01*
X143694090Y-117033245D01*
X143702312Y-117042175D01*
X143710096Y-117051157D01*
X143717436Y-117060185D01*
X143724326Y-117069251D01*
X143730761Y-117078349D01*
X143736735Y-117087473D01*
X143742241Y-117096616D01*
X143747275Y-117105771D01*
X143751829Y-117114931D01*
X143755898Y-117124091D01*
X143759477Y-117133243D01*
X143762559Y-117142380D01*
X143765139Y-117151497D01*
X143233471Y-117151497D01*
X143231396Y-117151549D01*
X143223396Y-117152762D01*
X143216001Y-117155459D01*
X143207849Y-117160674D01*
X143201203Y-117167646D01*
X143196376Y-117176062D01*
X143194036Y-117183623D01*
X143193220Y-117191748D01*
X142910401Y-117191748D01*
X142920889Y-117185496D01*
X142931244Y-117178702D01*
X142941224Y-117171512D01*
X142950826Y-117163927D01*
X142960045Y-117155948D01*
X142968878Y-117147578D01*
X142977323Y-117138819D01*
X142985375Y-117129671D01*
X142993032Y-117120136D01*
X143000290Y-117110217D01*
X143007145Y-117099915D01*
X143013595Y-117089232D01*
X143019635Y-117078169D01*
X143025264Y-117066729D01*
X143030476Y-117054912D01*
X143035269Y-117042721D01*
X143039640Y-117030157D01*
X143041074Y-117024976D01*
X143041984Y-117016870D01*
X143041775Y-117012745D01*
X143040161Y-117004866D01*
X143037090Y-116997619D01*
X143031455Y-116989700D01*
X143024124Y-116983348D01*
X143017255Y-116979611D01*
X143009671Y-116977248D01*
X143001538Y-116976424D01*
X142998165Y-116976564D01*
X142990087Y-116978083D01*
X142982661Y-116981133D01*
X142976065Y-116985538D01*
X142970477Y-116991125D01*
X142966078Y-116997720D01*
X142963045Y-117005147D01*
X142959795Y-117014491D01*
X142956238Y-117023545D01*
X142952372Y-117032308D01*
X142948199Y-117040780D01*
X142943719Y-117048961D01*
X142938931Y-117056850D01*
X142933835Y-117064447D01*
X142928433Y-117071752D01*
X142922723Y-117078763D01*
X142916707Y-117085481D01*
X142910383Y-117091904D01*
X142903753Y-117098034D01*
X142896815Y-117103868D01*
X142889572Y-117109408D01*
X142882022Y-117114651D01*
X142874165Y-117119599D01*
X142866002Y-117124250D01*
X142857534Y-117128604D01*
X142848759Y-117132661D01*
X142839678Y-117136420D01*
X142830291Y-117139880D01*
X142820599Y-117143042D01*
X142810601Y-117145905D01*
X142800297Y-117148468D01*
X142789688Y-117150732D01*
X142778774Y-117152695D01*
X142767554Y-117154357D01*
X142756030Y-117155718D01*
X142744200Y-117156777D01*
X142732066Y-117157534D01*
X142719627Y-117157989D01*
X142706883Y-117158140D01*
X142693112Y-117157942D01*
X142679718Y-117157351D01*
X142666705Y-117156370D01*
X142654077Y-117155002D01*
X142641838Y-117153253D01*
X142629992Y-117151125D01*
X142618543Y-117148622D01*
X142607495Y-117145748D01*
X142596851Y-117142507D01*
X142586616Y-117138903D01*
X142576794Y-117134939D01*
X142567388Y-117130618D01*
X142558402Y-117125946D01*
X142549841Y-117120925D01*
X142541709Y-117115560D01*
X142534008Y-117109854D01*
X142526744Y-117103810D01*
X142519920Y-117097433D01*
X142513540Y-117090727D01*
X142507608Y-117083694D01*
X142502128Y-117076339D01*
X142497104Y-117068666D01*
X142492539Y-117060679D01*
X142488439Y-117052380D01*
X142484806Y-117043775D01*
X142481644Y-117034866D01*
X142478959Y-117025657D01*
X142476752Y-117016153D01*
X142475029Y-117006356D01*
X142473794Y-116996271D01*
X142473050Y-116985902D01*
X142472801Y-116975251D01*
X142472986Y-116966297D01*
X142473546Y-116957639D01*
X142474489Y-116949275D01*
X142475822Y-116941201D01*
X142479690Y-116925912D01*
X142485211Y-116911748D01*
X142492446Y-116898683D01*
X142501456Y-116886692D01*
X142512302Y-116875750D01*
X142518432Y-116870664D01*
X142525044Y-116865831D01*
X142532146Y-116861247D01*
X142539745Y-116856910D01*
X142547848Y-116852816D01*
X142556464Y-116848963D01*
X142565599Y-116845346D01*
X142575262Y-116841963D01*
X142585461Y-116838811D01*
X142596202Y-116835886D01*
X142607493Y-116833186D01*
X142619342Y-116830707D01*
X142631758Y-116828447D01*
X142644746Y-116826401D01*
X142658315Y-116824567D01*
X142672473Y-116822941D01*
X142687227Y-116821521D01*
X142702585Y-116820304D01*
X142721798Y-116818716D01*
X142740419Y-116816772D01*
X142758448Y-116814473D01*
X142775881Y-116811817D01*
X142792720Y-116808804D01*
X142808962Y-116805433D01*
X142824606Y-116801704D01*
X142839651Y-116797617D01*
X142854095Y-116793170D01*
X142867939Y-116788364D01*
X142881179Y-116783197D01*
X142893816Y-116777669D01*
X142905849Y-116771780D01*
X142917274Y-116765530D01*
X142928093Y-116758916D01*
X142938303Y-116751940D01*
X142947904Y-116744601D01*
X142956894Y-116736897D01*
X142965271Y-116728828D01*
X142973036Y-116720395D01*
X142980186Y-116711596D01*
X142986721Y-116702431D01*
X142992638Y-116692899D01*
X142997938Y-116683000D01*
X143002619Y-116672733D01*
X143006680Y-116662097D01*
X143010119Y-116651093D01*
X143012935Y-116639719D01*
X143015128Y-116627976D01*
X143016695Y-116615862D01*
X143017637Y-116603377D01*
X143017951Y-116590520D01*
X143017605Y-116577569D01*
X143016573Y-116564917D01*
X143014868Y-116552569D01*
X143012499Y-116540535D01*
X143009478Y-116528822D01*
X143005815Y-116517436D01*
X143001523Y-116506385D01*
X142996610Y-116495678D01*
X142991089Y-116485320D01*
X142984971Y-116475319D01*
X142978266Y-116465684D01*
X142970985Y-116456420D01*
X142963140Y-116447537D01*
X142954741Y-116439040D01*
X142945799Y-116430938D01*
X142936325Y-116423238D01*
X142926330Y-116415947D01*
X142915825Y-116409073D01*
X142904822Y-116402623D01*
X142893330Y-116396605D01*
X142881361Y-116391025D01*
X142868926Y-116385892D01*
X142856035Y-116381212D01*
X142842701Y-116376994D01*
X142828933Y-116373244D01*
X142814742Y-116369970D01*
X142800140Y-116367180D01*
X142785138Y-116364880D01*
X142769746Y-116363078D01*
X142753975Y-116361782D01*
X142737837Y-116360999D01*
X142721342Y-116360736D01*
X142708134Y-116360932D01*
X142695112Y-116361516D01*
X142682283Y-116362485D01*
X142669655Y-116363833D01*
X142657236Y-116365557D01*
X142645034Y-116367653D01*
X142633055Y-116370116D01*
X142621307Y-116372942D01*
X142609797Y-116376128D01*
X142598535Y-116379668D01*
X142587525Y-116383558D01*
X142576777Y-116387795D01*
X142566298Y-116392373D01*
X142556095Y-116397290D01*
X142546176Y-116402540D01*
X142536548Y-116408120D01*
X142527219Y-116414024D01*
X142518197Y-116420250D01*
X142509488Y-116426792D01*
X142501100Y-116433647D01*
X142493042Y-116440810D01*
X142485319Y-116448277D01*
X142477941Y-116456044D01*
X142470914Y-116464106D01*
X142464246Y-116472460D01*
X142457945Y-116481101D01*
X142452017Y-116490025D01*
X142446471Y-116499227D01*
X142441314Y-116508705D01*
X142436553Y-116518452D01*
X142432196Y-116528465D01*
X142428251Y-116538741D01*
X142426313Y-116545298D01*
X142425515Y-116553200D01*
X142425568Y-116555275D01*
X142426793Y-116563274D01*
X142429515Y-116570670D01*
X142434772Y-116578822D01*
X142441789Y-116585468D01*
X142450245Y-116590294D01*
X142457829Y-116592635D01*
X142465962Y-116593451D01*
X142472488Y-116592924D01*
X142480159Y-116590872D01*
X142488439Y-116586576D01*
X142495446Y-116580545D01*
X142500902Y-116573055D01*
X142504064Y-116565900D01*
X142506854Y-116558701D01*
X142513334Y-116544856D01*
X142520984Y-116531769D01*
X142529771Y-116519465D01*
X142539659Y-116507967D01*
X142550614Y-116497298D01*
X142562601Y-116487482D01*
X142568971Y-116482900D01*
X142575586Y-116478541D01*
X142582442Y-116474407D01*
X142589534Y-116470501D01*
X142596858Y-116466825D01*
X142604410Y-116463383D01*
X142612185Y-116460178D01*
X142620180Y-116457212D01*
X142628389Y-116454489D01*
X142636809Y-116452011D01*
X142645435Y-116449781D01*
X142654262Y-116447803D01*
X142663288Y-116446079D01*
X142672506Y-116444612D01*
X142681913Y-116443406D01*
X142691504Y-116442462D01*
X142701276Y-116441784D01*
X142711223Y-116441376D01*
X142721342Y-116441239D01*
X142733841Y-116441408D01*
X142746017Y-116441911D01*
X142757867Y-116442744D01*
X142769385Y-116443903D01*
X142780566Y-116445383D01*
X142791405Y-116447179D01*
X142801898Y-116449288D01*
X142812039Y-116451705D01*
X142821824Y-116454425D01*
X142831248Y-116457444D01*
X142840305Y-116460757D01*
X142848992Y-116464361D01*
X142857302Y-116468250D01*
X142865232Y-116472421D01*
X142872776Y-116476868D01*
X142879929Y-116481588D01*
X142886687Y-116486575D01*
X142893044Y-116491826D01*
X142898996Y-116497336D01*
X142904538Y-116503101D01*
X142909664Y-116509116D01*
X142914371Y-116515376D01*
X142922504Y-116528617D01*
X142928898Y-116542787D01*
X142931430Y-116550209D01*
X142933514Y-116557851D01*
X142935142Y-116565707D01*
X142936312Y-116573774D01*
X142937017Y-116582046D01*
X142937253Y-116590520D01*
X142937043Y-116598753D01*
X142936409Y-116606747D01*
X142935346Y-116614502D01*
X142931917Y-116629300D01*
X142926717Y-116643155D01*
X142919709Y-116656074D01*
X142910854Y-116668065D01*
X142900116Y-116679135D01*
X142894028Y-116684327D01*
X142887456Y-116689292D01*
X142880393Y-116694030D01*
X142872836Y-116698543D01*
X142864780Y-116702831D01*
X142856220Y-116706895D01*
X142847150Y-116710737D01*
X142837568Y-116714357D01*
X142827467Y-116717756D01*
X142816843Y-116720935D01*
X142805692Y-116723895D01*
X142794008Y-116726637D01*
X142781787Y-116729162D01*
X142769024Y-116731470D01*
X142755715Y-116733563D01*
X142741855Y-116735442D01*
X142727438Y-116737107D01*
X142712461Y-116738560D01*
X142696918Y-116739801D01*
X142677908Y-116741368D01*
X142659526Y-116743285D01*
X142641772Y-116745555D01*
X142624644Y-116748179D01*
X142608140Y-116751161D01*
X142592258Y-116754503D01*
X142576997Y-116758207D01*
X142562356Y-116762275D01*
X142548331Y-116766709D01*
X142534922Y-116771513D01*
X142522128Y-116776688D01*
X142509945Y-116782237D01*
X142498374Y-116788161D01*
X142487411Y-116794464D01*
X142477055Y-116801147D01*
X142467305Y-116808214D01*
X142458160Y-116815665D01*
X142449616Y-116823505D01*
X142441673Y-116831734D01*
X142434328Y-116840355D01*
X142427581Y-116849371D01*
X142421430Y-116858784D01*
X142415872Y-116868596D01*
X142410907Y-116878809D01*
X142406532Y-116889426D01*
X142402745Y-116900450D01*
X142399546Y-116911882D01*
X142396933Y-116923725D01*
X142394903Y-116935981D01*
X142393455Y-116948653D01*
X142392587Y-116961742D01*
X142392298Y-116975251D01*
X141665585Y-116975251D01*
X141665125Y-116969163D01*
X141664846Y-116957861D01*
X141665058Y-116949008D01*
X141665695Y-116940438D01*
X141666759Y-116932151D01*
X141668252Y-116924146D01*
X141670174Y-116916423D01*
X141675316Y-116901824D01*
X141682197Y-116888353D01*
X141690831Y-116876009D01*
X141701230Y-116864792D01*
X141707096Y-116859606D01*
X141713407Y-116854701D01*
X141720167Y-116850077D01*
X141727375Y-116845734D01*
X141735035Y-116841672D01*
X141743147Y-116837891D01*
X141751714Y-116834391D01*
X141760736Y-116831171D01*
X141770216Y-116828232D01*
X141780155Y-116825573D01*
X141790554Y-116823195D01*
X141801416Y-116821097D01*
X141812742Y-116819279D01*
X141824533Y-116817741D01*
X141836791Y-116816483D01*
X141849517Y-116815504D01*
X141862714Y-116814805D01*
X141876383Y-116814386D01*
X141890526Y-116814247D01*
X141947972Y-116814247D01*
X141950047Y-116814194D01*
X141958046Y-116812969D01*
X141965442Y-116810247D01*
X141973594Y-116804990D01*
X141980240Y-116797973D01*
X141985066Y-116789517D01*
X141987407Y-116781933D01*
X141988223Y-116773800D01*
X141988171Y-116771742D01*
X141986959Y-116763791D01*
X141984262Y-116756415D01*
X141979046Y-116748259D01*
X141972074Y-116741589D01*
X141963658Y-116736733D01*
X141956097Y-116734373D01*
X141947972Y-116733549D01*
X141890526Y-116733549D01*
X141879193Y-116733394D01*
X141868166Y-116732933D01*
X141857450Y-116732169D01*
X141847048Y-116731105D01*
X141836963Y-116729746D01*
X141827199Y-116728094D01*
X141817759Y-116726154D01*
X141808647Y-116723929D01*
X141799865Y-116721422D01*
X141791419Y-116718638D01*
X141783311Y-116715579D01*
X141775544Y-116712250D01*
X141768122Y-116708654D01*
X141761049Y-116704795D01*
X141754327Y-116700677D01*
X141741954Y-116691674D01*
X141731031Y-116681677D01*
X141721585Y-116670713D01*
X141713645Y-116658811D01*
X141707237Y-116646001D01*
X141702389Y-116632311D01*
X141699130Y-116617771D01*
X141697488Y-116602408D01*
X141697281Y-116594428D01*
X141697548Y-116586424D01*
X141698340Y-116578540D01*
X141699647Y-116570782D01*
X141701458Y-116563162D01*
X141703761Y-116555687D01*
X141706546Y-116548366D01*
X141709800Y-116541208D01*
X141713514Y-116534222D01*
X141717676Y-116527417D01*
X141722274Y-116520802D01*
X141727298Y-116514386D01*
X141732737Y-116508177D01*
X141738579Y-116502184D01*
X141744814Y-116496417D01*
X141751429Y-116490884D01*
X141758415Y-116485593D01*
X141765760Y-116480555D01*
X141773452Y-116475777D01*
X141781481Y-116471270D01*
X141789836Y-116467040D01*
X141798505Y-116463098D01*
X141807477Y-116459452D01*
X141816742Y-116456111D01*
X141826287Y-116453085D01*
X141836102Y-116450381D01*
X141846177Y-116448009D01*
X141856499Y-116445977D01*
X141867057Y-116444295D01*
X141877841Y-116442971D01*
X141888839Y-116442015D01*
X141900040Y-116441434D01*
X141911433Y-116441239D01*
X141921529Y-116441334D01*
X141931411Y-116441620D01*
X141941082Y-116442098D01*
X141950544Y-116442770D01*
X141959802Y-116443635D01*
X141968857Y-116444695D01*
X141977712Y-116445950D01*
X141986370Y-116447403D01*
X141994834Y-116449053D01*
X142003106Y-116450902D01*
X142011189Y-116452951D01*
X142019086Y-116455201D01*
X142026800Y-116457652D01*
X142034333Y-116460306D01*
X142041688Y-116463163D01*
X142055877Y-116469492D01*
X142069387Y-116476647D01*
X142082241Y-116484636D01*
X142094461Y-116493466D01*
X142106068Y-116503146D01*
X142117086Y-116513682D01*
X142127536Y-116525082D01*
X142132555Y-116531109D01*
X142137440Y-116537355D01*
X142142194Y-116543821D01*
X142145128Y-116547597D01*
X142151254Y-116553259D01*
X142158474Y-116557546D01*
X142166592Y-116560262D01*
X142175411Y-116561211D01*
X142177486Y-116561159D01*
X142185485Y-116559946D01*
X142192881Y-116557249D01*
X142201033Y-116552034D01*
X142207679Y-116545062D01*
X142212505Y-116536646D01*
X142214846Y-116529085D01*
X142215662Y-116520960D01*
X142215653Y-116520137D01*
X142214663Y-116512140D01*
X142212151Y-116504682D01*
X142207846Y-116497317D01*
X142201633Y-116488828D01*
X142195231Y-116480617D01*
X142188638Y-116472683D01*
X142181854Y-116465025D01*
X142174879Y-116457644D01*
X142167710Y-116450538D01*
X142160349Y-116443707D01*
X142152794Y-116437151D01*
X142145044Y-116430868D01*
X142137099Y-116424859D01*
X142128958Y-116419123D01*
X142120620Y-116413659D01*
X142112084Y-116408467D01*
X142103350Y-116403546D01*
X142094418Y-116398895D01*
X142085285Y-116394515D01*
X142075953Y-116390405D01*
X142066419Y-116386563D01*
X142056683Y-116382990D01*
X142046745Y-116379685D01*
X142036604Y-116376648D01*
X142026259Y-116373878D01*
X142015709Y-116371374D01*
X142004954Y-116369135D01*
X141993992Y-116367162D01*
X141982824Y-116365454D01*
X141971449Y-116364011D01*
X141959865Y-116362830D01*
X141948072Y-116361913D01*
X141936070Y-116361259D01*
X141923857Y-116360867D01*
X141911433Y-116360736D01*
X141895906Y-116361030D01*
X141880623Y-116361901D01*
X141865601Y-116363338D01*
X141850855Y-116365328D01*
X141836402Y-116367859D01*
X141822259Y-116370917D01*
X141808441Y-116374490D01*
X141794966Y-116378566D01*
X141781849Y-116383132D01*
X141769106Y-116388176D01*
X141756755Y-116393684D01*
X141744811Y-116399644D01*
X141733290Y-116406044D01*
X141722209Y-116412872D01*
X141711585Y-116420113D01*
X141701433Y-116427757D01*
X141691770Y-116435789D01*
X141682612Y-116444199D01*
X141673976Y-116452972D01*
X141665877Y-116462097D01*
X141658333Y-116471561D01*
X141651359Y-116481351D01*
X141644972Y-116491455D01*
X141639188Y-116501860D01*
X141634023Y-116512553D01*
X141629494Y-116523523D01*
X141625617Y-116534755D01*
X141622408Y-116546239D01*
X141619884Y-116557960D01*
X141618061Y-116569908D01*
X141616955Y-116582068D01*
X141616583Y-116594428D01*
X141616970Y-116608073D01*
X141618123Y-116621378D01*
X141620030Y-116634332D01*
X141622677Y-116646925D01*
X141626052Y-116659145D01*
X141630143Y-116670983D01*
X141634937Y-116682428D01*
X141640421Y-116693468D01*
X141646583Y-116704095D01*
X141653410Y-116714296D01*
X141660890Y-116724061D01*
X141669010Y-116733381D01*
X141677757Y-116742243D01*
X141687119Y-116750638D01*
X141697083Y-116758556D01*
X141707637Y-116765984D01*
X141700217Y-116769422D01*
X141693016Y-116773029D01*
X141686034Y-116776806D01*
X141679274Y-116780752D01*
X141666420Y-116789150D01*
X141654462Y-116798218D01*
X141643410Y-116807952D01*
X141633273Y-116818349D01*
X141624059Y-116829404D01*
X141615777Y-116841113D01*
X141608436Y-116853473D01*
X141602046Y-116866479D01*
X141596614Y-116880127D01*
X141592150Y-116894413D01*
X141588662Y-116909334D01*
X141587287Y-116917031D01*
X141586160Y-116924885D01*
X141585281Y-116932895D01*
X141584652Y-116941062D01*
X141584274Y-116949384D01*
X141584148Y-116957861D01*
X141331315Y-116957861D01*
X141460659Y-116415642D01*
X141461115Y-116413460D01*
X141461831Y-116405482D01*
X141461779Y-116403406D01*
X141460566Y-116395407D01*
X141457869Y-116388012D01*
X141452654Y-116379860D01*
X141445682Y-116373214D01*
X141437266Y-116368387D01*
X141429705Y-116366046D01*
X141421580Y-116365230D01*
X141417992Y-116365386D01*
X141409430Y-116367074D01*
X141401621Y-116370455D01*
X141394774Y-116375327D01*
X141389100Y-116381491D01*
X141384808Y-116388743D01*
X141382110Y-116396884D01*
X141210945Y-117114763D01*
X141046032Y-116412711D01*
X141045157Y-116409359D01*
X141041796Y-116401527D01*
X141036927Y-116394648D01*
X141030758Y-116388932D01*
X141023501Y-116384589D01*
X141015366Y-116381829D01*
X141006562Y-116380862D01*
X141002974Y-116381020D01*
X140994413Y-116382729D01*
X140986603Y-116386148D01*
X140979757Y-116391066D01*
X140974082Y-116397272D01*
X140969791Y-116404558D01*
X140967093Y-116412711D01*
X140802180Y-117114763D01*
X140631014Y-116396884D01*
X140630108Y-116393534D01*
X140626701Y-116385724D01*
X140621823Y-116378883D01*
X140615672Y-116373212D01*
X140608444Y-116368912D01*
X140600336Y-116366184D01*
X140591545Y-116365230D01*
X140589470Y-116365283D01*
X140581470Y-116366495D01*
X140574075Y-116369192D01*
X140565923Y-116374407D01*
X140559277Y-116381380D01*
X140554450Y-116389795D01*
X140552110Y-116397357D01*
X140551294Y-116405482D01*
X140375961Y-116405482D01*
X140374748Y-116397557D01*
X140372026Y-116390161D01*
X140366768Y-116382009D01*
X140359751Y-116375363D01*
X140351295Y-116370537D01*
X140343712Y-116368196D01*
X140335578Y-116367380D01*
X140019821Y-116367380D01*
X140006968Y-116367698D01*
X139994286Y-116368642D01*
X139981789Y-116370196D01*
X139969493Y-116372346D01*
X139957415Y-116375076D01*
X139945569Y-116378370D01*
X139933971Y-116382214D01*
X139922637Y-116386593D01*
X139911582Y-116391490D01*
X139900822Y-116396891D01*
X139890373Y-116402780D01*
X139880250Y-116409142D01*
X139870469Y-116415962D01*
X139861045Y-116423225D01*
X139851994Y-116430914D01*
X139843331Y-116439016D01*
X139835073Y-116447515D01*
X139827234Y-116456395D01*
X139819831Y-116465641D01*
X139812879Y-116475238D01*
X139806393Y-116485170D01*
X139800389Y-116495423D01*
X139794883Y-116505981D01*
X139789891Y-116516829D01*
X139785427Y-116527951D01*
X139781508Y-116539333D01*
X139778149Y-116550958D01*
X139775366Y-116562812D01*
X139773174Y-116574879D01*
X139771589Y-116587145D01*
X139770627Y-116599593D01*
X139770303Y-116612209D01*
X139770519Y-116622525D01*
X139771164Y-116632730D01*
X139772227Y-116642817D01*
X139773701Y-116652778D01*
X139775578Y-116662603D01*
X139777848Y-116672285D01*
X139780503Y-116681815D01*
X139783535Y-116691185D01*
X139786934Y-116700387D01*
X139790694Y-116709412D01*
X139794804Y-116718252D01*
X139799257Y-116726899D01*
X139804044Y-116735345D01*
X139809156Y-116743581D01*
X139814586Y-116751598D01*
X139820324Y-116759390D01*
X139826361Y-116766946D01*
X139832691Y-116774260D01*
X139839303Y-116781322D01*
X139846190Y-116788125D01*
X139853342Y-116794660D01*
X139860752Y-116800918D01*
X139868411Y-116806892D01*
X139876310Y-116812573D01*
X139884441Y-116817954D01*
X139892795Y-116823024D01*
X139901365Y-116827777D01*
X139910140Y-116832204D01*
X139919113Y-116836297D01*
X139928276Y-116840047D01*
X139937619Y-116843447D01*
X139947134Y-116846487D01*
X139758774Y-117173381D01*
X139756292Y-117178101D01*
X139753788Y-117185788D01*
X139752913Y-117194093D01*
X139450128Y-117194093D01*
X139454258Y-117191633D01*
X139468478Y-117181958D01*
X139482122Y-117171430D01*
X139495183Y-117160059D01*
X139507650Y-117147859D01*
X139519517Y-117134840D01*
X139530774Y-117121016D01*
X139541413Y-117106396D01*
X139551427Y-117090994D01*
X139560806Y-117074821D01*
X139569542Y-117057889D01*
X139577628Y-117040209D01*
X139585054Y-117021794D01*
X139591812Y-117002655D01*
X139597895Y-116982805D01*
X139603293Y-116962254D01*
X139607998Y-116941015D01*
X139612002Y-116919099D01*
X139615297Y-116896519D01*
X139617875Y-116873286D01*
X139619726Y-116849412D01*
X139620843Y-116824908D01*
X139621217Y-116799787D01*
X139620843Y-116774649D01*
X139619726Y-116750131D01*
X139617875Y-116726244D01*
X139615297Y-116703000D01*
X139612002Y-116680410D01*
X139607998Y-116658487D01*
X139603293Y-116637243D01*
X139597895Y-116616688D01*
X139591812Y-116596834D01*
X139585054Y-116577694D01*
X139577628Y-116559279D01*
X139569542Y-116541600D01*
X139560806Y-116524670D01*
X139551427Y-116508500D01*
X139541413Y-116493101D01*
X139530774Y-116478486D01*
X139519517Y-116464666D01*
X139507650Y-116451653D01*
X139495183Y-116439458D01*
X139482122Y-116428094D01*
X139468478Y-116417571D01*
X139454258Y-116407902D01*
X139439469Y-116399099D01*
X139424122Y-116391172D01*
X139408224Y-116384134D01*
X139391783Y-116377997D01*
X139374807Y-116372772D01*
X139357306Y-116368470D01*
X139339287Y-116365104D01*
X139320759Y-116362685D01*
X139301730Y-116361226D01*
X139282208Y-116360736D01*
X139262668Y-116361226D01*
X139243622Y-116362685D01*
X139225079Y-116365104D01*
X139207045Y-116368470D01*
X139189530Y-116372772D01*
X139172542Y-116377997D01*
X139156090Y-116384134D01*
X139140181Y-116391172D01*
X139124823Y-116399099D01*
X139110026Y-116407902D01*
X139095797Y-116417571D01*
X139082145Y-116428094D01*
X139069078Y-116439458D01*
X139056605Y-116451653D01*
X139044733Y-116464666D01*
X139033471Y-116478486D01*
X139022827Y-116493101D01*
X139012810Y-116508500D01*
X139003427Y-116524670D01*
X138994688Y-116541600D01*
X138986600Y-116559279D01*
X138979172Y-116577694D01*
X138972412Y-116596834D01*
X138966328Y-116616688D01*
X138960929Y-116637243D01*
X138956223Y-116658487D01*
X138952218Y-116680410D01*
X138948923Y-116703000D01*
X138946346Y-116726244D01*
X138944494Y-116750131D01*
X138943377Y-116774649D01*
X138943003Y-116799787D01*
X138792745Y-116799787D01*
X138792371Y-116774649D01*
X138791254Y-116750131D01*
X138789403Y-116726244D01*
X138786826Y-116703000D01*
X138783531Y-116680410D01*
X138779526Y-116658487D01*
X138774821Y-116637243D01*
X138769423Y-116616688D01*
X138763341Y-116596834D01*
X138756582Y-116577694D01*
X138749156Y-116559279D01*
X138741071Y-116541600D01*
X138732334Y-116524670D01*
X138722955Y-116508500D01*
X138712941Y-116493101D01*
X138702302Y-116478486D01*
X138691045Y-116464666D01*
X138679178Y-116451653D01*
X138666711Y-116439458D01*
X138653651Y-116428094D01*
X138640006Y-116417571D01*
X138625786Y-116407902D01*
X138610998Y-116399099D01*
X138595650Y-116391172D01*
X138579752Y-116384134D01*
X138563311Y-116377997D01*
X138546336Y-116372772D01*
X138528834Y-116368470D01*
X138510815Y-116365104D01*
X138492287Y-116362685D01*
X138473258Y-116361226D01*
X138453736Y-116360736D01*
X138434196Y-116361226D01*
X138415151Y-116362685D01*
X138396607Y-116365104D01*
X138378573Y-116368470D01*
X138361058Y-116372772D01*
X138344071Y-116377997D01*
X138327618Y-116384134D01*
X138311709Y-116391172D01*
X138296352Y-116399099D01*
X138281554Y-116407902D01*
X138267326Y-116417571D01*
X138253674Y-116428094D01*
X138240607Y-116439458D01*
X138228133Y-116451653D01*
X138216261Y-116464666D01*
X138204999Y-116478486D01*
X138194355Y-116493101D01*
X138184338Y-116508500D01*
X138174956Y-116524670D01*
X138166216Y-116541600D01*
X138158129Y-116559279D01*
X138150700Y-116577694D01*
X138143940Y-116596834D01*
X138137857Y-116616688D01*
X138132458Y-116637243D01*
X138127752Y-116658487D01*
X138123747Y-116680410D01*
X138120451Y-116703000D01*
X138117874Y-116726244D01*
X138116023Y-116750131D01*
X138114906Y-116774649D01*
X138114532Y-116799787D01*
X137941217Y-116799787D01*
X137941217Y-116407631D01*
X137941007Y-116403540D01*
X137939393Y-116395717D01*
X137936322Y-116388512D01*
X137930687Y-116380627D01*
X137923357Y-116374294D01*
X137916487Y-116370564D01*
X137908903Y-116368204D01*
X137900770Y-116367380D01*
X137852312Y-116367380D01*
X137847444Y-116367668D01*
X137839737Y-116369364D01*
X137831342Y-116373219D01*
X137824120Y-116378810D01*
X137818324Y-116385874D01*
X137814211Y-116394149D01*
X137558049Y-117066501D01*
X137301691Y-116394149D01*
X137299861Y-116389876D01*
X137294874Y-116382174D01*
X137288333Y-116375814D01*
X137280493Y-116371058D01*
X137271608Y-116368170D01*
X137263589Y-116367380D01*
X137215132Y-116367380D01*
X137213056Y-116367433D01*
X137205045Y-116368656D01*
X137197624Y-116371375D01*
X137189430Y-116376620D01*
X137182739Y-116383613D01*
X137177872Y-116392027D01*
X137175509Y-116399562D01*
X137174685Y-116407631D01*
X137174685Y-117194093D01*
X136833313Y-117194093D01*
X137024818Y-116627645D01*
X137026421Y-116621795D01*
X137027162Y-116613772D01*
X137027110Y-116611697D01*
X137025898Y-116603698D01*
X137023201Y-116596302D01*
X137017985Y-116588150D01*
X137011013Y-116581504D01*
X137002598Y-116576678D01*
X136995036Y-116574337D01*
X136986911Y-116573521D01*
X136983540Y-116573659D01*
X136975482Y-116575154D01*
X136968086Y-116578158D01*
X136961516Y-116582499D01*
X136955937Y-116588009D01*
X136951516Y-116594517D01*
X136948418Y-116601853D01*
X136762989Y-117150325D01*
X136577756Y-116601853D01*
X136576686Y-116598830D01*
X136573039Y-116591805D01*
X136568135Y-116585676D01*
X136562140Y-116580613D01*
X136555220Y-116576786D01*
X136547539Y-116574365D01*
X136539263Y-116573521D01*
X136537188Y-116573573D01*
X136529189Y-116574785D01*
X136521793Y-116577482D01*
X136513641Y-116582698D01*
X136506995Y-116589670D01*
X136502168Y-116598086D01*
X136499828Y-116605647D01*
X136499012Y-116613772D01*
X136044720Y-116613772D01*
X136044720Y-116455307D01*
X136111740Y-116504547D01*
X136113006Y-116505474D01*
X136119904Y-116509314D01*
X136127618Y-116511723D01*
X136135969Y-116512558D01*
X136138044Y-116512506D01*
X136146043Y-116511293D01*
X136153439Y-116508596D01*
X136161591Y-116503381D01*
X136168237Y-116496409D01*
X136173063Y-116487993D01*
X136175404Y-116480431D01*
X136176220Y-116472307D01*
X136175915Y-116467330D01*
X136173992Y-116459076D01*
X136170471Y-116451561D01*
X136165547Y-116444967D01*
X136159416Y-116439480D01*
X136072466Y-116375586D01*
X136071200Y-116374625D01*
X136064302Y-116370671D01*
X136056588Y-116368221D01*
X136048237Y-116367380D01*
X136004469Y-116367380D01*
X136002393Y-116367432D01*
X135994382Y-116368644D01*
X135986961Y-116371341D01*
X135978767Y-116376557D01*
X135972076Y-116383529D01*
X135967209Y-116391945D01*
X135964846Y-116399506D01*
X135964022Y-116407631D01*
X135964022Y-117194093D01*
X135561281Y-117194093D01*
X135561732Y-117192942D01*
X135563747Y-117184160D01*
X135564441Y-117174944D01*
X135564130Y-117168760D01*
X135562544Y-117159833D01*
X135559706Y-117151415D01*
X135555716Y-117143607D01*
X135550675Y-117136511D01*
X135544687Y-117130229D01*
X135537851Y-117124861D01*
X135530269Y-117120510D01*
X135522043Y-117117276D01*
X135513274Y-117115262D01*
X135504064Y-117114568D01*
X135497878Y-117114879D01*
X135488940Y-117116464D01*
X135480504Y-117119303D01*
X135472673Y-117123293D01*
X135465551Y-117128333D01*
X135459242Y-117134322D01*
X135453847Y-117141158D01*
X135449472Y-117148739D01*
X135446218Y-117156965D01*
X135444191Y-117165734D01*
X135443492Y-117174944D01*
X135151026Y-117174944D01*
X135157303Y-117169987D01*
X135170294Y-117158451D01*
X135182717Y-117146092D01*
X135194562Y-117132924D01*
X135205819Y-117118964D01*
X135216476Y-117104225D01*
X135226524Y-117088722D01*
X135235950Y-117072470D01*
X135244746Y-117055484D01*
X135252899Y-117037779D01*
X135260399Y-117019370D01*
X135267236Y-117000271D01*
X135273398Y-116980497D01*
X135278876Y-116960062D01*
X135283657Y-116938983D01*
X135287733Y-116917273D01*
X135291091Y-116894948D01*
X135293722Y-116872022D01*
X135295615Y-116848510D01*
X135296758Y-116824427D01*
X135297141Y-116799787D01*
X135296758Y-116775148D01*
X135295615Y-116751065D01*
X135293722Y-116727553D01*
X135291091Y-116704627D01*
X135287733Y-116682301D01*
X135283657Y-116660592D01*
X135278876Y-116639512D01*
X135273398Y-116619078D01*
X135267236Y-116599304D01*
X135260399Y-116580205D01*
X135252899Y-116561795D01*
X135244746Y-116544090D01*
X135235950Y-116527104D01*
X135226524Y-116510853D01*
X135216476Y-116495350D01*
X135205819Y-116480611D01*
X135194562Y-116466650D01*
X135182717Y-116453483D01*
X135170294Y-116441124D01*
X135157303Y-116429588D01*
X135143756Y-116418889D01*
X135129663Y-116409044D01*
X135115034Y-116400065D01*
X135099882Y-116391969D01*
X135084215Y-116384770D01*
X135068046Y-116378482D01*
X135051384Y-116373122D01*
X135034240Y-116368703D01*
X135016626Y-116365240D01*
X134998551Y-116362748D01*
X134980027Y-116361242D01*
X134961063Y-116360736D01*
X134942083Y-116361242D01*
X134923543Y-116362748D01*
X134905456Y-116365240D01*
X134887830Y-116368703D01*
X134870677Y-116373122D01*
X134854008Y-116378482D01*
X134837833Y-116384770D01*
X134822162Y-116391969D01*
X134807007Y-116400065D01*
X134792377Y-116409044D01*
X134778284Y-116418889D01*
X134764738Y-116429588D01*
X134751749Y-116441124D01*
X134739329Y-116453483D01*
X134727487Y-116466650D01*
X134716234Y-116480611D01*
X134705582Y-116495350D01*
X134695540Y-116510853D01*
X134686119Y-116527104D01*
X134677329Y-116544090D01*
X134669182Y-116561795D01*
X134661688Y-116580205D01*
X134654858Y-116599304D01*
X134648701Y-116619078D01*
X134643229Y-116639512D01*
X134638452Y-116660592D01*
X134634382Y-116682301D01*
X134631027Y-116704627D01*
X134628400Y-116727553D01*
X134626510Y-116751065D01*
X134625368Y-116775148D01*
X134624985Y-116799787D01*
X134285699Y-116799787D01*
X134285699Y-116019106D01*
X154994529Y-116019106D01*
X154994529Y-117578124D01*
G37*
D11*
%TO.C,J4*%
X162485000Y-110610000D02*
X157285000Y-110610000D01*
X162485000Y-110040000D02*
X162485000Y-110610000D01*
X162485000Y-107500000D02*
X162485000Y-108520000D01*
X162485000Y-104960000D02*
X162485000Y-105980000D01*
X162485000Y-102420000D02*
X162485000Y-103440000D01*
X162485000Y-99880000D02*
X162485000Y-100900000D01*
X162485000Y-97340000D02*
X162485000Y-98360000D01*
X162485000Y-94800000D02*
X162485000Y-95820000D01*
X162485000Y-92260000D02*
X162485000Y-93280000D01*
X162485000Y-89720000D02*
X162485000Y-90740000D01*
X162485000Y-87180000D02*
X162485000Y-88200000D01*
X162485000Y-85090000D02*
X162485000Y-85660000D01*
X162485000Y-85090000D02*
X157285000Y-85090000D01*
X157285000Y-110040000D02*
X157285000Y-110610000D01*
X157285000Y-107500000D02*
X157285000Y-108520000D01*
X157285000Y-104960000D02*
X157285000Y-105980000D01*
X157285000Y-102420000D02*
X157285000Y-103440000D01*
X157285000Y-99880000D02*
X157285000Y-100900000D01*
X157285000Y-97340000D02*
X157285000Y-98360000D01*
X157285000Y-94800000D02*
X157285000Y-95820000D01*
X157285000Y-92260000D02*
X157285000Y-93280000D01*
X157285000Y-89720000D02*
X157285000Y-90740000D01*
X157285000Y-87180000D02*
X157285000Y-88200000D01*
X157285000Y-85660000D02*
X155925000Y-85660000D01*
X157285000Y-85090000D02*
X157285000Y-85660000D01*
%TO.C,J2*%
X132005000Y-110610000D02*
X126805000Y-110610000D01*
X132005000Y-110040000D02*
X132005000Y-110610000D01*
X132005000Y-107500000D02*
X132005000Y-108520000D01*
X132005000Y-104960000D02*
X132005000Y-105980000D01*
X132005000Y-102420000D02*
X132005000Y-103440000D01*
X132005000Y-99880000D02*
X132005000Y-100900000D01*
X132005000Y-97340000D02*
X132005000Y-98360000D01*
X132005000Y-94800000D02*
X132005000Y-95820000D01*
X132005000Y-92260000D02*
X132005000Y-93280000D01*
X132005000Y-89720000D02*
X132005000Y-90740000D01*
X132005000Y-87180000D02*
X132005000Y-88200000D01*
X132005000Y-85090000D02*
X132005000Y-85660000D01*
X132005000Y-85090000D02*
X126805000Y-85090000D01*
X126805000Y-110040000D02*
X126805000Y-110610000D01*
X126805000Y-107500000D02*
X126805000Y-108520000D01*
X126805000Y-104960000D02*
X126805000Y-105980000D01*
X126805000Y-102420000D02*
X126805000Y-103440000D01*
X126805000Y-99880000D02*
X126805000Y-100900000D01*
X126805000Y-97340000D02*
X126805000Y-98360000D01*
X126805000Y-94800000D02*
X126805000Y-95820000D01*
X126805000Y-92260000D02*
X126805000Y-93280000D01*
X126805000Y-89720000D02*
X126805000Y-90740000D01*
X126805000Y-87180000D02*
X126805000Y-88200000D01*
X126805000Y-85660000D02*
X125445000Y-85660000D01*
X126805000Y-85090000D02*
X126805000Y-85660000D01*
%TD*%
%LPC*%
D12*
%TO.C,J1*%
X145840000Y-111230000D03*
X151620000Y-111230000D03*
D13*
X144410000Y-110730000D03*
D14*
X144410000Y-114910000D03*
D13*
X153050000Y-110730000D03*
D14*
X153050000Y-114910000D03*
%TD*%
D15*
%TO.C,H2*%
X158795000Y-114400000D03*
X159497944Y-112702944D03*
X159497944Y-116097056D03*
X161195000Y-112000000D03*
D16*
X161195000Y-114400000D03*
D15*
X161195000Y-116800000D03*
X162892056Y-112702944D03*
X162892056Y-116097056D03*
X163595000Y-114400000D03*
%TD*%
%TO.C,H4*%
X125695000Y-114400000D03*
X126397944Y-112702944D03*
X126397944Y-116097056D03*
X128095000Y-112000000D03*
D16*
X128095000Y-114400000D03*
D15*
X128095000Y-116800000D03*
X129792056Y-112702944D03*
X129792056Y-116097056D03*
X130495000Y-114400000D03*
%TD*%
%TO.C,H3*%
X125695000Y-81300000D03*
X126397944Y-79602944D03*
X126397944Y-82997056D03*
X128095000Y-78900000D03*
D16*
X128095000Y-81300000D03*
D15*
X128095000Y-83700000D03*
X129792056Y-79602944D03*
X129792056Y-82997056D03*
X130495000Y-81300000D03*
%TD*%
%TO.C,H1*%
X158795000Y-81300000D03*
X159497944Y-79602944D03*
X159497944Y-82997056D03*
X161195000Y-78900000D03*
D16*
X161195000Y-81300000D03*
D15*
X161195000Y-83700000D03*
X162892056Y-79602944D03*
X162892056Y-82997056D03*
X163595000Y-81300000D03*
%TD*%
D17*
%TO.C,J4*%
X157365000Y-86420000D03*
X162405000Y-86420000D03*
X157365000Y-88960000D03*
X162405000Y-88960000D03*
X157365000Y-91500000D03*
X162405000Y-91500000D03*
X157365000Y-94040000D03*
X162405000Y-94040000D03*
X157365000Y-96580000D03*
X162405000Y-96580000D03*
X157365000Y-99120000D03*
X162405000Y-99120000D03*
X157365000Y-101660000D03*
X162405000Y-101660000D03*
X157365000Y-104200000D03*
X162405000Y-104200000D03*
X157365000Y-106740000D03*
X162405000Y-106740000D03*
X157365000Y-109280000D03*
X162405000Y-109280000D03*
%TD*%
%TO.C,J2*%
X126885000Y-86420000D03*
X131925000Y-86420000D03*
X126885000Y-88960000D03*
X131925000Y-88960000D03*
X126885000Y-91500000D03*
X131925000Y-91500000D03*
X126885000Y-94040000D03*
X131925000Y-94040000D03*
X126885000Y-96580000D03*
X131925000Y-96580000D03*
X126885000Y-99120000D03*
X131925000Y-99120000D03*
X126885000Y-101660000D03*
X131925000Y-101660000D03*
X126885000Y-104200000D03*
X131925000Y-104200000D03*
X126885000Y-106740000D03*
X131925000Y-106740000D03*
X126885000Y-109280000D03*
X131925000Y-109280000D03*
%TD*%
M02*
