%TF.GenerationSoftware,KiCad,Pcbnew,7.0.1*%
%TF.CreationDate,2023-09-07T21:54:11+09:00*%
%TF.ProjectId,CPU_ESP32S3WROOM,4350555f-4553-4503-9332-533357524f4f,rev?*%
%TF.SameCoordinates,Original*%
%TF.FileFunction,Copper,L6,Bot*%
%TF.FilePolarity,Positive*%
%FSLAX46Y46*%
G04 Gerber Fmt 4.6, Leading zero omitted, Abs format (unit mm)*
G04 Created by KiCad (PCBNEW 7.0.1) date 2023-09-07 21:54:11*
%MOMM*%
%LPD*%
G01*
G04 APERTURE LIST*
%TA.AperFunction,ComponentPad*%
%ADD10O,1.000000X2.100000*%
%TD*%
%TA.AperFunction,ComponentPad*%
%ADD11O,1.000000X1.600000*%
%TD*%
%TA.AperFunction,ComponentPad*%
%ADD12C,0.800000*%
%TD*%
%TA.AperFunction,ComponentPad*%
%ADD13C,6.400000*%
%TD*%
%TA.AperFunction,SMDPad,CuDef*%
%ADD14R,3.000000X1.000000*%
%TD*%
%TA.AperFunction,ViaPad*%
%ADD15C,0.800000*%
%TD*%
%TA.AperFunction,Conductor*%
%ADD16C,0.250000*%
%TD*%
%TA.AperFunction,Conductor*%
%ADD17C,0.200000*%
%TD*%
G04 APERTURE END LIST*
D10*
%TO.P,J1,S1,SHIELD*%
%TO.N,GND*%
X144410000Y-110730000D03*
D11*
X144410000Y-114910000D03*
D10*
X153050000Y-110730000D03*
D11*
X153050000Y-114910000D03*
%TD*%
D12*
%TO.P,H2,1*%
%TO.N,N/C*%
X158795000Y-114400000D03*
X159497944Y-112702944D03*
X159497944Y-116097056D03*
X161195000Y-112000000D03*
D13*
X161195000Y-114400000D03*
D12*
X161195000Y-116800000D03*
X162892056Y-112702944D03*
X162892056Y-116097056D03*
X163595000Y-114400000D03*
%TD*%
%TO.P,H4,1*%
%TO.N,N/C*%
X125695000Y-114400000D03*
X126397944Y-112702944D03*
X126397944Y-116097056D03*
X128095000Y-112000000D03*
D13*
X128095000Y-114400000D03*
D12*
X128095000Y-116800000D03*
X129792056Y-112702944D03*
X129792056Y-116097056D03*
X130495000Y-114400000D03*
%TD*%
%TO.P,H3,1*%
%TO.N,N/C*%
X125695000Y-81300000D03*
X126397944Y-79602944D03*
X126397944Y-82997056D03*
X128095000Y-78900000D03*
D13*
X128095000Y-81300000D03*
D12*
X128095000Y-83700000D03*
X129792056Y-79602944D03*
X129792056Y-82997056D03*
X130495000Y-81300000D03*
%TD*%
%TO.P,H1,1*%
%TO.N,N/C*%
X158795000Y-81300000D03*
X159497944Y-79602944D03*
X159497944Y-82997056D03*
X161195000Y-78900000D03*
D13*
X161195000Y-81300000D03*
D12*
X161195000Y-83700000D03*
X162892056Y-79602944D03*
X162892056Y-82997056D03*
X163595000Y-81300000D03*
%TD*%
D14*
%TO.P,J4,1,Pin_1*%
%TO.N,+3V3*%
X157365000Y-86420000D03*
%TO.P,J4,2,Pin_2*%
X162405000Y-86420000D03*
%TO.P,J4,3,Pin_3*%
%TO.N,GND*%
X157365000Y-88960000D03*
%TO.P,J4,4,Pin_4*%
X162405000Y-88960000D03*
%TO.P,J4,5,Pin_5*%
%TO.N,/IO2*%
X157365000Y-91500000D03*
%TO.P,J4,6,Pin_6*%
%TO.N,/IO1*%
X162405000Y-91500000D03*
%TO.P,J4,7,Pin_7*%
%TO.N,/RXD0*%
X157365000Y-94040000D03*
%TO.P,J4,8,Pin_8*%
%TO.N,/TXD0*%
X162405000Y-94040000D03*
%TO.P,J4,9,Pin_9*%
%TO.N,/IO41*%
X157365000Y-96580000D03*
%TO.P,J4,10,Pin_10*%
%TO.N,/IO42*%
X162405000Y-96580000D03*
%TO.P,J4,11,Pin_11*%
%TO.N,/IO38*%
X157365000Y-99120000D03*
%TO.P,J4,12,Pin_12*%
%TO.N,/IO39*%
X162405000Y-99120000D03*
%TO.P,J4,13,Pin_13*%
%TO.N,/IO36*%
X157365000Y-101660000D03*
%TO.P,J4,14,Pin_14*%
%TO.N,/IO37*%
X162405000Y-101660000D03*
%TO.P,J4,15,Pin_15*%
%TO.N,/IO0*%
X157365000Y-104200000D03*
%TO.P,J4,16,Pin_16*%
%TO.N,/IO35*%
X162405000Y-104200000D03*
%TO.P,J4,17,Pin_17*%
%TO.N,/IO48*%
X157365000Y-106740000D03*
%TO.P,J4,18,Pin_18*%
%TO.N,/IO45*%
X162405000Y-106740000D03*
%TO.P,J4,19,Pin_19*%
%TO.N,+5V*%
X157365000Y-109280000D03*
%TO.P,J4,20,Pin_20*%
X162405000Y-109280000D03*
%TD*%
%TO.P,J2,1,Pin_1*%
%TO.N,+5V*%
X126885000Y-86420000D03*
%TO.P,J2,2,Pin_2*%
X131925000Y-86420000D03*
%TO.P,J2,3,Pin_3*%
%TO.N,/IO4*%
X126885000Y-88960000D03*
%TO.P,J2,4,Pin_4*%
%TO.N,/EN*%
X131925000Y-88960000D03*
%TO.P,J2,5,Pin_5*%
%TO.N,/IO6*%
X126885000Y-91500000D03*
%TO.P,J2,6,Pin_6*%
%TO.N,/IO5*%
X131925000Y-91500000D03*
%TO.P,J2,7,Pin_7*%
%TO.N,/IO15*%
X126885000Y-94040000D03*
%TO.P,J2,8,Pin_8*%
%TO.N,/IO7*%
X131925000Y-94040000D03*
%TO.P,J2,9,Pin_9*%
%TO.N,/IO17*%
X126885000Y-96580000D03*
%TO.P,J2,10,Pin_10*%
%TO.N,/IO16*%
X131925000Y-96580000D03*
%TO.P,J2,11,Pin_11*%
%TO.N,/IO8*%
X126885000Y-99120000D03*
%TO.P,J2,12,Pin_12*%
%TO.N,/IO18*%
X131925000Y-99120000D03*
%TO.P,J2,13,Pin_13*%
%TO.N,/IO46*%
X126885000Y-101660000D03*
%TO.P,J2,14,Pin_14*%
%TO.N,/IO3*%
X131925000Y-101660000D03*
%TO.P,J2,15,Pin_15*%
%TO.N,/IO10*%
X126885000Y-104200000D03*
%TO.P,J2,16,Pin_16*%
%TO.N,/IO9*%
X131925000Y-104200000D03*
%TO.P,J2,17,Pin_17*%
%TO.N,GND*%
X126885000Y-106740000D03*
%TO.P,J2,18,Pin_18*%
X131925000Y-106740000D03*
%TO.P,J2,19,Pin_19*%
%TO.N,+3V3*%
X126885000Y-109280000D03*
%TO.P,J2,20,Pin_20*%
X131925000Y-109280000D03*
%TD*%
D15*
%TO.N,GND*%
X151130000Y-85344000D03*
X137668000Y-113284000D03*
%TO.N,+5V*%
X136144000Y-111760000D03*
%TO.N,/EN*%
X137160000Y-108966000D03*
X137922000Y-87884000D03*
%TO.N,/D_+*%
X137668000Y-101600000D03*
%TO.N,/D_-*%
X137668000Y-100330000D03*
%TO.N,+3V3*%
X137922000Y-86614000D03*
%TO.N,/D_+*%
X148979503Y-111530000D03*
%TO.N,/D_-*%
X147980000Y-111530000D03*
%TO.N,GND*%
X159880000Y-88960000D03*
%TO.N,+3V3*%
X159880000Y-86420000D03*
%TO.N,/IO1*%
X162400000Y-90250000D03*
%TO.N,/TXD0*%
X162400000Y-92760000D03*
%TO.N,/IO42*%
X162410000Y-95310000D03*
%TO.N,/IO39*%
X162410000Y-97830000D03*
%TO.N,/IO37*%
X162410000Y-100390000D03*
%TO.N,/IO35*%
X162410000Y-102920000D03*
%TO.N,/IO45*%
X162410000Y-105470000D03*
%TO.N,+5V*%
X159890000Y-109280000D03*
%TO.N,/IO48*%
X159880000Y-106730000D03*
%TO.N,/IO0*%
X159870000Y-104200000D03*
%TO.N,/IO36*%
X159870000Y-101660000D03*
%TO.N,/IO38*%
X159880000Y-99120000D03*
%TO.N,/IO41*%
X159890000Y-96580000D03*
%TO.N,/RXD0*%
X159890000Y-94040000D03*
%TO.N,/IO2*%
X159890000Y-91500000D03*
%TO.N,+3V3*%
X139827000Y-114173000D03*
X129413000Y-109474000D03*
%TO.N,GND*%
X129413000Y-106680000D03*
%TO.N,+5V*%
X142113000Y-114173000D03*
X129413000Y-86360000D03*
%TO.N,/IO6*%
X126898400Y-92760800D03*
%TO.N,/IO7*%
X129413000Y-93980000D03*
%TO.N,/IO8*%
X126898400Y-100380800D03*
%TO.N,/IO3*%
X129413000Y-101600000D03*
%TO.N,/IO46*%
X126898400Y-102920800D03*
%TO.N,/IO9*%
X129413000Y-104140000D03*
%TO.N,/IO10*%
X126898400Y-105511600D03*
%TO.N,/EN*%
X129413000Y-89027000D03*
%TO.N,/IO18*%
X129413000Y-99187000D03*
%TO.N,/IO17*%
X126898400Y-97840800D03*
%TO.N,/IO5*%
X129413000Y-91440000D03*
%TO.N,/IO4*%
X126898400Y-90220800D03*
%TO.N,/IO16*%
X129413000Y-96520000D03*
%TO.N,/IO15*%
X126898400Y-95300800D03*
%TD*%
D16*
%TO.N,/IO37*%
X162410000Y-100390000D02*
X162410000Y-101655000D01*
X162410000Y-101655000D02*
X162405000Y-101660000D01*
%TO.N,+3V3*%
X159880000Y-86420000D02*
X162405000Y-86420000D01*
X157365000Y-86420000D02*
X159880000Y-86420000D01*
%TO.N,/IO9*%
X129473000Y-104200000D02*
X131925000Y-104200000D01*
X129413000Y-104140000D02*
X129473000Y-104200000D01*
%TO.N,/IO3*%
X129473000Y-101660000D02*
X131925000Y-101660000D01*
X129413000Y-101600000D02*
X129473000Y-101660000D01*
%TO.N,/IO18*%
X129480000Y-99120000D02*
X131925000Y-99120000D01*
X129413000Y-99187000D02*
X129480000Y-99120000D01*
%TO.N,/IO16*%
X129473000Y-96580000D02*
X131925000Y-96580000D01*
X129413000Y-96520000D02*
X129473000Y-96580000D01*
%TO.N,/IO7*%
X129473000Y-94040000D02*
X131925000Y-94040000D01*
X129413000Y-93980000D02*
X129473000Y-94040000D01*
%TO.N,+5V*%
X129353000Y-86420000D02*
X126885000Y-86420000D01*
X129413000Y-86360000D02*
X129353000Y-86420000D01*
X129473000Y-86420000D02*
X131925000Y-86420000D01*
X129413000Y-86360000D02*
X129473000Y-86420000D01*
%TO.N,/IO5*%
X129473000Y-91500000D02*
X131925000Y-91500000D01*
X129413000Y-91440000D02*
X129473000Y-91500000D01*
%TO.N,/EN*%
X129413000Y-89027000D02*
X129480000Y-88960000D01*
X129480000Y-88960000D02*
X131925000Y-88960000D01*
%TO.N,/IO4*%
X126885000Y-90207400D02*
X126898400Y-90220800D01*
X126885000Y-88960000D02*
X126885000Y-90207400D01*
%TO.N,/IO6*%
X126885000Y-92747400D02*
X126898400Y-92760800D01*
X126885000Y-91500000D02*
X126885000Y-92747400D01*
%TO.N,/IO15*%
X126885000Y-95287400D02*
X126898400Y-95300800D01*
X126885000Y-94040000D02*
X126885000Y-95287400D01*
%TO.N,/IO17*%
X126885000Y-97827400D02*
X126898400Y-97840800D01*
X126885000Y-96580000D02*
X126885000Y-97827400D01*
%TO.N,/IO8*%
X126885000Y-100367400D02*
X126898400Y-100380800D01*
X126885000Y-99120000D02*
X126885000Y-100367400D01*
%TO.N,/IO46*%
X126898400Y-101673400D02*
X126885000Y-101660000D01*
X126898400Y-102920800D02*
X126898400Y-101673400D01*
%TO.N,/IO10*%
X126885000Y-105498200D02*
X126898400Y-105511600D01*
X126885000Y-104200000D02*
X126885000Y-105498200D01*
%TO.N,+3V3*%
X129607000Y-109280000D02*
X131925000Y-109280000D01*
X129413000Y-109474000D02*
X129607000Y-109280000D01*
X129219000Y-109280000D02*
X129413000Y-109474000D01*
X126885000Y-109280000D02*
X129219000Y-109280000D01*
%TO.N,+5V*%
X159890000Y-109280000D02*
X162405000Y-109280000D01*
X157365000Y-109280000D02*
X159890000Y-109280000D01*
%TO.N,/IO35*%
X162410000Y-104195000D02*
X162405000Y-104200000D01*
X162410000Y-102920000D02*
X162410000Y-104195000D01*
%TO.N,/IO45*%
X162410000Y-106735000D02*
X162405000Y-106740000D01*
X162410000Y-105470000D02*
X162410000Y-106735000D01*
%TO.N,/IO48*%
X159870000Y-106740000D02*
X159880000Y-106730000D01*
X157365000Y-106740000D02*
X159870000Y-106740000D01*
%TO.N,/IO0*%
X157365000Y-104200000D02*
X159870000Y-104200000D01*
%TO.N,/IO36*%
X157365000Y-101660000D02*
X159870000Y-101660000D01*
%TO.N,/IO1*%
X162400000Y-91495000D02*
X162405000Y-91500000D01*
X162400000Y-90250000D02*
X162400000Y-91495000D01*
%TO.N,/TXD0*%
X162400000Y-94035000D02*
X162405000Y-94040000D01*
X162400000Y-92760000D02*
X162400000Y-94035000D01*
%TO.N,/IO42*%
X162410000Y-96575000D02*
X162405000Y-96580000D01*
X162410000Y-95310000D02*
X162410000Y-96575000D01*
%TO.N,/IO39*%
X162410000Y-99115000D02*
X162405000Y-99120000D01*
X162410000Y-97830000D02*
X162410000Y-99115000D01*
%TO.N,/IO38*%
X159880000Y-99120000D02*
X157365000Y-99120000D01*
%TO.N,/IO41*%
X159890000Y-96580000D02*
X157365000Y-96580000D01*
%TO.N,/RXD0*%
X159890000Y-94040000D02*
X157365000Y-94040000D01*
%TO.N,/IO2*%
X159890000Y-91500000D02*
X157365000Y-91500000D01*
%TO.N,/EN*%
X136943000Y-108749000D02*
X137160000Y-108966000D01*
X136943000Y-88863000D02*
X136943000Y-108749000D01*
X137922000Y-87884000D02*
X136943000Y-88863000D01*
D17*
%TO.N,/D_+*%
X148279503Y-112230000D02*
X148979503Y-111530000D01*
X147536000Y-112230000D02*
X148279503Y-112230000D01*
X146783157Y-110010843D02*
X146783157Y-111477157D01*
X146783157Y-111477157D02*
X147536000Y-112230000D01*
X138372314Y-101600000D02*
X146783157Y-110010843D01*
X137668000Y-101600000D02*
X138372314Y-101600000D01*
%TO.N,/D_-*%
X147980000Y-110642000D02*
X147980000Y-111530000D01*
X137668000Y-100330000D02*
X147980000Y-110642000D01*
%TD*%
%TA.AperFunction,Conductor*%
%TO.N,GND*%
G36*
X135458000Y-77867113D02*
G01*
X135503387Y-77912500D01*
X135520000Y-77974500D01*
X135520000Y-83890000D01*
X153720000Y-83890000D01*
X153720000Y-77974500D01*
X153736613Y-77912500D01*
X153782000Y-77867113D01*
X153844000Y-77850500D01*
X159297476Y-77850500D01*
X159360597Y-77867768D01*
X159406138Y-77914763D01*
X159421415Y-77978396D01*
X159402172Y-78040944D01*
X159353769Y-78084985D01*
X159342213Y-78090872D01*
X159016919Y-78302121D01*
X158715480Y-78546222D01*
X158441222Y-78820480D01*
X158197121Y-79121919D01*
X157985876Y-79447206D01*
X157809785Y-79792806D01*
X157670785Y-80154913D01*
X157570396Y-80529570D01*
X157509722Y-80912659D01*
X157489422Y-81300000D01*
X157509722Y-81687340D01*
X157570396Y-82070429D01*
X157670785Y-82445086D01*
X157809785Y-82807193D01*
X157985876Y-83152793D01*
X158197121Y-83478080D01*
X158197124Y-83478084D01*
X158441219Y-83779516D01*
X158715484Y-84053781D01*
X159016916Y-84297876D01*
X159016918Y-84297877D01*
X159016919Y-84297878D01*
X159342206Y-84509123D01*
X159687806Y-84685214D01*
X160049913Y-84824214D01*
X160424570Y-84924603D01*
X160616114Y-84954939D01*
X160807662Y-84985278D01*
X161195000Y-85005578D01*
X161582338Y-84985278D01*
X161831686Y-84945785D01*
X161965429Y-84924603D01*
X161965433Y-84924602D01*
X162340087Y-84824214D01*
X162702194Y-84685214D01*
X163047789Y-84509125D01*
X163047788Y-84509125D01*
X163047793Y-84509123D01*
X163210436Y-84403500D01*
X163373084Y-84297876D01*
X163674516Y-84053781D01*
X163948781Y-83779516D01*
X164192876Y-83478084D01*
X164404125Y-83152789D01*
X164404127Y-83152786D01*
X164410015Y-83141231D01*
X164454056Y-83092828D01*
X164516604Y-83073585D01*
X164580237Y-83088862D01*
X164627232Y-83134403D01*
X164644500Y-83197524D01*
X164644500Y-85783198D01*
X164625762Y-85848741D01*
X164575211Y-85894475D01*
X164508126Y-85906579D01*
X164444780Y-85881394D01*
X164404318Y-85826531D01*
X164388155Y-85783197D01*
X164348796Y-85677669D01*
X164262546Y-85562454D01*
X164147331Y-85476204D01*
X164012483Y-85425909D01*
X163952873Y-85419500D01*
X163952869Y-85419500D01*
X160857130Y-85419500D01*
X160797515Y-85425909D01*
X160662669Y-85476204D01*
X160547452Y-85562454D01*
X160509478Y-85613182D01*
X160459565Y-85652625D01*
X160396663Y-85662128D01*
X160337326Y-85639188D01*
X160332727Y-85635846D01*
X160159802Y-85558855D01*
X159974648Y-85519500D01*
X159974646Y-85519500D01*
X159785354Y-85519500D01*
X159785352Y-85519500D01*
X159600197Y-85558855D01*
X159415365Y-85641149D01*
X159414857Y-85640009D01*
X159369803Y-85657423D01*
X159306905Y-85647917D01*
X159256997Y-85608475D01*
X159222546Y-85562454D01*
X159107331Y-85476204D01*
X158972483Y-85425909D01*
X158912873Y-85419500D01*
X158912869Y-85419500D01*
X155817130Y-85419500D01*
X155757515Y-85425909D01*
X155622669Y-85476204D01*
X155507454Y-85562454D01*
X155421204Y-85677668D01*
X155370909Y-85812515D01*
X155370909Y-85812517D01*
X155367015Y-85848741D01*
X155364500Y-85872130D01*
X155364500Y-86967869D01*
X155370909Y-87027484D01*
X155391249Y-87082017D01*
X155421204Y-87162331D01*
X155507454Y-87277546D01*
X155622669Y-87363796D01*
X155757517Y-87414091D01*
X155817127Y-87420500D01*
X158912872Y-87420499D01*
X158972483Y-87414091D01*
X159107331Y-87363796D01*
X159126414Y-87349509D01*
X159185708Y-87325690D01*
X159248992Y-87334557D01*
X159299457Y-87373758D01*
X159323701Y-87432883D01*
X159315286Y-87496228D01*
X159299956Y-87533239D01*
X159279317Y-87689999D01*
X159299956Y-87846762D01*
X159315660Y-87884675D01*
X159324076Y-87948020D01*
X159299833Y-88007144D01*
X159249368Y-88046346D01*
X159186085Y-88055215D01*
X159126789Y-88031394D01*
X159107091Y-88016648D01*
X158972375Y-87966402D01*
X158912824Y-87960000D01*
X157615000Y-87960000D01*
X157615000Y-88710000D01*
X159365000Y-88710000D01*
X159365000Y-88412176D01*
X159358597Y-88352624D01*
X159347703Y-88323416D01*
X159341457Y-88260393D01*
X159367146Y-88202505D01*
X159418070Y-88164854D01*
X159480945Y-88157259D01*
X159539370Y-88181703D01*
X159582159Y-88214536D01*
X159582160Y-88214536D01*
X159582161Y-88214537D01*
X159615253Y-88228244D01*
X159728238Y-88275044D01*
X159885000Y-88295682D01*
X160041762Y-88275044D01*
X160187841Y-88214536D01*
X160220289Y-88189638D01*
X160230629Y-88181704D01*
X160289052Y-88157260D01*
X160351927Y-88164853D01*
X160402851Y-88202504D01*
X160428542Y-88260391D01*
X160422297Y-88323413D01*
X160411402Y-88352622D01*
X160405000Y-88412176D01*
X160405000Y-88710000D01*
X162155000Y-88710000D01*
X162155000Y-87960000D01*
X160857176Y-87960000D01*
X160797624Y-87966402D01*
X160662908Y-88016648D01*
X160643209Y-88031395D01*
X160583912Y-88055215D01*
X160520629Y-88046346D01*
X160470165Y-88007143D01*
X160445922Y-87948018D01*
X160454339Y-87884675D01*
X160470044Y-87846762D01*
X160490682Y-87690000D01*
X160470044Y-87533238D01*
X160454713Y-87496227D01*
X160446298Y-87432885D01*
X160470541Y-87373760D01*
X160521005Y-87334558D01*
X160584289Y-87325689D01*
X160643585Y-87349510D01*
X160646623Y-87351784D01*
X160662669Y-87363796D01*
X160797517Y-87414091D01*
X160857127Y-87420500D01*
X163952872Y-87420499D01*
X164012483Y-87414091D01*
X164147331Y-87363796D01*
X164262546Y-87277546D01*
X164348796Y-87162331D01*
X164399091Y-87027483D01*
X164399090Y-87027483D01*
X164404318Y-87013469D01*
X164444780Y-86958607D01*
X164508126Y-86933422D01*
X164575211Y-86945526D01*
X164625762Y-86991260D01*
X164644500Y-87056803D01*
X164644500Y-88326461D01*
X164628976Y-88386535D01*
X164586293Y-88431567D01*
X164527136Y-88450283D01*
X164466317Y-88437997D01*
X164419065Y-88397784D01*
X164407128Y-88366066D01*
X164404041Y-88367218D01*
X164348352Y-88217910D01*
X164262188Y-88102811D01*
X164147089Y-88016647D01*
X164012375Y-87966402D01*
X163952824Y-87960000D01*
X162655000Y-87960000D01*
X162655000Y-89086000D01*
X162638387Y-89148000D01*
X162593000Y-89193387D01*
X162531000Y-89210000D01*
X160405000Y-89210000D01*
X160405000Y-89507824D01*
X160411402Y-89567375D01*
X160461647Y-89702089D01*
X160547811Y-89817188D01*
X160662910Y-89903352D01*
X160797624Y-89953597D01*
X160857176Y-89960000D01*
X161387304Y-89960000D01*
X161453014Y-89978842D01*
X161498754Y-90029642D01*
X161510624Y-90096959D01*
X161510572Y-90097461D01*
X161494540Y-90250000D01*
X161506368Y-90362539D01*
X161494497Y-90429858D01*
X161448757Y-90480658D01*
X161383047Y-90499500D01*
X160857130Y-90499500D01*
X160797515Y-90505909D01*
X160662669Y-90556204D01*
X160547452Y-90642454D01*
X160513001Y-90688476D01*
X160463089Y-90727919D01*
X160400186Y-90737422D01*
X160355143Y-90720008D01*
X160354636Y-90721149D01*
X160169802Y-90638855D01*
X159984648Y-90599500D01*
X159984646Y-90599500D01*
X159795354Y-90599500D01*
X159795352Y-90599500D01*
X159610197Y-90638855D01*
X159437268Y-90715849D01*
X159432667Y-90719192D01*
X159373331Y-90742128D01*
X159310430Y-90732624D01*
X159260520Y-90693181D01*
X159232573Y-90655849D01*
X159222546Y-90642454D01*
X159107331Y-90556204D01*
X158972483Y-90505909D01*
X158912873Y-90499500D01*
X158912869Y-90499500D01*
X155817130Y-90499500D01*
X155757515Y-90505909D01*
X155622669Y-90556204D01*
X155507454Y-90642454D01*
X155421204Y-90757668D01*
X155370909Y-90892515D01*
X155370909Y-90892517D01*
X155367015Y-90928741D01*
X155364500Y-90952130D01*
X155364500Y-92047869D01*
X155370909Y-92107484D01*
X155391249Y-92162017D01*
X155421204Y-92242331D01*
X155507454Y-92357546D01*
X155622669Y-92443796D01*
X155757517Y-92494091D01*
X155817127Y-92500500D01*
X158912872Y-92500499D01*
X158972483Y-92494091D01*
X159107331Y-92443796D01*
X159222546Y-92357546D01*
X159260520Y-92306818D01*
X159310433Y-92267374D01*
X159373337Y-92257872D01*
X159432674Y-92280812D01*
X159437270Y-92284151D01*
X159437271Y-92284151D01*
X159437272Y-92284152D01*
X159610197Y-92361144D01*
X159795352Y-92400500D01*
X159795354Y-92400500D01*
X159984646Y-92400500D01*
X159984648Y-92400500D01*
X160108084Y-92374262D01*
X160169803Y-92361144D01*
X160342730Y-92284151D01*
X160342730Y-92284150D01*
X160354636Y-92278850D01*
X160355144Y-92279991D01*
X160400181Y-92262578D01*
X160463085Y-92272079D01*
X160513000Y-92311523D01*
X160547452Y-92357545D01*
X160552260Y-92361144D01*
X160662669Y-92443796D01*
X160797517Y-92494091D01*
X160857127Y-92500500D01*
X161384098Y-92500499D01*
X161449808Y-92519341D01*
X161495548Y-92570141D01*
X161507419Y-92637460D01*
X161494540Y-92759999D01*
X161509521Y-92902539D01*
X161497650Y-92969858D01*
X161451910Y-93020658D01*
X161386200Y-93039500D01*
X160857130Y-93039500D01*
X160797515Y-93045909D01*
X160662669Y-93096204D01*
X160547452Y-93182454D01*
X160513001Y-93228476D01*
X160463089Y-93267919D01*
X160400186Y-93277422D01*
X160355143Y-93260008D01*
X160354636Y-93261149D01*
X160169802Y-93178855D01*
X159984648Y-93139500D01*
X159984646Y-93139500D01*
X159795354Y-93139500D01*
X159795352Y-93139500D01*
X159610197Y-93178855D01*
X159437268Y-93255849D01*
X159432667Y-93259192D01*
X159373331Y-93282128D01*
X159310430Y-93272624D01*
X159260520Y-93233181D01*
X159232573Y-93195849D01*
X159222546Y-93182454D01*
X159107331Y-93096204D01*
X158972483Y-93045909D01*
X158912873Y-93039500D01*
X158912869Y-93039500D01*
X155817130Y-93039500D01*
X155757515Y-93045909D01*
X155622669Y-93096204D01*
X155507454Y-93182454D01*
X155421204Y-93297668D01*
X155370909Y-93432515D01*
X155370909Y-93432517D01*
X155367015Y-93468741D01*
X155364500Y-93492130D01*
X155364500Y-94587869D01*
X155370909Y-94647484D01*
X155391249Y-94702017D01*
X155421204Y-94782331D01*
X155507454Y-94897546D01*
X155622669Y-94983796D01*
X155757517Y-95034091D01*
X155817127Y-95040500D01*
X158912872Y-95040499D01*
X158972483Y-95034091D01*
X159107331Y-94983796D01*
X159222546Y-94897546D01*
X159260520Y-94846818D01*
X159310433Y-94807374D01*
X159373337Y-94797872D01*
X159432674Y-94820812D01*
X159437270Y-94824151D01*
X159437271Y-94824151D01*
X159437272Y-94824152D01*
X159610197Y-94901144D01*
X159795352Y-94940500D01*
X159795354Y-94940500D01*
X159984646Y-94940500D01*
X159984648Y-94940500D01*
X160108084Y-94914262D01*
X160169803Y-94901144D01*
X160342730Y-94824151D01*
X160342730Y-94824150D01*
X160354636Y-94818850D01*
X160355144Y-94819991D01*
X160400181Y-94802578D01*
X160463085Y-94812079D01*
X160513000Y-94851523D01*
X160547452Y-94897545D01*
X160552260Y-94901144D01*
X160662669Y-94983796D01*
X160797517Y-95034091D01*
X160857127Y-95040500D01*
X161395149Y-95040499D01*
X161460859Y-95059341D01*
X161506599Y-95110141D01*
X161518470Y-95177460D01*
X161504540Y-95309999D01*
X161518470Y-95442539D01*
X161506599Y-95509858D01*
X161460859Y-95560658D01*
X161395149Y-95579500D01*
X160857130Y-95579500D01*
X160797515Y-95585909D01*
X160662669Y-95636204D01*
X160547452Y-95722454D01*
X160513001Y-95768476D01*
X160463089Y-95807919D01*
X160400186Y-95817422D01*
X160355143Y-95800008D01*
X160354636Y-95801149D01*
X160169802Y-95718855D01*
X159984648Y-95679500D01*
X159984646Y-95679500D01*
X159795354Y-95679500D01*
X159795352Y-95679500D01*
X159610197Y-95718855D01*
X159437268Y-95795849D01*
X159432667Y-95799192D01*
X159373331Y-95822128D01*
X159310430Y-95812624D01*
X159260520Y-95773181D01*
X159232573Y-95735849D01*
X159222546Y-95722454D01*
X159107331Y-95636204D01*
X158972483Y-95585909D01*
X158912873Y-95579500D01*
X158912869Y-95579500D01*
X155817130Y-95579500D01*
X155757515Y-95585909D01*
X155622669Y-95636204D01*
X155507454Y-95722454D01*
X155421204Y-95837668D01*
X155370909Y-95972515D01*
X155370909Y-95972517D01*
X155367015Y-96008741D01*
X155364500Y-96032130D01*
X155364500Y-97127869D01*
X155370909Y-97187484D01*
X155391249Y-97242017D01*
X155421204Y-97322331D01*
X155507454Y-97437546D01*
X155622669Y-97523796D01*
X155757517Y-97574091D01*
X155817127Y-97580500D01*
X158912872Y-97580499D01*
X158972483Y-97574091D01*
X159107331Y-97523796D01*
X159222546Y-97437546D01*
X159260520Y-97386818D01*
X159310433Y-97347374D01*
X159373337Y-97337872D01*
X159432674Y-97360812D01*
X159437270Y-97364151D01*
X159437271Y-97364151D01*
X159437272Y-97364152D01*
X159610197Y-97441144D01*
X159795352Y-97480500D01*
X159795354Y-97480500D01*
X159984646Y-97480500D01*
X159984648Y-97480500D01*
X160108084Y-97454262D01*
X160169803Y-97441144D01*
X160342730Y-97364151D01*
X160342730Y-97364150D01*
X160354636Y-97358850D01*
X160355144Y-97359991D01*
X160400181Y-97342578D01*
X160463085Y-97352079D01*
X160513000Y-97391523D01*
X160547452Y-97437545D01*
X160552260Y-97441144D01*
X160662669Y-97523796D01*
X160797517Y-97574091D01*
X160857127Y-97580500D01*
X161393047Y-97580499D01*
X161458757Y-97599341D01*
X161504497Y-97650141D01*
X161516368Y-97717460D01*
X161504540Y-97829999D01*
X161520572Y-97982539D01*
X161508701Y-98049858D01*
X161462961Y-98100658D01*
X161397251Y-98119500D01*
X160857130Y-98119500D01*
X160797515Y-98125909D01*
X160662669Y-98176204D01*
X160547452Y-98262454D01*
X160509478Y-98313182D01*
X160459565Y-98352625D01*
X160396663Y-98362128D01*
X160337326Y-98339188D01*
X160332727Y-98335846D01*
X160159802Y-98258855D01*
X159974648Y-98219500D01*
X159974646Y-98219500D01*
X159785354Y-98219500D01*
X159785352Y-98219500D01*
X159600197Y-98258855D01*
X159415365Y-98341149D01*
X159414857Y-98340009D01*
X159369803Y-98357423D01*
X159306905Y-98347917D01*
X159256997Y-98308475D01*
X159222546Y-98262454D01*
X159107331Y-98176204D01*
X158972483Y-98125909D01*
X158912873Y-98119500D01*
X158912869Y-98119500D01*
X155817130Y-98119500D01*
X155757515Y-98125909D01*
X155622669Y-98176204D01*
X155507454Y-98262454D01*
X155421204Y-98377668D01*
X155370909Y-98512515D01*
X155370909Y-98512517D01*
X155367015Y-98548741D01*
X155364500Y-98572130D01*
X155364500Y-99667869D01*
X155370909Y-99727484D01*
X155396056Y-99794906D01*
X155421204Y-99862331D01*
X155507454Y-99977546D01*
X155622669Y-100063796D01*
X155757517Y-100114091D01*
X155817127Y-100120500D01*
X158912872Y-100120499D01*
X158972483Y-100114091D01*
X159107331Y-100063796D01*
X159222546Y-99977546D01*
X159256998Y-99931523D01*
X159306911Y-99892080D01*
X159369813Y-99882577D01*
X159414856Y-99899990D01*
X159415364Y-99898850D01*
X159427269Y-99904150D01*
X159427270Y-99904151D01*
X159556559Y-99961715D01*
X159600197Y-99981144D01*
X159785352Y-100020500D01*
X159785354Y-100020500D01*
X159974646Y-100020500D01*
X159974648Y-100020500D01*
X160098083Y-99994262D01*
X160159803Y-99981144D01*
X160332730Y-99904151D01*
X160337328Y-99900810D01*
X160396663Y-99877871D01*
X160459566Y-99887374D01*
X160509479Y-99926818D01*
X160542666Y-99971151D01*
X160547454Y-99977546D01*
X160662669Y-100063796D01*
X160797517Y-100114091D01*
X160857127Y-100120500D01*
X161395149Y-100120499D01*
X161460859Y-100139341D01*
X161506599Y-100190141D01*
X161518470Y-100257460D01*
X161504540Y-100389999D01*
X161518470Y-100522539D01*
X161506599Y-100589858D01*
X161460859Y-100640658D01*
X161395149Y-100659500D01*
X160857130Y-100659500D01*
X160797515Y-100665909D01*
X160662669Y-100716204D01*
X160547452Y-100802454D01*
X160505955Y-100857888D01*
X160456043Y-100897331D01*
X160393142Y-100906834D01*
X160333806Y-100883896D01*
X160322729Y-100875848D01*
X160149802Y-100798855D01*
X159964648Y-100759500D01*
X159964646Y-100759500D01*
X159775354Y-100759500D01*
X159775352Y-100759500D01*
X159590197Y-100798855D01*
X159405364Y-100881149D01*
X159404020Y-100878132D01*
X159366266Y-100892718D01*
X159303376Y-100883208D01*
X159253474Y-100843769D01*
X159232573Y-100815849D01*
X159222546Y-100802454D01*
X159217738Y-100798855D01*
X159107331Y-100716204D01*
X158972483Y-100665909D01*
X158912873Y-100659500D01*
X158912869Y-100659500D01*
X155817130Y-100659500D01*
X155757515Y-100665909D01*
X155622669Y-100716204D01*
X155507454Y-100802454D01*
X155421204Y-100917668D01*
X155370909Y-101052515D01*
X155370909Y-101052517D01*
X155367015Y-101088741D01*
X155364500Y-101112130D01*
X155364500Y-102207869D01*
X155370909Y-102267484D01*
X155391249Y-102322017D01*
X155421204Y-102402331D01*
X155507454Y-102517546D01*
X155622669Y-102603796D01*
X155757517Y-102654091D01*
X155817127Y-102660500D01*
X158912872Y-102660499D01*
X158972483Y-102654091D01*
X159107331Y-102603796D01*
X159222546Y-102517546D01*
X159253475Y-102476229D01*
X159303396Y-102436782D01*
X159366309Y-102427284D01*
X159404018Y-102441871D01*
X159405364Y-102438850D01*
X159417269Y-102444150D01*
X159417270Y-102444151D01*
X159455439Y-102461145D01*
X159590197Y-102521144D01*
X159775352Y-102560500D01*
X159775354Y-102560500D01*
X159964646Y-102560500D01*
X159964648Y-102560500D01*
X160088083Y-102534262D01*
X160149803Y-102521144D01*
X160322730Y-102444151D01*
X160333803Y-102436105D01*
X160393137Y-102413165D01*
X160456042Y-102422667D01*
X160505956Y-102462112D01*
X160547452Y-102517544D01*
X160547453Y-102517544D01*
X160547454Y-102517546D01*
X160662669Y-102603796D01*
X160797517Y-102654091D01*
X160857127Y-102660500D01*
X161394098Y-102660499D01*
X161459808Y-102679341D01*
X161505548Y-102730141D01*
X161517419Y-102797460D01*
X161504540Y-102919999D01*
X161519521Y-103062539D01*
X161507650Y-103129858D01*
X161461910Y-103180658D01*
X161396200Y-103199500D01*
X160857130Y-103199500D01*
X160797515Y-103205909D01*
X160662669Y-103256204D01*
X160547452Y-103342454D01*
X160505955Y-103397888D01*
X160456043Y-103437331D01*
X160393142Y-103446834D01*
X160333806Y-103423896D01*
X160322729Y-103415848D01*
X160149802Y-103338855D01*
X159964648Y-103299500D01*
X159964646Y-103299500D01*
X159775354Y-103299500D01*
X159775352Y-103299500D01*
X159590197Y-103338855D01*
X159405364Y-103421149D01*
X159404020Y-103418132D01*
X159366266Y-103432718D01*
X159303376Y-103423208D01*
X159253474Y-103383769D01*
X159232573Y-103355849D01*
X159222546Y-103342454D01*
X159217738Y-103338855D01*
X159107331Y-103256204D01*
X158972483Y-103205909D01*
X158972482Y-103205908D01*
X158912873Y-103199500D01*
X158912869Y-103199500D01*
X155817130Y-103199500D01*
X155757515Y-103205909D01*
X155622669Y-103256204D01*
X155507454Y-103342454D01*
X155421204Y-103457668D01*
X155370909Y-103592515D01*
X155370909Y-103592517D01*
X155367015Y-103628741D01*
X155364500Y-103652130D01*
X155364500Y-104747869D01*
X155370909Y-104807484D01*
X155391249Y-104862017D01*
X155421204Y-104942331D01*
X155507454Y-105057546D01*
X155622669Y-105143796D01*
X155757517Y-105194091D01*
X155817127Y-105200500D01*
X158912872Y-105200499D01*
X158972483Y-105194091D01*
X159107331Y-105143796D01*
X159222546Y-105057546D01*
X159253475Y-105016229D01*
X159303396Y-104976782D01*
X159366309Y-104967284D01*
X159404018Y-104981871D01*
X159405364Y-104978850D01*
X159417269Y-104984150D01*
X159417270Y-104984151D01*
X159455439Y-105001145D01*
X159590197Y-105061144D01*
X159775352Y-105100500D01*
X159775354Y-105100500D01*
X159964646Y-105100500D01*
X159964648Y-105100500D01*
X160088083Y-105074262D01*
X160149803Y-105061144D01*
X160322730Y-104984151D01*
X160333803Y-104976105D01*
X160393137Y-104953165D01*
X160456042Y-104962667D01*
X160505956Y-105002112D01*
X160547452Y-105057544D01*
X160547453Y-105057544D01*
X160547454Y-105057546D01*
X160662669Y-105143796D01*
X160797517Y-105194091D01*
X160857127Y-105200500D01*
X161395149Y-105200499D01*
X161460859Y-105219341D01*
X161506599Y-105270141D01*
X161518470Y-105337460D01*
X161504540Y-105469999D01*
X161518470Y-105602539D01*
X161506599Y-105669858D01*
X161460859Y-105720658D01*
X161395149Y-105739500D01*
X160857130Y-105739500D01*
X160797515Y-105745909D01*
X160662669Y-105796204D01*
X160547451Y-105882456D01*
X160514327Y-105926704D01*
X160464416Y-105966148D01*
X160401514Y-105975651D01*
X160342178Y-105952713D01*
X160332728Y-105945847D01*
X160159802Y-105868855D01*
X159974648Y-105829500D01*
X159974646Y-105829500D01*
X159785354Y-105829500D01*
X159785352Y-105829500D01*
X159600197Y-105868855D01*
X159427266Y-105945850D01*
X159424293Y-105948010D01*
X159364957Y-105970945D01*
X159302057Y-105961440D01*
X159252148Y-105921997D01*
X159222547Y-105882455D01*
X159107331Y-105796204D01*
X158972483Y-105745909D01*
X158912873Y-105739500D01*
X158912869Y-105739500D01*
X155817130Y-105739500D01*
X155757515Y-105745909D01*
X155622669Y-105796204D01*
X155507454Y-105882454D01*
X155421204Y-105997668D01*
X155409019Y-106030337D01*
X155370909Y-106132517D01*
X155365322Y-106184488D01*
X155364500Y-106192130D01*
X155364500Y-107287869D01*
X155370909Y-107347484D01*
X155392107Y-107404317D01*
X155421204Y-107482331D01*
X155507454Y-107597546D01*
X155622669Y-107683796D01*
X155757517Y-107734091D01*
X155817127Y-107740500D01*
X158912872Y-107740499D01*
X158972483Y-107734091D01*
X159107331Y-107683796D01*
X159126414Y-107669509D01*
X159185708Y-107645690D01*
X159248992Y-107654557D01*
X159299457Y-107693758D01*
X159323701Y-107752883D01*
X159315286Y-107816228D01*
X159299956Y-107853239D01*
X159279317Y-108010000D01*
X159299956Y-108166762D01*
X159315285Y-108203770D01*
X159323701Y-108267115D01*
X159299458Y-108326239D01*
X159248994Y-108365441D01*
X159185710Y-108374310D01*
X159126414Y-108350489D01*
X159107333Y-108336205D01*
X159107331Y-108336204D01*
X158972483Y-108285909D01*
X158912873Y-108279500D01*
X158912869Y-108279500D01*
X155817130Y-108279500D01*
X155757515Y-108285909D01*
X155622669Y-108336204D01*
X155507454Y-108422454D01*
X155421204Y-108537668D01*
X155370909Y-108672515D01*
X155370909Y-108672517D01*
X155367015Y-108708741D01*
X155364500Y-108732130D01*
X155364500Y-109827869D01*
X155370909Y-109887484D01*
X155396056Y-109954907D01*
X155421204Y-110022331D01*
X155507454Y-110137546D01*
X155622669Y-110223796D01*
X155757517Y-110274091D01*
X155817127Y-110280500D01*
X158912872Y-110280499D01*
X158972483Y-110274091D01*
X159107331Y-110223796D01*
X159222546Y-110137546D01*
X159260520Y-110086818D01*
X159310433Y-110047374D01*
X159373337Y-110037872D01*
X159432674Y-110060812D01*
X159437270Y-110064151D01*
X159437271Y-110064151D01*
X159437272Y-110064152D01*
X159610197Y-110141144D01*
X159795352Y-110180500D01*
X159795354Y-110180500D01*
X159984646Y-110180500D01*
X159984648Y-110180500D01*
X160121044Y-110151508D01*
X160169803Y-110141144D01*
X160342730Y-110064151D01*
X160342730Y-110064150D01*
X160354636Y-110058850D01*
X160355144Y-110059991D01*
X160400181Y-110042578D01*
X160463085Y-110052079D01*
X160513000Y-110091523D01*
X160547452Y-110137545D01*
X160593784Y-110172229D01*
X160662669Y-110223796D01*
X160797517Y-110274091D01*
X160857127Y-110280500D01*
X163952872Y-110280499D01*
X164012483Y-110274091D01*
X164147331Y-110223796D01*
X164262546Y-110137546D01*
X164348796Y-110022331D01*
X164399091Y-109887483D01*
X164399090Y-109887483D01*
X164404318Y-109873469D01*
X164444780Y-109818607D01*
X164508126Y-109793422D01*
X164575211Y-109805526D01*
X164625762Y-109851260D01*
X164644500Y-109916803D01*
X164644500Y-112502476D01*
X164627232Y-112565597D01*
X164580237Y-112611138D01*
X164516604Y-112626415D01*
X164454056Y-112607172D01*
X164410015Y-112558769D01*
X164404127Y-112547213D01*
X164192878Y-112221919D01*
X164177467Y-112202888D01*
X163948781Y-111920484D01*
X163674516Y-111646219D01*
X163373084Y-111402124D01*
X163373082Y-111402123D01*
X163373080Y-111402121D01*
X163047793Y-111190876D01*
X162702193Y-111014785D01*
X162340086Y-110875785D01*
X161965429Y-110775396D01*
X161582340Y-110714722D01*
X161195000Y-110694422D01*
X160807659Y-110714722D01*
X160424570Y-110775396D01*
X160049913Y-110875785D01*
X159687806Y-111014785D01*
X159342206Y-111190876D01*
X159016919Y-111402121D01*
X158715480Y-111646222D01*
X158441222Y-111920480D01*
X158197121Y-112221919D01*
X157985876Y-112547206D01*
X157809785Y-112892806D01*
X157670785Y-113254913D01*
X157570396Y-113629570D01*
X157509722Y-114012659D01*
X157491452Y-114361257D01*
X157489422Y-114400000D01*
X157495098Y-114508311D01*
X157509722Y-114787340D01*
X157570396Y-115170429D01*
X157670785Y-115545086D01*
X157809785Y-115907193D01*
X157985876Y-116252793D01*
X158197121Y-116578080D01*
X158197124Y-116578084D01*
X158441219Y-116879516D01*
X158715484Y-117153781D01*
X159016916Y-117397876D01*
X159016918Y-117397877D01*
X159016919Y-117397878D01*
X159342213Y-117609127D01*
X159353769Y-117615015D01*
X159402172Y-117659056D01*
X159421415Y-117721604D01*
X159406138Y-117785237D01*
X159360597Y-117832232D01*
X159297476Y-117849500D01*
X129992524Y-117849500D01*
X129929403Y-117832232D01*
X129883862Y-117785237D01*
X129868585Y-117721604D01*
X129887828Y-117659056D01*
X129936231Y-117615015D01*
X129947786Y-117609127D01*
X129973721Y-117592284D01*
X130273084Y-117397876D01*
X130574516Y-117153781D01*
X130848781Y-116879516D01*
X131092876Y-116578084D01*
X131198500Y-116415436D01*
X131304123Y-116252793D01*
X131464247Y-115938531D01*
X131480214Y-115907194D01*
X131619214Y-115545087D01*
X131719602Y-115170433D01*
X131721255Y-115160000D01*
X143410000Y-115160000D01*
X143410000Y-115260710D01*
X143425419Y-115412339D01*
X143486303Y-115606389D01*
X143585003Y-115784214D01*
X143717479Y-115938531D01*
X143878307Y-116063021D01*
X144060905Y-116152589D01*
X144159999Y-116178246D01*
X144160000Y-116178246D01*
X144160000Y-115160000D01*
X144660000Y-115160000D01*
X144660000Y-116183366D01*
X144661948Y-116183067D01*
X144852663Y-116112435D01*
X145025263Y-116004854D01*
X145172669Y-115864733D01*
X145288855Y-115697805D01*
X145369059Y-115510907D01*
X145410000Y-115311689D01*
X145410000Y-115160000D01*
X152050000Y-115160000D01*
X152050000Y-115260710D01*
X152065419Y-115412339D01*
X152126303Y-115606389D01*
X152225003Y-115784214D01*
X152357479Y-115938531D01*
X152518307Y-116063021D01*
X152700905Y-116152589D01*
X152799999Y-116178246D01*
X152800000Y-116178247D01*
X152800000Y-115160000D01*
X153300000Y-115160000D01*
X153300000Y-116183366D01*
X153301948Y-116183067D01*
X153492663Y-116112435D01*
X153665263Y-116004854D01*
X153812669Y-115864733D01*
X153928855Y-115697805D01*
X154009059Y-115510907D01*
X154050000Y-115311689D01*
X154050000Y-115160000D01*
X153300000Y-115160000D01*
X152800000Y-115160000D01*
X152050000Y-115160000D01*
X145410000Y-115160000D01*
X144660000Y-115160000D01*
X144160000Y-115160000D01*
X143410000Y-115160000D01*
X131721255Y-115160000D01*
X131771004Y-114845889D01*
X131780278Y-114787338D01*
X131800578Y-114400000D01*
X131788681Y-114173000D01*
X138921540Y-114173000D01*
X138941326Y-114361257D01*
X138999820Y-114541284D01*
X139094466Y-114705216D01*
X139221129Y-114845889D01*
X139374269Y-114957151D01*
X139547197Y-115034144D01*
X139732352Y-115073500D01*
X139732354Y-115073500D01*
X139921646Y-115073500D01*
X139921648Y-115073500D01*
X140045084Y-115047262D01*
X140106803Y-115034144D01*
X140279730Y-114957151D01*
X140432871Y-114845888D01*
X140559533Y-114705216D01*
X140654179Y-114541284D01*
X140712674Y-114361256D01*
X140732460Y-114173000D01*
X141207540Y-114173000D01*
X141227326Y-114361257D01*
X141285820Y-114541284D01*
X141380466Y-114705216D01*
X141507129Y-114845889D01*
X141660269Y-114957151D01*
X141833197Y-115034144D01*
X142018352Y-115073500D01*
X142018354Y-115073500D01*
X142207646Y-115073500D01*
X142207648Y-115073500D01*
X142331084Y-115047262D01*
X142392803Y-115034144D01*
X142565730Y-114957151D01*
X142718871Y-114845888D01*
X142845533Y-114705216D01*
X142871638Y-114660000D01*
X143410000Y-114660000D01*
X144160000Y-114660000D01*
X144160000Y-113641753D01*
X144660000Y-113641753D01*
X144660000Y-114660000D01*
X145410000Y-114660000D01*
X152050000Y-114660000D01*
X152800000Y-114660000D01*
X152800000Y-113641753D01*
X153300000Y-113641753D01*
X153300000Y-114660000D01*
X154050000Y-114660000D01*
X154050000Y-114559290D01*
X154034580Y-114407660D01*
X153973696Y-114213610D01*
X153874996Y-114035785D01*
X153742520Y-113881468D01*
X153581692Y-113756978D01*
X153399094Y-113667410D01*
X153300000Y-113641753D01*
X152800000Y-113641753D01*
X152800000Y-113636634D01*
X152798051Y-113636932D01*
X152607336Y-113707564D01*
X152434736Y-113815145D01*
X152287330Y-113955266D01*
X152171144Y-114122194D01*
X152090940Y-114309092D01*
X152050000Y-114508311D01*
X152050000Y-114660000D01*
X145410000Y-114660000D01*
X145410000Y-114559290D01*
X145394580Y-114407660D01*
X145333696Y-114213610D01*
X145234996Y-114035785D01*
X145102520Y-113881468D01*
X144941692Y-113756978D01*
X144759094Y-113667410D01*
X144660000Y-113641753D01*
X144160000Y-113641753D01*
X144160000Y-113636634D01*
X144158051Y-113636932D01*
X143967336Y-113707564D01*
X143794736Y-113815145D01*
X143647330Y-113955266D01*
X143531144Y-114122194D01*
X143450940Y-114309092D01*
X143410000Y-114508311D01*
X143410000Y-114660000D01*
X142871638Y-114660000D01*
X142940179Y-114541284D01*
X142998674Y-114361256D01*
X143018460Y-114173000D01*
X142998674Y-113984744D01*
X142940179Y-113804716D01*
X142940179Y-113804715D01*
X142845533Y-113640783D01*
X142718870Y-113500110D01*
X142565730Y-113388848D01*
X142392802Y-113311855D01*
X142207648Y-113272500D01*
X142207646Y-113272500D01*
X142018354Y-113272500D01*
X142018352Y-113272500D01*
X141833197Y-113311855D01*
X141660269Y-113388848D01*
X141507129Y-113500110D01*
X141380466Y-113640783D01*
X141285820Y-113804715D01*
X141227326Y-113984742D01*
X141207540Y-114173000D01*
X140732460Y-114173000D01*
X140712674Y-113984744D01*
X140654179Y-113804716D01*
X140654179Y-113804715D01*
X140559533Y-113640783D01*
X140432870Y-113500110D01*
X140279730Y-113388848D01*
X140106802Y-113311855D01*
X139921648Y-113272500D01*
X139921646Y-113272500D01*
X139732354Y-113272500D01*
X139732352Y-113272500D01*
X139547197Y-113311855D01*
X139374269Y-113388848D01*
X139221129Y-113500110D01*
X139094466Y-113640783D01*
X138999820Y-113804715D01*
X138941326Y-113984742D01*
X138921540Y-114173000D01*
X131788681Y-114173000D01*
X131780278Y-114012662D01*
X131739782Y-113756978D01*
X131719603Y-113629570D01*
X131619214Y-113254913D01*
X131480214Y-112892806D01*
X131304123Y-112547206D01*
X131092878Y-112221919D01*
X131077467Y-112202888D01*
X130848781Y-111920484D01*
X130688296Y-111759999D01*
X135238540Y-111759999D01*
X135258326Y-111948257D01*
X135316820Y-112128284D01*
X135411466Y-112292216D01*
X135538129Y-112432889D01*
X135691269Y-112544151D01*
X135864197Y-112621144D01*
X136049352Y-112660500D01*
X136049354Y-112660500D01*
X136238646Y-112660500D01*
X136238648Y-112660500D01*
X136362083Y-112634262D01*
X136423803Y-112621144D01*
X136596730Y-112544151D01*
X136749871Y-112432888D01*
X136876533Y-112292216D01*
X136971179Y-112128284D01*
X137029674Y-111948256D01*
X137049460Y-111760000D01*
X137029674Y-111571744D01*
X136971179Y-111391716D01*
X136971179Y-111391715D01*
X136876533Y-111227783D01*
X136749870Y-111087110D01*
X136602445Y-110980000D01*
X143410000Y-110980000D01*
X143410000Y-111330710D01*
X143425419Y-111482339D01*
X143486303Y-111676389D01*
X143585003Y-111854214D01*
X143717479Y-112008531D01*
X143878307Y-112133021D01*
X144060905Y-112222589D01*
X144159999Y-112248246D01*
X144160000Y-112248246D01*
X144160000Y-110980000D01*
X143410000Y-110980000D01*
X136602445Y-110980000D01*
X136596730Y-110975848D01*
X136423802Y-110898855D01*
X136238648Y-110859500D01*
X136238646Y-110859500D01*
X136049354Y-110859500D01*
X136049352Y-110859500D01*
X135864197Y-110898855D01*
X135691269Y-110975848D01*
X135538129Y-111087110D01*
X135411466Y-111227783D01*
X135316820Y-111391715D01*
X135258326Y-111571742D01*
X135238540Y-111759999D01*
X130688296Y-111759999D01*
X130574516Y-111646219D01*
X130273084Y-111402124D01*
X130273082Y-111402123D01*
X130273080Y-111402121D01*
X129947793Y-111190876D01*
X129602193Y-111014785D01*
X129240086Y-110875785D01*
X128865429Y-110775396D01*
X128482340Y-110714722D01*
X128095000Y-110694422D01*
X127707659Y-110714722D01*
X127324570Y-110775396D01*
X126949913Y-110875785D01*
X126587806Y-111014785D01*
X126242206Y-111190876D01*
X125916919Y-111402121D01*
X125615480Y-111646222D01*
X125341222Y-111920480D01*
X125097121Y-112221919D01*
X124885872Y-112547213D01*
X124879985Y-112558769D01*
X124835944Y-112607172D01*
X124773396Y-112626415D01*
X124709763Y-112611138D01*
X124662768Y-112565597D01*
X124645500Y-112502476D01*
X124645500Y-110480000D01*
X143410000Y-110480000D01*
X144160000Y-110480000D01*
X144160000Y-109206634D01*
X144158051Y-109206932D01*
X143967336Y-109277564D01*
X143794736Y-109385145D01*
X143647330Y-109525266D01*
X143531144Y-109692194D01*
X143450940Y-109879092D01*
X143410000Y-110078311D01*
X143410000Y-110480000D01*
X124645500Y-110480000D01*
X124645500Y-109916802D01*
X124664238Y-109851259D01*
X124714789Y-109805525D01*
X124781874Y-109793421D01*
X124845220Y-109818606D01*
X124885682Y-109873469D01*
X124890909Y-109887483D01*
X124941204Y-110022331D01*
X125027454Y-110137546D01*
X125142669Y-110223796D01*
X125277517Y-110274091D01*
X125337127Y-110280500D01*
X128432872Y-110280499D01*
X128492483Y-110274091D01*
X128627331Y-110223796D01*
X128694812Y-110173279D01*
X128742187Y-110151508D01*
X128794325Y-110151135D01*
X128842007Y-110172229D01*
X128960269Y-110258151D01*
X129133197Y-110335144D01*
X129318352Y-110374500D01*
X129318354Y-110374500D01*
X129507646Y-110374500D01*
X129507648Y-110374500D01*
X129631083Y-110348262D01*
X129692803Y-110335144D01*
X129815532Y-110280501D01*
X129865727Y-110258153D01*
X129865730Y-110258151D01*
X129975877Y-110178124D01*
X130023554Y-110157033D01*
X130075693Y-110157406D01*
X130123065Y-110179177D01*
X130182669Y-110223796D01*
X130317517Y-110274091D01*
X130377127Y-110280500D01*
X133472872Y-110280499D01*
X133532483Y-110274091D01*
X133667331Y-110223796D01*
X133782546Y-110137546D01*
X133868796Y-110022331D01*
X133919091Y-109887483D01*
X133925500Y-109827873D01*
X133925499Y-108965999D01*
X136254540Y-108965999D01*
X136274326Y-109154257D01*
X136332820Y-109334284D01*
X136427466Y-109498216D01*
X136554129Y-109638889D01*
X136707269Y-109750151D01*
X136880197Y-109827144D01*
X137065352Y-109866500D01*
X137065354Y-109866500D01*
X137254646Y-109866500D01*
X137254648Y-109866500D01*
X137378084Y-109840262D01*
X137439803Y-109827144D01*
X137612730Y-109750151D01*
X137612730Y-109750150D01*
X137765870Y-109638889D01*
X137892533Y-109498216D01*
X137987179Y-109334284D01*
X137989553Y-109326978D01*
X138045674Y-109154256D01*
X138065460Y-108966000D01*
X138045674Y-108777744D01*
X138015332Y-108684363D01*
X137987179Y-108597715D01*
X137892533Y-108433783D01*
X137765870Y-108293110D01*
X137619615Y-108186851D01*
X137582015Y-108142828D01*
X137568500Y-108086533D01*
X137568500Y-102624500D01*
X137585113Y-102562500D01*
X137630500Y-102517113D01*
X137692500Y-102500500D01*
X137762648Y-102500500D01*
X137886083Y-102474262D01*
X137947803Y-102461144D01*
X138120730Y-102384151D01*
X138143071Y-102367919D01*
X138196557Y-102345765D01*
X138254273Y-102350307D01*
X138303636Y-102380557D01*
X145019341Y-109096262D01*
X145052591Y-109156525D01*
X145048583Y-109225236D01*
X145008551Y-109281225D01*
X144944830Y-109307242D01*
X144877052Y-109295271D01*
X144759094Y-109237410D01*
X144660000Y-109211753D01*
X144660000Y-112253366D01*
X144661948Y-112253067D01*
X144852663Y-112182435D01*
X145025263Y-112074854D01*
X145172669Y-111934733D01*
X145288856Y-111767804D01*
X145301922Y-111737357D01*
X145335003Y-111692256D01*
X145384538Y-111666280D01*
X145440449Y-111664716D01*
X145491358Y-111687879D01*
X145549767Y-111732698D01*
X145662124Y-111779238D01*
X145689764Y-111790687D01*
X145802279Y-111805500D01*
X145802280Y-111805500D01*
X145877720Y-111805500D01*
X145877721Y-111805500D01*
X145933977Y-111798093D01*
X145990236Y-111790687D01*
X146112212Y-111740162D01*
X146165070Y-111730842D01*
X146216919Y-111744735D01*
X146258038Y-111779238D01*
X146258620Y-111779997D01*
X146258621Y-111779998D01*
X146354875Y-111905439D01*
X146374482Y-111920484D01*
X146379925Y-111924660D01*
X146392121Y-111935356D01*
X147077799Y-112621034D01*
X147088494Y-112633229D01*
X147107717Y-112658282D01*
X147165923Y-112702944D01*
X147233159Y-112754536D01*
X147379238Y-112815044D01*
X147504698Y-112831561D01*
X147535999Y-112835682D01*
X147535999Y-112835681D01*
X147536000Y-112835682D01*
X147567302Y-112831560D01*
X147583487Y-112830500D01*
X148232016Y-112830500D01*
X148248200Y-112831560D01*
X148279503Y-112835682D01*
X148436265Y-112815044D01*
X148582344Y-112754536D01*
X148649580Y-112702944D01*
X148707785Y-112658282D01*
X148727012Y-112633223D01*
X148737686Y-112621050D01*
X148891921Y-112466816D01*
X148932148Y-112439939D01*
X148979600Y-112430500D01*
X149074151Y-112430500D01*
X149197586Y-112404262D01*
X149259306Y-112391144D01*
X149432233Y-112314151D01*
X149516308Y-112253067D01*
X149585373Y-112202889D01*
X149712036Y-112062216D01*
X149806682Y-111898284D01*
X149821001Y-111854214D01*
X149865177Y-111718256D01*
X149884963Y-111530000D01*
X149865177Y-111341744D01*
X149828869Y-111230000D01*
X151039533Y-111230000D01*
X151059312Y-111380235D01*
X151117301Y-111520231D01*
X151117302Y-111520233D01*
X151209549Y-111640451D01*
X151329767Y-111732698D01*
X151442124Y-111779238D01*
X151469764Y-111790687D01*
X151582279Y-111805500D01*
X151582280Y-111805500D01*
X151657720Y-111805500D01*
X151657721Y-111805500D01*
X151713977Y-111798093D01*
X151770236Y-111790687D01*
X151910233Y-111732698D01*
X151969580Y-111687158D01*
X152017416Y-111664658D01*
X152070281Y-111664127D01*
X152118562Y-111685666D01*
X152153483Y-111725359D01*
X152225003Y-111854214D01*
X152357479Y-112008531D01*
X152518307Y-112133021D01*
X152700905Y-112222589D01*
X152799999Y-112248246D01*
X152800000Y-112248247D01*
X152800000Y-110980000D01*
X153300000Y-110980000D01*
X153300000Y-112253366D01*
X153301948Y-112253067D01*
X153492663Y-112182435D01*
X153665263Y-112074854D01*
X153812669Y-111934733D01*
X153928855Y-111767805D01*
X154009059Y-111580907D01*
X154050000Y-111381689D01*
X154050000Y-110980000D01*
X153300000Y-110980000D01*
X152800000Y-110980000D01*
X152800000Y-109211753D01*
X153300000Y-109211753D01*
X153300000Y-110480000D01*
X154050000Y-110480000D01*
X154050000Y-110129290D01*
X154034580Y-109977660D01*
X153973696Y-109783610D01*
X153874996Y-109605785D01*
X153742520Y-109451468D01*
X153581692Y-109326978D01*
X153399094Y-109237410D01*
X153300000Y-109211753D01*
X152800000Y-109211753D01*
X152800000Y-109206634D01*
X152798051Y-109206932D01*
X152607336Y-109277564D01*
X152434736Y-109385145D01*
X152287330Y-109525266D01*
X152171144Y-109692194D01*
X152090940Y-109879092D01*
X152050000Y-110078311D01*
X152050000Y-110599616D01*
X152035358Y-110658069D01*
X151994891Y-110702718D01*
X151938154Y-110723019D01*
X151878547Y-110714177D01*
X151770235Y-110669312D01*
X151657721Y-110654500D01*
X151657720Y-110654500D01*
X151582280Y-110654500D01*
X151582279Y-110654500D01*
X151469764Y-110669312D01*
X151329768Y-110727301D01*
X151209549Y-110819549D01*
X151117301Y-110939768D01*
X151059312Y-111079764D01*
X151039533Y-111230000D01*
X149828869Y-111230000D01*
X149816157Y-111190876D01*
X149806682Y-111161715D01*
X149712036Y-110997783D01*
X149585373Y-110857110D01*
X149432233Y-110745848D01*
X149259305Y-110668855D01*
X149074151Y-110629500D01*
X149074149Y-110629500D01*
X148884857Y-110629500D01*
X148884855Y-110629500D01*
X148723436Y-110663810D01*
X148656263Y-110659407D01*
X148601289Y-110620556D01*
X148574716Y-110558705D01*
X148565044Y-110485238D01*
X148504536Y-110339159D01*
X148459525Y-110280500D01*
X148408282Y-110213718D01*
X148383229Y-110194494D01*
X148371034Y-110183799D01*
X138609934Y-100422699D01*
X138580725Y-100376402D01*
X138576746Y-100342759D01*
X138574822Y-100342962D01*
X138565836Y-100257461D01*
X138553674Y-100141744D01*
X138495179Y-99961716D01*
X138495179Y-99961715D01*
X138400533Y-99797783D01*
X138273870Y-99657110D01*
X138120730Y-99545848D01*
X137947802Y-99468855D01*
X137762648Y-99429500D01*
X137762646Y-99429500D01*
X137692500Y-99429500D01*
X137630500Y-99412887D01*
X137585113Y-99367500D01*
X137568500Y-99305500D01*
X137568500Y-89210000D01*
X155365000Y-89210000D01*
X155365000Y-89507824D01*
X155371402Y-89567375D01*
X155421647Y-89702089D01*
X155507811Y-89817188D01*
X155622910Y-89903352D01*
X155757624Y-89953597D01*
X155817176Y-89960000D01*
X157115000Y-89960000D01*
X157115000Y-89210000D01*
X157615000Y-89210000D01*
X157615000Y-89960000D01*
X158912824Y-89960000D01*
X158972375Y-89953597D01*
X159107089Y-89903352D01*
X159222188Y-89817188D01*
X159308352Y-89702089D01*
X159358597Y-89567375D01*
X159365000Y-89507824D01*
X159365000Y-89210000D01*
X157615000Y-89210000D01*
X157115000Y-89210000D01*
X155365000Y-89210000D01*
X137568500Y-89210000D01*
X137568500Y-89173452D01*
X137577939Y-89125999D01*
X137604819Y-89085771D01*
X137869772Y-88820819D01*
X137910000Y-88793939D01*
X137957453Y-88784500D01*
X138016648Y-88784500D01*
X138140084Y-88758262D01*
X138201803Y-88745144D01*
X138280737Y-88710000D01*
X155365000Y-88710000D01*
X157115000Y-88710000D01*
X157115000Y-87960000D01*
X155817176Y-87960000D01*
X155757624Y-87966402D01*
X155622910Y-88016647D01*
X155507811Y-88102811D01*
X155421647Y-88217910D01*
X155371402Y-88352624D01*
X155365000Y-88412176D01*
X155365000Y-88710000D01*
X138280737Y-88710000D01*
X138374730Y-88668151D01*
X138527871Y-88556888D01*
X138654533Y-88416216D01*
X138749179Y-88252284D01*
X138807674Y-88072256D01*
X138827460Y-87884000D01*
X138807674Y-87695744D01*
X138754873Y-87533239D01*
X138749179Y-87515715D01*
X138654533Y-87351783D01*
X138636694Y-87331971D01*
X138608527Y-87278996D01*
X138608528Y-87218998D01*
X138636696Y-87166025D01*
X138654533Y-87146216D01*
X138749179Y-86982284D01*
X138807674Y-86802256D01*
X138827460Y-86614000D01*
X138807674Y-86425744D01*
X138749179Y-86245716D01*
X138749179Y-86245715D01*
X138654533Y-86081783D01*
X138527870Y-85941110D01*
X138374730Y-85829848D01*
X138201802Y-85752855D01*
X138016648Y-85713500D01*
X138016646Y-85713500D01*
X137827354Y-85713500D01*
X137827352Y-85713500D01*
X137642197Y-85752855D01*
X137469269Y-85829848D01*
X137316129Y-85941110D01*
X137189466Y-86081783D01*
X137094820Y-86245715D01*
X137036326Y-86425742D01*
X137016540Y-86613999D01*
X137036326Y-86802257D01*
X137094820Y-86982284D01*
X137189466Y-87146216D01*
X137207305Y-87166028D01*
X137235472Y-87219002D01*
X137235472Y-87278998D01*
X137207305Y-87331972D01*
X137189466Y-87351783D01*
X137094820Y-87515715D01*
X137036326Y-87695742D01*
X137018679Y-87863649D01*
X137007279Y-87904070D01*
X136983039Y-87938368D01*
X136559208Y-88362199D01*
X136543110Y-88375096D01*
X136495096Y-88426225D01*
X136492391Y-88429017D01*
X136472874Y-88448534D01*
X136470415Y-88451705D01*
X136462842Y-88460572D01*
X136432935Y-88492420D01*
X136423285Y-88509974D01*
X136412609Y-88526228D01*
X136400326Y-88542063D01*
X136382975Y-88582158D01*
X136377838Y-88592644D01*
X136356802Y-88630907D01*
X136351821Y-88650309D01*
X136345520Y-88668711D01*
X136337561Y-88687102D01*
X136330728Y-88730242D01*
X136328360Y-88741674D01*
X136317500Y-88783978D01*
X136317500Y-88804016D01*
X136315973Y-88823415D01*
X136312840Y-88843194D01*
X136316950Y-88886675D01*
X136317500Y-88898344D01*
X136317500Y-108625229D01*
X136311431Y-108663547D01*
X136274326Y-108777742D01*
X136254540Y-108965999D01*
X133925499Y-108965999D01*
X133925499Y-108732128D01*
X133919091Y-108672517D01*
X133868796Y-108537669D01*
X133782546Y-108422454D01*
X133667331Y-108336204D01*
X133532483Y-108285909D01*
X133472873Y-108279500D01*
X133472869Y-108279500D01*
X130377130Y-108279500D01*
X130317515Y-108285909D01*
X130182669Y-108336204D01*
X130163584Y-108350491D01*
X130104287Y-108374310D01*
X130041004Y-108365441D01*
X129990540Y-108326238D01*
X129966297Y-108267113D01*
X129974713Y-108203773D01*
X129990044Y-108166762D01*
X130010682Y-108010000D01*
X129990044Y-107853238D01*
X129974338Y-107815321D01*
X129965923Y-107751980D01*
X129990166Y-107692855D01*
X130040630Y-107653653D01*
X130103914Y-107644784D01*
X130163211Y-107668605D01*
X130182910Y-107683352D01*
X130317624Y-107733597D01*
X130377176Y-107740000D01*
X131675000Y-107740000D01*
X131675000Y-106990000D01*
X132175000Y-106990000D01*
X132175000Y-107740000D01*
X133472824Y-107740000D01*
X133532375Y-107733597D01*
X133667089Y-107683352D01*
X133782188Y-107597188D01*
X133868352Y-107482089D01*
X133918597Y-107347375D01*
X133925000Y-107287824D01*
X133925000Y-106990000D01*
X132175000Y-106990000D01*
X131675000Y-106990000D01*
X129925000Y-106990000D01*
X129925000Y-107287824D01*
X129931402Y-107347378D01*
X129942296Y-107376585D01*
X129948542Y-107439607D01*
X129922852Y-107497494D01*
X129871928Y-107535146D01*
X129809054Y-107542740D01*
X129750630Y-107518296D01*
X129707840Y-107485463D01*
X129561762Y-107424956D01*
X129405000Y-107404317D01*
X129248237Y-107424956D01*
X129102156Y-107485464D01*
X129059368Y-107518296D01*
X129000944Y-107542740D01*
X128938069Y-107535145D01*
X128887146Y-107497493D01*
X128861457Y-107439605D01*
X128867703Y-107376582D01*
X128878598Y-107347373D01*
X128885000Y-107287824D01*
X128885000Y-106990000D01*
X127135000Y-106990000D01*
X127135000Y-107740000D01*
X128432824Y-107740000D01*
X128492375Y-107733597D01*
X128627088Y-107683352D01*
X128646787Y-107668606D01*
X128706083Y-107644785D01*
X128769367Y-107653652D01*
X128819832Y-107692853D01*
X128844076Y-107751978D01*
X128835661Y-107815322D01*
X128824079Y-107843283D01*
X128819955Y-107853240D01*
X128799317Y-108010000D01*
X128819956Y-108166762D01*
X128835285Y-108203770D01*
X128843701Y-108267115D01*
X128819458Y-108326239D01*
X128768994Y-108365441D01*
X128705710Y-108374310D01*
X128646414Y-108350489D01*
X128627333Y-108336205D01*
X128627331Y-108336204D01*
X128492483Y-108285909D01*
X128432873Y-108279500D01*
X128432869Y-108279500D01*
X125337130Y-108279500D01*
X125277515Y-108285909D01*
X125142669Y-108336204D01*
X125027454Y-108422454D01*
X124941204Y-108537668D01*
X124885682Y-108686531D01*
X124845220Y-108741393D01*
X124781874Y-108766578D01*
X124714789Y-108754474D01*
X124664238Y-108708740D01*
X124645500Y-108643197D01*
X124645500Y-107373539D01*
X124661024Y-107313465D01*
X124703707Y-107268433D01*
X124762864Y-107249717D01*
X124823683Y-107262003D01*
X124870935Y-107302216D01*
X124882871Y-107333933D01*
X124885959Y-107332782D01*
X124941647Y-107482089D01*
X125027811Y-107597188D01*
X125142910Y-107683352D01*
X125277624Y-107733597D01*
X125337176Y-107740000D01*
X126635000Y-107740000D01*
X126635000Y-106614000D01*
X126651613Y-106552000D01*
X126697000Y-106506613D01*
X126759000Y-106490000D01*
X128885000Y-106490000D01*
X129925000Y-106490000D01*
X131675000Y-106490000D01*
X131675000Y-105740000D01*
X132175000Y-105740000D01*
X132175000Y-106490000D01*
X133925000Y-106490000D01*
X133925000Y-106192176D01*
X133918597Y-106132624D01*
X133868352Y-105997910D01*
X133782188Y-105882811D01*
X133667089Y-105796647D01*
X133532375Y-105746402D01*
X133472824Y-105740000D01*
X132175000Y-105740000D01*
X131675000Y-105740000D01*
X130377176Y-105740000D01*
X130317624Y-105746402D01*
X130182910Y-105796647D01*
X130067811Y-105882811D01*
X129981647Y-105997910D01*
X129931402Y-106132624D01*
X129925000Y-106192176D01*
X129925000Y-106490000D01*
X128885000Y-106490000D01*
X128885000Y-106192176D01*
X128878597Y-106132624D01*
X128828352Y-105997910D01*
X128742188Y-105882811D01*
X128627089Y-105796647D01*
X128492375Y-105746402D01*
X128432824Y-105740000D01*
X127917570Y-105740000D01*
X127851860Y-105721158D01*
X127806119Y-105670358D01*
X127794249Y-105603040D01*
X127803860Y-105511600D01*
X127785557Y-105337457D01*
X127797428Y-105270141D01*
X127843168Y-105219341D01*
X127908878Y-105200499D01*
X128432870Y-105200499D01*
X128432872Y-105200499D01*
X128492483Y-105194091D01*
X128627331Y-105143796D01*
X128742546Y-105057546D01*
X128812569Y-104964007D01*
X128854665Y-104928285D01*
X128908097Y-104914376D01*
X128962268Y-104925040D01*
X129089910Y-104981871D01*
X129133197Y-105001144D01*
X129318352Y-105040500D01*
X129318354Y-105040500D01*
X129507646Y-105040500D01*
X129507648Y-105040500D01*
X129692800Y-105001145D01*
X129692801Y-105001144D01*
X129692803Y-105001144D01*
X129851732Y-104930383D01*
X129905901Y-104919719D01*
X129959334Y-104933628D01*
X130001432Y-104969352D01*
X130067452Y-105057544D01*
X130067454Y-105057546D01*
X130182669Y-105143796D01*
X130317517Y-105194091D01*
X130377127Y-105200500D01*
X133472872Y-105200499D01*
X133532483Y-105194091D01*
X133667331Y-105143796D01*
X133782546Y-105057546D01*
X133868796Y-104942331D01*
X133919091Y-104807483D01*
X133925500Y-104747873D01*
X133925499Y-103652128D01*
X133919091Y-103592517D01*
X133868796Y-103457669D01*
X133782546Y-103342454D01*
X133667331Y-103256204D01*
X133532483Y-103205909D01*
X133472873Y-103199500D01*
X133472869Y-103199500D01*
X130377130Y-103199500D01*
X130317515Y-103205909D01*
X130182670Y-103256203D01*
X130067452Y-103342455D01*
X130063150Y-103348203D01*
X130013237Y-103387646D01*
X129950335Y-103397147D01*
X129890999Y-103374208D01*
X129865727Y-103355846D01*
X129692802Y-103278855D01*
X129507648Y-103239500D01*
X129507646Y-103239500D01*
X129318354Y-103239500D01*
X129318352Y-103239500D01*
X129133197Y-103278855D01*
X128960270Y-103355848D01*
X128924635Y-103381738D01*
X128865298Y-103404677D01*
X128802395Y-103395173D01*
X128752484Y-103355729D01*
X128742547Y-103342455D01*
X128742544Y-103342453D01*
X128627331Y-103256204D01*
X128492483Y-103205909D01*
X128432873Y-103199500D01*
X128432869Y-103199500D01*
X127912284Y-103199500D01*
X127846574Y-103180658D01*
X127800834Y-103129858D01*
X127788963Y-103062539D01*
X127788963Y-103062538D01*
X127803860Y-102920800D01*
X127790896Y-102797457D01*
X127802766Y-102730141D01*
X127848507Y-102679341D01*
X127914217Y-102660499D01*
X128432870Y-102660499D01*
X128432872Y-102660499D01*
X128492483Y-102654091D01*
X128627331Y-102603796D01*
X128742546Y-102517546D01*
X128812569Y-102424007D01*
X128854665Y-102388285D01*
X128908097Y-102374376D01*
X128962268Y-102385040D01*
X129089910Y-102441871D01*
X129133197Y-102461144D01*
X129318352Y-102500500D01*
X129318354Y-102500500D01*
X129507646Y-102500500D01*
X129507648Y-102500500D01*
X129692800Y-102461145D01*
X129692801Y-102461144D01*
X129692803Y-102461144D01*
X129851732Y-102390383D01*
X129905901Y-102379719D01*
X129959334Y-102393628D01*
X130001432Y-102429352D01*
X130067452Y-102517544D01*
X130067454Y-102517546D01*
X130182669Y-102603796D01*
X130317517Y-102654091D01*
X130377127Y-102660500D01*
X133472872Y-102660499D01*
X133532483Y-102654091D01*
X133667331Y-102603796D01*
X133782546Y-102517546D01*
X133868796Y-102402331D01*
X133919091Y-102267483D01*
X133925500Y-102207873D01*
X133925499Y-101112128D01*
X133919091Y-101052517D01*
X133868796Y-100917669D01*
X133782546Y-100802454D01*
X133667331Y-100716204D01*
X133532483Y-100665909D01*
X133472873Y-100659500D01*
X133472869Y-100659500D01*
X130377130Y-100659500D01*
X130317515Y-100665909D01*
X130182670Y-100716203D01*
X130067452Y-100802455D01*
X130063150Y-100808203D01*
X130013237Y-100847646D01*
X129950335Y-100857147D01*
X129890999Y-100834208D01*
X129865727Y-100815846D01*
X129692802Y-100738855D01*
X129507648Y-100699500D01*
X129507646Y-100699500D01*
X129318354Y-100699500D01*
X129318352Y-100699500D01*
X129133197Y-100738855D01*
X128960270Y-100815848D01*
X128924635Y-100841738D01*
X128865298Y-100864677D01*
X128802395Y-100855173D01*
X128752484Y-100815729D01*
X128742547Y-100802455D01*
X128742544Y-100802453D01*
X128627331Y-100716204D01*
X128492483Y-100665909D01*
X128432873Y-100659500D01*
X128432869Y-100659500D01*
X127912284Y-100659500D01*
X127846574Y-100640658D01*
X127800834Y-100589858D01*
X127788963Y-100522539D01*
X127799456Y-100422699D01*
X127803860Y-100380800D01*
X127790896Y-100257457D01*
X127802766Y-100190141D01*
X127848507Y-100139341D01*
X127914217Y-100120499D01*
X128432870Y-100120499D01*
X128432872Y-100120499D01*
X128492483Y-100114091D01*
X128627331Y-100063796D01*
X128742546Y-99977546D01*
X128749089Y-99968805D01*
X128798999Y-99929360D01*
X128861904Y-99919855D01*
X128921239Y-99942793D01*
X128960270Y-99971151D01*
X128960271Y-99971151D01*
X128960272Y-99971152D01*
X129133197Y-100048144D01*
X129318352Y-100087500D01*
X129318354Y-100087500D01*
X129507646Y-100087500D01*
X129507648Y-100087500D01*
X129631084Y-100061262D01*
X129692803Y-100048144D01*
X129865730Y-99971151D01*
X129894395Y-99950324D01*
X129953727Y-99927386D01*
X130016631Y-99936888D01*
X130066544Y-99976331D01*
X130067452Y-99977545D01*
X130072260Y-99981144D01*
X130182669Y-100063796D01*
X130317517Y-100114091D01*
X130377127Y-100120500D01*
X133472872Y-100120499D01*
X133532483Y-100114091D01*
X133667331Y-100063796D01*
X133782546Y-99977546D01*
X133868796Y-99862331D01*
X133919091Y-99727483D01*
X133925500Y-99667873D01*
X133925499Y-98572128D01*
X133919091Y-98512517D01*
X133868796Y-98377669D01*
X133782546Y-98262454D01*
X133667331Y-98176204D01*
X133532483Y-98125909D01*
X133472873Y-98119500D01*
X133472869Y-98119500D01*
X130377130Y-98119500D01*
X130317515Y-98125909D01*
X130182669Y-98176204D01*
X130067451Y-98262455D01*
X129997501Y-98355897D01*
X129955404Y-98391621D01*
X129901972Y-98405530D01*
X129847799Y-98394865D01*
X129692802Y-98325855D01*
X129507648Y-98286500D01*
X129507646Y-98286500D01*
X129318354Y-98286500D01*
X129318352Y-98286500D01*
X129133201Y-98325854D01*
X128966199Y-98400209D01*
X128912025Y-98410873D01*
X128858593Y-98396964D01*
X128816496Y-98361239D01*
X128813639Y-98357423D01*
X128742546Y-98262454D01*
X128627331Y-98176204D01*
X128492483Y-98125909D01*
X128432873Y-98119500D01*
X128432869Y-98119500D01*
X127912284Y-98119500D01*
X127846574Y-98100658D01*
X127800834Y-98049858D01*
X127788963Y-97982539D01*
X127788963Y-97982538D01*
X127803860Y-97840800D01*
X127790896Y-97717457D01*
X127802766Y-97650141D01*
X127848507Y-97599341D01*
X127914217Y-97580499D01*
X128432870Y-97580499D01*
X128432872Y-97580499D01*
X128492483Y-97574091D01*
X128627331Y-97523796D01*
X128742546Y-97437546D01*
X128812569Y-97344007D01*
X128854665Y-97308285D01*
X128908097Y-97294376D01*
X128962268Y-97305040D01*
X129085687Y-97359991D01*
X129133197Y-97381144D01*
X129318352Y-97420500D01*
X129318354Y-97420500D01*
X129507646Y-97420500D01*
X129507648Y-97420500D01*
X129692800Y-97381145D01*
X129692801Y-97381144D01*
X129692803Y-97381144D01*
X129851732Y-97310383D01*
X129905901Y-97299719D01*
X129959334Y-97313628D01*
X130001432Y-97349352D01*
X130067452Y-97437544D01*
X130067454Y-97437546D01*
X130182669Y-97523796D01*
X130317517Y-97574091D01*
X130377127Y-97580500D01*
X133472872Y-97580499D01*
X133532483Y-97574091D01*
X133667331Y-97523796D01*
X133782546Y-97437546D01*
X133868796Y-97322331D01*
X133919091Y-97187483D01*
X133925500Y-97127873D01*
X133925499Y-96032128D01*
X133919091Y-95972517D01*
X133868796Y-95837669D01*
X133782546Y-95722454D01*
X133667331Y-95636204D01*
X133532483Y-95585909D01*
X133472873Y-95579500D01*
X133472869Y-95579500D01*
X130377130Y-95579500D01*
X130317515Y-95585909D01*
X130182670Y-95636203D01*
X130067452Y-95722455D01*
X130063150Y-95728203D01*
X130013237Y-95767646D01*
X129950335Y-95777147D01*
X129890999Y-95754208D01*
X129865727Y-95735846D01*
X129692802Y-95658855D01*
X129507648Y-95619500D01*
X129507646Y-95619500D01*
X129318354Y-95619500D01*
X129318352Y-95619500D01*
X129133197Y-95658855D01*
X128960270Y-95735848D01*
X128924635Y-95761738D01*
X128865298Y-95784677D01*
X128802395Y-95775173D01*
X128752484Y-95735729D01*
X128742547Y-95722455D01*
X128737739Y-95718856D01*
X128627331Y-95636204D01*
X128492483Y-95585909D01*
X128432873Y-95579500D01*
X128432869Y-95579500D01*
X127912284Y-95579500D01*
X127846574Y-95560658D01*
X127800834Y-95509858D01*
X127788963Y-95442539D01*
X127788963Y-95442538D01*
X127803860Y-95300800D01*
X127790896Y-95177457D01*
X127802766Y-95110141D01*
X127848507Y-95059341D01*
X127914217Y-95040499D01*
X128432870Y-95040499D01*
X128432872Y-95040499D01*
X128492483Y-95034091D01*
X128627331Y-94983796D01*
X128742546Y-94897546D01*
X128812569Y-94804007D01*
X128854665Y-94768285D01*
X128908097Y-94754376D01*
X128962268Y-94765040D01*
X129085687Y-94819991D01*
X129133197Y-94841144D01*
X129318352Y-94880500D01*
X129318354Y-94880500D01*
X129507646Y-94880500D01*
X129507648Y-94880500D01*
X129692800Y-94841145D01*
X129692801Y-94841144D01*
X129692803Y-94841144D01*
X129851732Y-94770383D01*
X129905901Y-94759719D01*
X129959334Y-94773628D01*
X130001432Y-94809352D01*
X130067452Y-94897544D01*
X130067454Y-94897546D01*
X130182669Y-94983796D01*
X130317517Y-95034091D01*
X130377127Y-95040500D01*
X133472872Y-95040499D01*
X133532483Y-95034091D01*
X133667331Y-94983796D01*
X133782546Y-94897546D01*
X133868796Y-94782331D01*
X133919091Y-94647483D01*
X133925500Y-94587873D01*
X133925499Y-93492128D01*
X133919091Y-93432517D01*
X133868796Y-93297669D01*
X133782546Y-93182454D01*
X133667331Y-93096204D01*
X133532483Y-93045909D01*
X133472873Y-93039500D01*
X133472869Y-93039500D01*
X130377130Y-93039500D01*
X130317515Y-93045909D01*
X130182670Y-93096203D01*
X130067452Y-93182455D01*
X130063150Y-93188203D01*
X130013237Y-93227646D01*
X129950335Y-93237147D01*
X129890999Y-93214208D01*
X129865727Y-93195846D01*
X129692802Y-93118855D01*
X129507648Y-93079500D01*
X129507646Y-93079500D01*
X129318354Y-93079500D01*
X129318352Y-93079500D01*
X129133197Y-93118855D01*
X128960270Y-93195848D01*
X128924635Y-93221738D01*
X128865298Y-93244677D01*
X128802395Y-93235173D01*
X128752484Y-93195729D01*
X128742547Y-93182455D01*
X128737739Y-93178856D01*
X128627331Y-93096204D01*
X128492483Y-93045909D01*
X128432873Y-93039500D01*
X128432869Y-93039500D01*
X127912284Y-93039500D01*
X127846574Y-93020658D01*
X127800834Y-92969858D01*
X127788963Y-92902539D01*
X127788963Y-92902538D01*
X127803860Y-92760800D01*
X127790896Y-92637457D01*
X127802766Y-92570141D01*
X127848507Y-92519341D01*
X127914217Y-92500499D01*
X128432870Y-92500499D01*
X128432872Y-92500499D01*
X128492483Y-92494091D01*
X128627331Y-92443796D01*
X128742546Y-92357546D01*
X128812569Y-92264007D01*
X128854665Y-92228285D01*
X128908097Y-92214376D01*
X128962268Y-92225040D01*
X129085687Y-92279991D01*
X129133197Y-92301144D01*
X129318352Y-92340500D01*
X129318354Y-92340500D01*
X129507646Y-92340500D01*
X129507648Y-92340500D01*
X129692800Y-92301145D01*
X129692801Y-92301144D01*
X129692803Y-92301144D01*
X129851732Y-92230383D01*
X129905901Y-92219719D01*
X129959334Y-92233628D01*
X130001432Y-92269352D01*
X130067452Y-92357544D01*
X130067454Y-92357546D01*
X130182669Y-92443796D01*
X130317517Y-92494091D01*
X130377127Y-92500500D01*
X133472872Y-92500499D01*
X133532483Y-92494091D01*
X133667331Y-92443796D01*
X133782546Y-92357546D01*
X133868796Y-92242331D01*
X133919091Y-92107483D01*
X133925500Y-92047873D01*
X133925499Y-90952128D01*
X133919091Y-90892517D01*
X133868796Y-90757669D01*
X133782546Y-90642454D01*
X133667331Y-90556204D01*
X133532483Y-90505909D01*
X133472873Y-90499500D01*
X133472869Y-90499500D01*
X130377130Y-90499500D01*
X130317515Y-90505909D01*
X130182670Y-90556203D01*
X130067452Y-90642455D01*
X130063150Y-90648203D01*
X130013237Y-90687646D01*
X129950335Y-90697147D01*
X129890999Y-90674208D01*
X129865727Y-90655846D01*
X129692802Y-90578855D01*
X129507648Y-90539500D01*
X129507646Y-90539500D01*
X129318354Y-90539500D01*
X129318352Y-90539500D01*
X129133197Y-90578855D01*
X128960270Y-90655848D01*
X128924635Y-90681738D01*
X128865298Y-90704677D01*
X128802395Y-90695173D01*
X128752484Y-90655729D01*
X128742547Y-90642455D01*
X128737739Y-90638856D01*
X128627331Y-90556204D01*
X128492483Y-90505909D01*
X128432873Y-90499500D01*
X128432869Y-90499500D01*
X127912284Y-90499500D01*
X127846574Y-90480658D01*
X127800834Y-90429858D01*
X127788963Y-90362539D01*
X127788963Y-90362538D01*
X127803860Y-90220800D01*
X127790896Y-90097457D01*
X127802766Y-90030141D01*
X127848507Y-89979341D01*
X127914217Y-89960499D01*
X128432870Y-89960499D01*
X128432872Y-89960499D01*
X128492483Y-89954091D01*
X128627331Y-89903796D01*
X128742546Y-89817546D01*
X128749089Y-89808805D01*
X128798999Y-89769360D01*
X128861904Y-89759855D01*
X128921239Y-89782793D01*
X128960270Y-89811151D01*
X128960271Y-89811151D01*
X128960272Y-89811152D01*
X129133197Y-89888144D01*
X129318352Y-89927500D01*
X129318354Y-89927500D01*
X129507646Y-89927500D01*
X129507648Y-89927500D01*
X129631083Y-89901262D01*
X129692803Y-89888144D01*
X129865730Y-89811151D01*
X129894395Y-89790324D01*
X129953727Y-89767386D01*
X130016631Y-89776888D01*
X130066544Y-89816331D01*
X130067452Y-89817545D01*
X130143975Y-89874829D01*
X130182669Y-89903796D01*
X130317517Y-89954091D01*
X130377127Y-89960500D01*
X133472872Y-89960499D01*
X133532483Y-89954091D01*
X133667331Y-89903796D01*
X133782546Y-89817546D01*
X133868796Y-89702331D01*
X133919091Y-89567483D01*
X133925500Y-89507873D01*
X133925499Y-88412128D01*
X133919091Y-88352517D01*
X133868796Y-88217669D01*
X133782546Y-88102454D01*
X133667331Y-88016204D01*
X133532483Y-87965909D01*
X133472873Y-87959500D01*
X133472869Y-87959500D01*
X130377130Y-87959500D01*
X130317515Y-87965909D01*
X130182669Y-88016204D01*
X130163584Y-88030491D01*
X130104287Y-88054310D01*
X130041004Y-88045441D01*
X129990540Y-88006238D01*
X129966297Y-87947113D01*
X129974713Y-87883773D01*
X129990044Y-87846762D01*
X130010682Y-87690000D01*
X129990044Y-87533238D01*
X129974713Y-87496227D01*
X129966298Y-87432885D01*
X129990541Y-87373760D01*
X130041005Y-87334558D01*
X130104289Y-87325689D01*
X130163585Y-87349510D01*
X130166623Y-87351784D01*
X130182669Y-87363796D01*
X130317517Y-87414091D01*
X130377127Y-87420500D01*
X133472872Y-87420499D01*
X133532483Y-87414091D01*
X133667331Y-87363796D01*
X133782546Y-87277546D01*
X133868796Y-87162331D01*
X133919091Y-87027483D01*
X133925500Y-86967873D01*
X133925499Y-85872128D01*
X133919091Y-85812517D01*
X133868796Y-85677669D01*
X133782546Y-85562454D01*
X133667331Y-85476204D01*
X133532483Y-85425909D01*
X133472873Y-85419500D01*
X133472869Y-85419500D01*
X130377130Y-85419500D01*
X130317515Y-85425909D01*
X130182670Y-85476203D01*
X130067452Y-85562455D01*
X130063150Y-85568203D01*
X130013237Y-85607646D01*
X129950335Y-85617147D01*
X129890999Y-85594208D01*
X129865727Y-85575846D01*
X129692802Y-85498855D01*
X129507648Y-85459500D01*
X129507646Y-85459500D01*
X129318354Y-85459500D01*
X129318352Y-85459500D01*
X129133197Y-85498855D01*
X128960270Y-85575848D01*
X128924635Y-85601738D01*
X128865298Y-85624677D01*
X128802395Y-85615173D01*
X128752484Y-85575729D01*
X128742547Y-85562455D01*
X128737739Y-85558856D01*
X128627331Y-85476204D01*
X128492483Y-85425909D01*
X128432873Y-85419500D01*
X128432869Y-85419500D01*
X125337130Y-85419500D01*
X125277515Y-85425909D01*
X125142669Y-85476204D01*
X125027454Y-85562454D01*
X124941204Y-85677668D01*
X124885682Y-85826531D01*
X124845220Y-85881393D01*
X124781874Y-85906578D01*
X124714789Y-85894474D01*
X124664238Y-85848740D01*
X124645500Y-85783197D01*
X124645500Y-83197524D01*
X124662768Y-83134403D01*
X124709763Y-83088862D01*
X124773396Y-83073585D01*
X124835944Y-83092828D01*
X124879985Y-83141231D01*
X124885872Y-83152786D01*
X125097121Y-83478080D01*
X125097124Y-83478084D01*
X125341219Y-83779516D01*
X125615484Y-84053781D01*
X125916916Y-84297876D01*
X125916918Y-84297877D01*
X125916919Y-84297878D01*
X126242206Y-84509123D01*
X126587806Y-84685214D01*
X126949913Y-84824214D01*
X127324570Y-84924603D01*
X127516114Y-84954939D01*
X127707662Y-84985278D01*
X128095000Y-85005578D01*
X128482338Y-84985278D01*
X128731686Y-84945785D01*
X128865429Y-84924603D01*
X128865433Y-84924602D01*
X129240087Y-84824214D01*
X129602194Y-84685214D01*
X129947789Y-84509125D01*
X129947788Y-84509125D01*
X129947793Y-84509123D01*
X130110436Y-84403500D01*
X130273084Y-84297876D01*
X130574516Y-84053781D01*
X130848781Y-83779516D01*
X131092876Y-83478084D01*
X131275074Y-83197524D01*
X131304123Y-83152793D01*
X131344481Y-83073585D01*
X131480214Y-82807194D01*
X131619214Y-82445087D01*
X131719602Y-82070433D01*
X131780278Y-81687338D01*
X131800578Y-81300000D01*
X131780278Y-80912662D01*
X131749939Y-80721114D01*
X131719603Y-80529570D01*
X131619214Y-80154913D01*
X131480214Y-79792806D01*
X131304123Y-79447206D01*
X131092878Y-79121919D01*
X131092876Y-79121916D01*
X130848781Y-78820484D01*
X130574516Y-78546219D01*
X130273084Y-78302124D01*
X130273082Y-78302123D01*
X130273080Y-78302121D01*
X129947786Y-78090872D01*
X129936231Y-78084985D01*
X129887828Y-78040944D01*
X129868585Y-77978396D01*
X129883862Y-77914763D01*
X129929403Y-77867768D01*
X129992524Y-77850500D01*
X135396000Y-77850500D01*
X135458000Y-77867113D01*
G37*
%TD.AperFunction*%
%TD*%
M02*
