%TF.GenerationSoftware,KiCad,Pcbnew,7.0.1*%
%TF.CreationDate,2023-09-07T21:54:11+09:00*%
%TF.ProjectId,CPU_ESP32S3WROOM,4350555f-4553-4503-9332-533357524f4f,rev?*%
%TF.SameCoordinates,Original*%
%TF.FileFunction,Copper,L4,Inr*%
%TF.FilePolarity,Positive*%
%FSLAX46Y46*%
G04 Gerber Fmt 4.6, Leading zero omitted, Abs format (unit mm)*
G04 Created by KiCad (PCBNEW 7.0.1) date 2023-09-07 21:54:11*
%MOMM*%
%LPD*%
G01*
G04 APERTURE LIST*
%TA.AperFunction,ComponentPad*%
%ADD10O,1.000000X2.100000*%
%TD*%
%TA.AperFunction,ComponentPad*%
%ADD11O,1.000000X1.600000*%
%TD*%
%TA.AperFunction,ComponentPad*%
%ADD12C,0.800000*%
%TD*%
%TA.AperFunction,ComponentPad*%
%ADD13C,6.400000*%
%TD*%
%TA.AperFunction,ViaPad*%
%ADD14C,0.800000*%
%TD*%
G04 APERTURE END LIST*
D10*
%TO.N,GND*%
%TO.C,J1*%
X144410000Y-110730000D03*
D11*
X144410000Y-114910000D03*
D10*
X153050000Y-110730000D03*
D11*
X153050000Y-114910000D03*
%TD*%
D12*
%TO.N,N/C*%
%TO.C,H2*%
X158795000Y-114400000D03*
X159497944Y-112702944D03*
X159497944Y-116097056D03*
X161195000Y-112000000D03*
D13*
X161195000Y-114400000D03*
D12*
X161195000Y-116800000D03*
X162892056Y-112702944D03*
X162892056Y-116097056D03*
X163595000Y-114400000D03*
%TD*%
%TO.N,N/C*%
%TO.C,H4*%
X125695000Y-114400000D03*
X126397944Y-112702944D03*
X126397944Y-116097056D03*
X128095000Y-112000000D03*
D13*
X128095000Y-114400000D03*
D12*
X128095000Y-116800000D03*
X129792056Y-112702944D03*
X129792056Y-116097056D03*
X130495000Y-114400000D03*
%TD*%
%TO.N,N/C*%
%TO.C,H3*%
X125695000Y-81300000D03*
X126397944Y-79602944D03*
X126397944Y-82997056D03*
X128095000Y-78900000D03*
D13*
X128095000Y-81300000D03*
D12*
X128095000Y-83700000D03*
X129792056Y-79602944D03*
X129792056Y-82997056D03*
X130495000Y-81300000D03*
%TD*%
%TO.N,N/C*%
%TO.C,H1*%
X158795000Y-81300000D03*
X159497944Y-79602944D03*
X159497944Y-82997056D03*
X161195000Y-78900000D03*
D13*
X161195000Y-81300000D03*
D12*
X161195000Y-83700000D03*
X162892056Y-79602944D03*
X162892056Y-82997056D03*
X163595000Y-81300000D03*
%TD*%
D14*
%TO.N,GND*%
X151130000Y-85344000D03*
X137668000Y-113284000D03*
%TO.N,+5V*%
X136144000Y-111760000D03*
%TO.N,/EN*%
X137160000Y-108966000D03*
X137922000Y-87884000D03*
%TO.N,/D_+*%
X137668000Y-101600000D03*
%TO.N,/D_-*%
X137668000Y-100330000D03*
%TO.N,+3V3*%
X137922000Y-86614000D03*
%TO.N,/D_+*%
X148979503Y-111530000D03*
%TO.N,/D_-*%
X147980000Y-111530000D03*
%TO.N,GND*%
X159880000Y-88960000D03*
%TO.N,+3V3*%
X159880000Y-86420000D03*
%TO.N,/IO1*%
X162400000Y-90250000D03*
%TO.N,/TXD0*%
X162400000Y-92760000D03*
%TO.N,/IO42*%
X162410000Y-95310000D03*
%TO.N,/IO39*%
X162410000Y-97830000D03*
%TO.N,/IO37*%
X162410000Y-100390000D03*
%TO.N,/IO35*%
X162410000Y-102920000D03*
%TO.N,/IO45*%
X162410000Y-105470000D03*
%TO.N,+5V*%
X159890000Y-109280000D03*
%TO.N,/IO48*%
X159880000Y-106730000D03*
%TO.N,/IO0*%
X159870000Y-104200000D03*
%TO.N,/IO36*%
X159870000Y-101660000D03*
%TO.N,/IO38*%
X159880000Y-99120000D03*
%TO.N,/IO41*%
X159890000Y-96580000D03*
%TO.N,/RXD0*%
X159890000Y-94040000D03*
%TO.N,/IO2*%
X159890000Y-91500000D03*
%TO.N,+3V3*%
X139827000Y-114173000D03*
X129413000Y-109474000D03*
%TO.N,GND*%
X129413000Y-106680000D03*
%TO.N,+5V*%
X142113000Y-114173000D03*
X129413000Y-86360000D03*
%TO.N,/IO6*%
X126898400Y-92760800D03*
%TO.N,/IO7*%
X129413000Y-93980000D03*
%TO.N,/IO8*%
X126898400Y-100380800D03*
%TO.N,/IO3*%
X129413000Y-101600000D03*
%TO.N,/IO46*%
X126898400Y-102920800D03*
%TO.N,/IO9*%
X129413000Y-104140000D03*
%TO.N,/IO10*%
X126898400Y-105511600D03*
%TO.N,/EN*%
X129413000Y-89027000D03*
%TO.N,/IO18*%
X129413000Y-99187000D03*
%TO.N,/IO17*%
X126898400Y-97840800D03*
%TO.N,/IO5*%
X129413000Y-91440000D03*
%TO.N,/IO4*%
X126898400Y-90220800D03*
%TO.N,/IO16*%
X129413000Y-96520000D03*
%TO.N,/IO15*%
X126898400Y-95300800D03*
%TD*%
%TA.AperFunction,Conductor*%
%TO.N,GND*%
G36*
X135458000Y-77867113D02*
G01*
X135503387Y-77912500D01*
X135520000Y-77974500D01*
X135520000Y-83890000D01*
X153720000Y-83890000D01*
X153720000Y-77974500D01*
X153736613Y-77912500D01*
X153782000Y-77867113D01*
X153844000Y-77850500D01*
X159297476Y-77850500D01*
X159360597Y-77867768D01*
X159406138Y-77914763D01*
X159421415Y-77978396D01*
X159402172Y-78040944D01*
X159353769Y-78084985D01*
X159342213Y-78090872D01*
X159016919Y-78302121D01*
X158715480Y-78546222D01*
X158441222Y-78820480D01*
X158197121Y-79121919D01*
X157985876Y-79447206D01*
X157809785Y-79792806D01*
X157670785Y-80154913D01*
X157570396Y-80529570D01*
X157509722Y-80912659D01*
X157489422Y-81300000D01*
X157509722Y-81687340D01*
X157570396Y-82070429D01*
X157670785Y-82445086D01*
X157809785Y-82807193D01*
X157985876Y-83152793D01*
X158197121Y-83478080D01*
X158197124Y-83478084D01*
X158441219Y-83779516D01*
X158715484Y-84053781D01*
X159016916Y-84297876D01*
X159016918Y-84297877D01*
X159016919Y-84297878D01*
X159342206Y-84509123D01*
X159687806Y-84685214D01*
X160049913Y-84824214D01*
X160424570Y-84924603D01*
X160616114Y-84954939D01*
X160807662Y-84985278D01*
X161195000Y-85005578D01*
X161582338Y-84985278D01*
X161831686Y-84945785D01*
X161965429Y-84924603D01*
X161965433Y-84924602D01*
X162340087Y-84824214D01*
X162702194Y-84685214D01*
X163047789Y-84509125D01*
X163047788Y-84509125D01*
X163047793Y-84509123D01*
X163210436Y-84403500D01*
X163373084Y-84297876D01*
X163674516Y-84053781D01*
X163948781Y-83779516D01*
X164192876Y-83478084D01*
X164404125Y-83152789D01*
X164404127Y-83152786D01*
X164410015Y-83141231D01*
X164454056Y-83092828D01*
X164516604Y-83073585D01*
X164580237Y-83088862D01*
X164627232Y-83134403D01*
X164644500Y-83197524D01*
X164644500Y-112502476D01*
X164627232Y-112565597D01*
X164580237Y-112611138D01*
X164516604Y-112626415D01*
X164454056Y-112607172D01*
X164410015Y-112558769D01*
X164404127Y-112547213D01*
X164192878Y-112221919D01*
X164177467Y-112202888D01*
X163948781Y-111920484D01*
X163674516Y-111646219D01*
X163373084Y-111402124D01*
X163373082Y-111402123D01*
X163373080Y-111402121D01*
X163047793Y-111190876D01*
X162702193Y-111014785D01*
X162340086Y-110875785D01*
X161965429Y-110775396D01*
X161582340Y-110714722D01*
X161195000Y-110694422D01*
X160807659Y-110714722D01*
X160424570Y-110775396D01*
X160049913Y-110875785D01*
X159687806Y-111014785D01*
X159342206Y-111190876D01*
X159016919Y-111402121D01*
X158715480Y-111646222D01*
X158441222Y-111920480D01*
X158197121Y-112221919D01*
X157985876Y-112547206D01*
X157809785Y-112892806D01*
X157670785Y-113254913D01*
X157570396Y-113629570D01*
X157509722Y-114012659D01*
X157491452Y-114361257D01*
X157489422Y-114400000D01*
X157495098Y-114508311D01*
X157509722Y-114787340D01*
X157570396Y-115170429D01*
X157670785Y-115545086D01*
X157809785Y-115907193D01*
X157985876Y-116252793D01*
X158197121Y-116578080D01*
X158197124Y-116578084D01*
X158441219Y-116879516D01*
X158715484Y-117153781D01*
X159016916Y-117397876D01*
X159016918Y-117397877D01*
X159016919Y-117397878D01*
X159342213Y-117609127D01*
X159353769Y-117615015D01*
X159402172Y-117659056D01*
X159421415Y-117721604D01*
X159406138Y-117785237D01*
X159360597Y-117832232D01*
X159297476Y-117849500D01*
X129992524Y-117849500D01*
X129929403Y-117832232D01*
X129883862Y-117785237D01*
X129868585Y-117721604D01*
X129887828Y-117659056D01*
X129936231Y-117615015D01*
X129947786Y-117609127D01*
X129973721Y-117592284D01*
X130273084Y-117397876D01*
X130574516Y-117153781D01*
X130848781Y-116879516D01*
X131092876Y-116578084D01*
X131198500Y-116415436D01*
X131304123Y-116252793D01*
X131464247Y-115938531D01*
X131480214Y-115907194D01*
X131619214Y-115545087D01*
X131719602Y-115170433D01*
X131721255Y-115160000D01*
X143410000Y-115160000D01*
X143410000Y-115260710D01*
X143425419Y-115412339D01*
X143486303Y-115606389D01*
X143585003Y-115784214D01*
X143717479Y-115938531D01*
X143878307Y-116063021D01*
X144060905Y-116152589D01*
X144159999Y-116178246D01*
X144160000Y-116178246D01*
X144160000Y-115160000D01*
X144660000Y-115160000D01*
X144660000Y-116183366D01*
X144661948Y-116183067D01*
X144852663Y-116112435D01*
X145025263Y-116004854D01*
X145172669Y-115864733D01*
X145288855Y-115697805D01*
X145369059Y-115510907D01*
X145410000Y-115311689D01*
X145410000Y-115160000D01*
X152050000Y-115160000D01*
X152050000Y-115260710D01*
X152065419Y-115412339D01*
X152126303Y-115606389D01*
X152225003Y-115784214D01*
X152357479Y-115938531D01*
X152518307Y-116063021D01*
X152700905Y-116152589D01*
X152799999Y-116178246D01*
X152800000Y-116178247D01*
X152800000Y-115160000D01*
X153300000Y-115160000D01*
X153300000Y-116183366D01*
X153301948Y-116183067D01*
X153492663Y-116112435D01*
X153665263Y-116004854D01*
X153812669Y-115864733D01*
X153928855Y-115697805D01*
X154009059Y-115510907D01*
X154050000Y-115311689D01*
X154050000Y-115160000D01*
X153300000Y-115160000D01*
X152800000Y-115160000D01*
X152050000Y-115160000D01*
X145410000Y-115160000D01*
X144660000Y-115160000D01*
X144160000Y-115160000D01*
X143410000Y-115160000D01*
X131721255Y-115160000D01*
X131771004Y-114845889D01*
X131780278Y-114787338D01*
X131800578Y-114400000D01*
X131788681Y-114173000D01*
X138921540Y-114173000D01*
X138941326Y-114361257D01*
X138999820Y-114541284D01*
X139094466Y-114705216D01*
X139221129Y-114845889D01*
X139374269Y-114957151D01*
X139547197Y-115034144D01*
X139732352Y-115073500D01*
X139732354Y-115073500D01*
X139921646Y-115073500D01*
X139921648Y-115073500D01*
X140045084Y-115047262D01*
X140106803Y-115034144D01*
X140279730Y-114957151D01*
X140432871Y-114845888D01*
X140559533Y-114705216D01*
X140654179Y-114541284D01*
X140712674Y-114361256D01*
X140732460Y-114173000D01*
X141207540Y-114173000D01*
X141227326Y-114361257D01*
X141285820Y-114541284D01*
X141380466Y-114705216D01*
X141507129Y-114845889D01*
X141660269Y-114957151D01*
X141833197Y-115034144D01*
X142018352Y-115073500D01*
X142018354Y-115073500D01*
X142207646Y-115073500D01*
X142207648Y-115073500D01*
X142331084Y-115047262D01*
X142392803Y-115034144D01*
X142565730Y-114957151D01*
X142718871Y-114845888D01*
X142845533Y-114705216D01*
X142871638Y-114660000D01*
X143410000Y-114660000D01*
X144160000Y-114660000D01*
X144160000Y-113641753D01*
X144660000Y-113641753D01*
X144660000Y-114660000D01*
X145410000Y-114660000D01*
X152050000Y-114660000D01*
X152800000Y-114660000D01*
X152800000Y-113641753D01*
X153300000Y-113641753D01*
X153300000Y-114660000D01*
X154050000Y-114660000D01*
X154050000Y-114559290D01*
X154034580Y-114407660D01*
X153973696Y-114213610D01*
X153874996Y-114035785D01*
X153742520Y-113881468D01*
X153581692Y-113756978D01*
X153399094Y-113667410D01*
X153300000Y-113641753D01*
X152800000Y-113641753D01*
X152800000Y-113636634D01*
X152798051Y-113636932D01*
X152607336Y-113707564D01*
X152434736Y-113815145D01*
X152287330Y-113955266D01*
X152171144Y-114122194D01*
X152090940Y-114309092D01*
X152050000Y-114508311D01*
X152050000Y-114660000D01*
X145410000Y-114660000D01*
X145410000Y-114559290D01*
X145394580Y-114407660D01*
X145333696Y-114213610D01*
X145234996Y-114035785D01*
X145102520Y-113881468D01*
X144941692Y-113756978D01*
X144759094Y-113667410D01*
X144660000Y-113641753D01*
X144160000Y-113641753D01*
X144160000Y-113636634D01*
X144158051Y-113636932D01*
X143967336Y-113707564D01*
X143794736Y-113815145D01*
X143647330Y-113955266D01*
X143531144Y-114122194D01*
X143450940Y-114309092D01*
X143410000Y-114508311D01*
X143410000Y-114660000D01*
X142871638Y-114660000D01*
X142940179Y-114541284D01*
X142998674Y-114361256D01*
X143018460Y-114173000D01*
X142998674Y-113984744D01*
X142940179Y-113804716D01*
X142940179Y-113804715D01*
X142845533Y-113640783D01*
X142718870Y-113500110D01*
X142565730Y-113388848D01*
X142392802Y-113311855D01*
X142207648Y-113272500D01*
X142207646Y-113272500D01*
X142018354Y-113272500D01*
X142018352Y-113272500D01*
X141833197Y-113311855D01*
X141660269Y-113388848D01*
X141507129Y-113500110D01*
X141380466Y-113640783D01*
X141285820Y-113804715D01*
X141227326Y-113984742D01*
X141207540Y-114173000D01*
X140732460Y-114173000D01*
X140712674Y-113984744D01*
X140654179Y-113804716D01*
X140654179Y-113804715D01*
X140559533Y-113640783D01*
X140432870Y-113500110D01*
X140279730Y-113388848D01*
X140106802Y-113311855D01*
X139921648Y-113272500D01*
X139921646Y-113272500D01*
X139732354Y-113272500D01*
X139732352Y-113272500D01*
X139547197Y-113311855D01*
X139374269Y-113388848D01*
X139221129Y-113500110D01*
X139094466Y-113640783D01*
X138999820Y-113804715D01*
X138941326Y-113984742D01*
X138921540Y-114173000D01*
X131788681Y-114173000D01*
X131780278Y-114012662D01*
X131739782Y-113756978D01*
X131719603Y-113629570D01*
X131619214Y-113254913D01*
X131480214Y-112892806D01*
X131304123Y-112547206D01*
X131092878Y-112221919D01*
X131077467Y-112202888D01*
X130848781Y-111920484D01*
X130688296Y-111759999D01*
X135238540Y-111759999D01*
X135258326Y-111948257D01*
X135316820Y-112128284D01*
X135411466Y-112292216D01*
X135538129Y-112432889D01*
X135691269Y-112544151D01*
X135864197Y-112621144D01*
X136049352Y-112660500D01*
X136049354Y-112660500D01*
X136238646Y-112660500D01*
X136238648Y-112660500D01*
X136362083Y-112634262D01*
X136423803Y-112621144D01*
X136596730Y-112544151D01*
X136749871Y-112432888D01*
X136876533Y-112292216D01*
X136971179Y-112128284D01*
X137029674Y-111948256D01*
X137049460Y-111760000D01*
X137029674Y-111571744D01*
X136971179Y-111391716D01*
X136971179Y-111391715D01*
X136876533Y-111227783D01*
X136749870Y-111087110D01*
X136602445Y-110980000D01*
X143410000Y-110980000D01*
X143410000Y-111330710D01*
X143425419Y-111482339D01*
X143486303Y-111676389D01*
X143585003Y-111854214D01*
X143717479Y-112008531D01*
X143878307Y-112133021D01*
X144060905Y-112222589D01*
X144159999Y-112248246D01*
X144160000Y-112248246D01*
X144160000Y-110980000D01*
X143410000Y-110980000D01*
X136602445Y-110980000D01*
X136596730Y-110975848D01*
X136423802Y-110898855D01*
X136238648Y-110859500D01*
X136238646Y-110859500D01*
X136049354Y-110859500D01*
X136049352Y-110859500D01*
X135864197Y-110898855D01*
X135691269Y-110975848D01*
X135538129Y-111087110D01*
X135411466Y-111227783D01*
X135316820Y-111391715D01*
X135258326Y-111571742D01*
X135238540Y-111759999D01*
X130688296Y-111759999D01*
X130574516Y-111646219D01*
X130273084Y-111402124D01*
X130273082Y-111402123D01*
X130273080Y-111402121D01*
X129947793Y-111190876D01*
X129602193Y-111014785D01*
X129240086Y-110875785D01*
X128865429Y-110775396D01*
X128482340Y-110714722D01*
X128095000Y-110694422D01*
X127707659Y-110714722D01*
X127324570Y-110775396D01*
X126949913Y-110875785D01*
X126587806Y-111014785D01*
X126242206Y-111190876D01*
X125916919Y-111402121D01*
X125615480Y-111646222D01*
X125341222Y-111920480D01*
X125097121Y-112221919D01*
X124885872Y-112547213D01*
X124879985Y-112558769D01*
X124835944Y-112607172D01*
X124773396Y-112626415D01*
X124709763Y-112611138D01*
X124662768Y-112565597D01*
X124645500Y-112502476D01*
X124645500Y-110480000D01*
X143410000Y-110480000D01*
X144160000Y-110480000D01*
X144160000Y-109211753D01*
X144660000Y-109211753D01*
X144660000Y-112253366D01*
X144661948Y-112253067D01*
X144852663Y-112182435D01*
X145025263Y-112074854D01*
X145172669Y-111934733D01*
X145288856Y-111767804D01*
X145301922Y-111737357D01*
X145335003Y-111692256D01*
X145384538Y-111666280D01*
X145440449Y-111664716D01*
X145491358Y-111687879D01*
X145549767Y-111732698D01*
X145689763Y-111790686D01*
X145689764Y-111790687D01*
X145802279Y-111805500D01*
X145802280Y-111805500D01*
X145877720Y-111805500D01*
X145877721Y-111805500D01*
X145933977Y-111798093D01*
X145990236Y-111790687D01*
X146130233Y-111732698D01*
X146250451Y-111640451D01*
X146335204Y-111529999D01*
X147074540Y-111529999D01*
X147094326Y-111718257D01*
X147152820Y-111898284D01*
X147247466Y-112062216D01*
X147374129Y-112202889D01*
X147527269Y-112314151D01*
X147700197Y-112391144D01*
X147885352Y-112430500D01*
X147885354Y-112430500D01*
X148074646Y-112430500D01*
X148074648Y-112430500D01*
X148259800Y-112391145D01*
X148259801Y-112391144D01*
X148259803Y-112391144D01*
X148429318Y-112315669D01*
X148479750Y-112304950D01*
X148530186Y-112315671D01*
X148699700Y-112391144D01*
X148884855Y-112430500D01*
X148884857Y-112430500D01*
X149074149Y-112430500D01*
X149074151Y-112430500D01*
X149197586Y-112404262D01*
X149259306Y-112391144D01*
X149432233Y-112314151D01*
X149516308Y-112253067D01*
X149585373Y-112202889D01*
X149712036Y-112062216D01*
X149806682Y-111898284D01*
X149821001Y-111854214D01*
X149865177Y-111718256D01*
X149884963Y-111530000D01*
X149865177Y-111341744D01*
X149828869Y-111230000D01*
X151039533Y-111230000D01*
X151059312Y-111380235D01*
X151117301Y-111520231D01*
X151117302Y-111520233D01*
X151209549Y-111640451D01*
X151329767Y-111732698D01*
X151469763Y-111790686D01*
X151469764Y-111790687D01*
X151582279Y-111805500D01*
X151582280Y-111805500D01*
X151657720Y-111805500D01*
X151657721Y-111805500D01*
X151713977Y-111798093D01*
X151770236Y-111790687D01*
X151910233Y-111732698D01*
X151969580Y-111687158D01*
X152017416Y-111664658D01*
X152070281Y-111664127D01*
X152118562Y-111685666D01*
X152153483Y-111725359D01*
X152225003Y-111854214D01*
X152357479Y-112008531D01*
X152518307Y-112133021D01*
X152700905Y-112222589D01*
X152799999Y-112248246D01*
X152800000Y-112248247D01*
X152800000Y-110980000D01*
X153300000Y-110980000D01*
X153300000Y-112253366D01*
X153301948Y-112253067D01*
X153492663Y-112182435D01*
X153665263Y-112074854D01*
X153812669Y-111934733D01*
X153928855Y-111767805D01*
X154009059Y-111580907D01*
X154050000Y-111381689D01*
X154050000Y-110980000D01*
X153300000Y-110980000D01*
X152800000Y-110980000D01*
X152800000Y-109211753D01*
X153300000Y-109211753D01*
X153300000Y-110480000D01*
X154050000Y-110480000D01*
X154050000Y-110129290D01*
X154034580Y-109977660D01*
X153973696Y-109783610D01*
X153874996Y-109605785D01*
X153742520Y-109451468D01*
X153581692Y-109326978D01*
X153399094Y-109237410D01*
X153300000Y-109211753D01*
X152800000Y-109211753D01*
X152800000Y-109206634D01*
X152798051Y-109206932D01*
X152607336Y-109277564D01*
X152434736Y-109385145D01*
X152287330Y-109525266D01*
X152171144Y-109692194D01*
X152090940Y-109879092D01*
X152050000Y-110078311D01*
X152050000Y-110599616D01*
X152035358Y-110658069D01*
X151994891Y-110702718D01*
X151938154Y-110723019D01*
X151878547Y-110714177D01*
X151770235Y-110669312D01*
X151657721Y-110654500D01*
X151657720Y-110654500D01*
X151582280Y-110654500D01*
X151582279Y-110654500D01*
X151469764Y-110669312D01*
X151329768Y-110727301D01*
X151209549Y-110819549D01*
X151117301Y-110939768D01*
X151059312Y-111079764D01*
X151039533Y-111230000D01*
X149828869Y-111230000D01*
X149816157Y-111190876D01*
X149806682Y-111161715D01*
X149712036Y-110997783D01*
X149585373Y-110857110D01*
X149432233Y-110745848D01*
X149259305Y-110668855D01*
X149074151Y-110629500D01*
X149074149Y-110629500D01*
X148884857Y-110629500D01*
X148884855Y-110629500D01*
X148699700Y-110668855D01*
X148530187Y-110744328D01*
X148479751Y-110755049D01*
X148429315Y-110744328D01*
X148259802Y-110668855D01*
X148074648Y-110629500D01*
X148074646Y-110629500D01*
X147885354Y-110629500D01*
X147885352Y-110629500D01*
X147700197Y-110668855D01*
X147527269Y-110745848D01*
X147374129Y-110857110D01*
X147247466Y-110997783D01*
X147152820Y-111161715D01*
X147094326Y-111341742D01*
X147074540Y-111529999D01*
X146335204Y-111529999D01*
X146342698Y-111520233D01*
X146400687Y-111380236D01*
X146420466Y-111230000D01*
X146400687Y-111079764D01*
X146342698Y-110939767D01*
X146250451Y-110819549D01*
X146130233Y-110727302D01*
X146119893Y-110723019D01*
X145990235Y-110669312D01*
X145877721Y-110654500D01*
X145877720Y-110654500D01*
X145802280Y-110654500D01*
X145802279Y-110654500D01*
X145689764Y-110669312D01*
X145581453Y-110714177D01*
X145521846Y-110723019D01*
X145465109Y-110702718D01*
X145424642Y-110658069D01*
X145410000Y-110599616D01*
X145410000Y-110129290D01*
X145394580Y-109977660D01*
X145333696Y-109783610D01*
X145234996Y-109605785D01*
X145102520Y-109451468D01*
X144941692Y-109326978D01*
X144759094Y-109237410D01*
X144660000Y-109211753D01*
X144160000Y-109211753D01*
X144160000Y-109206634D01*
X144158051Y-109206932D01*
X143967336Y-109277564D01*
X143794736Y-109385145D01*
X143647330Y-109525266D01*
X143531144Y-109692194D01*
X143450940Y-109879092D01*
X143410000Y-110078311D01*
X143410000Y-110480000D01*
X124645500Y-110480000D01*
X124645500Y-109473999D01*
X128507540Y-109473999D01*
X128527326Y-109662257D01*
X128585820Y-109842284D01*
X128680466Y-110006216D01*
X128807129Y-110146889D01*
X128960269Y-110258151D01*
X129133197Y-110335144D01*
X129318352Y-110374500D01*
X129318354Y-110374500D01*
X129507646Y-110374500D01*
X129507648Y-110374500D01*
X129631083Y-110348262D01*
X129692803Y-110335144D01*
X129865730Y-110258151D01*
X130018871Y-110146888D01*
X130145533Y-110006216D01*
X130240179Y-109842284D01*
X130298674Y-109662256D01*
X130318460Y-109474000D01*
X130298674Y-109285744D01*
X130240179Y-109105716D01*
X130240179Y-109105715D01*
X130159514Y-108965999D01*
X136254540Y-108965999D01*
X136274326Y-109154257D01*
X136332820Y-109334284D01*
X136427466Y-109498216D01*
X136554129Y-109638889D01*
X136707269Y-109750151D01*
X136880197Y-109827144D01*
X137065352Y-109866500D01*
X137065354Y-109866500D01*
X137254646Y-109866500D01*
X137254648Y-109866500D01*
X137378084Y-109840262D01*
X137439803Y-109827144D01*
X137612730Y-109750151D01*
X137733708Y-109662256D01*
X137765870Y-109638889D01*
X137892533Y-109498216D01*
X137987179Y-109334284D01*
X138004817Y-109280000D01*
X138045674Y-109154256D01*
X138065460Y-108966000D01*
X138045674Y-108777744D01*
X137998764Y-108633370D01*
X137987179Y-108597715D01*
X137892533Y-108433783D01*
X137765870Y-108293110D01*
X137612730Y-108181848D01*
X137439802Y-108104855D01*
X137254648Y-108065500D01*
X137254646Y-108065500D01*
X137065354Y-108065500D01*
X137065352Y-108065500D01*
X136880197Y-108104855D01*
X136707269Y-108181848D01*
X136554129Y-108293110D01*
X136427466Y-108433783D01*
X136332820Y-108597715D01*
X136274326Y-108777742D01*
X136254540Y-108965999D01*
X130159514Y-108965999D01*
X130145533Y-108941783D01*
X130018870Y-108801110D01*
X129865732Y-108689849D01*
X129828134Y-108673110D01*
X129778730Y-108633370D01*
X129755428Y-108574404D01*
X129764321Y-108511627D01*
X129803082Y-108461454D01*
X129833282Y-108438282D01*
X129836734Y-108433784D01*
X129889372Y-108365184D01*
X129929536Y-108312841D01*
X129990044Y-108166762D01*
X130010682Y-108010000D01*
X129990044Y-107853238D01*
X129929536Y-107707159D01*
X129888023Y-107653058D01*
X129833282Y-107581717D01*
X129707840Y-107485463D01*
X129561762Y-107424956D01*
X129405000Y-107404317D01*
X129248237Y-107424956D01*
X129102159Y-107485463D01*
X128976717Y-107581717D01*
X128880463Y-107707159D01*
X128819956Y-107853237D01*
X128799317Y-108010000D01*
X128819956Y-108166762D01*
X128880463Y-108312840D01*
X128976717Y-108438282D01*
X129012791Y-108465962D01*
X129051553Y-108516136D01*
X129060446Y-108578912D01*
X129037144Y-108637878D01*
X128987741Y-108677617D01*
X128960269Y-108689848D01*
X128807129Y-108801110D01*
X128680466Y-108941783D01*
X128585820Y-109105715D01*
X128527326Y-109285742D01*
X128507540Y-109473999D01*
X124645500Y-109473999D01*
X124645500Y-106729999D01*
X158974540Y-106729999D01*
X158994326Y-106918257D01*
X159052820Y-107098284D01*
X159147466Y-107262216D01*
X159274129Y-107402889D01*
X159376485Y-107477254D01*
X159417315Y-107528127D01*
X159426676Y-107592683D01*
X159401976Y-107653058D01*
X159360463Y-107707159D01*
X159299956Y-107853237D01*
X159279317Y-108010000D01*
X159299956Y-108166762D01*
X159360462Y-108312838D01*
X159360463Y-108312840D01*
X159360464Y-108312841D01*
X159400630Y-108365186D01*
X159425329Y-108425559D01*
X159415969Y-108490116D01*
X159375139Y-108540989D01*
X159284127Y-108607112D01*
X159157466Y-108747783D01*
X159062820Y-108911715D01*
X159004326Y-109091742D01*
X158984540Y-109280000D01*
X159004326Y-109468257D01*
X159062820Y-109648284D01*
X159157466Y-109812216D01*
X159284129Y-109952889D01*
X159437269Y-110064151D01*
X159610197Y-110141144D01*
X159795352Y-110180500D01*
X159795354Y-110180500D01*
X159984646Y-110180500D01*
X159984648Y-110180500D01*
X160108084Y-110154262D01*
X160169803Y-110141144D01*
X160342730Y-110064151D01*
X160495871Y-109952888D01*
X160622533Y-109812216D01*
X160717179Y-109648284D01*
X160775674Y-109468256D01*
X160795460Y-109280000D01*
X160775674Y-109091744D01*
X160726949Y-108941784D01*
X160717179Y-108911715D01*
X160622533Y-108747783D01*
X160495870Y-108607111D01*
X160398441Y-108536325D01*
X160357611Y-108485452D01*
X160348250Y-108420895D01*
X160372949Y-108360522D01*
X160409536Y-108312841D01*
X160470044Y-108166762D01*
X160490682Y-108010000D01*
X160470044Y-107853238D01*
X160409536Y-107707159D01*
X160364444Y-107648393D01*
X160339744Y-107588018D01*
X160349105Y-107523461D01*
X160389932Y-107472591D01*
X160485871Y-107402888D01*
X160612533Y-107262216D01*
X160707179Y-107098284D01*
X160765674Y-106918256D01*
X160785460Y-106730000D01*
X160765674Y-106541744D01*
X160723550Y-106412100D01*
X160707179Y-106361715D01*
X160612533Y-106197783D01*
X160485870Y-106057110D01*
X160332730Y-105945848D01*
X160159802Y-105868855D01*
X159974648Y-105829500D01*
X159974646Y-105829500D01*
X159785354Y-105829500D01*
X159785352Y-105829500D01*
X159600197Y-105868855D01*
X159427269Y-105945848D01*
X159274129Y-106057110D01*
X159147466Y-106197783D01*
X159052820Y-106361715D01*
X158994326Y-106541742D01*
X158974540Y-106729999D01*
X124645500Y-106729999D01*
X124645500Y-105511600D01*
X125992940Y-105511600D01*
X126012726Y-105699857D01*
X126071220Y-105879884D01*
X126165866Y-106043816D01*
X126292529Y-106184489D01*
X126445669Y-106295751D01*
X126618597Y-106372744D01*
X126803752Y-106412100D01*
X126803754Y-106412100D01*
X126993046Y-106412100D01*
X126993048Y-106412100D01*
X127116484Y-106385862D01*
X127178203Y-106372744D01*
X127351130Y-106295751D01*
X127504271Y-106184488D01*
X127630933Y-106043816D01*
X127725579Y-105879884D01*
X127784074Y-105699856D01*
X127803860Y-105511600D01*
X127799488Y-105469999D01*
X161504540Y-105469999D01*
X161524326Y-105658257D01*
X161582820Y-105838284D01*
X161677466Y-106002216D01*
X161804129Y-106142889D01*
X161957269Y-106254151D01*
X162130197Y-106331144D01*
X162315352Y-106370500D01*
X162315354Y-106370500D01*
X162504646Y-106370500D01*
X162504648Y-106370500D01*
X162628083Y-106344262D01*
X162689803Y-106331144D01*
X162862730Y-106254151D01*
X162958612Y-106184489D01*
X163015870Y-106142889D01*
X163142533Y-106002216D01*
X163237179Y-105838284D01*
X163240033Y-105829500D01*
X163295674Y-105658256D01*
X163315460Y-105470000D01*
X163295674Y-105281744D01*
X163250696Y-105143316D01*
X163237179Y-105101715D01*
X163142533Y-104937783D01*
X163015870Y-104797110D01*
X162862730Y-104685848D01*
X162689802Y-104608855D01*
X162504648Y-104569500D01*
X162504646Y-104569500D01*
X162315354Y-104569500D01*
X162315352Y-104569500D01*
X162130197Y-104608855D01*
X161957269Y-104685848D01*
X161804129Y-104797110D01*
X161677466Y-104937783D01*
X161582820Y-105101715D01*
X161524326Y-105281742D01*
X161504540Y-105469999D01*
X127799488Y-105469999D01*
X127784074Y-105323344D01*
X127725579Y-105143316D01*
X127725579Y-105143315D01*
X127630933Y-104979383D01*
X127504270Y-104838710D01*
X127351130Y-104727448D01*
X127178202Y-104650455D01*
X126993048Y-104611100D01*
X126993046Y-104611100D01*
X126803754Y-104611100D01*
X126803752Y-104611100D01*
X126618597Y-104650455D01*
X126445669Y-104727448D01*
X126292529Y-104838710D01*
X126165866Y-104979383D01*
X126071220Y-105143315D01*
X126012726Y-105323342D01*
X125992940Y-105511600D01*
X124645500Y-105511600D01*
X124645500Y-104140000D01*
X128507540Y-104140000D01*
X128527326Y-104328257D01*
X128585820Y-104508284D01*
X128680466Y-104672216D01*
X128807129Y-104812889D01*
X128960269Y-104924151D01*
X129133197Y-105001144D01*
X129318352Y-105040500D01*
X129318354Y-105040500D01*
X129507646Y-105040500D01*
X129507648Y-105040500D01*
X129631083Y-105014262D01*
X129692803Y-105001144D01*
X129865730Y-104924151D01*
X129865730Y-104924150D01*
X130018870Y-104812889D01*
X130145533Y-104672216D01*
X130240179Y-104508284D01*
X130279178Y-104388257D01*
X130298674Y-104328256D01*
X130312154Y-104200000D01*
X158964540Y-104200000D01*
X158984326Y-104388257D01*
X159042820Y-104568284D01*
X159137466Y-104732216D01*
X159264129Y-104872889D01*
X159417269Y-104984151D01*
X159590197Y-105061144D01*
X159775352Y-105100500D01*
X159775354Y-105100500D01*
X159964646Y-105100500D01*
X159964648Y-105100500D01*
X160088083Y-105074262D01*
X160149803Y-105061144D01*
X160322730Y-104984151D01*
X160475871Y-104872888D01*
X160602533Y-104732216D01*
X160697179Y-104568284D01*
X160755674Y-104388256D01*
X160775460Y-104200000D01*
X160755674Y-104011744D01*
X160697179Y-103831716D01*
X160697179Y-103831715D01*
X160602533Y-103667783D01*
X160475870Y-103527110D01*
X160322730Y-103415848D01*
X160149802Y-103338855D01*
X159964648Y-103299500D01*
X159964646Y-103299500D01*
X159775354Y-103299500D01*
X159775352Y-103299500D01*
X159590197Y-103338855D01*
X159417269Y-103415848D01*
X159264129Y-103527110D01*
X159137466Y-103667783D01*
X159042820Y-103831715D01*
X158984326Y-104011742D01*
X158964540Y-104200000D01*
X130312154Y-104200000D01*
X130318460Y-104140000D01*
X130298674Y-103951744D01*
X130256030Y-103820500D01*
X130240179Y-103771715D01*
X130145533Y-103607783D01*
X130018870Y-103467110D01*
X129865730Y-103355848D01*
X129692802Y-103278855D01*
X129507648Y-103239500D01*
X129507646Y-103239500D01*
X129318354Y-103239500D01*
X129318352Y-103239500D01*
X129133197Y-103278855D01*
X128960269Y-103355848D01*
X128807129Y-103467110D01*
X128680466Y-103607783D01*
X128585820Y-103771715D01*
X128527326Y-103951742D01*
X128507540Y-104140000D01*
X124645500Y-104140000D01*
X124645500Y-102920799D01*
X125992940Y-102920799D01*
X126012726Y-103109057D01*
X126071220Y-103289084D01*
X126165866Y-103453016D01*
X126292529Y-103593689D01*
X126445669Y-103704951D01*
X126618597Y-103781944D01*
X126803752Y-103821300D01*
X126803754Y-103821300D01*
X126993046Y-103821300D01*
X126993048Y-103821300D01*
X127116484Y-103795062D01*
X127178203Y-103781944D01*
X127351130Y-103704951D01*
X127402288Y-103667783D01*
X127504270Y-103593689D01*
X127630933Y-103453016D01*
X127725579Y-103289084D01*
X127741690Y-103239500D01*
X127784074Y-103109056D01*
X127803860Y-102920800D01*
X127803776Y-102920000D01*
X161504540Y-102920000D01*
X161524326Y-103108257D01*
X161582820Y-103288284D01*
X161677466Y-103452216D01*
X161804129Y-103592889D01*
X161957269Y-103704151D01*
X162130197Y-103781144D01*
X162315352Y-103820500D01*
X162315354Y-103820500D01*
X162504646Y-103820500D01*
X162504648Y-103820500D01*
X162628083Y-103794262D01*
X162689803Y-103781144D01*
X162862730Y-103704151D01*
X162912785Y-103667784D01*
X163015870Y-103592889D01*
X163142533Y-103452216D01*
X163237179Y-103288284D01*
X163253030Y-103239500D01*
X163295674Y-103108256D01*
X163315460Y-102920000D01*
X163295674Y-102731744D01*
X163237179Y-102551716D01*
X163237179Y-102551715D01*
X163142533Y-102387783D01*
X163015870Y-102247110D01*
X162862730Y-102135848D01*
X162689802Y-102058855D01*
X162504648Y-102019500D01*
X162504646Y-102019500D01*
X162315354Y-102019500D01*
X162315352Y-102019500D01*
X162130197Y-102058855D01*
X161957269Y-102135848D01*
X161804129Y-102247110D01*
X161677466Y-102387783D01*
X161582820Y-102551715D01*
X161524326Y-102731742D01*
X161504540Y-102920000D01*
X127803776Y-102920000D01*
X127784074Y-102732544D01*
X127725579Y-102552516D01*
X127725579Y-102552515D01*
X127630933Y-102388583D01*
X127504270Y-102247910D01*
X127351130Y-102136648D01*
X127178202Y-102059655D01*
X126993048Y-102020300D01*
X126993046Y-102020300D01*
X126803754Y-102020300D01*
X126803752Y-102020300D01*
X126618597Y-102059655D01*
X126445669Y-102136648D01*
X126292529Y-102247910D01*
X126165866Y-102388583D01*
X126071220Y-102552515D01*
X126012726Y-102732542D01*
X125992940Y-102920799D01*
X124645500Y-102920799D01*
X124645500Y-101599999D01*
X128507540Y-101599999D01*
X128527326Y-101788257D01*
X128585820Y-101968284D01*
X128680466Y-102132216D01*
X128807129Y-102272889D01*
X128960269Y-102384151D01*
X129133197Y-102461144D01*
X129318352Y-102500500D01*
X129318354Y-102500500D01*
X129507646Y-102500500D01*
X129507648Y-102500500D01*
X129631083Y-102474262D01*
X129692803Y-102461144D01*
X129865730Y-102384151D01*
X129865730Y-102384150D01*
X130018870Y-102272889D01*
X130041360Y-102247912D01*
X130145533Y-102132216D01*
X130240179Y-101968284D01*
X130298674Y-101788256D01*
X130318460Y-101600000D01*
X130318460Y-101599999D01*
X136762540Y-101599999D01*
X136782326Y-101788257D01*
X136840820Y-101968284D01*
X136935466Y-102132216D01*
X137062129Y-102272889D01*
X137215269Y-102384151D01*
X137388197Y-102461144D01*
X137573352Y-102500500D01*
X137573354Y-102500500D01*
X137762646Y-102500500D01*
X137762648Y-102500500D01*
X137886083Y-102474262D01*
X137947803Y-102461144D01*
X138120730Y-102384151D01*
X138120730Y-102384150D01*
X138273870Y-102272889D01*
X138296360Y-102247912D01*
X138400533Y-102132216D01*
X138495179Y-101968284D01*
X138553674Y-101788256D01*
X138567154Y-101660000D01*
X158964540Y-101660000D01*
X158984326Y-101848257D01*
X159042820Y-102028284D01*
X159137466Y-102192216D01*
X159264129Y-102332889D01*
X159417269Y-102444151D01*
X159590197Y-102521144D01*
X159775352Y-102560500D01*
X159775354Y-102560500D01*
X159964646Y-102560500D01*
X159964648Y-102560500D01*
X160088083Y-102534262D01*
X160149803Y-102521144D01*
X160322730Y-102444151D01*
X160475871Y-102332888D01*
X160602533Y-102192216D01*
X160697179Y-102028284D01*
X160755674Y-101848256D01*
X160775460Y-101660000D01*
X160755674Y-101471744D01*
X160697179Y-101291716D01*
X160697179Y-101291715D01*
X160602533Y-101127783D01*
X160475870Y-100987110D01*
X160322730Y-100875848D01*
X160149802Y-100798855D01*
X159964648Y-100759500D01*
X159964646Y-100759500D01*
X159775354Y-100759500D01*
X159775352Y-100759500D01*
X159590197Y-100798855D01*
X159417269Y-100875848D01*
X159264129Y-100987110D01*
X159137466Y-101127783D01*
X159042820Y-101291715D01*
X158984326Y-101471742D01*
X158964540Y-101660000D01*
X138567154Y-101660000D01*
X138573460Y-101600000D01*
X138553674Y-101411744D01*
X138501492Y-101251144D01*
X138495179Y-101231715D01*
X138400535Y-101067787D01*
X138400534Y-101067786D01*
X138400533Y-101067784D01*
X138382693Y-101047971D01*
X138354527Y-100994999D01*
X138354527Y-100935001D01*
X138382693Y-100882028D01*
X138400533Y-100862216D01*
X138495179Y-100698284D01*
X138553674Y-100518256D01*
X138567154Y-100390000D01*
X161504540Y-100390000D01*
X161524326Y-100578257D01*
X161582820Y-100758284D01*
X161677466Y-100922216D01*
X161804129Y-101062889D01*
X161957269Y-101174151D01*
X162130197Y-101251144D01*
X162315352Y-101290500D01*
X162315354Y-101290500D01*
X162504646Y-101290500D01*
X162504648Y-101290500D01*
X162628084Y-101264262D01*
X162689803Y-101251144D01*
X162862730Y-101174151D01*
X163009128Y-101067787D01*
X163015870Y-101062889D01*
X163142533Y-100922216D01*
X163237179Y-100758284D01*
X163256674Y-100698284D01*
X163295674Y-100578256D01*
X163315460Y-100390000D01*
X163295674Y-100201744D01*
X163237179Y-100021716D01*
X163237179Y-100021715D01*
X163142533Y-99857783D01*
X163015870Y-99717110D01*
X162862730Y-99605848D01*
X162689802Y-99528855D01*
X162504648Y-99489500D01*
X162504646Y-99489500D01*
X162315354Y-99489500D01*
X162315352Y-99489500D01*
X162130197Y-99528855D01*
X161957269Y-99605848D01*
X161804129Y-99717110D01*
X161677466Y-99857783D01*
X161582820Y-100021715D01*
X161524326Y-100201742D01*
X161504540Y-100390000D01*
X138567154Y-100390000D01*
X138573460Y-100330000D01*
X138553674Y-100141744D01*
X138495179Y-99961716D01*
X138495179Y-99961715D01*
X138400533Y-99797783D01*
X138273870Y-99657110D01*
X138120730Y-99545848D01*
X137947802Y-99468855D01*
X137762648Y-99429500D01*
X137762646Y-99429500D01*
X137573354Y-99429500D01*
X137573352Y-99429500D01*
X137388197Y-99468855D01*
X137215269Y-99545848D01*
X137062129Y-99657110D01*
X136935466Y-99797783D01*
X136840820Y-99961715D01*
X136782326Y-100141742D01*
X136762540Y-100329999D01*
X136782326Y-100518257D01*
X136840820Y-100698284D01*
X136935466Y-100862215D01*
X136953304Y-100882026D01*
X136981471Y-100934999D01*
X136981472Y-100994995D01*
X136953307Y-101047969D01*
X136935466Y-101067783D01*
X136840820Y-101231715D01*
X136782326Y-101411742D01*
X136762540Y-101599999D01*
X130318460Y-101599999D01*
X130298674Y-101411744D01*
X130246492Y-101251144D01*
X130240179Y-101231715D01*
X130145533Y-101067783D01*
X130018870Y-100927110D01*
X129865730Y-100815848D01*
X129692802Y-100738855D01*
X129507648Y-100699500D01*
X129507646Y-100699500D01*
X129318354Y-100699500D01*
X129318352Y-100699500D01*
X129133197Y-100738855D01*
X128960269Y-100815848D01*
X128807129Y-100927110D01*
X128680466Y-101067783D01*
X128585820Y-101231715D01*
X128527326Y-101411742D01*
X128507540Y-101599999D01*
X124645500Y-101599999D01*
X124645500Y-100380800D01*
X125992940Y-100380800D01*
X126012726Y-100569057D01*
X126071220Y-100749084D01*
X126165866Y-100913016D01*
X126292529Y-101053689D01*
X126445669Y-101164951D01*
X126618597Y-101241944D01*
X126803752Y-101281300D01*
X126803754Y-101281300D01*
X126993046Y-101281300D01*
X126993048Y-101281300D01*
X127134920Y-101251144D01*
X127178203Y-101241944D01*
X127351130Y-101164951D01*
X127402288Y-101127783D01*
X127504270Y-101053689D01*
X127630933Y-100913016D01*
X127725579Y-100749084D01*
X127781084Y-100578257D01*
X127784074Y-100569056D01*
X127803860Y-100380800D01*
X127784074Y-100192544D01*
X127749943Y-100087500D01*
X127725579Y-100012515D01*
X127630933Y-99848583D01*
X127504270Y-99707910D01*
X127351130Y-99596648D01*
X127178202Y-99519655D01*
X126993048Y-99480300D01*
X126993046Y-99480300D01*
X126803754Y-99480300D01*
X126803752Y-99480300D01*
X126618597Y-99519655D01*
X126445669Y-99596648D01*
X126292529Y-99707910D01*
X126165866Y-99848583D01*
X126071220Y-100012515D01*
X126012726Y-100192542D01*
X125992940Y-100380800D01*
X124645500Y-100380800D01*
X124645500Y-99187000D01*
X128507540Y-99187000D01*
X128527326Y-99375257D01*
X128585820Y-99555284D01*
X128680466Y-99719216D01*
X128807129Y-99859889D01*
X128960269Y-99971151D01*
X129133197Y-100048144D01*
X129318352Y-100087500D01*
X129318354Y-100087500D01*
X129507646Y-100087500D01*
X129507648Y-100087500D01*
X129631084Y-100061262D01*
X129692803Y-100048144D01*
X129865730Y-99971151D01*
X130018871Y-99859888D01*
X130145533Y-99719216D01*
X130240179Y-99555284D01*
X130298674Y-99375256D01*
X130318460Y-99187000D01*
X130311418Y-99119999D01*
X158974540Y-99119999D01*
X158994326Y-99308257D01*
X159052820Y-99488284D01*
X159147466Y-99652216D01*
X159274129Y-99792889D01*
X159427269Y-99904151D01*
X159600197Y-99981144D01*
X159785352Y-100020500D01*
X159785354Y-100020500D01*
X159974646Y-100020500D01*
X159974648Y-100020500D01*
X160098083Y-99994262D01*
X160159803Y-99981144D01*
X160332730Y-99904151D01*
X160409213Y-99848583D01*
X160485870Y-99792889D01*
X160612533Y-99652216D01*
X160707179Y-99488284D01*
X160726279Y-99429500D01*
X160765674Y-99308256D01*
X160785460Y-99120000D01*
X160765674Y-98931744D01*
X160728949Y-98818716D01*
X160707179Y-98751715D01*
X160612533Y-98587783D01*
X160485870Y-98447110D01*
X160332730Y-98335848D01*
X160159802Y-98258855D01*
X159974648Y-98219500D01*
X159974646Y-98219500D01*
X159785354Y-98219500D01*
X159785352Y-98219500D01*
X159600197Y-98258855D01*
X159427269Y-98335848D01*
X159274129Y-98447110D01*
X159147466Y-98587783D01*
X159052820Y-98751715D01*
X158994326Y-98931742D01*
X158974540Y-99119999D01*
X130311418Y-99119999D01*
X130298674Y-98998744D01*
X130240179Y-98818716D01*
X130240179Y-98818715D01*
X130145533Y-98654783D01*
X130018870Y-98514110D01*
X129865730Y-98402848D01*
X129692802Y-98325855D01*
X129507648Y-98286500D01*
X129507646Y-98286500D01*
X129318354Y-98286500D01*
X129318352Y-98286500D01*
X129133197Y-98325855D01*
X128960269Y-98402848D01*
X128807129Y-98514110D01*
X128680466Y-98654783D01*
X128585820Y-98818715D01*
X128527326Y-98998742D01*
X128507540Y-99187000D01*
X124645500Y-99187000D01*
X124645500Y-97840800D01*
X125992940Y-97840800D01*
X126012726Y-98029057D01*
X126071220Y-98209084D01*
X126165866Y-98373016D01*
X126292529Y-98513689D01*
X126445669Y-98624951D01*
X126618597Y-98701944D01*
X126803752Y-98741300D01*
X126803754Y-98741300D01*
X126993046Y-98741300D01*
X126993048Y-98741300D01*
X127116484Y-98715062D01*
X127178203Y-98701944D01*
X127351130Y-98624951D01*
X127402288Y-98587783D01*
X127504270Y-98513689D01*
X127630933Y-98373016D01*
X127725579Y-98209084D01*
X127729088Y-98198284D01*
X127784074Y-98029056D01*
X127803860Y-97840800D01*
X127802725Y-97830000D01*
X161504540Y-97830000D01*
X161524326Y-98018257D01*
X161582820Y-98198284D01*
X161677466Y-98362216D01*
X161804129Y-98502889D01*
X161957269Y-98614151D01*
X162130197Y-98691144D01*
X162315352Y-98730500D01*
X162315354Y-98730500D01*
X162504646Y-98730500D01*
X162504648Y-98730500D01*
X162628084Y-98704262D01*
X162689803Y-98691144D01*
X162862730Y-98614151D01*
X162899023Y-98587783D01*
X163015870Y-98502889D01*
X163142533Y-98362216D01*
X163237179Y-98198284D01*
X163237178Y-98198284D01*
X163295674Y-98018256D01*
X163315460Y-97830000D01*
X163295674Y-97641744D01*
X163265332Y-97548363D01*
X163237179Y-97461715D01*
X163142533Y-97297783D01*
X163015870Y-97157110D01*
X162862730Y-97045848D01*
X162689802Y-96968855D01*
X162504648Y-96929500D01*
X162504646Y-96929500D01*
X162315354Y-96929500D01*
X162315352Y-96929500D01*
X162130197Y-96968855D01*
X161957269Y-97045848D01*
X161804129Y-97157110D01*
X161677466Y-97297783D01*
X161582820Y-97461715D01*
X161524326Y-97641742D01*
X161504540Y-97830000D01*
X127802725Y-97830000D01*
X127784074Y-97652544D01*
X127725579Y-97472516D01*
X127725579Y-97472515D01*
X127630933Y-97308583D01*
X127504270Y-97167910D01*
X127351130Y-97056648D01*
X127178202Y-96979655D01*
X126993048Y-96940300D01*
X126993046Y-96940300D01*
X126803754Y-96940300D01*
X126803752Y-96940300D01*
X126618597Y-96979655D01*
X126445669Y-97056648D01*
X126292529Y-97167910D01*
X126165866Y-97308583D01*
X126071220Y-97472515D01*
X126012726Y-97652542D01*
X125992940Y-97840800D01*
X124645500Y-97840800D01*
X124645500Y-96520000D01*
X128507540Y-96520000D01*
X128527326Y-96708257D01*
X128585820Y-96888284D01*
X128680466Y-97052216D01*
X128807129Y-97192889D01*
X128960269Y-97304151D01*
X129133197Y-97381144D01*
X129318352Y-97420500D01*
X129318354Y-97420500D01*
X129507646Y-97420500D01*
X129507648Y-97420500D01*
X129631083Y-97394262D01*
X129692803Y-97381144D01*
X129865730Y-97304151D01*
X129874495Y-97297783D01*
X130018870Y-97192889D01*
X130041360Y-97167912D01*
X130145533Y-97052216D01*
X130240179Y-96888284D01*
X130298674Y-96708256D01*
X130312154Y-96580000D01*
X158984540Y-96580000D01*
X159004326Y-96768257D01*
X159062820Y-96948284D01*
X159157466Y-97112216D01*
X159284129Y-97252889D01*
X159437269Y-97364151D01*
X159610197Y-97441144D01*
X159795352Y-97480500D01*
X159795354Y-97480500D01*
X159984646Y-97480500D01*
X159984648Y-97480500D01*
X160108084Y-97454262D01*
X160169803Y-97441144D01*
X160342730Y-97364151D01*
X160495871Y-97252888D01*
X160622533Y-97112216D01*
X160717179Y-96948284D01*
X160775674Y-96768256D01*
X160795460Y-96580000D01*
X160775674Y-96391744D01*
X160717179Y-96211716D01*
X160717179Y-96211715D01*
X160622533Y-96047783D01*
X160495870Y-95907110D01*
X160342730Y-95795848D01*
X160169802Y-95718855D01*
X159984648Y-95679500D01*
X159984646Y-95679500D01*
X159795354Y-95679500D01*
X159795352Y-95679500D01*
X159610197Y-95718855D01*
X159437269Y-95795848D01*
X159284129Y-95907110D01*
X159157466Y-96047783D01*
X159062820Y-96211715D01*
X159004326Y-96391742D01*
X158984540Y-96580000D01*
X130312154Y-96580000D01*
X130318460Y-96520000D01*
X130298674Y-96331744D01*
X130246492Y-96171144D01*
X130240179Y-96151715D01*
X130145533Y-95987783D01*
X130018870Y-95847110D01*
X129865730Y-95735848D01*
X129692802Y-95658855D01*
X129507648Y-95619500D01*
X129507646Y-95619500D01*
X129318354Y-95619500D01*
X129318352Y-95619500D01*
X129133197Y-95658855D01*
X128960269Y-95735848D01*
X128807129Y-95847110D01*
X128680466Y-95987783D01*
X128585820Y-96151715D01*
X128527326Y-96331742D01*
X128507540Y-96520000D01*
X124645500Y-96520000D01*
X124645500Y-95300800D01*
X125992940Y-95300800D01*
X126012726Y-95489057D01*
X126071220Y-95669084D01*
X126165866Y-95833016D01*
X126292529Y-95973689D01*
X126445669Y-96084951D01*
X126618597Y-96161944D01*
X126803752Y-96201300D01*
X126803754Y-96201300D01*
X126993046Y-96201300D01*
X126993048Y-96201300D01*
X127134920Y-96171144D01*
X127178203Y-96161944D01*
X127351130Y-96084951D01*
X127402288Y-96047783D01*
X127504270Y-95973689D01*
X127630933Y-95833016D01*
X127725579Y-95669084D01*
X127781084Y-95498257D01*
X127784074Y-95489056D01*
X127802893Y-95310000D01*
X161504540Y-95310000D01*
X161524326Y-95498257D01*
X161582820Y-95678284D01*
X161677466Y-95842216D01*
X161804129Y-95982889D01*
X161957269Y-96094151D01*
X162130197Y-96171144D01*
X162315352Y-96210500D01*
X162315354Y-96210500D01*
X162504646Y-96210500D01*
X162504648Y-96210500D01*
X162628084Y-96184262D01*
X162689803Y-96171144D01*
X162862730Y-96094151D01*
X162926550Y-96047783D01*
X163015870Y-95982889D01*
X163142533Y-95842216D01*
X163237179Y-95678284D01*
X163256279Y-95619500D01*
X163295674Y-95498256D01*
X163315460Y-95310000D01*
X163295674Y-95121744D01*
X163237179Y-94941716D01*
X163237179Y-94941715D01*
X163142533Y-94777783D01*
X163015870Y-94637110D01*
X162862730Y-94525848D01*
X162689802Y-94448855D01*
X162504648Y-94409500D01*
X162504646Y-94409500D01*
X162315354Y-94409500D01*
X162315352Y-94409500D01*
X162130197Y-94448855D01*
X161957269Y-94525848D01*
X161804129Y-94637110D01*
X161677466Y-94777783D01*
X161582820Y-94941715D01*
X161524326Y-95121742D01*
X161504540Y-95310000D01*
X127802893Y-95310000D01*
X127803860Y-95300800D01*
X127784074Y-95112544D01*
X127753732Y-95019163D01*
X127725579Y-94932515D01*
X127630933Y-94768583D01*
X127504270Y-94627910D01*
X127351130Y-94516648D01*
X127178202Y-94439655D01*
X126993048Y-94400300D01*
X126993046Y-94400300D01*
X126803754Y-94400300D01*
X126803752Y-94400300D01*
X126618597Y-94439655D01*
X126445669Y-94516648D01*
X126292529Y-94627910D01*
X126165866Y-94768583D01*
X126071220Y-94932515D01*
X126012726Y-95112542D01*
X125992940Y-95300800D01*
X124645500Y-95300800D01*
X124645500Y-93980000D01*
X128507540Y-93980000D01*
X128527326Y-94168257D01*
X128585820Y-94348284D01*
X128680466Y-94512216D01*
X128807129Y-94652889D01*
X128960269Y-94764151D01*
X129133197Y-94841144D01*
X129318352Y-94880500D01*
X129318354Y-94880500D01*
X129507646Y-94880500D01*
X129507648Y-94880500D01*
X129631083Y-94854262D01*
X129692803Y-94841144D01*
X129865730Y-94764151D01*
X129865729Y-94764151D01*
X130018870Y-94652889D01*
X130041360Y-94627912D01*
X130145533Y-94512216D01*
X130240179Y-94348284D01*
X130298674Y-94168256D01*
X130312154Y-94039999D01*
X158984540Y-94039999D01*
X159004326Y-94228257D01*
X159062820Y-94408284D01*
X159157466Y-94572216D01*
X159284129Y-94712889D01*
X159437269Y-94824151D01*
X159610197Y-94901144D01*
X159795352Y-94940500D01*
X159795354Y-94940500D01*
X159984646Y-94940500D01*
X159984648Y-94940500D01*
X160108084Y-94914262D01*
X160169803Y-94901144D01*
X160342730Y-94824151D01*
X160495871Y-94712888D01*
X160622533Y-94572216D01*
X160717179Y-94408284D01*
X160775674Y-94228256D01*
X160795460Y-94040000D01*
X160775674Y-93851744D01*
X160717179Y-93671716D01*
X160717179Y-93671715D01*
X160622533Y-93507783D01*
X160495870Y-93367110D01*
X160342730Y-93255848D01*
X160169802Y-93178855D01*
X159984648Y-93139500D01*
X159984646Y-93139500D01*
X159795354Y-93139500D01*
X159795352Y-93139500D01*
X159610197Y-93178855D01*
X159437269Y-93255848D01*
X159284129Y-93367110D01*
X159157466Y-93507783D01*
X159062820Y-93671715D01*
X159004326Y-93851742D01*
X158984540Y-94039999D01*
X130312154Y-94039999D01*
X130318460Y-93980000D01*
X130298674Y-93791744D01*
X130256030Y-93660500D01*
X130240179Y-93611715D01*
X130145533Y-93447783D01*
X130018870Y-93307110D01*
X129865730Y-93195848D01*
X129692802Y-93118855D01*
X129507648Y-93079500D01*
X129507646Y-93079500D01*
X129318354Y-93079500D01*
X129318352Y-93079500D01*
X129133197Y-93118855D01*
X128960269Y-93195848D01*
X128807129Y-93307110D01*
X128680466Y-93447783D01*
X128585820Y-93611715D01*
X128527326Y-93791742D01*
X128507540Y-93980000D01*
X124645500Y-93980000D01*
X124645500Y-92760799D01*
X125992940Y-92760799D01*
X126012726Y-92949057D01*
X126071220Y-93129084D01*
X126165866Y-93293016D01*
X126292529Y-93433689D01*
X126445669Y-93544951D01*
X126618597Y-93621944D01*
X126803752Y-93661300D01*
X126803754Y-93661300D01*
X126993046Y-93661300D01*
X126993048Y-93661300D01*
X127116483Y-93635062D01*
X127178203Y-93621944D01*
X127351130Y-93544951D01*
X127402288Y-93507783D01*
X127504270Y-93433689D01*
X127630933Y-93293016D01*
X127725579Y-93129084D01*
X127741690Y-93079500D01*
X127784074Y-92949056D01*
X127803860Y-92760800D01*
X127803776Y-92759999D01*
X161494540Y-92759999D01*
X161514326Y-92948257D01*
X161572820Y-93128284D01*
X161667466Y-93292216D01*
X161794129Y-93432889D01*
X161947269Y-93544151D01*
X162120197Y-93621144D01*
X162305352Y-93660500D01*
X162305354Y-93660500D01*
X162494646Y-93660500D01*
X162494648Y-93660500D01*
X162618084Y-93634262D01*
X162679803Y-93621144D01*
X162852730Y-93544151D01*
X162902785Y-93507784D01*
X163005870Y-93432889D01*
X163132533Y-93292216D01*
X163227179Y-93128284D01*
X163243030Y-93079500D01*
X163285674Y-92948256D01*
X163305460Y-92760000D01*
X163285674Y-92571744D01*
X163227179Y-92391716D01*
X163227179Y-92391715D01*
X163132533Y-92227783D01*
X163005870Y-92087110D01*
X162852730Y-91975848D01*
X162679802Y-91898855D01*
X162494648Y-91859500D01*
X162494646Y-91859500D01*
X162305354Y-91859500D01*
X162305352Y-91859500D01*
X162120197Y-91898855D01*
X161947269Y-91975848D01*
X161794129Y-92087110D01*
X161667466Y-92227783D01*
X161572820Y-92391715D01*
X161514326Y-92571742D01*
X161494540Y-92759999D01*
X127803776Y-92759999D01*
X127784074Y-92572544D01*
X127725579Y-92392516D01*
X127725579Y-92392515D01*
X127630933Y-92228583D01*
X127504270Y-92087910D01*
X127351130Y-91976648D01*
X127178202Y-91899655D01*
X126993048Y-91860300D01*
X126993046Y-91860300D01*
X126803754Y-91860300D01*
X126803752Y-91860300D01*
X126618597Y-91899655D01*
X126445669Y-91976648D01*
X126292529Y-92087910D01*
X126165866Y-92228583D01*
X126071220Y-92392515D01*
X126012726Y-92572542D01*
X125992940Y-92760799D01*
X124645500Y-92760799D01*
X124645500Y-91439999D01*
X128507540Y-91439999D01*
X128527326Y-91628257D01*
X128585820Y-91808284D01*
X128680466Y-91972216D01*
X128807129Y-92112889D01*
X128960269Y-92224151D01*
X129133197Y-92301144D01*
X129318352Y-92340500D01*
X129318354Y-92340500D01*
X129507646Y-92340500D01*
X129507648Y-92340500D01*
X129631084Y-92314262D01*
X129692803Y-92301144D01*
X129865730Y-92224151D01*
X129865729Y-92224151D01*
X130018870Y-92112889D01*
X130041360Y-92087912D01*
X130145533Y-91972216D01*
X130240179Y-91808284D01*
X130298674Y-91628256D01*
X130312154Y-91500000D01*
X158984540Y-91500000D01*
X159004326Y-91688257D01*
X159062820Y-91868284D01*
X159157466Y-92032216D01*
X159284129Y-92172889D01*
X159437269Y-92284151D01*
X159610197Y-92361144D01*
X159795352Y-92400500D01*
X159795354Y-92400500D01*
X159984646Y-92400500D01*
X159984648Y-92400500D01*
X160108084Y-92374262D01*
X160169803Y-92361144D01*
X160342730Y-92284151D01*
X160495871Y-92172888D01*
X160622533Y-92032216D01*
X160717179Y-91868284D01*
X160775674Y-91688256D01*
X160795460Y-91500000D01*
X160775674Y-91311744D01*
X160745332Y-91218363D01*
X160717179Y-91131715D01*
X160622533Y-90967783D01*
X160495870Y-90827110D01*
X160342730Y-90715848D01*
X160169802Y-90638855D01*
X159984648Y-90599500D01*
X159984646Y-90599500D01*
X159795354Y-90599500D01*
X159795352Y-90599500D01*
X159610197Y-90638855D01*
X159437269Y-90715848D01*
X159284129Y-90827110D01*
X159157466Y-90967783D01*
X159062820Y-91131715D01*
X159004326Y-91311742D01*
X158984540Y-91500000D01*
X130312154Y-91500000D01*
X130318460Y-91440000D01*
X130298674Y-91251744D01*
X130252990Y-91111144D01*
X130240179Y-91071715D01*
X130145533Y-90907783D01*
X130018870Y-90767110D01*
X129865730Y-90655848D01*
X129692802Y-90578855D01*
X129507648Y-90539500D01*
X129507646Y-90539500D01*
X129318354Y-90539500D01*
X129318352Y-90539500D01*
X129133197Y-90578855D01*
X128960269Y-90655848D01*
X128807129Y-90767110D01*
X128680466Y-90907783D01*
X128585820Y-91071715D01*
X128527326Y-91251742D01*
X128507540Y-91439999D01*
X124645500Y-91439999D01*
X124645500Y-90220800D01*
X125992940Y-90220800D01*
X126012726Y-90409057D01*
X126071220Y-90589084D01*
X126165866Y-90753016D01*
X126292529Y-90893689D01*
X126445669Y-91004951D01*
X126618597Y-91081944D01*
X126803752Y-91121300D01*
X126803754Y-91121300D01*
X126993046Y-91121300D01*
X126993048Y-91121300D01*
X127116484Y-91095062D01*
X127178203Y-91081944D01*
X127351130Y-91004951D01*
X127464079Y-90922889D01*
X127504270Y-90893689D01*
X127630933Y-90753016D01*
X127725579Y-90589084D01*
X127741690Y-90539500D01*
X127784074Y-90409056D01*
X127800791Y-90249999D01*
X161494540Y-90249999D01*
X161514326Y-90438257D01*
X161572820Y-90618284D01*
X161667466Y-90782216D01*
X161794129Y-90922889D01*
X161947269Y-91034151D01*
X162120197Y-91111144D01*
X162305352Y-91150500D01*
X162305354Y-91150500D01*
X162494646Y-91150500D01*
X162494648Y-91150500D01*
X162632022Y-91121300D01*
X162679803Y-91111144D01*
X162852730Y-91034151D01*
X163005871Y-90922888D01*
X163132533Y-90782216D01*
X163227179Y-90618284D01*
X163285674Y-90438256D01*
X163305460Y-90250000D01*
X163285674Y-90061744D01*
X163227179Y-89881716D01*
X163227179Y-89881715D01*
X163132533Y-89717783D01*
X163005870Y-89577110D01*
X162852730Y-89465848D01*
X162679802Y-89388855D01*
X162494648Y-89349500D01*
X162494646Y-89349500D01*
X162305354Y-89349500D01*
X162305352Y-89349500D01*
X162120197Y-89388855D01*
X161947269Y-89465848D01*
X161794129Y-89577110D01*
X161667466Y-89717783D01*
X161572820Y-89881715D01*
X161514326Y-90061742D01*
X161494540Y-90249999D01*
X127800791Y-90249999D01*
X127803860Y-90220800D01*
X127784074Y-90032544D01*
X127749943Y-89927500D01*
X127725579Y-89852515D01*
X127630933Y-89688583D01*
X127504270Y-89547910D01*
X127351130Y-89436648D01*
X127178202Y-89359655D01*
X126993048Y-89320300D01*
X126993046Y-89320300D01*
X126803754Y-89320300D01*
X126803752Y-89320300D01*
X126618597Y-89359655D01*
X126445669Y-89436648D01*
X126292529Y-89547910D01*
X126165866Y-89688583D01*
X126071220Y-89852515D01*
X126012726Y-90032542D01*
X125992940Y-90220800D01*
X124645500Y-90220800D01*
X124645500Y-89027000D01*
X128507540Y-89027000D01*
X128527326Y-89215257D01*
X128585820Y-89395284D01*
X128680466Y-89559216D01*
X128807129Y-89699889D01*
X128960269Y-89811151D01*
X129133197Y-89888144D01*
X129318352Y-89927500D01*
X129318354Y-89927500D01*
X129507646Y-89927500D01*
X129507648Y-89927500D01*
X129631083Y-89901262D01*
X129692803Y-89888144D01*
X129865730Y-89811151D01*
X130018871Y-89699888D01*
X130145533Y-89559216D01*
X130240179Y-89395284D01*
X130298674Y-89215256D01*
X130318460Y-89027000D01*
X130298674Y-88838744D01*
X130240179Y-88658716D01*
X130240179Y-88658715D01*
X130145533Y-88494783D01*
X130018870Y-88354110D01*
X129886506Y-88257943D01*
X129845676Y-88207070D01*
X129836315Y-88142513D01*
X129861013Y-88082141D01*
X129929536Y-87992841D01*
X129974619Y-87884000D01*
X137016540Y-87884000D01*
X137036326Y-88072257D01*
X137094820Y-88252284D01*
X137189466Y-88416216D01*
X137316129Y-88556889D01*
X137469269Y-88668151D01*
X137642197Y-88745144D01*
X137827352Y-88784500D01*
X137827354Y-88784500D01*
X138016646Y-88784500D01*
X138016648Y-88784500D01*
X138140084Y-88758262D01*
X138201803Y-88745144D01*
X138374730Y-88668151D01*
X138527871Y-88556888D01*
X138654533Y-88416216D01*
X138749179Y-88252284D01*
X138807674Y-88072256D01*
X138827460Y-87884000D01*
X138807674Y-87695744D01*
X138755392Y-87534838D01*
X138749179Y-87515715D01*
X138654533Y-87351783D01*
X138636694Y-87331971D01*
X138608527Y-87278996D01*
X138608528Y-87218998D01*
X138636696Y-87166025D01*
X138654533Y-87146216D01*
X138749179Y-86982284D01*
X138807674Y-86802256D01*
X138827460Y-86614000D01*
X138807674Y-86425744D01*
X138805808Y-86420000D01*
X158974540Y-86420000D01*
X158975144Y-86425744D01*
X158994326Y-86608257D01*
X159052820Y-86788284D01*
X159147466Y-86952216D01*
X159274126Y-87092886D01*
X159274129Y-87092888D01*
X159371559Y-87163675D01*
X159412388Y-87214546D01*
X159421749Y-87279102D01*
X159397050Y-87339477D01*
X159360463Y-87387159D01*
X159299956Y-87533237D01*
X159279317Y-87689999D01*
X159299956Y-87846762D01*
X159360463Y-87992840D01*
X159456717Y-88118282D01*
X159582156Y-88214534D01*
X159582159Y-88214536D01*
X159728238Y-88275044D01*
X159885000Y-88295682D01*
X160041762Y-88275044D01*
X160187841Y-88214536D01*
X160313282Y-88118282D01*
X160409536Y-87992841D01*
X160470044Y-87846762D01*
X160490682Y-87690000D01*
X160470044Y-87533238D01*
X160409536Y-87387159D01*
X160369370Y-87334814D01*
X160344670Y-87274440D01*
X160354031Y-87209883D01*
X160394858Y-87159012D01*
X160485871Y-87092888D01*
X160612533Y-86952216D01*
X160707179Y-86788284D01*
X160765674Y-86608256D01*
X160785460Y-86420000D01*
X160765674Y-86231744D01*
X160716949Y-86081784D01*
X160707179Y-86051715D01*
X160612533Y-85887783D01*
X160485870Y-85747110D01*
X160332730Y-85635848D01*
X160159802Y-85558855D01*
X159974648Y-85519500D01*
X159974646Y-85519500D01*
X159785354Y-85519500D01*
X159785352Y-85519500D01*
X159600197Y-85558855D01*
X159427269Y-85635848D01*
X159274129Y-85747110D01*
X159147466Y-85887783D01*
X159052820Y-86051715D01*
X158994326Y-86231742D01*
X158980846Y-86359999D01*
X158974540Y-86420000D01*
X138805808Y-86420000D01*
X138749179Y-86245716D01*
X138749179Y-86245715D01*
X138654533Y-86081783D01*
X138527870Y-85941110D01*
X138374730Y-85829848D01*
X138201802Y-85752855D01*
X138016648Y-85713500D01*
X138016646Y-85713500D01*
X137827354Y-85713500D01*
X137827352Y-85713500D01*
X137642197Y-85752855D01*
X137469269Y-85829848D01*
X137316129Y-85941110D01*
X137189466Y-86081783D01*
X137094820Y-86245715D01*
X137036326Y-86425742D01*
X137016540Y-86613999D01*
X137036326Y-86802257D01*
X137094820Y-86982284D01*
X137189466Y-87146216D01*
X137207305Y-87166028D01*
X137235472Y-87219002D01*
X137235472Y-87278998D01*
X137207305Y-87331972D01*
X137189466Y-87351783D01*
X137094820Y-87515715D01*
X137036326Y-87695742D01*
X137016540Y-87884000D01*
X129974619Y-87884000D01*
X129990044Y-87846762D01*
X130010682Y-87690000D01*
X129990044Y-87533238D01*
X129929536Y-87387159D01*
X129902392Y-87351784D01*
X129864464Y-87302354D01*
X129839764Y-87241979D01*
X129849125Y-87177422D01*
X129889951Y-87126552D01*
X130018871Y-87032888D01*
X130145533Y-86892216D01*
X130240179Y-86728284D01*
X130298674Y-86548256D01*
X130318460Y-86360000D01*
X130298674Y-86171744D01*
X130240179Y-85991716D01*
X130240179Y-85991715D01*
X130145533Y-85827783D01*
X130018870Y-85687110D01*
X129865730Y-85575848D01*
X129692802Y-85498855D01*
X129507648Y-85459500D01*
X129507646Y-85459500D01*
X129318354Y-85459500D01*
X129318352Y-85459500D01*
X129133197Y-85498855D01*
X128960269Y-85575848D01*
X128807129Y-85687110D01*
X128680466Y-85827783D01*
X128585820Y-85991715D01*
X128527326Y-86171742D01*
X128507540Y-86359999D01*
X128527326Y-86548257D01*
X128585820Y-86728284D01*
X128680466Y-86892216D01*
X128807129Y-87032889D01*
X128925771Y-87119087D01*
X128966601Y-87169960D01*
X128975962Y-87234516D01*
X128951262Y-87294891D01*
X128880463Y-87387159D01*
X128819956Y-87533237D01*
X128799317Y-87690000D01*
X128819956Y-87846762D01*
X128880463Y-87992840D01*
X128954711Y-88089603D01*
X128979411Y-88149978D01*
X128970050Y-88214534D01*
X128929220Y-88265407D01*
X128807129Y-88354110D01*
X128680466Y-88494783D01*
X128585820Y-88658715D01*
X128527326Y-88838742D01*
X128507540Y-89027000D01*
X124645500Y-89027000D01*
X124645500Y-83197524D01*
X124662768Y-83134403D01*
X124709763Y-83088862D01*
X124773396Y-83073585D01*
X124835944Y-83092828D01*
X124879985Y-83141231D01*
X124885872Y-83152786D01*
X125097121Y-83478080D01*
X125097124Y-83478084D01*
X125341219Y-83779516D01*
X125615484Y-84053781D01*
X125916916Y-84297876D01*
X125916918Y-84297877D01*
X125916919Y-84297878D01*
X126242206Y-84509123D01*
X126587806Y-84685214D01*
X126949913Y-84824214D01*
X127324570Y-84924603D01*
X127516114Y-84954939D01*
X127707662Y-84985278D01*
X128095000Y-85005578D01*
X128482338Y-84985278D01*
X128731686Y-84945785D01*
X128865429Y-84924603D01*
X128865433Y-84924602D01*
X129240087Y-84824214D01*
X129602194Y-84685214D01*
X129947789Y-84509125D01*
X129947788Y-84509125D01*
X129947793Y-84509123D01*
X130110436Y-84403500D01*
X130273084Y-84297876D01*
X130574516Y-84053781D01*
X130848781Y-83779516D01*
X131092876Y-83478084D01*
X131275074Y-83197524D01*
X131304123Y-83152793D01*
X131344481Y-83073585D01*
X131480214Y-82807194D01*
X131619214Y-82445087D01*
X131719602Y-82070433D01*
X131780278Y-81687338D01*
X131800578Y-81300000D01*
X131780278Y-80912662D01*
X131749939Y-80721114D01*
X131719603Y-80529570D01*
X131619214Y-80154913D01*
X131480214Y-79792806D01*
X131304123Y-79447206D01*
X131092878Y-79121919D01*
X131092876Y-79121916D01*
X130848781Y-78820484D01*
X130574516Y-78546219D01*
X130273084Y-78302124D01*
X130273082Y-78302123D01*
X130273080Y-78302121D01*
X129947786Y-78090872D01*
X129936231Y-78084985D01*
X129887828Y-78040944D01*
X129868585Y-77978396D01*
X129883862Y-77914763D01*
X129929403Y-77867768D01*
X129992524Y-77850500D01*
X135396000Y-77850500D01*
X135458000Y-77867113D01*
G37*
%TD.AperFunction*%
%TD*%
M02*
