%TF.GenerationSoftware,KiCad,Pcbnew,7.0.1*%
%TF.CreationDate,2023-09-07T21:54:11+09:00*%
%TF.ProjectId,CPU_ESP32S3WROOM,4350555f-4553-4503-9332-533357524f4f,rev?*%
%TF.SameCoordinates,Original*%
%TF.FileFunction,Soldermask,Bot*%
%TF.FilePolarity,Negative*%
%FSLAX46Y46*%
G04 Gerber Fmt 4.6, Leading zero omitted, Abs format (unit mm)*
G04 Created by KiCad (PCBNEW 7.0.1) date 2023-09-07 21:54:11*
%MOMM*%
%LPD*%
G01*
G04 APERTURE LIST*
%ADD10C,0.650000*%
%ADD11O,1.000000X2.100000*%
%ADD12O,1.000000X1.600000*%
%ADD13C,0.800000*%
%ADD14C,6.400000*%
%ADD15R,3.000000X1.000000*%
G04 APERTURE END LIST*
D10*
%TO.C,J1*%
X145840000Y-111230000D03*
X151620000Y-111230000D03*
D11*
X144410000Y-110730000D03*
D12*
X144410000Y-114910000D03*
D11*
X153050000Y-110730000D03*
D12*
X153050000Y-114910000D03*
%TD*%
D13*
%TO.C,H2*%
X158795000Y-114400000D03*
X159497944Y-112702944D03*
X159497944Y-116097056D03*
X161195000Y-112000000D03*
D14*
X161195000Y-114400000D03*
D13*
X161195000Y-116800000D03*
X162892056Y-112702944D03*
X162892056Y-116097056D03*
X163595000Y-114400000D03*
%TD*%
%TO.C,H4*%
X125695000Y-114400000D03*
X126397944Y-112702944D03*
X126397944Y-116097056D03*
X128095000Y-112000000D03*
D14*
X128095000Y-114400000D03*
D13*
X128095000Y-116800000D03*
X129792056Y-112702944D03*
X129792056Y-116097056D03*
X130495000Y-114400000D03*
%TD*%
%TO.C,H3*%
X125695000Y-81300000D03*
X126397944Y-79602944D03*
X126397944Y-82997056D03*
X128095000Y-78900000D03*
D14*
X128095000Y-81300000D03*
D13*
X128095000Y-83700000D03*
X129792056Y-79602944D03*
X129792056Y-82997056D03*
X130495000Y-81300000D03*
%TD*%
%TO.C,H1*%
X158795000Y-81300000D03*
X159497944Y-79602944D03*
X159497944Y-82997056D03*
X161195000Y-78900000D03*
D14*
X161195000Y-81300000D03*
D13*
X161195000Y-83700000D03*
X162892056Y-79602944D03*
X162892056Y-82997056D03*
X163595000Y-81300000D03*
%TD*%
D15*
%TO.C,J4*%
X157365000Y-86420000D03*
X162405000Y-86420000D03*
X157365000Y-88960000D03*
X162405000Y-88960000D03*
X157365000Y-91500000D03*
X162405000Y-91500000D03*
X157365000Y-94040000D03*
X162405000Y-94040000D03*
X157365000Y-96580000D03*
X162405000Y-96580000D03*
X157365000Y-99120000D03*
X162405000Y-99120000D03*
X157365000Y-101660000D03*
X162405000Y-101660000D03*
X157365000Y-104200000D03*
X162405000Y-104200000D03*
X157365000Y-106740000D03*
X162405000Y-106740000D03*
X157365000Y-109280000D03*
X162405000Y-109280000D03*
%TD*%
%TO.C,J2*%
X126885000Y-86420000D03*
X131925000Y-86420000D03*
X126885000Y-88960000D03*
X131925000Y-88960000D03*
X126885000Y-91500000D03*
X131925000Y-91500000D03*
X126885000Y-94040000D03*
X131925000Y-94040000D03*
X126885000Y-96580000D03*
X131925000Y-96580000D03*
X126885000Y-99120000D03*
X131925000Y-99120000D03*
X126885000Y-101660000D03*
X131925000Y-101660000D03*
X126885000Y-104200000D03*
X131925000Y-104200000D03*
X126885000Y-106740000D03*
X131925000Y-106740000D03*
X126885000Y-109280000D03*
X131925000Y-109280000D03*
%TD*%
M02*
