M48
; DRILL file {KiCad 7.0.1} date Thu Sep  7 21:54:11 2023
; FORMAT={-:-/ absolute / inch / decimal}
; #@! TF.CreationDate,2023-09-07T21:54:11+09:00
; #@! TF.GenerationSoftware,Kicad,Pcbnew,7.0.1
; #@! TF.FileFunction,Plated,1,6,PTH
FMAT,2
INCH
; #@! TA.AperFunction,Plated,PTH,ViaDrill
T1C0.0157
; #@! TA.AperFunction,Plated,PTH,ComponentDrill
T2C0.0197
; #@! TA.AperFunction,Plated,PTH,ComponentDrill
T3C0.0236
; #@! TA.AperFunction,Plated,PTH,ComponentDrill
T4C0.1260
%
G90
G05
T1
X4.996Y-3.552
X4.996Y-3.652
X4.996Y-3.752
X4.996Y-3.852
X4.996Y-3.952
X4.996Y-4.052
X4.996Y-4.154
X5.095Y-3.4
X5.095Y-3.505
X5.095Y-3.6
X5.095Y-3.7
X5.095Y-3.8
X5.095Y-3.905
X5.095Y-4.0
X5.095Y-4.1
X5.095Y-4.2
X5.095Y-4.31
X5.36Y-4.4
X5.4Y-4.29
X5.42Y-3.95
X5.42Y-4.0
X5.42Y-4.46
X5.43Y-3.41
X5.43Y-3.46
X5.505Y-4.495
X5.595Y-4.495
X5.826Y-4.3909
X5.8653Y-4.3909
X5.95Y-3.36
X6.2941Y-4.0024
X6.2941Y-4.1024
X6.2945Y-3.4024
X6.2945Y-3.5024
X6.2945Y-3.9024
X6.2945Y-4.202
X6.2949Y-3.6024
X6.2949Y-3.7024
X6.2949Y-3.8024
X6.2949Y-4.3024
X6.3937Y-3.5531
X6.3937Y-3.652
X6.3941Y-3.7524
X6.3941Y-3.8516
X6.3941Y-3.9524
X6.3941Y-4.052
X6.3941Y-4.1524
T2
X4.9486Y-3.2008
X4.9486Y-4.5039
X4.9763Y-3.134
X4.9763Y-3.2676
X4.9763Y-4.4371
X4.9763Y-4.5708
X5.0431Y-3.1063
X5.0431Y-3.2953
X5.0431Y-4.4094
X5.0431Y-4.5984
X5.1099Y-3.134
X5.1099Y-3.2676
X5.1099Y-4.4371
X5.1099Y-4.5708
X5.1376Y-3.2008
X5.1376Y-4.5039
X6.2518Y-3.2008
X6.2518Y-4.5039
X6.2794Y-3.134
X6.2794Y-3.2676
X6.2794Y-4.4371
X6.2794Y-4.5708
X6.3463Y-3.1063
X6.3463Y-3.2953
X6.3463Y-4.4094
X6.3463Y-4.5984
X6.4131Y-3.134
X6.4131Y-3.2676
X6.4131Y-4.4371
X6.4131Y-4.5708
X6.4407Y-3.2008
X6.4407Y-4.5039
T4
X5.0431Y-3.2008
X5.0431Y-4.5039
X6.3463Y-3.2008
X6.3463Y-4.5039
T3
G00X5.6854Y-4.3378
M15
G01X5.6854Y-4.3811
M16
G05
G00X5.6854Y-4.5122
M15
G01X5.6854Y-4.5358
M16
G05
G00X6.0256Y-4.3378
M15
G01X6.0256Y-4.3811
M16
G05
G00X6.0256Y-4.5122
M15
G01X6.0256Y-4.5358
M16
G05
T0
M30
