%TF.GenerationSoftware,KiCad,Pcbnew,7.0.1*%
%TF.CreationDate,2023-09-07T21:54:10+09:00*%
%TF.ProjectId,CPU_ESP32S3WROOM,4350555f-4553-4503-9332-533357524f4f,rev?*%
%TF.SameCoordinates,Original*%
%TF.FileFunction,Soldermask,Top*%
%TF.FilePolarity,Negative*%
%FSLAX46Y46*%
G04 Gerber Fmt 4.6, Leading zero omitted, Abs format (unit mm)*
G04 Created by KiCad (PCBNEW 7.0.1) date 2023-09-07 21:54:10*
%MOMM*%
%LPD*%
G01*
G04 APERTURE LIST*
G04 Aperture macros list*
%AMRoundRect*
0 Rectangle with rounded corners*
0 $1 Rounding radius*
0 $2 $3 $4 $5 $6 $7 $8 $9 X,Y pos of 4 corners*
0 Add a 4 corners polygon primitive as box body*
4,1,4,$2,$3,$4,$5,$6,$7,$8,$9,$2,$3,0*
0 Add four circle primitives for the rounded corners*
1,1,$1+$1,$2,$3*
1,1,$1+$1,$4,$5*
1,1,$1+$1,$6,$7*
1,1,$1+$1,$8,$9*
0 Add four rect primitives between the rounded corners*
20,1,$1+$1,$2,$3,$4,$5,0*
20,1,$1+$1,$4,$5,$6,$7,0*
20,1,$1+$1,$6,$7,$8,$9,0*
20,1,$1+$1,$8,$9,$2,$3,0*%
G04 Aperture macros list end*
%ADD10RoundRect,0.237500X0.237500X-0.300000X0.237500X0.300000X-0.237500X0.300000X-0.237500X-0.300000X0*%
%ADD11RoundRect,0.237500X0.237500X-0.250000X0.237500X0.250000X-0.237500X0.250000X-0.237500X-0.250000X0*%
%ADD12C,0.650000*%
%ADD13R,0.300000X1.150000*%
%ADD14O,1.000000X2.100000*%
%ADD15O,1.000000X1.600000*%
%ADD16R,3.150000X1.000000*%
%ADD17R,0.400000X1.050000*%
%ADD18R,1.500000X2.000000*%
%ADD19R,3.800000X2.000000*%
%ADD20R,1.450000X2.200000*%
%ADD21C,0.800000*%
%ADD22C,6.400000*%
%ADD23RoundRect,0.237500X0.237500X-0.287500X0.237500X0.287500X-0.237500X0.287500X-0.237500X-0.287500X0*%
%ADD24RoundRect,0.237500X-0.237500X0.250000X-0.237500X-0.250000X0.237500X-0.250000X0.237500X0.250000X0*%
%ADD25R,1.500000X0.900000*%
%ADD26R,0.900000X1.500000*%
%ADD27R,0.900000X0.900000*%
G04 APERTURE END LIST*
D10*
%TO.C,C4*%
X136430000Y-107730000D03*
X136430000Y-106005000D03*
%TD*%
D11*
%TO.C,R2*%
X151040000Y-107960000D03*
X151040000Y-106135000D03*
%TD*%
D12*
%TO.C,J1*%
X145840000Y-111230000D03*
X151620000Y-111230000D03*
D13*
X145380000Y-110165000D03*
X146180000Y-110165000D03*
X147480000Y-110165000D03*
X148480000Y-110165000D03*
X148980000Y-110165000D03*
X149980000Y-110165000D03*
X151280000Y-110165000D03*
X152080000Y-110165000D03*
X151780000Y-110165000D03*
X150980000Y-110165000D03*
X150480000Y-110165000D03*
X149480000Y-110165000D03*
X147980000Y-110165000D03*
X146980000Y-110165000D03*
X146480000Y-110165000D03*
X145680000Y-110165000D03*
D14*
X144410000Y-110730000D03*
D15*
X144410000Y-114910000D03*
D14*
X153050000Y-110730000D03*
D15*
X153050000Y-114910000D03*
%TD*%
D16*
%TO.C,J5*%
X157360000Y-86420000D03*
X162410000Y-86420000D03*
X157360000Y-88960000D03*
X162410000Y-88960000D03*
X157360000Y-91500000D03*
X162410000Y-91500000D03*
X157360000Y-94040000D03*
X162410000Y-94040000D03*
X157360000Y-96580000D03*
X162410000Y-96580000D03*
X157360000Y-99120000D03*
X162410000Y-99120000D03*
X157360000Y-101660000D03*
X162410000Y-101660000D03*
X157360000Y-104200000D03*
X162410000Y-104200000D03*
X157360000Y-106740000D03*
X162410000Y-106740000D03*
X157360000Y-109280000D03*
X162410000Y-109280000D03*
%TD*%
D17*
%TO.C,IC2*%
X149550000Y-106020000D03*
X148900000Y-106020000D03*
X148250000Y-106020000D03*
X148250000Y-107920000D03*
X148900000Y-107920000D03*
X149550000Y-107920000D03*
%TD*%
D18*
%TO.C,U1*%
X137510000Y-116340000D03*
X139810000Y-116340000D03*
D19*
X139810000Y-110040000D03*
D18*
X142110000Y-116340000D03*
%TD*%
D20*
%TO.C,D1*%
X155800000Y-116170000D03*
X155800000Y-112070000D03*
%TD*%
D21*
%TO.C,H2*%
X158795000Y-114400000D03*
X159497944Y-112702944D03*
X159497944Y-116097056D03*
X161195000Y-112000000D03*
D22*
X161195000Y-114400000D03*
D21*
X161195000Y-116800000D03*
X162892056Y-112702944D03*
X162892056Y-116097056D03*
X163595000Y-114400000D03*
%TD*%
D10*
%TO.C,C3*%
X142470000Y-107725000D03*
X142470000Y-106000000D03*
%TD*%
D21*
%TO.C,H4*%
X125695000Y-114400000D03*
X126397944Y-112702944D03*
X126397944Y-116097056D03*
X128095000Y-112000000D03*
D22*
X128095000Y-114400000D03*
D21*
X128095000Y-116800000D03*
X129792056Y-112702944D03*
X129792056Y-116097056D03*
X130495000Y-114400000D03*
%TD*%
%TO.C,H3*%
X125695000Y-81300000D03*
X126397944Y-79602944D03*
X126397944Y-82997056D03*
X128095000Y-78900000D03*
D22*
X128095000Y-81300000D03*
D21*
X128095000Y-83700000D03*
X129792056Y-79602944D03*
X129792056Y-82997056D03*
X130495000Y-81300000D03*
%TD*%
D23*
%TO.C,D3*%
X134850000Y-113500000D03*
X134850000Y-111750000D03*
%TD*%
D24*
%TO.C,R4*%
X133230000Y-115110000D03*
X133230000Y-116935000D03*
%TD*%
%TO.C,R5*%
X134850000Y-115105000D03*
X134850000Y-116930000D03*
%TD*%
D10*
%TO.C,C2*%
X140960000Y-107730000D03*
X140960000Y-106005000D03*
%TD*%
D21*
%TO.C,H1*%
X158795000Y-81300000D03*
X159497944Y-79602944D03*
X159497944Y-82997056D03*
X161195000Y-78900000D03*
D22*
X161195000Y-81300000D03*
D21*
X161195000Y-83700000D03*
X162892056Y-79602944D03*
X162892056Y-82997056D03*
X163595000Y-81300000D03*
%TD*%
D10*
%TO.C,C5*%
X143980000Y-107730000D03*
X143980000Y-106005000D03*
%TD*%
D11*
%TO.C,R3*%
X146760000Y-107960000D03*
X146760000Y-106135000D03*
%TD*%
D23*
%TO.C,D2*%
X133230000Y-113502500D03*
X133230000Y-111752500D03*
%TD*%
D16*
%TO.C,J3*%
X126880000Y-86420000D03*
X131930000Y-86420000D03*
X126880000Y-88960000D03*
X131930000Y-88960000D03*
X126880000Y-91500000D03*
X131930000Y-91500000D03*
X126880000Y-94040000D03*
X131930000Y-94040000D03*
X126880000Y-96580000D03*
X131930000Y-96580000D03*
X126880000Y-99120000D03*
X131930000Y-99120000D03*
X126880000Y-101660000D03*
X131930000Y-101660000D03*
X126880000Y-104200000D03*
X131930000Y-104200000D03*
X126880000Y-106740000D03*
X131930000Y-106740000D03*
X126880000Y-109280000D03*
X131930000Y-109280000D03*
%TD*%
D25*
%TO.C,IC1*%
X135870000Y-85280000D03*
X135870000Y-86550000D03*
X135870000Y-87820000D03*
X135870000Y-89090000D03*
X135870000Y-90360000D03*
X135870000Y-91630000D03*
X135870000Y-92900000D03*
X135870000Y-94170000D03*
X135870000Y-95440000D03*
X135870000Y-96710000D03*
X135870000Y-97980000D03*
X135870000Y-99250000D03*
X135870000Y-100520000D03*
X135870000Y-101790000D03*
D26*
X137635000Y-103040000D03*
X138905000Y-103040000D03*
X140175000Y-103040000D03*
X141445000Y-103040000D03*
X142715000Y-103040000D03*
X143985000Y-103040000D03*
X145255000Y-103040000D03*
X146525000Y-103040000D03*
X147795000Y-103040000D03*
X149065000Y-103040000D03*
X150335000Y-103040000D03*
X151605000Y-103040000D03*
D25*
X153370000Y-101790000D03*
X153370000Y-100520000D03*
X153370000Y-99250000D03*
X153370000Y-97980000D03*
X153370000Y-96710000D03*
X153370000Y-95440000D03*
X153370000Y-94170000D03*
X153370000Y-92900000D03*
X153370000Y-91630000D03*
X153370000Y-90360000D03*
X153370000Y-89090000D03*
X153370000Y-87820000D03*
X153370000Y-86550000D03*
X153370000Y-85280000D03*
D27*
X143120000Y-93000000D03*
X143120000Y-91600000D03*
X141720000Y-91600000D03*
X141720000Y-93000000D03*
X141720000Y-94400000D03*
X143120000Y-94400000D03*
X144520000Y-94400000D03*
X144520000Y-93000000D03*
X144520000Y-91600000D03*
%TD*%
D10*
%TO.C,C1*%
X137940000Y-107740000D03*
X137940000Y-106015000D03*
%TD*%
D11*
%TO.C,R1*%
X139450000Y-107780000D03*
X139450000Y-105955000D03*
%TD*%
M02*
